<svg width="114" height="27" xmlns="http://www.w3.org/2000/svg"><g fill-rule="nonzero" fill="none"><path d="M4.807 14.744v7.338H8.06c1.56 0 3.113-.365 3.739-.896.625-.532.938-1.456.938-2.773 0-1.34-.327-2.302-.98-2.889-.653-.586-2.192-.78-3.697-.78H4.807Zm0-9.662v5.76H8.06c1.24 0 1.923-.245 2.448-.688.526-.443.789-1.173.789-2.192 0-1.018-.269-1.757-.805-2.216-.537-.46-1.215-.664-2.432-.664H4.807ZM1.075 1.181h6.986c2.755 0 4.828.523 6.217 1.569.676.509.631 1.031.978 1.785.366.796.55 1.727.55 2.795 0 1.594-.41 2.84-1.23 3.736-.818.896-1.463 1.525-3.046 1.67 1.893.188 3.318.824 4.275 1.909.958 1.084 1.436 2.6 1.436 4.548 0 2.391-.72 4.123-2.158 5.197-1.439 1.073-3.78 1.61-7.022 1.61H1.075a1 1 0 0 1-1-1V2.18a1 1 0 0 1 1-1ZM27.189 5.17c-1.25 0-2.164.667-2.74 2.001-.575 1.334-.691 3.448-.691 6.425 0 2.966.116 5.158.692 6.491.575 1.334 1.488 2 2.739 2 1.262 0 2.18-.666 2.756-2 .575-1.333.722-3.483.722-6.45 0-2.977-.147-5.132-.722-6.466-.576-1.334-1.494-2-2.756-2Zm-8.7 8.467c0-4.238.734-7.443 2.2-9.612 1.467-2.17 3.633-3.254 6.5-3.254 2.877 0 5.05 1.085 6.516 3.254 1.466 2.17 2.2 5.374 2.2 9.612 0 4.228-.734 7.427-2.2 9.596-1.466 2.17-3.639 3.254-6.516 3.254-2.867 0-5.033-1.085-6.5-3.254-1.466-2.17-2.2-5.368-2.2-9.596ZM46.73 5.323c-1.251 0-2.164.667-2.74 2-.575 1.334-.563 3.49-.563 6.467 0 2.966-.012 5.116.563 6.45.576 1.333 1.489 2 2.74 2 1.261 0 2.18-.667 2.755-2 .576-1.334.666-3.525.666-6.492 0-2.977-.09-5.09-.666-6.424-.575-1.334-1.494-2-2.756-2Zm-8.7 8.467c0-4.239.733-7.443 2.2-9.612 1.466-2.17 3.633-3.254 6.5-3.254 2.877 0 5.049 1.084 6.516 3.254 1.466 2.169 2.2 5.373 2.2 9.612 0 4.228-.734 7.426-2.2 9.596-1.467 2.169-3.639 3.254-6.517 3.254-2.866 0-5.033-1.085-6.5-3.254-1.466-2.17-2.199-5.368-2.199-9.596Z" fill="#000"/><path d="M69.636 5.696c-.514 0-1.283 3.381-2.308 10.144h4.632c-1.036-6.763-1.81-10.144-2.324-10.144Zm-2.223-4.482h4.462a1 1 0 0 1 .965.74L79.331 26h-4.116a1 1 0 0 1-.97-.758l-1.339-5.368H66.35l-1.308 5.363a1 1 0 0 1-.972.763h-4.112l6.49-24.047a1 1 0 0 1 .966-.74ZM86.466 6.331v5.272a1 1 0 0 0 1 1h1.009c1.604 0 2.73-.272 3.378-.814.647-.542.971-1.483.971-2.822 0-1.34-.324-2.28-.971-2.822-.647-.543-1.774-.814-3.378-.814h-1.01a1 1 0 0 0-1 1Zm-3.898-5.117h5.724c3.42 0 5.88.609 7.38 1.826s2.249 3.193 2.249 5.927c0 2.734-.75 4.71-2.25 5.927-1.5 1.217-3.96 1.826-7.379 1.826h-1.826V25a1 1 0 0 1-1 1h-2.898a1 1 0 0 1-1-1V2.214a1 1 0 0 1 1-1ZM99.204 4.53V2.214a1 1 0 0 1 1-1h12.759a1 1 0 0 1 1 1V4.53a1 1 0 0 1-1 1h-3.93v16.154h3.93a1 1 0 0 1 1 1V25a1 1 0 0 1-1 1h-12.759a1 1 0 0 1-1-1v-2.316a1 1 0 0 1 1-1h3.93V5.53h-3.93a1 1 0 0 1-1-1Z" fill="#4285F4"/></g></svg>