<svg width="677" height="182" viewBox="0 0 677 182" fill="none" xmlns="http://www.w3.org/2000/svg">
<path d="M122.992 43.84C122.992 52 120.112 59.056 114.352 65.008C108.592 70.864 100.192 75.088 89.152 77.68C95.104 79.312 99.616 82 102.688 85.744C105.76 89.392 107.296 93.616 107.296 98.416C107.296 106 104.896 112.576 100.096 118.144C95.392 123.712 88.48 128.032 79.36 131.104C70.24 134.08 59.248 135.568 46.384 135.568C41.584 135.568 37.744 135.424 34.864 135.136C34.768 137.824 33.616 139.84 31.408 141.184C29.2 142.528 26.368 143.2 22.912 143.2C19.456 143.2 17.056 142.432 15.712 140.896C14.464 139.36 13.936 137.104 14.128 134.128C14.992 120.688 16.672 106.624 19.168 91.936C21.664 77.152 24.832 62.896 28.672 49.168C29.344 46.768 30.688 45.088 32.704 44.128C34.72 43.168 37.36 42.688 40.624 42.688C46.48 42.688 49.408 44.32 49.408 47.584C49.408 48.928 49.12 50.464 48.544 52.192C46.048 59.68 43.552 69.856 41.056 82.72C38.56 95.488 36.784 107.68 35.728 119.296C40.336 119.68 44.08 119.872 46.96 119.872C60.4 119.872 70.24 117.952 76.48 114.112C82.816 110.176 85.984 105.184 85.984 99.136C85.984 94.912 84.16 91.36 80.512 88.48C76.96 85.6 70.96 84.016 62.512 83.728C60.592 83.632 59.248 83.152 58.48 82.288C57.712 81.424 57.328 80.032 57.328 78.112C57.328 75.328 57.904 73.072 59.056 71.344C60.208 69.616 62.32 68.704 65.392 68.608C72.208 68.416 78.352 67.408 83.824 65.584C89.392 63.76 93.76 61.216 96.928 57.952C100.096 54.592 101.68 50.704 101.68 46.288C101.68 40.72 98.944 36.352 93.472 33.184C88 29.92 79.6 28.288 68.272 28.288C58 28.288 48.064 29.632 38.464 32.32C28.864 34.912 20.704 38.224 13.984 42.256C10.912 44.08 8.32 44.992 6.208 44.992C4.48 44.992 3.136 44.416 2.176 43.264C1.312 42.016 0.88 40.48 0.88 38.656C0.88 36.256 1.36 34.192 2.32 32.464C3.376 30.736 5.824 28.768 9.664 26.56C17.728 21.952 27.184 18.352 38.032 15.76C48.88 13.168 59.968 11.872 71.296 11.872C88.672 11.872 101.632 14.8 110.176 20.656C118.72 26.512 122.992 34.24 122.992 43.84ZM131.433 136.72C127.785 136.72 125.193 134.8 123.657 130.96C122.217 127.12 121.497 120.976 121.497 112.528C121.497 100.048 123.273 88.192 126.825 76.96C127.689 74.176 129.081 72.16 131.001 70.912C133.017 69.568 135.801 68.896 139.353 68.896C141.273 68.896 142.617 69.136 143.385 69.616C144.153 70.096 144.537 71.008 144.537 72.352C144.537 73.888 143.817 77.344 142.377 82.72C141.417 86.56 140.649 89.92 140.073 92.8C139.497 95.68 139.017 99.232 138.633 103.456C141.801 95.2 145.353 88.48 149.289 83.296C153.225 78.112 157.065 74.416 160.809 72.208C164.649 70 168.153 68.896 171.321 68.896C177.561 68.896 180.681 72.016 180.681 78.256C180.681 79.504 180.249 82.528 179.385 87.328C178.617 91.168 178.233 93.568 178.233 94.528C178.233 97.888 179.433 99.568 181.833 99.568C184.521 99.568 187.977 97.456 192.201 93.232C193.449 91.984 194.745 91.36 196.089 91.36C197.337 91.36 198.297 91.936 198.969 93.088C199.737 94.144 200.121 95.584 200.121 97.408C200.121 100.96 199.161 103.744 197.241 105.76C194.553 108.544 191.385 110.944 187.737 112.96C184.185 114.88 180.393 115.84 176.361 115.84C171.273 115.84 167.385 114.544 164.697 111.952C162.105 109.36 160.809 105.856 160.809 101.44C160.809 100 160.953 98.56 161.241 97.12C161.433 95.2 161.529 93.904 161.529 93.232C161.529 91.696 161.001 90.928 159.945 90.928C158.505 90.928 156.585 92.56 154.185 95.824C151.881 98.992 149.577 103.216 147.273 108.496C144.969 113.776 143.097 119.344 141.657 125.2C140.601 129.712 139.353 132.784 137.913 134.416C136.569 135.952 134.409 136.72 131.433 136.72ZM204.452 136.72C198.5 136.72 193.748 134.56 190.196 130.24C186.644 125.92 184.868 120.256 184.868 113.248C184.868 105.568 186.644 98.32 190.196 91.504C193.748 84.592 198.452 79.072 204.308 74.944C210.26 70.72 216.548 68.608 223.172 68.608C225.284 68.608 226.676 69.04 227.348 69.904C228.116 70.672 228.74 72.112 229.22 74.224C231.236 73.84 233.348 73.648 235.556 73.648C240.26 73.648 242.612 75.328 242.612 78.688C242.612 80.704 241.892 85.504 240.452 93.088C238.244 104.128 237.14 111.808 237.14 116.128C237.14 117.568 237.476 118.72 238.148 119.584C238.916 120.448 239.876 120.88 241.028 120.88C242.852 120.88 245.06 119.728 247.652 117.424C250.244 115.024 253.748 111.184 258.164 105.904C259.316 104.56 260.612 103.888 262.052 103.888C263.3 103.888 264.26 104.464 264.932 105.616C265.7 106.768 266.084 108.352 266.084 110.368C266.084 114.208 265.172 117.184 263.348 119.296C259.412 124.192 255.236 128.32 250.82 131.68C246.404 135.04 242.132 136.72 238.004 136.72C234.836 136.72 231.908 135.664 229.22 133.552C226.628 131.344 224.66 128.368 223.316 124.624C218.324 132.688 212.036 136.72 204.452 136.72ZM209.636 122.176C211.748 122.176 213.764 120.928 215.684 118.432C217.604 115.936 218.996 112.624 219.86 108.496L225.188 82C221.156 82.096 217.412 83.632 213.956 86.608C210.596 89.488 207.908 93.328 205.892 98.128C203.876 102.928 202.868 108.016 202.868 113.392C202.868 116.368 203.444 118.576 204.596 120.016C205.844 121.456 207.524 122.176 209.636 122.176ZM264.605 136.72C260.957 136.72 258.365 134.8 256.829 130.96C255.389 127.12 254.669 120.976 254.669 112.528C254.669 100.048 256.445 88.192 259.997 76.96C260.861 74.176 262.253 72.16 264.173 70.912C266.189 69.568 268.973 68.896 272.525 68.896C274.445 68.896 275.789 69.136 276.557 69.616C277.325 70.096 277.709 71.008 277.709 72.352C277.709 73.888 276.989 77.344 275.549 82.72C274.589 86.56 273.821 89.92 273.245 92.8C272.669 95.68 272.189 99.232 271.805 103.456C274.973 95.2 278.525 88.48 282.461 83.296C286.397 78.112 290.237 74.416 293.981 72.208C297.821 70 301.325 68.896 304.493 68.896C310.733 68.896 313.853 72.016 313.853 78.256C313.853 82 312.797 88.768 310.685 98.56C308.861 106.912 307.949 112.432 307.949 115.12C307.949 118.96 309.341 120.88 312.125 120.88C314.045 120.88 316.301 119.728 318.893 117.424C321.581 115.024 325.133 111.184 329.549 105.904C330.701 104.56 331.997 103.888 333.437 103.888C334.685 103.888 335.645 104.464 336.317 105.616C337.085 106.768 337.469 108.352 337.469 110.368C337.469 114.208 336.557 117.184 334.733 119.296C330.605 124.384 326.141 128.56 321.341 131.824C316.637 135.088 311.261 136.72 305.213 136.72C300.317 136.72 296.621 135.328 294.125 132.544C291.629 129.664 290.381 125.536 290.381 120.16C290.381 117.472 291.053 112.672 292.397 105.76C293.645 99.712 294.269 95.536 294.269 93.232C294.269 91.696 293.741 90.928 292.685 90.928C291.437 90.928 289.661 92.56 287.357 95.824C285.149 98.992 282.845 103.216 280.445 108.496C278.141 113.776 276.269 119.344 274.829 125.2C273.773 129.712 272.525 132.784 271.085 134.416C269.741 135.952 267.581 136.72 264.605 136.72ZM407.61 103.888C408.858 103.888 409.818 104.464 410.49 105.616C411.258 106.768 411.642 108.352 411.642 110.368C411.642 114.208 410.73 117.184 408.906 119.296C404.97 124.096 400.65 128.224 395.946 131.68C391.242 135.04 386.586 136.72 381.978 136.72C374.682 136.72 369.114 132.448 365.274 123.904C361.242 128.992 357.69 132.4 354.618 134.128C351.642 135.856 348.138 136.72 344.106 136.72C338.25 136.72 333.402 134.56 329.562 130.24C325.818 125.824 323.946 120.112 323.946 113.104C323.946 105.424 325.578 98.32 328.842 91.792C332.106 85.168 336.57 79.792 342.234 75.664C347.994 71.44 354.426 68.944 361.53 68.176C363.354 49.552 366.81 33.664 371.898 20.512C377.082 7.26399 383.85 0.639992 392.202 0.639992C396.33 0.639992 399.738 2.51199 402.426 6.256C405.21 9.99999 406.602 15.664 406.602 23.248C406.602 34 403.962 46.576 398.682 60.976C393.402 75.376 386.346 90.16 377.514 105.328C377.898 110.896 378.714 114.88 379.962 117.28C381.306 119.68 382.986 120.88 385.002 120.88C387.594 120.88 390.234 119.728 392.922 117.424C395.61 115.12 399.21 111.28 403.722 105.904C404.874 104.56 406.17 103.888 407.61 103.888ZM390.618 14.752C388.794 14.752 386.97 18.016 385.146 24.544C383.322 30.976 381.738 39.424 380.394 49.888C379.146 60.352 378.234 71.296 377.658 82.72C388.41 59.296 393.786 40.48 393.786 26.272C393.786 22.624 393.45 19.792 392.778 17.776C392.202 15.76 391.482 14.752 390.618 14.752ZM349.146 122.176C350.97 122.176 352.794 121.456 354.618 120.016C356.442 118.48 358.746 115.696 361.53 111.664C360.57 106.48 360.09 100.672 360.09 94.24C360.09 91.936 360.186 88.192 360.378 83.008C355.098 84.64 350.682 88.192 347.13 93.664C343.674 99.04 341.946 105.04 341.946 111.664C341.946 118.672 344.346 122.176 349.146 122.176ZM457.384 95.68C460.072 95.68 461.416 97.696 461.416 101.728C461.416 109.312 455.464 113.104 443.56 113.104C441.256 113.104 437.944 112.672 433.624 111.808C434.872 117.76 435.88 124.384 436.648 131.68C437.512 138.88 437.944 144.832 437.944 149.536C437.944 159.904 436.264 167.824 432.904 173.296C429.544 178.768 425.128 181.504 419.656 181.504C412.744 181.504 407.8 176.608 404.824 166.816C401.944 157.024 400.504 142.24 400.504 122.464C400.504 104.032 402.472 85.36 406.408 66.448C410.44 47.44 415.912 31.744 422.824 19.36C429.832 6.87999 437.512 0.639992 445.864 0.639992C450.376 0.639992 453.88 2.65599 456.376 6.68799C458.968 10.72 460.264 16.144 460.264 22.96C460.264 45.52 446.776 70.096 419.8 96.688C418.84 106.096 418.36 114.352 418.36 121.456C418.36 131.344 418.696 141.472 419.368 151.84C420.04 162.304 421.144 167.536 422.68 167.536C425.56 167.536 427 162.544 427 152.56C427 145.072 426.472 137.824 425.416 130.816C424.456 123.808 423.112 116.416 421.384 108.64C421.288 107.392 421.672 105.808 422.536 103.888C423.496 101.968 424.648 100.288 425.992 98.848C427.336 97.408 428.536 96.688 429.592 96.688C431.512 96.688 433.816 96.784 436.504 96.976C437.368 97.072 438.376 97.12 439.528 97.12C443.368 97.12 447.64 96.784 452.344 96.112C453.112 96.016 453.928 95.92 454.792 95.824C455.656 95.728 456.52 95.68 457.384 95.68ZM442.84 14.896C441.112 14.896 438.952 17.824 436.36 23.68C433.864 29.536 431.368 37.312 428.872 47.008C426.376 56.608 424.216 66.784 422.392 77.536C430.072 68.8 435.976 59.728 440.104 50.32C444.232 40.816 446.344 31.936 446.44 23.68C446.44 17.824 445.24 14.896 442.84 14.896ZM514.777 103.888C516.025 103.888 516.985 104.464 517.657 105.616C518.425 106.768 518.809 108.352 518.809 110.368C518.809 114.208 517.897 117.184 516.073 119.296C512.521 123.616 507.481 127.6 500.953 131.248C494.521 134.896 487.609 136.72 480.217 136.72C470.137 136.72 462.313 133.984 456.745 128.512C451.177 123.04 448.393 115.552 448.393 106.048C448.393 99.424 449.785 93.28 452.569 87.616C455.353 81.856 459.193 77.296 464.089 73.936C469.081 70.576 474.697 68.896 480.937 68.896C486.505 68.896 490.969 70.576 494.329 73.936C497.689 77.2 499.369 81.664 499.369 87.328C499.369 93.952 496.969 99.664 492.169 104.464C487.465 109.168 479.449 112.912 468.121 115.696C470.521 120.112 475.081 122.32 481.801 122.32C486.121 122.32 491.017 120.832 496.489 117.856C502.057 114.784 506.857 110.8 510.889 105.904C512.041 104.56 513.337 103.888 514.777 103.888ZM478.489 83.008C474.937 83.008 471.913 85.072 469.417 89.2C467.017 93.328 465.817 98.32 465.817 104.176V104.464C471.481 103.12 475.945 101.104 479.209 98.416C482.473 95.728 484.105 92.608 484.105 89.056C484.105 87.232 483.577 85.792 482.521 84.736C481.561 83.584 480.217 83.008 478.489 83.008ZM571.308 103.888C572.556 103.888 573.516 104.464 574.188 105.616C574.956 106.768 575.34 108.352 575.34 110.368C575.34 114.208 574.428 117.184 572.604 119.296C568.476 124.384 563.964 128.56 559.068 131.824C554.172 135.088 548.556 136.72 542.22 136.72C522.636 136.72 512.844 122.944 512.844 95.392C512.844 91.168 512.988 86.896 513.276 82.576H507.66C504.78 82.576 502.812 82.048 501.756 80.992C500.796 79.936 500.316 78.256 500.316 75.952C500.316 70.576 502.476 67.888 506.796 67.888H515.004C516.636 57.328 519.132 47.68 522.492 38.944C525.852 30.208 529.884 23.248 534.588 18.064C539.388 12.88 544.524 10.288 549.996 10.288C554.028 10.288 557.196 12.064 559.5 15.616C561.804 19.168 562.956 23.632 562.956 29.008C562.956 43.888 556.716 56.848 544.236 67.888H560.364C561.9 67.888 563.004 68.224 563.676 68.896C564.348 69.568 564.684 70.816 564.684 72.64C564.684 79.264 559.26 82.576 548.412 82.576H530.844C530.652 87.376 530.556 91.12 530.556 93.808C530.556 103.792 531.708 110.8 534.012 114.832C536.412 118.864 540.156 120.88 545.244 120.88C549.372 120.88 553.02 119.632 556.188 117.136C559.356 114.64 563.1 110.896 567.42 105.904C568.572 104.56 569.868 103.888 571.308 103.888ZM546.108 24.112C544.668 24.112 543.036 25.936 541.212 29.584C539.484 33.136 537.804 38.128 536.172 44.56C534.636 50.896 533.34 57.952 532.284 65.728C537.948 60.832 542.172 55.36 544.956 49.312C547.836 43.168 549.276 37.6 549.276 32.608C549.276 26.944 548.22 24.112 546.108 24.112ZM591.119 136.72C581.711 136.72 574.367 134.08 569.087 128.8C563.903 123.424 561.311 116.368 561.311 107.632C561.311 99.856 562.847 93.04 565.919 87.184C568.991 81.328 572.975 76.816 577.871 73.648C582.767 70.48 587.903 68.896 593.279 68.896C598.559 68.896 602.639 70.48 605.519 73.648C608.495 76.72 609.983 80.704 609.983 85.6C609.983 89.632 609.071 93.04 607.247 95.824C605.519 98.608 603.215 100 600.335 100C598.511 100 597.023 99.568 595.871 98.704C594.815 97.84 594.287 96.64 594.287 95.104C594.287 94.432 594.383 93.664 594.575 92.8C594.767 91.936 594.911 91.312 595.007 90.928C595.487 89.488 595.727 88.144 595.727 86.896C595.727 85.648 595.391 84.688 594.719 84.016C594.143 83.344 593.279 83.008 592.127 83.008C589.919 83.008 587.855 84.016 585.935 86.032C584.015 87.952 582.479 90.592 581.327 93.952C580.175 97.312 579.599 101.008 579.599 105.04C579.599 116.176 584.447 121.744 594.143 121.744C598.079 121.744 602.303 120.448 606.815 117.856C611.423 115.168 615.935 111.184 620.351 105.904C621.503 104.56 622.799 103.888 624.239 103.888C625.487 103.888 626.447 104.464 627.119 105.616C627.887 106.768 628.271 108.352 628.271 110.368C628.271 114.016 627.359 116.992 625.535 119.296C621.023 124.864 615.599 129.184 609.263 132.256C603.023 135.232 596.975 136.72 591.119 136.72ZM667.607 68.896C670.679 68.896 672.983 69.712 674.519 71.344C676.151 72.88 676.967 75.184 676.967 78.256C676.967 80.752 676.439 85.456 675.383 92.368C674.423 98.224 673.655 103.792 673.079 109.072C672.503 114.256 672.215 120.064 672.215 126.496C672.215 130.144 671.447 132.784 669.911 134.416C668.471 135.952 666.071 136.72 662.711 136.72C659.543 136.72 657.239 135.904 655.799 134.272C654.359 132.64 653.639 130.192 653.639 126.928C653.639 123.088 654.311 116.752 655.655 107.92C656.807 100.24 657.383 95.344 657.383 93.232C657.383 91.696 656.855 90.928 655.799 90.928C654.551 90.928 652.775 92.56 650.471 95.824C648.167 98.992 645.863 103.216 643.559 108.496C641.255 113.776 639.383 119.344 637.943 125.2C636.887 129.712 635.639 132.784 634.199 134.416C632.855 135.952 630.695 136.72 627.719 136.72C624.743 136.72 622.535 135.664 621.095 133.552C619.751 131.344 618.839 127.984 618.359 123.472C617.879 118.96 617.639 112.336 617.639 103.6C617.639 88.816 619.127 73.408 622.103 57.376C625.175 41.344 629.639 27.904 635.495 17.056C641.447 6.11199 648.551 0.639992 656.807 0.639992C661.223 0.639992 664.775 2.55999 667.463 6.39999C670.247 10.144 671.639 15.04 671.639 21.088C671.639 30.784 668.807 40.864 663.143 51.328C657.479 61.696 648.263 73.84 635.495 87.76C635.207 92.752 635.063 97.888 635.063 103.168C638.231 95.008 641.735 88.384 645.575 83.296C649.511 78.112 653.351 74.416 657.095 72.208C660.935 70 664.439 68.896 667.607 68.896ZM653.783 14.896C652.055 14.896 650.135 17.392 648.023 22.384C645.911 27.28 643.847 33.952 641.831 42.4C639.911 50.752 638.327 59.872 637.079 69.76C643.031 62.752 647.927 55.12 651.767 46.864C655.703 38.608 657.671 31.12 657.671 24.4C657.671 21.328 657.335 18.976 656.663 17.344C655.991 15.712 655.031 14.896 653.783 14.896Z" fill="#222222"/>
</svg>
