<svg id="Layer_1" style="enable-background:new -316 244.6 156 50;" version="1.1" viewBox="-316 244.6 156 50" x="0px" xml:space="preserve" xmlns="http://www.w3.org/2000/svg" xmlns:xlink="http://www.w3.org/1999/xlink" y="0px">
<style type="text/css">
	.st0{enable-background:new    ;}
	.st1{fill:#FFFFFF;}
	.st2{fill:#123962;}
</style>
<title>black</title>
<g class="st0">
<path class="st1" d="M-261.1,271.2v-3.4c0-3.4,1.5-4.8,5.4-4.8c0.9,0,2.2,0.2,3.1,0.5l-0.4,2.6c-0.9-0.2-2-0.3-2.6-0.3
		c-1.8,0-2.4,0.5-2.4,2.1v3.5c0,1.6,0.5,2.1,2.4,2.1c0.8,0,1.7-0.1,2.6-0.3l0.4,2.6c-0.8,0.3-2,0.5-3.1,0.5
		C-259.6,276.1-261.1,274.6-261.1,271.2z"></path>
<path class="st1" d="M-244.9,276.1c-4.3,0-5.5-2.4-5.5-5v-3.2c0-2.6,1.2-5,5.5-5c4.3,0,5.5,2.4,5.5,5v3.2
		C-239.4,273.7-240.6,276.1-244.9,276.1z M-244.9,265.6c-1.7,0-2.3,0.8-2.3,2.2v3.4c0,1.4,0.6,2.2,2.3,2.2s2.3-0.8,2.3-2.2v-3.4
		C-242.6,266.4-243.2,265.6-244.9,265.6z"></path>
<path class="st1" d="M-236.4,261.4v-3.7h3.2v3.7H-236.4z M-236.4,275.8v-12.6h3.2v12.6H-236.4z"></path>
<path class="st1" d="M-222.1,275.8V267c0-0.7-0.3-1-1-1c-0.8,0-2.2,0.5-3.3,1.1v8.8h-3.2v-12.6h2.4l0.3,1.1
		c1.6-0.8,3.6-1.3,5.1-1.3c2.1,0,2.9,1.5,2.9,3.7v9.2H-222.1z"></path>
<path class="st1" d="M-215.4,275.8V258l3.2-0.4v18.2H-215.4z"></path>
<path class="st1" d="M-199.3,275.8h-2.6l-0.2-0.9c-1.1,0.8-2.5,1.1-3.8,1.1c-2.3,0-3.3-1.6-3.3-3.8c0-2.6,1.1-3.6,3.7-3.6h3v-1.3
		c0-1.4-0.4-1.9-2.4-1.9c-1.1,0-2.4,0.2-3.5,0.4l-0.4-2.4c1.2-0.4,2.9-0.6,4.3-0.6c4,0,5.1,1.4,5.1,4.6V275.8z M-202.4,271h-2.3
		c-1,0-1.3,0.3-1.3,1.2c0,0.9,0.3,1.3,1.3,1.3c0.9,0,1.8-0.3,2.4-0.6V271z"></path>
<path class="st1" d="M-189.4,275.8l-1.7,5.1h-3l1.6-5.1h-1.1l-4-12.6h3.2l2.9,9.6l2.9-9.6h3.2L-189.4,275.8z"></path>
<path class="st1" d="M-178.6,273.5c1.2,0,2.5-0.2,3.9-0.6l0.5,2.4c-1.4,0.5-3.1,0.8-4.6,0.8c-4,0-5.3-1.8-5.3-4.9v-3.3
		c0-2.7,1.2-4.9,5.2-4.9c4,0,5,2.4,5,5.1v2.7h-7v0.6C-181.1,272.9-180.5,273.5-178.6,273.5z M-181.1,268.1h4v-0.6c0-1.2-0.4-2-1.9-2
		c-1.6,0-2.1,0.8-2.1,2V268.1z"></path>
<path class="st1" d="M-164.7,265.8c-1.2,0.5-2.2,1.1-3.3,1.8v8.1h-3.2v-12.6h2.7l0.2,1.4c0.7-0.5,2.2-1.3,3.3-1.7L-164.7,265.8z"></path>
</g>
<circle class="st2" cx="-393.9" cy="320.3" r="22.6"></circle>
<polygon class="st1" points="-293.4,266.5 -302.1,271.4 -310.6,266.5 -310.6,256.7 -302.1,251.8 -293.4,256.7 "></polygon>
<polygon class="st1" points="-273.1,266.5 -281.5,271.4 -289.9,266.5 -289.9,256.7 -281.5,251.8 -273.1,256.7 "></polygon>
<polygon class="st1" points="-283.2,283.9 -291.6,288.9 -300.3,283.9 -300.3,274.1 -291.6,269.2 -283.2,274.1 "></polygon>
</svg>