<?xml version="1.0" encoding="utf-8"?>
<!-- Generator: Adobe Illustrator 16.0.3, SVG Export Plug-In . SVG Version: 6.00 Build 0)  -->
<!DOCTYPE svg PUBLIC "-//W3C//DTD SVG 1.1//EN" "http://www.w3.org/Graphics/SVG/1.1/DTD/svg11.dtd">
<svg version="1.1" id="Layer_1" xmlns="http://www.w3.org/2000/svg" xmlns:xlink="http://www.w3.org/1999/xlink" x="0px" y="0px"
	 width="200px" height="100px" viewBox="0 0 200 100" enable-background="new 0 0 200 100" xml:space="preserve">
<g>
	<path fill="#FFFFFF" d="M80.405,86.316c-0.227,0.192-0.467,0.313-0.719,0.365c-0.254,0.052-0.494,0.079-0.721,0.079h-3.949
		c-0.314,0-0.586-0.057-0.811-0.17c-0.227-0.113-0.419-0.267-0.576-0.457c-0.157-0.191-0.288-0.409-0.393-0.651
		c-0.105-0.244-0.191-0.498-0.262-0.757l-0.811-3.339c-0.262,0.539-0.641,1.151-1.138,1.838c-0.497,0.688-1.13,1.331-1.897,1.931
		s-1.683,1.104-2.746,1.514c-1.064,0.407-2.285,0.612-3.662,0.612c-1.988,0-3.794-0.385-5.416-1.151
		c-1.62-0.768-3.004-1.812-4.146-3.14c-1.142-1.325-2.027-2.874-2.655-4.643c-0.629-1.771-0.942-3.657-0.942-5.664V55.549
		c0-0.661,0.145-1.164,0.433-1.503c0.287-0.341,0.744-0.511,1.373-0.511h6.043c0.75,0,1.265,0.127,1.543,0.38
		c0.279,0.253,0.419,0.747,0.419,1.479v17.049c0,0.75,0.171,1.462,0.511,2.134c0.34,0.673,0.789,1.267,1.346,1.78
		c0.559,0.516,1.191,0.922,1.898,1.217c0.705,0.298,1.424,0.447,2.157,0.447c0.628,0,1.277-0.149,1.948-0.447
		c0.672-0.294,1.291-0.693,1.859-1.189c0.564-0.498,1.032-1.083,1.398-1.754c0.366-0.674,0.549-1.386,0.549-2.136V55.473
		c0-0.296,0.057-0.594,0.172-0.89c0.111-0.296,0.283-0.524,0.51-0.681c0.225-0.14,0.439-0.236,0.64-0.287
		c0.202-0.053,0.432-0.08,0.692-0.08h5.912c0.75,0,1.291,0.184,1.622,0.55c0.33,0.366,0.497,0.854,0.497,1.466v29.275
		c0,0.331-0.074,0.637-0.223,0.914c-0.147,0.278-0.354,0.497-0.614,0.653L80.405,86.316z"/>
	<path fill="#FFFFFF" d="M88.253,48.355c0-0.539,0.178-0.947,0.537-1.215c0.355-0.271,0.865-0.529,1.529-0.773l5.938-2.066
		c0.086-0.018,0.17-0.025,0.249-0.025c0.078,0,0.152,0,0.222,0c0.646,0,1.078,0.188,1.295,0.562
		c0.218,0.375,0.327,0.868,0.327,1.478l-0.025,8.24h4.368c0.559,0,1.011,0.166,1.36,0.498c0.349,0.331,0.523,0.828,0.523,1.491v5.05
		c0,0.732-0.175,1.268-0.523,1.607c-0.35,0.34-0.802,0.511-1.36,0.511h-4.368l0.025,21.031c0,0.663-0.191,1.164-0.575,1.505
		c-0.383,0.34-0.915,0.51-1.596,0.51h-5.912c-1.343,0-2.015-0.673-2.015-2.016L88.226,63.71h-1.909
		c-1.342,0-2.014-0.706-2.014-2.119v-5.05c0-1.326,0.672-1.988,2.014-1.988h1.909L88.253,48.355z"/>
	<path fill="#FFFFFF" d="M109.561,48.355c0-0.539,0.181-0.947,0.536-1.215c0.358-0.271,0.867-0.529,1.532-0.773l5.938-2.066
		c0.087-0.018,0.17-0.025,0.248-0.025c0.079,0,0.153,0,0.223,0c0.644,0,1.077,0.188,1.293,0.562c0.22,0.375,0.328,0.868,0.328,1.478
		l-0.025,8.24h4.369c0.557,0,1.01,0.166,1.358,0.498c0.35,0.331,0.524,0.828,0.524,1.491v5.05c0,0.732-0.175,1.268-0.524,1.607
		c-0.349,0.34-0.802,0.511-1.358,0.511h-4.369l0.025,21.031c0,0.663-0.192,1.164-0.575,1.505c-0.384,0.34-0.914,0.51-1.597,0.51
		h-5.911c-1.344,0-2.017-0.673-2.017-2.016l-0.023-21.032h-1.912c-1.343,0-2.016-0.706-2.016-2.119v-5.05
		c0-1.326,0.673-1.988,2.016-1.988h1.912L109.561,48.355z"/>
	<path opacity="0.9" fill="#FFFFFF" enable-background="new    " d="M128.521,45.662c0-0.559,0.139-1.028,0.417-1.414
		c0.28-0.383,0.76-0.574,1.438-0.574h6.41c0.175,0,0.357,0.049,0.55,0.144c0.189,0.097,0.368,0.231,0.535,0.405
		c0.166,0.175,0.304,0.384,0.417,0.629c0.115,0.244,0.171,0.515,0.171,0.811v39.08c0,0.664-0.19,1.164-0.563,1.505
		c-0.375,0.339-0.858,0.509-1.452,0.509h-6.069c-0.679,0-1.158-0.17-1.438-0.509c-0.279-0.341-0.418-0.843-0.418-1.505
		L128.521,45.662L128.521,45.662z"/>
	<path opacity="0.9" fill="#FFFFFF" enable-background="new    " d="M140.543,56.046c-0.278-0.696-0.283-1.294-0.014-1.792
		c0.271-0.496,0.867-0.744,1.792-0.744h6.462c0.436,0,0.794,0.136,1.073,0.404c0.278,0.271,0.486,0.607,0.628,1.008l7.402,21.059
		l7.244-21.059c0.193-0.557,0.437-0.932,0.734-1.124c0.299-0.192,0.707-0.288,1.229-0.288h6.725c0.486,0,0.871,0.064,1.15,0.195
		c0.278,0.131,0.476,0.305,0.589,0.523c0.114,0.219,0.153,0.463,0.118,0.732c-0.035,0.271-0.104,0.535-0.21,0.799
		c-0.662,1.639-1.385,3.432-2.17,5.376c-0.784,1.943-1.601,3.968-2.446,6.067c-0.846,2.104-1.705,4.238-2.575,6.409
		c-0.873,2.171-1.722,4.304-2.552,6.397c-0.827,2.092-1.624,4.104-2.394,6.028c-0.767,1.927-1.469,3.698-2.106,5.311
		s-1.19,3.03-1.66,4.252c-0.47,1.221-0.828,2.162-1.072,2.825l0.078-0.131c-0.122,0.47-0.34,0.85-0.654,1.139
		c-0.314,0.288-0.698,0.431-1.152,0.431h-6.042c-0.784,0-1.322-0.153-1.609-0.458s-0.431-0.756-0.431-1.348
		c0-0.227,0.029-0.401,0.091-0.522c0.062-0.123,0.108-0.2,0.144-0.236l4.108-10.672L140.543,56.046z"/>
	<g>
		<g>
			<g>
				<path fill="#FFFFFF" d="M47.939,79.492c-0.386-1.086-0.665-2.215-0.844-3.383c-0.739,0.707-1.556,1.234-2.454,1.564
					c-0.956,0.35-1.924,0.499-2.904,0.442c-0.98-0.056-1.955-0.308-2.923-0.759c-0.968-0.449-1.859-1.081-2.673-1.895
					c-0.79-0.789-1.412-1.672-1.868-2.646c-0.456-0.973-0.725-1.963-0.805-2.967c-0.081-1.004,0.05-1.991,0.388-2.959
					c0.34-0.969,0.896-1.842,1.674-2.617c0.703-0.703,1.479-1.252,2.332-1.646c0.85-0.395,1.725-0.684,2.625-0.869
					c0.334-0.061,0.608-0.146,0.824-0.25c0.215-0.104,0.379-0.213,0.49-0.324c0.492-0.493,0.61-1.215,0.352-2.164l-1.148-4.439
					c-0.086-0.382-0.24-0.682-0.463-0.906c-0.319-0.32-0.668-0.509-1.044-0.564c-0.376-0.055-0.78-0.027-1.212,0.083l0.111,0.001
					c-1.702,0.295-3.302,0.836-4.8,1.618c-1.499,0.783-2.921,1.847-4.264,3.19c-1.11,1.111-2.037,2.322-2.784,3.635
					c-0.745,1.314-1.305,2.672-1.674,4.08c-0.369,1.405-0.558,2.845-0.564,4.318c-0.006,1.475,0.18,2.916,0.556,4.328
					c0.377,1.412,0.944,2.786,1.702,4.127c0.758,1.335,1.705,2.572,2.84,3.707c1.134,1.135,2.367,2.077,3.699,2.829
					c1.331,0.755,2.706,1.319,4.124,1.704c1.418,0.382,2.864,0.57,4.337,0.563c1.475-0.007,2.917-0.19,4.329-0.555
					c1.412-0.363,2.774-0.919,4.087-1.666c0.275-0.155,0.543-0.325,0.811-0.498C49.581,83.109,48.624,81.419,47.939,79.492z"/>
			</g>
		</g>
	</g>
</g>
<g>
	<circle fill="#376CB2" stroke="#376CB2" stroke-width="2" stroke-miterlimit="10" cx="24.078" cy="20.077" r="1.44"/>
	<circle fill="#376CB2" stroke="#376CB2" stroke-width="2" stroke-miterlimit="10" cx="131.411" cy="26.166" r="1.441"/>
	<circle fill="#376CB2" stroke="#376CB2" stroke-width="2" stroke-miterlimit="10" cx="97.807" cy="5.022" r="1.44"/>
	<circle fill="#376CB2" stroke="#376CB2" stroke-width="2" stroke-miterlimit="10" cx="72.638" cy="17.119" r="1.44"/>
	<circle fill="#376CB2" stroke="#376CB2" stroke-width="2" stroke-miterlimit="10" cx="49.405" cy="6.091" r="1.44"/>
	<circle fill="#376CB2" stroke="#376CB2" stroke-width="2" stroke-miterlimit="10" cx="175.658" cy="3.439" r="1.441"/>
	<line fill="none" stroke="#376CB2" stroke-width="0.75" stroke-miterlimit="10" x1="24.078" y1="20.077" x2="49.405" y2="6.091"/>
	<line fill="none" stroke="#376CB2" stroke-width="0.75" stroke-miterlimit="10" x1="49.405" y1="6.091" x2="72.638" y2="17.119"/>
	<line fill="none" stroke="#376CB2" stroke-width="0.75" stroke-miterlimit="10" x1="72.638" y1="17.119" x2="97.807" y2="5.022"/>
	<line fill="none" stroke="#376CB2" stroke-width="0.75" stroke-miterlimit="10" x1="97.807" y1="5.022" x2="131.412" y2="26.165"/>
	<line fill="none" stroke="#376CB2" stroke-width="0.75" stroke-miterlimit="10" x1="131.354" y1="26.848" x2="175.658" y2="3.44"/>
</g>
</svg>
