<?xml version="1.0" encoding="utf-8"?>
<!-- Generator: Adobe Illustrator 25.4.1, SVG Export Plug-In . SVG Version: 6.00 Build 0)  -->
<svg version="1.1" id="Layer_1" xmlns="http://www.w3.org/2000/svg" xmlns:xlink="http://www.w3.org/1999/xlink" x="0px" y="0px"
	 viewBox="0 0 833 185" style="enable-background:new 0 0 833 185;" xml:space="preserve">
<style type="text/css">
	.st0{fill:#1F2937;}
	.st1{fill:url(#SVGID_1_);}
</style>
<path class="st0" d="M832.7,117.1c0,1.5-0.8,2.4-2.4,2.4h-38.2v2.2c0,6.9,4.4,10.5,11.7,10.5c6.1,0,12-1.7,17.2-4.9
	c0.7-0.7,2-0.7,2.7,0c0.2,0.2,0.3,0.3,0.3,0.5l7.1,9.3c0.8,1,0.7,2.4-0.2,3.2l-0.2,0.2c-7.9,6.1-17.6,9.1-27.5,8.9
	c-17.6,0-31.8-9.3-31.8-28v-17.2c0-20.1,14.2-28.7,31.4-28.7c16.6,0,30.1,8.4,30.1,28.7L832.7,117.1z M812.9,103.3
	c0-7.3-4.4-10.6-10.5-10.6s-10.5,3.2-10.5,10.6v2.9h21V103.3z"/>
<path class="st0" d="M749.2,149.4c-15.9,0-25-9.8-25-26.2V53.5c-0.2-1.2,0.7-2.2,1.9-2.4c0.2,0,0.3,0,0.7,0h15.9
	c1.5,0,2.4,0.8,2.4,2.4v67.2c0,6.8,2.7,9.8,7.9,9.8c1.4,0,2.9,0,4.2-0.2c1.2-0.3,2.2,0.5,2.5,1.5c0,0.2,0,0.5,0,0.7V146
	c0,1.2-0.5,2.4-1.5,2.4C755.3,149,752.2,149.4,749.2,149.4z"/>
<path class="st0" d="M685.6,149.4c-20.4,0-32.1-11.3-32.1-29.4v-15.2c0-17.9,11.8-29.2,31.9-29.2c7.8,0,15.5,2.2,22.1,6.4
	c1,0.7,1.5,2,0.8,3c0,0.2-0.2,0.2-0.2,0.3l-7.1,10.8c-0.8,1.4-1.9,1.5-3.4,0.8c-3.5-2-7.4-3-11.3-3c-7.4,0-11.8,4.1-11.8,11v15.2
	c0,7.6,4.7,11.1,11.8,11.1c4.6,0,9.1-1.4,13-3.9c1-0.8,2.4-0.5,3.2,0.3c0,0.2,0.2,0.2,0.2,0.3l7.3,10.8c0.8,1,0.7,2.4-0.2,3
	l-0.2,0.2C702.5,146.9,694.3,149.6,685.6,149.4z"/>
<path class="st0" d="M614.8,79.7c0-1.2,0.8-2.2,2-2.4c0.2,0,0.3,0,0.5,0h15.9c1.2-0.2,2.2,0.7,2.4,1.9c0,0.2,0,0.3,0,0.5v61.1
	c0,23.5-9.8,34.1-32.1,34.1c-11.5,0-19.6-2.2-26.9-7.4c-1-0.5-1.5-1.7-1-2.7c0-0.2,0.2-0.3,0.3-0.5l7.1-11c0.5-1,1.7-1.5,2.9-1
	c0.2,0,0.2,0.2,0.3,0.2c4.9,3,10.6,4.6,16.4,4.6c8.1,0,12.8-3,12.7-13.2c-4.1,1.2-8.1,1.9-12.3,1.9c-16.4,0-28.7-10.5-28.7-28.9
	V79.7c0-1.2,0.8-2.2,2-2.4c0.2,0,0.3,0,0.5,0h15.9c1.2-0.2,2.2,0.7,2.4,1.9c0,0.2,0,0.3,0,0.5v36.8c0,7.9,4.4,11.5,11.2,11.5
	c3,0,6.1-0.7,8.8-1.9V79.7H614.8z"/>
<path class="st0" d="M527.8,149.4c-23.8,0-39.5-12.5-39.5-36.1v-28c0-23.5,15.9-36,39-36c10.3,0,20.4,2.9,28.9,8.6
	c1,0.3,1.5,1.5,1,2.5c-0.2,0.2-0.2,0.3-0.3,0.5l-8.5,13c-0.5,1-1.9,1.5-3,1c-0.2,0-0.3-0.2-0.3-0.3c-5.2-3.2-11.2-4.9-17.4-4.9
	c-11.3,0-17.4,6.4-17.4,16.2v26.5c0,10.5,6.4,16.4,17.6,16.4c6.8,0,13.2-2,18.8-5.7c1.4-1,2.4-0.8,3.2,0.5l8.6,13
	c0.8,1.2,0.8,2.4-0.2,3C549.6,146.2,538.8,149.6,527.8,149.4z"/>
<path class="st0" d="M422,147.5c-1.2,0-2.2-0.7-2.5-1.9L396.8,80c-0.7-1.7,0.2-2.7,1.9-2.7h17.1c1.2-0.2,2.4,0.7,2.5,1.9l8.3,29.5
	c1.5,4.6,3.4,11.8,4.9,17.7h0.3c1.5-5.9,3.5-13.2,4.9-17.7l8.4-29.5c0.3-1.2,1.5-2,2.7-1.9h16.9c1.7,0,2.4,1,1.9,2.7l-23,65.7
	c-0.3,1.2-1.5,1.9-2.7,1.9H422z"/>
<path class="st0" d="M387.3,117.1c0,1.5-0.8,2.4-2.4,2.4h-38.2v2.2c0,6.9,4.4,10.5,11.7,10.5c6.1,0,12-1.7,17.2-4.9
	c0.7-0.7,2-0.7,2.7,0c0.2,0.2,0.3,0.3,0.3,0.5l7.1,9.3c0.8,1,0.7,2.4-0.2,3.2l-0.2,0.2c-7.9,6.1-17.6,9.1-27.5,8.9
	c-17.6,0-31.8-9.3-31.8-28v-17.2c0-20.1,14.2-28.7,31.4-28.7c16.6,0,30.1,8.4,30.1,28.7v13H387.3z M367.6,103.3
	c0-7.3-4.4-10.6-10.5-10.6c-6.1,0-10.5,3.2-10.5,10.6v2.9h20.8v-2.9H367.6z"/>
<path class="st0" d="M238.6,147.5c-1.2,0.2-2.2-0.7-2.4-1.9c0-0.2,0-0.3,0-0.7V53.5c-0.2-1.2,0.7-2.2,1.9-2.4c0.2,0,0.3,0,0.7,0
	h33.3c21.6,0,38.2,9.8,38.2,37.6v21.4c0,28-16.6,37.5-38.2,37.5h-33.5V147.5z M257.9,127.1h14.2c10.5,0,15.7-4.9,15.7-16V87.6
	c0-11.1-5.2-16.4-15.7-16.4h-14.2V127.1z"/>
<linearGradient id="SVGID_1_" gradientUnits="userSpaceOnUse" x1="22.6681" y1="-7.9396" x2="117.2591" y2="136.955" gradientTransform="matrix(1 0 0 -1 0 186)">
	<stop  offset="0" style="stop-color:#0EA5E9"/>
	<stop  offset="1" style="stop-color:#1D4ED8"/>
</linearGradient>
<path class="st1" d="M84.7,185c-11,0-21.1-6.2-26-16c-0.7-1.2,0-2.7,1.2-3.4H60l5.6-2.2c1.2-0.5,2.5,0,3,1.2
	c4.7,8.9,15.9,12.3,24.7,7.4c3.2-1.7,5.7-4.4,7.4-7.4c0.5-1.2,1.9-1.7,3-1.2l5.6,2.2c1.4,0.5,1.9,2,1.4,3.2v0.2
	C105.8,178.8,95.7,185,84.7,185z M119.1,49.1H90.1V32.9c8.8-3,13.5-12.7,10.6-21.4C97.7,2.7,88-2,79.3,0.8S65.7,13.5,68.6,22.3
	c1.7,4.9,5.6,8.9,10.6,10.6v16.2H50.2C22.5,49.3,0,71.6,0,99.2c0,27.7,22.5,50,50,50h69c27.7,0,50-22.5,50-50.1
	C169.2,71.6,146.7,49.3,119.1,49.1z M84.7,11c3.4,0,6.1,2.7,6.1,6.1s-2.7,6.1-6.1,6.1s-6.1-2.7-6.1-6.1S81.3,11,84.7,11z
	 M119.1,138.4H77.6c-12.8,0-24.8-6.4-32.1-16.9c12.3,2.9,24.7-4.9,27.5-17.4c2.9-12.3-4.9-24.6-17.4-27.5
	C43.3,73.8,30.9,81.5,28.1,94c-0.3,1.7-0.5,3.4-0.5,5.1c0,15.2,6.9,29.5,18.8,39C24.7,136,9,116.8,11.2,95.2
	c2-19.9,18.9-35.1,38.9-35.3h41.6c12.8,0,24.8,6.4,32.1,16.9c-1.7-0.3-3.4-0.5-5.1-0.5c-12.7,0-23,10.3-23,23c0,12.7,10.3,23,23,23
	s23-10.3,23-23c0-15.2-6.9-29.5-18.8-39c21.6,2.2,37.3,21.4,35.2,43C156,123.2,139.3,138.4,119.1,138.4z M38.4,99.2
	c0-6.8,5.4-12.2,12.2-12.2s12.2,5.4,12.2,12.2c0,6.8-5.4,12.2-12.2,12.2S38.4,106,38.4,99.2z M130.8,99.2c0,6.8-5.4,12.2-12.2,12.2
	s-12.2-5.4-12.2-12.2c0-6.8,5.4-12.2,12.2-12.2S130.8,92.5,130.8,99.2z"/>
</svg>
