<svg fill="none" height="80" viewBox="0 0 486 80" width="486" xmlns="http://www.w3.org/2000/svg">
<path d="M270.675 63.7537V19.1754H260.901V36.8195H242.879V19.1754H233.102V63.7517H242.879V45.8584H260.901V63.7537H270.675ZM312.845 29.6255H302.815L295.386 52.8667L287.644 29.6255H277.429L290.757 63.882C290.459 64.5727 289.99 65.175 289.393 65.6312C288.787 65.9817 288.093 66.1483 287.395 66.1109C286.69 66.0984 285.993 65.9679 285.331 65.7247C284.611 65.4807 283.919 65.1611 283.266 64.7713L280.03 71.7789C281.251 72.4973 282.55 73.0723 283.902 73.4927C285.425 73.9427 287.007 74.1578 288.595 74.1308C289.884 74.1516 291.169 73.9798 292.408 73.621C293.498 73.287 294.504 72.7224 295.358 71.9653C296.3 71.1095 297.103 70.111 297.737 69.0061C298.546 67.5968 299.225 66.1165 299.765 64.5835L312.843 29.6248L312.845 29.6255ZM352.911 63.7537V17.2705H343.265V34.036C342.056 32.638 340.631 31.4449 339.044 30.5027C337.094 29.4253 334.889 28.9016 332.665 28.988C330.662 28.9819 328.677 29.3713 326.823 30.1339C324.958 30.899 323.281 32.0617 321.908 33.5415C320.426 35.1539 319.263 37.034 318.48 39.0819C317.573 41.4919 317.132 44.0531 317.18 46.6288V46.7577C317.132 49.3329 317.573 51.8937 318.48 54.3032C319.267 56.3556 320.442 58.2366 321.938 59.8436C323.331 61.316 325.017 62.4771 326.888 63.2512C328.72 64.0099 330.683 64.3993 332.665 64.3971C334.873 64.4787 337.06 63.942 338.98 62.847C340.649 61.8194 342.104 60.4786 343.266 58.8981V63.759L352.911 63.7537ZM343.388 46.7544C343.404 48.0761 343.178 49.3895 342.722 50.6297C342.321 51.7361 341.718 52.7576 340.943 53.6417C339.836 54.8743 338.369 55.7246 336.751 56.0714C335.134 56.4181 333.448 56.2436 331.936 55.5727C330.935 55.1157 330.039 54.4586 329.3 53.6417C328.508 52.7653 327.894 51.7422 327.493 50.6297C327.036 49.3898 326.808 48.0764 326.822 46.7544V46.6254C326.802 45.292 327.03 43.9666 327.493 42.7167C327.9 41.6177 328.514 40.6072 329.3 39.74C330.037 38.9194 330.934 38.2598 331.936 37.8024C332.947 37.3629 334.037 37.1362 335.14 37.1362C336.242 37.1362 337.332 37.3629 338.344 37.8024C339.337 38.2552 340.223 38.9159 340.941 39.74C341.717 40.6233 342.32 41.6451 342.719 42.7521C343.176 43.9922 343.401 45.3056 343.385 46.6274V46.7564L343.388 46.7544ZM382.19 39.114V28.988C379.315 28.8593 377.029 29.4949 375.331 30.895C373.562 32.4066 372.19 34.3309 371.335 36.4988V29.6255H361.688V63.7537H371.338V51.1475C371.338 47.0285 372.257 43.9924 374.095 42.0392C375.933 40.0859 378.462 39.1111 381.681 39.1147L382.19 39.114ZM417.625 63.7537V43.9521C417.625 39.3245 416.421 35.7151 414.011 33.124C411.601 30.5328 407.751 29.2379 402.462 29.2393C399.985 29.1965 397.513 29.4538 395.098 30.0056C393.103 30.5051 391.152 31.1645 389.262 31.9774L391.67 39.3659C393.128 38.8021 394.624 38.3447 396.147 37.9975C397.764 37.6595 399.412 37.4986 401.063 37.5178C403.476 37.5178 405.295 38.0501 406.52 39.1147C407.744 40.1793 408.359 41.7274 408.363 43.759V44.3323C407.129 43.9054 405.866 43.5651 404.585 43.314C403.088 43.041 401.569 42.9139 400.048 42.9345C398.177 42.9153 396.311 43.1399 394.498 43.6027C392.944 43.9898 391.478 44.6701 390.177 45.6071C388.98 46.4885 388.013 47.646 387.356 48.982C386.646 50.4931 386.299 52.1497 386.341 53.8195V53.9484C386.308 55.4946 386.623 57.0283 387.263 58.4351C387.851 59.6988 388.707 60.819 389.77 61.7178C390.862 62.6248 392.122 63.3061 393.478 63.7223C394.949 64.1749 396.48 64.4001 398.019 64.3904C400.091 64.4514 402.151 64.0479 404.048 63.2091C405.659 62.4545 407.104 61.3845 408.298 60.0621V63.753L417.625 63.7537ZM408.489 51.7201C408.51 52.554 408.334 53.3811 407.975 54.1336C407.617 54.8861 407.085 55.5425 406.425 56.0491C404.839 57.2203 402.899 57.8053 400.933 57.7048C399.58 57.7662 398.245 57.3864 397.126 56.6224C396.649 56.2733 396.267 55.8111 396.013 55.2773C395.758 54.7434 395.64 54.1546 395.668 53.5636V53.4406C395.636 52.7519 395.783 52.0667 396.095 51.4524C396.407 50.8381 396.873 50.3157 397.447 49.9368C398.918 49.0523 400.62 48.6302 402.333 48.7248C403.453 48.718 404.569 48.8359 405.663 49.0762C406.634 49.2893 407.581 49.599 408.49 50.0009V51.7201H408.489ZM457.254 63.7537V41.659C457.254 37.7097 456.249 34.611 454.239 32.3629C452.23 30.1148 449.385 28.9898 445.704 28.988C444.588 28.9717 443.476 29.1217 442.405 29.433C441.466 29.7242 440.569 30.1349 439.734 30.6551C438.945 31.1622 438.212 31.7527 437.548 32.4164C436.899 33.0706 436.296 33.7682 435.741 34.5044V29.6268H426.089V63.755H435.739V44.7586C435.739 42.4775 436.275 40.7456 437.353 39.587C437.922 38.9961 438.61 38.5343 439.371 38.2326C440.133 37.9308 440.95 37.7962 441.767 37.8378C442.571 37.7905 443.374 37.9229 444.121 38.2254C444.867 38.5279 445.537 38.993 446.082 39.587C447.095 40.7449 447.603 42.4775 447.603 44.7586V63.753L457.254 63.7537ZM484.884 62.3559V54.5879C483.422 55.3844 481.784 55.798 480.121 55.7905C478.05 55.7905 477.013 54.6907 477.013 52.4791V37.9033H485.004V29.6255H477.013V20.8973H467.362V29.6255H463.304V37.9033H467.362V54.0727C467.313 55.7486 467.559 57.4201 468.091 59.0098C468.516 60.2053 469.212 61.2851 470.126 62.1634C471.005 62.9771 472.073 63.5563 473.233 63.8479C474.55 64.182 475.904 64.3432 477.262 64.3276C479.935 64.3839 482.571 63.7018 484.883 62.3559H484.884Z" fill="#2D3748"></path>
<path d="M121.899 25.5334V38.9594H144.958V45.1933H121.899V63.8136H115.262V19.2394H147.697V25.5334H121.899ZM198.947 49.7682C199.117 50.8869 199.452 51.9739 199.941 52.9934C200.501 54.1587 201.279 55.2053 202.232 56.0763C203.139 56.9019 204.195 57.5461 205.343 57.9746C206.508 58.4059 207.741 58.624 208.983 58.6187C210.782 58.671 212.568 58.289 214.19 57.5049C215.696 56.7091 217.064 55.6754 218.243 54.4433L218.854 53.8113L223.111 57.6325L222.507 58.316C220.902 60.1478 218.98 61.6735 216.834 62.8194C214.355 64.035 211.618 64.628 208.86 64.5472C206.654 64.5573 204.467 64.1278 202.428 63.2838C200.442 62.465 198.639 61.2559 197.126 59.7278C195.577 58.1432 194.354 56.2687 193.526 54.2108C192.619 51.9676 192.164 49.5663 192.187 47.1457C192.173 44.8378 192.573 42.5463 193.368 40.3806C194.111 38.3374 195.236 36.4552 196.682 34.8349C198.101 33.2593 199.826 31.9905 201.751 31.1059C203.807 30.2001 206.03 29.7357 208.276 29.7423C210.522 29.749 212.742 30.2266 214.793 31.1446C216.69 32.0424 218.371 33.3417 219.721 34.9531C221.083 36.6117 222.11 38.5205 222.745 40.573C223.437 42.7756 223.782 45.073 223.768 47.3822V48.0557C223.766 48.3628 223.742 48.6693 223.698 48.9731L223.588 49.7636L198.947 49.7682ZM177.196 36.079C177.355 35.8527 177.519 35.63 177.689 35.4108C178.578 34.2618 179.625 33.2456 180.799 32.3928C181.97 31.5419 183.271 30.8875 184.65 30.4551C186.106 30.0117 187.624 29.8117 189.144 29.8631L190.035 29.8872V36.7692H188.757C187.217 36.7597 185.689 37.0478 184.257 37.6178C182.866 38.1755 181.616 39.0374 180.599 40.1407C179.492 41.368 178.646 42.8087 178.113 44.3749C177.469 46.2896 177.159 48.3011 177.195 50.3215V63.8143H170.682V30.4117H177.195L177.196 36.079ZM161.471 30.4117V63.8123H154.959V30.4117H161.471ZM154.654 25.349V18.3247H161.842V25.349H154.654ZM198.957 44.4584H217.021C216.878 43.4832 216.641 42.5241 216.314 41.5947C215.919 40.4496 215.317 39.387 214.54 38.4596C213.749 37.5174 212.757 36.7662 211.637 36.262C210.516 35.7577 209.297 35.5134 208.07 35.5471C206.887 35.5341 205.716 35.7852 204.642 36.2821C203.586 36.7805 202.635 37.4785 201.842 38.338C200.998 39.2573 200.318 40.315 199.831 41.465C199.422 42.4243 199.129 43.4292 198.957 44.4584Z" fill="#2D3748"></path>
<path d="M42.5653 54.69L37.134 36.2949L25.1926 48.8516L20.5797 33.0162L51.9355 0.00384521C15.3762 0.00384521 2.61176 17.3553 6.0799 31.8229L12.9722 59.0003C16.5869 71.7761 3.55338 78.457 0 79.9551C6.89099 80.1415 12.313 79.7846 17.1083 78.3013C26.348 75.6969 32.4352 69.3327 42.5653 54.69Z" fill="url(#paint0_linear)"></path>
<path d="M77.1757 21.0002C73.561 8.22497 86.5945 1.54339 90.1479 0.045378C83.2569 -0.141038 77.8349 0.215763 73.0396 1.69907C63.8019 4.30489 57.714 10.6678 47.5839 25.3111L53.0152 43.7062L64.9579 31.1495L69.5701 46.9848L38.2144 79.9972C74.7737 79.9972 87.5375 62.6472 84.0693 48.1782L77.1757 21.0002Z" fill="url(#paint1_linear)"></path>
<defs>
<linearGradient gradientUnits="userSpaceOnUse" id="paint0_linear" x1="80.0845" x2="15.1879" y1="0.00384831" y2="40.548">
<stop stop-color="#F9AF42"></stop>
<stop offset="1" stop-color="#F1592A"></stop>
</linearGradient>
<linearGradient gradientUnits="userSpaceOnUse" id="paint1_linear" x1="118.296" x2="53.4" y1="3.09392e-06" y2="40.5418">
<stop stop-color="#F9AF42"></stop>
<stop offset="1" stop-color="#F1592A"></stop>
</linearGradient>
</defs>
</svg>