<svg height="55.3" preserveaspectratio="xMidYMid meet" version="1.1" viewBox="0 0 109.6 55.3" width="109.6" x="0" xml:space="preserve" xmlns="http://www.w3.org/2000/svg" y="0"><path d="M12.5 49c0 3.5-2.8 6.3-6.3 6.3C2.8 55.3 0 52.5 0 49s2.8-6.3 6.3-6.3c3.4.1 6.2 2.9 6.2 6.3z"></path><path d="M0 33.3c0-.4 0-.8.1-1.1.1-1.2.4-2.3.9-3.4.9-1.9 2.3-3.4 4.1-4.4 1.6-.9 3.3-1.5 5.1-1.7 1-.1 2.1-.2 3.1-.2H37v.7c-.1 1.3-.4 2.6-.9 3.9-.9 1.9-2.4 3.5-4.4 4.5-1.5.8-3.2 1.3-4.9 1.6-1 .2-2.1.2-3.2.2H0z"></path><path d="M56.6 0c0 .6 0 1.3-.1 1.9-.3 1.9-1.2 3.7-2.5 5.1-1.2 1.2-2.6 2.1-4.1 2.7-1.8.7-3.6 1-5.5 1.1H.8v-.2c0-1.5.3-2.9.9-4.2.9-2 2.3-3.5 4.2-4.5C7.4 1 9.2.5 10.9.2 12 .1 13.1 0 14.1 0h42.5z"></path><path d="M80.8 54.6H78.4c0-.9 0-1.7-.1-2.6-.1.1-.2.2-.2.3-1.1 1.5-2.8 2.5-4.6 2.7-1.5.2-3-.1-4.3-.8-1.9-.9-3.2-2.6-3.7-4.6-.6-1.9-.4-4 .3-5.9.6-1.5 1.7-2.7 3.1-3.4 1.8-1 4-1.2 6-.6 1.4.4 2.6 1.2 3.4 2.4 0 0 .1.1.1.2v-.7c0-.4.1-.8.4-1.1.3-.5.8-.8 1.4-.8h.7l-.1 14.9zM73 52.7c.2 0 .6 0 .9-.1 1.3-.2 2.5-.9 3.3-2 1.1-1.5 1.4-3.5.8-5.3-.5-1.8-2-3.1-3.8-3.5-.8-.2-1.6-.2-2.4 0-1.9.3-3.5 1.6-4.1 3.5-.3.8-.4 1.6-.3 2.5.1.9.3 1.7.8 2.5 1.1 1.6 2.9 2.5 4.8 2.4z"></path><path d="M96.7 48.1c0 .3.1.5.1.7.4 1.8 1.8 3.2 3.7 3.6 2 .5 4.1.1 5.8-1 .4-.3 1-.3 1.4 0 .2.1.3.3.5.4s.3.3.5.4l-.3.3c-.9.9-2.1 1.6-3.4 2-1.7.5-3.6.6-5.4.1-2.1-.5-3.8-2-4.7-3.9-1-2.2-1-4.7 0-6.9.7-1.5 1.8-2.7 3.2-3.5 1.9-1 4-1.3 6.1-.8 1.1.2 2.2.7 3 1.5 1.1.9 1.8 2.2 2.1 3.5.3 1.1.3 2.3.2 3.4v.1l-12.8.1zm10.5-2.1c0-.2 0-.4-.1-.6-.2-1.6-1.3-3-2.8-3.5-1-.4-2-.5-3.1-.3-2.1.2-3.9 1.8-4.3 3.8 0 .2-.1.4-.1.6h10.4z"></path><path d="M45.4 54.6h-2.6v-.3-19.2c0-.9.7-1.7 1.7-1.8h12.8v.7c-.2.9-1 1.6-2 1.7h-9.6v7.4h10.8c.1.3.1.5 0 .8-.2.9-.9 1.5-1.8 1.6h-8.9v4.4l-.4 4.7z"></path><path d="M86.5 41.7c.1-.1.2-.2.2-.4.6-.9 1.5-1.5 2.6-1.8 1.7-.5 3.6-.2 5 .8.1.1.2.1.3.2l.1.1-1.3 1.9c-.4-.2-.7-.4-1-.5-2.2-.9-4.8.1-5.7 2.4-.2.6-.3 1.1-.3 1.7v8.4c-.8.1-1.6.1-2.5 0v-.2-12.8c0-1 .7-1.8 1.7-1.9h.6l.3 2.1z"></path><path d="M62.5 33.4v21.3h-2.4v-.4V44v-8.2c0-.7.3-1.3.7-1.8.5-.5 1.1-.7 1.7-.6z"></path></svg>