<svg version="1.1" id="Layer_1" xmlns:x="ns_extend;" xmlns:i="ns_ai;" xmlns:graph="ns_graphs;" xmlns="http://www.w3.org/2000/svg" xmlns:xlink="http://www.w3.org/1999/xlink" x="0px" y="0px" viewBox="0 0 340.6 45" style="enable-background:new 0 0 340.6 45;" xml:space="preserve">
 <style type="text/css">
  .st0{fill:#00BAFF;}
	.st1{fill:#FFFFFF;}
	.st2{fill:#262626;}
 </style>
 <metadata>
  <sfw xmlns="ns_sfw;">
   <slices>
   </slices>
   <sliceSourceBounds bottomLeftOrigin="true" height="45" width="340.6" x="29.4" y="-222.7">
   </sliceSourceBounds>
  </sfw>
 </metadata>
 <g>
  <path class="st0" d="M66.8,39.7c0,1.6-1.3,2.8-2.8,2.8H2.8C1.3,42.6,0,41.3,0,39.7V2.8C0,1.3,1.3,0,2.8,0h61.1
		c1.6,0,2.8,1.3,2.8,2.8L66.8,39.7L66.8,39.7z">
  </path>
  <path class="st1" d="M66.2,1.1C58.3,13.3,46,24.6,33.3,24.3c-4.7-0.1-10-1.4-14.5-5.1c-3.4-2.7-6.7-7-8-13.1H9.5
		c-2.1,0-3.3,1.8-3.1,3.5c0.1,0.4,0.2,0.8,0.2,1.3c1,5.9,4.5,12.7,10.4,17c4.6,3.4,10.2,5.6,16.4,5.6c11.1,0,23-7.1,33.4-25.3V2.8
		C66.8,2.2,66.6,1.5,66.2,1.1z">
  </path>
  <g>
   <path class="st2" d="M330.9,14c6.3,0,9.7,4.6,9.7,10.4c0,0.6-0.2,2.1-0.2,2.1h-15.1c0.5,3.9,3.3,5.9,6.6,5.9
			c3.5,0,6.2-2.4,6.2-2.4l2.3,3.8c0,0-3.4,3.3-8.8,3.3c-7.2,0-11.8-5.3-11.8-11.5C319.7,18.7,324.3,14,330.9,14z M335,22.6
			c-0.1-2.6-1.9-4.4-4.1-4.4c-2.8,0-4.8,1.7-5.3,4.4H335z M124.6,14c6.3,0,9.7,4.6,9.7,10.4c0,0.6-0.2,2.1-0.2,2.1h-15.1
			c0.5,3.9,3.3,5.9,6.6,5.9c3.5,0,6.2-2.4,6.2-2.4l2.3,3.8c0,0-3.4,3.3-8.8,3.3c-7.2,0-11.8-5.3-11.8-11.5
			C113.5,18.7,118.1,14,124.6,14z M128.7,22.6c-0.1-2.6-1.9-4.4-4.1-4.4c-2.8,0-4.8,1.7-5.3,4.4H128.7z M187.8,14
			c6.3,0,9.7,4.6,9.7,10.4c0,0.6-0.2,2.1-0.2,2.1h-15.1c0.5,3.9,3.3,5.9,6.6,5.9c3.5,0,6.2-2.4,6.2-2.4l2.3,3.8c0,0-3.4,3.3-8.8,3.3
			c-7.2,0-11.8-5.3-11.8-11.5C176.6,18.7,181.2,14,187.8,14z M191.9,22.6c-0.1-2.6-1.9-4.4-4.1-4.4c-2.8,0-4.8,1.7-5.3,4.4H191.9z
			 M275,20.1c0-0.6-0.3-0.9-0.9-0.9h-1.8v-4.7h5c1.9,0,2.9,0.9,2.9,2.4v0.6c0,0.5-0.1,0.9-0.1,0.9h0.1c0.9-1.8,3.3-4.6,7.8-4.6
			c4.9,0,7.6,2.5,7.6,8.3v8.5c0,0.6,0.3,0.9,0.9,0.9h1.8v4.6h-5.2c-2.1,0-2.9-0.8-2.9-2.9v-9.9c0-2.7-0.7-4.5-3.4-4.5
			c-2.9,0-5.1,1.8-5.9,4.5c-0.3,0.9-0.5,1.9-0.5,2.9v10.1H275L275,20.1L275,20.1z M258.9,14c6.7,0,12.1,4.8,12.1,11.5
			c0,6.8-5.3,11.5-12.1,11.5c-6.6,0-12-4.7-12-11.5S252.2,14,258.9,14z M258.9,32.3c3.6,0,6.6-2.7,6.6-6.9c0-4-3-6.9-6.6-6.9
			c-3.5,0-6.5,2.8-6.5,6.9C252.4,29.5,255.4,32.3,258.9,32.3z M244.3,25.4c0,6.8-3.8,11.5-9.7,11.5c-4.7,0-6.6-3.1-6.6-3.1H228
			c0,0,0.1,0.8,0.1,1.9V45h-5.5V20.1c0-0.6-0.4-0.9-0.9-0.9h-1.8v-4.7h4.8c2,0,2.8,0.8,2.8,1.9v0.8h0.1c0,0,1.8-3.2,6.8-3.2
			C240.2,14,244.3,18.5,244.3,25.4z M233.4,32.3c3.2,0,5.5-2.7,5.5-6.9c0-4.3-2.5-6.8-5.5-6.8c-3.7,0-5.5,3.4-5.5,6.8
			C227.8,30.2,230.5,32.3,233.4,32.3z M202.9,29.4c0,0,2.8,3.2,6.6,3.2c1.7,0,3-0.7,3-2.1c0-3.1-11.6-3.1-11.6-10.1
			c0-4.4,4-6.4,8.5-6.4c3,0,7.7,1,7.7,4.6v2.3h-4.8v-1.1c0-1.1-1.5-1.5-2.7-1.5c-1.9,0-3.3,0.7-3.3,2c0,3.4,11.7,2.7,11.7,10.1
			c0,4.1-3.7,6.7-8.5,6.7c-6,0-9.2-3.9-9.2-3.9L202.9,29.4z M302.8,29.4c0,0,2.8,3.2,6.6,3.2c1.7,0,3-0.7,3-2.1
			c0-3.1-11.6-3.1-11.6-10.1c0-4.4,4-6.4,8.5-6.4c3,0,7.7,1,7.7,4.6v2.3h-4.8v-1.1c0-1.1-1.5-1.5-2.7-1.5c-1.9,0-3.3,0.7-3.3,2
			c0,3.4,11.7,2.7,11.7,10.1c0,4.1-3.7,6.7-8.4,6.7c-6,0-9.2-3.9-9.2-3.9L302.8,29.4z M148.7,31.8c-1.5,0-4.3-0.5-4.3-4.1v-8.9h5v-2
			c0-1.6-0.7-2.3-2.3-2.3h-2.7V8.5H139v5.9h-3v4.3h2.8v9.5c0,7.3,6.1,8.2,9.2,8.2c1,0,1.7-0.2,1.7-0.2v-4.8
			C149.7,31.7,149.3,31.8,148.7,31.8z M97.4,5.3c7.5,0,11.1,3.9,11.1,3.9l-3.2,4c0,0-3.2-2.7-7.9-2.7c-5.3,0-9.8,4.2-9.8,10.4
			c0,6.6,4.6,10.8,10,10.8c4.9,0,7.8-3.2,7.8-3.2v-2.3c0-0.6-0.4-0.9-0.9-0.9h-1.8v-4.8h5c2.1,0,2.9,0.8,2.9,2.9v13h-4.8v-1.4
			c0-0.6,0.1-1.3,0.1-1.3h-0.1c0,0-3.3,3.3-9,3.3c-8,0-14.9-6.1-14.9-15.9C81.8,12.1,88.6,5.3,97.4,5.3z M152.8,5.8h10.9
			c5.6,0,9.5,3.4,9.5,9.2c0,5.5-3.8,7.8-5.1,8.1v0.1c0,0,0.9,0.5,1.5,1.5l3,5.9c0.5,0.9,1.2,1,2.1,1h0.5v4.8h-2.9
			c-2.3,0-3.3-0.4-4.3-2.3l-3.9-7.7c-0.6-1.2-1.3-1.4-2.9-1.4h-2.8v11.4h-5.6L152.8,5.8L152.8,5.8z M162.9,20.1
			c2.8,0,4.5-1.8,4.5-4.8c0-3-1.7-4.7-4.4-4.7h-4.6v9.5L162.9,20.1z">
   </path>
  </g>
 </g>
</svg>