<svg height="39" width="128" xmlns="http://www.w3.org/2000/svg"><g fill="none" fill-rule="nonzero"><path d="M9.267 4.275V18.79a.55.55 0 0 1-.445.543C6.968 19.683 0 20.618 0 14.733V4.352C0-1.372 9.267-1.5 9.267 4.275M21.95 14.282V28.8a.55.55 0 0 1-.446.54c-1.85.353-8.822 1.28-8.822-4.608V14.35c0-5.712 9.27-5.84 9.27-.067M34.63 23.066v14.517a.55.55 0 0 1-.449.543c-1.85.35-8.822 1.28-8.822-4.608V23.132c0-5.711 9.27-5.84 9.27-.066" fill="#F05A22"></path><path d="M53.248 22.548l5.576 7.168h-3.917l-4.662-6.277v6.257h-3.284V15.511h3.284v6.305l4.682-6.305h3.894zM59.49 24.832c0-2.982 2.068-5.15 5.434-5.15 3.367 0 5.412 2.155 5.412 5.15 0 2.995-2.066 5.148-5.412 5.148S59.49 27.8 59.49 24.832zm7.766 0c0-1.482-.873-2.534-2.332-2.534-1.459 0-2.332 1.052-2.332 2.534 0 1.482.852 2.534 2.332 2.534s2.332-1.067 2.332-2.534zM72.12 19.932h3.103v1.418c.568-1.093 1.682-1.682 3.164-1.682 2.37 0 3.569 1.34 3.569 3.994v6.034h-3.123v-5.02c0-1.641-.466-2.391-1.723-2.391-1.257 0-1.887.809-1.887 2.304v5.12H72.12v-9.777zM90.624 27.23v2.466c-.683.114-1.374.17-2.066.164-1.462 0-3.469-.325-3.469-3.584v-3.891h-1.536v-2.453h1.536v-2.9h3.103v2.9h2.21v2.453h-2.21v3.243c0 1.441.589 1.664 1.36 1.664.358.002.716-.019 1.072-.061zM91.648 24.832c0-3.205 2.089-5.15 5.274-5.15 3.04 0 5.12 1.883 5.12 4.643.001.454-.025.907-.08 1.357H94.72c.061 1.28.914 1.969 2.304 1.969.952 0 1.562-.256 1.825-.873h3.039c-.305 1.925-2.27 3.202-4.864 3.202-3.328-.013-5.376-1.897-5.376-5.148zm7.322-1.075c-.02-1.298-.753-1.987-2.069-1.987-1.316 0-2.15.791-2.17 1.987h4.239zM103.81 19.932h3.103v1.418c.569-1.093 1.682-1.682 3.164-1.682 2.371 0 3.57 1.34 3.57 3.994v6.034h-3.124v-5.02c0-1.641-.466-2.391-1.723-2.391-1.257 0-1.887.809-1.887 2.304v5.12h-3.102v-9.777zM122.322 27.23v2.466c-.683.114-1.374.17-2.066.164-1.462 0-3.469-.325-3.469-3.584v-3.891h-1.536v-2.453h1.536v-2.9h3.103v2.9h2.222v2.453h-2.21v3.243c0 1.441.59 1.664 1.36 1.664.354.001.708-.02 1.06-.061z" fill="#000"></path><path d="M123.986 27.92a2.007 2.007 0 1 1 2.007 1.988 1.981 1.981 0 0 1-2.007-1.989z" fill="#F05A22"></path></g></svg>