<svg width="503" height="169" viewBox="0 0 503 169" fill="none" xmlns="http://www.w3.org/2000/svg" xmlns:xlink="http://www.w3.org/1999/xlink">
 <path fill-rule="evenodd" clip-rule="evenodd" d="M496.222 96.8208C492.247 96.8208 489.549 93.8398 489.549 90.1488V6.67279C489.549 2.98079 492.247 0.000793457 496.222 0.000793457C500.197 0.000793457 502.895 2.98079 502.895 6.67279V90.1488C502.895 93.8398 500.197 96.8208 496.222 96.8208ZM451.076 43.0161C441.281 43.0161 434.608 49.9721 433.331 58.7751H468.254C467.119 50.2561 460.729 43.0161 451.076 43.0161ZM480.604 65.0201C480.604 67.2911 479.327 69.5641 475.495 69.5641H433.048C433.757 79.3601 440.429 86.7411 452.212 86.7411C459.595 86.7411 463.996 84.1861 468.68 79.7861C469.816 78.6501 471.377 77.6551 473.081 77.6551C476.063 77.6551 478.618 79.7861 478.618 83.1921C478.618 84.6121 477.907 85.8891 476.915 87.0251C471.52 93.2721 461.867 97.3881 451.645 97.3881C430.49 97.3881 419.276 82.6241 419.276 64.8781C419.276 46.2811 432.763 32.3691 451.076 32.3691C468.965 32.3691 480.604 46.8481 480.604 65.0201ZM411.184 62.0397C411.184 45.4297 398.55 32.3687 381.372 32.3687C364.194 32.3687 351.7 45.4297 351.7 62.0397V90.1487C351.7 93.8397 354.683 96.8207 358.373 96.8207C362.063 96.8207 365.046 93.8397 365.046 90.1487V60.4777C365.046 51.5337 372.003 44.5777 381.372 44.5777C390.74 44.5777 397.839 51.5337 397.839 60.4777V90.1487C397.839 93.8397 400.821 96.8207 404.512 96.8207C408.203 96.8207 411.184 93.8397 411.184 90.1487V62.0397ZM308.543 43.7251C297.186 43.7251 289.235 53.2381 289.235 64.8781C289.235 77.0871 295.908 86.0321 308.543 86.0321C320.325 86.0321 327.85 75.9521 327.85 64.8781C327.85 51.8181 319.899 43.7251 308.543 43.7251ZM341.194 90.1491C341.194 93.8391 338.64 96.8211 334.522 96.8211C330.547 96.8211 327.992 93.8391 327.992 90.1491V87.0251C324.018 92.9881 316.493 97.3881 307.266 97.3881C287.39 97.3881 275.891 82.9091 275.891 64.8781C275.891 47.1321 288.668 32.3691 308.685 32.3691C329.128 32.3691 341.194 45.7131 341.194 64.8781V90.1491ZM219.245 64.8789C219.245 53.5209 226.912 43.4419 238.411 43.4419C249.911 43.4419 257.435 52.1019 257.435 64.8789C257.435 77.6549 249.911 86.3149 238.411 86.3149C226.912 86.3149 219.245 76.2359 219.245 64.8789ZM219.245 85.1789C223.788 92.4209 231.597 97.3879 241.109 97.3879C257.435 97.3879 270.78 84.4699 270.78 64.8789C270.78 45.9969 257.435 32.3689 241.109 32.3689C231.597 32.3689 223.079 37.1949 218.82 44.5779V39.7509C218.82 36.0589 216.407 32.9359 212.289 32.9359C208.172 32.9359 205.901 35.9179 205.901 39.6089V116.696C205.901 120.388 208.599 123.369 212.574 123.369C216.549 123.369 219.245 120.388 219.245 116.696V85.1789ZM168.28 55.9341L185.174 34.9231C186.31 33.6461 187.729 32.9361 189.574 32.9361C193.266 32.9361 195.679 35.3491 195.679 38.7561C195.679 40.0351 195.253 41.3121 194.118 42.5901L175.52 64.7371L194.402 87.0251C195.395 88.1611 195.964 89.2971 195.964 91.0001C195.964 94.2651 193.124 96.8211 190.001 96.8211C188.013 96.8211 186.452 96.1111 185.316 94.6911L168.28 73.5381L151.244 94.6911C150.108 96.1111 148.547 96.8211 146.559 96.8211C143.436 96.8211 140.596 94.2651 140.596 91.0001C140.596 89.2971 141.164 88.1611 142.158 87.0251L161.039 64.7371L142.442 42.5901C141.306 41.3121 140.881 40.0351 140.881 38.7561C140.881 35.3491 143.294 32.9361 146.985 32.9361C148.83 32.9361 150.25 33.6461 151.386 34.9231L168.28 55.9341ZM117.316 90.1488C117.316 93.8398 120.013 96.8208 123.988 96.8208C127.963 96.8208 130.66 93.8398 130.66 90.1488V39.6088C130.66 35.9178 127.821 32.9358 123.988 32.9358C120.155 32.9358 117.316 35.9178 117.316 39.6088V90.1488ZM131.796 15.4738C131.796 11.2158 128.247 7.6658 123.988 7.6658C119.729 7.6658 116.18 11.2158 116.18 15.4738C116.18 19.7338 119.729 23.2828 123.988 23.2828C128.247 23.2828 131.796 19.7338 131.796 15.4738ZM98.576 96.8208C94.743 96.8208 91.904 93.8398 91.904 90.1488V61.7558C91.904 51.9598 87.219 44.4348 76.713 44.4348C66.208 44.4348 59.819 52.5278 59.819 61.8968V90.1488C59.819 93.8398 57.264 96.8208 53.147 96.8208C49.172 96.8208 46.474 93.8398 46.474 90.1488V61.7558C46.474 51.9598 41.363 44.4348 30.858 44.4348C20.068 44.4348 14.389 52.5278 14.389 61.8968V90.1488C14.389 93.8398 11.692 96.8208 7.71804 96.8208C3.88404 96.8208 1.04504 93.8398 1.04504 90.1488V39.7508C1.04504 35.7748 3.60004 32.9358 7.71804 32.9358C12.261 32.9358 14.389 36.0588 14.389 39.7508V44.2938C18.223 36.7688 26.031 32.3688 34.407 32.3688C44.629 32.3688 52.295 37.4788 56.128 45.0038C61.665 36.4848 69.757 32.3688 79.836 32.3688C97.014 32.3688 105.248 44.1518 105.248 60.7618V90.1488C105.248 93.8398 102.551 96.8208 98.576 96.8208ZM22.2716 168.963C34.3576 168.752 43.9856 158.783 43.7746 146.695C43.5636 134.607 33.5936 124.98 21.5066 125.191C9.42065 125.402 -0.207353 135.371 0.00364701 147.459C0.214647 159.548 10.1836 169.174 22.2716 168.963ZM114.579 146.848C114.705 154.1 108.929 160.081 101.677 160.208C94.4249 160.334 88.4429 154.559 88.3159 147.306C88.1889 140.053 93.9659 134.072 101.218 133.946C108.471 133.819 114.452 139.595 114.579 146.848ZM168.819 154.956C173.17 154.879 176.636 151.292 176.56 146.939C176.484 142.587 172.895 139.123 168.544 139.198C164.192 139.274 160.727 142.863 160.803 147.214C160.878 151.566 164.468 155.032 168.819 154.956Z" fill="#7856FF">
 </path>
</svg>