<svg version="1.1" id="Layer_1" xmlns="http://www.w3.org/2000/svg" xmlns:xlink="http://www.w3.org/1999/xlink" x="0px" y="0px" viewBox="0 0 504.8 96" style="enable-background:new 0 0 504.8 96;" xml:space="preserve">
 <style type="text/css">
  .st0{fill:#1D252C;}
	.st1{fill:#00AC69;}
	.st2{fill:#1CE783;}
 </style>
 <g>
  <path class="st0" d="M118.3,22.7h10.9l1,4.7h0.5c0,0,4.3-5.7,13.3-5.7c10.9,0,19,8,19,20.3v28.8h-11.9V43c0-6.1-4.3-10.4-10.4-10.4
		s-10.4,4.2-10.4,10.4v27.8h-11.9L118.3,22.7z">
  </path>
  <path class="st0" d="M217.4,56.6c-0.9,3.8-7.1,15.1-22.3,15.1c-14.2,0-24.7-10.4-24.7-25c0-14.6,10.4-25,24.7-25
		c13.3,0,23.7,10.4,23.7,24c0,1.6-0.1,3.2-0.5,4.7h-36.1c1,6.6,6.2,11.3,12.8,11.3c5.7,0,9-3.3,10-5.2L217.4,56.6z M207,42.5
		c-0.9-6.1-5.2-10.8-11.9-10.8c-7.1,0-11.4,4.7-12.8,10.8H207z">
  </path>
  <path class="st0" d="M221.3,22.7h12.3l8.1,31.6h0.7l8.1-31.6h12.1l8.1,31.6h0.7l8.1-31.6h12.3l-12.3,48.1h-14.4l-8.1-31.1h-0.7
		l-8,31.1h-14.5L221.3,22.7z">
  </path>
  <path class="st0" d="M315.3,22.7h10l0.9,4.2h0.5c1-1.3,2.3-2.4,3.8-3.1c1.5-0.7,3.1-1.1,4.8-1.1h8.3v11.3h-7.3c-6.2,0-9,2.8-9,8.9
		v27.8h-11.9V22.7z">
  </path>
  <path class="st0" d="M392,56.6c-1,3.8-7.1,15.1-22.3,15.1c-14.2,0-24.7-10.4-24.7-25c0-14.6,10.4-25,24.7-25
		c13.3,0,23.7,10.4,23.7,24c0,1.6-0.1,3.2-0.5,4.7h-36.1c1,6.6,6.2,11.3,12.8,11.3c5.7,0,9-3.3,10-5.2L392,56.6z M381.6,42.5
		c-0.9-6.1-5.2-10.8-11.9-10.8c-7.1,0-11.4,4.7-12.8,10.8H381.6z">
  </path>
  <path class="st0" d="M424.8,4.8h11.9v10.5h-11.9V4.8z M424.8,22.7h11.9v48.1h-11.9V22.7z">
  </path>
  <path class="st0" d="M492.1,52.9c-1.4,7.5-7.6,18.8-22.8,18.8c-14.2,0-24.7-10.4-24.7-25s10.4-25,24.7-25
		c15.2,0,21.3,11.3,22.8,18.4h-11.9c-0.9-2.8-3.8-7.5-10.9-7.5c-7.1,0-12.8,5.7-12.8,14.1s5.7,14.1,12.8,14.1c7.1,0,10-4.7,10.9-8
		H492.1z">
  </path>
  <path class="st0" d="M395.3,4.8v10.5h6.7v55.5h11.9V4.8H395.3z">
  </path>
  <path class="st0" d="M494,66.3c0-1.1,0.3-2.1,1-2.9c0.6-0.9,1.4-1.5,2.4-1.9c1-0.4,2.1-0.5,3.1-0.3c1,0.2,2,0.7,2.7,1.5
		c0.7,0.8,1.2,1.7,1.4,2.7c0.2,1,0.1,2.1-0.3,3.1c-0.4,1-1.1,1.8-2,2.4c-0.9,0.6-1.9,0.9-3,0.9c-0.7,0-1.4-0.1-2.1-0.4
		c-0.7-0.3-1.3-0.7-1.8-1.2c-0.5-0.5-0.9-1.1-1.2-1.8C494.1,67.7,494,67,494,66.3z M503.9,66.3c0-0.9-0.3-1.8-0.8-2.5
		c-0.5-0.7-1.2-1.3-2.1-1.6c-0.8-0.3-1.7-0.4-2.6-0.2c-0.9,0.2-1.7,0.6-2.3,1.3c-0.6,0.6-1.1,1.4-1.2,2.3c-0.2,0.9-0.1,1.8,0.3,2.6
		c0.3,0.8,0.9,1.5,1.7,2c0.7,0.5,1.6,0.8,2.5,0.8c0.6,0,1.2-0.1,1.8-0.3c0.6-0.2,1.1-0.6,1.5-1c0.4-0.4,0.8-0.9,1-1.5
		C503.9,67.5,504,66.9,503.9,66.3z M497.2,63.4h2.4c0.3,0,0.5,0,0.8,0.1c0.2,0.1,0.5,0.2,0.7,0.4c0.2,0.2,0.3,0.4,0.4,0.6
		c0.1,0.2,0.2,0.5,0.2,0.8c0,0.5-0.2,0.9-0.5,1.3c-0.3,0.3-0.8,0.5-1.3,0.5l2,2h-1.1l-2-2h-0.7v2h-0.8L497.2,63.4z M499.7,66.3
		c0.8,0,1.2-0.4,1.2-1c0-0.2,0-0.3-0.1-0.4s-0.2-0.3-0.3-0.4c-0.1-0.1-0.3-0.2-0.4-0.2c-0.1,0-0.3-0.1-0.5,0h-1.6v2H499.7z">
  </path>
  <path class="st1" d="M67.6,33.2v29.5L41.9,77.5V96l41.9-24V24L67.6,33.2z">
  </path>
  <path class="st2" d="M41.9,18.5l25.8,14.8L83.7,24L41.9,0L0,24l16.1,9.2L41.9,18.5z">
  </path>
  <path class="st0" d="M25.8,57.2v29.5L41.9,96V48L0,24v18.5L25.8,57.2z">
  </path>
 </g>
</svg>