<?xml version="1.0" encoding="UTF-8"?>
<svg width="256px" height="70px" viewBox="0 0 256 70" version="1.1" xmlns="http://www.w3.org/2000/svg" xmlns:xlink="http://www.w3.org/1999/xlink">
    <!-- Generator: Sketch 50.2 (55047) - http://www.bohemiancoding.com/sketch -->
    <title>Artboard</title>
    <desc>Created with Sketch.</desc>
    <defs></defs>
    <g id="Artboard" stroke="none" stroke-width="1" fill="none" fill-rule="evenodd">
        <path d="M24.5,39.4 L31.3,39.4 C31.6,39.4 31.9,39.7 31.9,40 L31.9,44.3 C31.9,52.4 26,59.5 18,60.4 C8.5,61.5 0.4,54 0.4,44.7 C0.4,38 4.6,32.3 10.5,30 C10.9,29.9 11.3,30.2 11.3,30.6 L11.3,38.4 C11.3,38.6 11.2,38.7 11.1,38.8 C9.1,40.6 7.9,43.3 8.6,46.3 C9.2,49.3 11.6,51.7 14.6,52.3 C19.6,53.3 23.9,49.5 23.9,44.7 L23.9,40 C23.9,39.6 24.1,39.4 24.5,39.4 Z" id="Shape" fill="#812B39" fill-rule="nonzero"></path>
        <path d="M16.1,36.9 L20.8,36.9 C21.1,36.9 21.4,36.6 21.4,36.3 L21.4,34.2 C21.4,31.3 19,28.9 16.1,28.9 C15.4,28.9 14.7,29 14,29.1 C13.7,29.1 13.5,29.4 13.5,29.7 L13.5,36.6 C13.5,37 13.9,37.3 14.2,37.2 C14.8,37 15.5,36.9 16.1,36.9 Z" id="Shape" fill="#812B39" fill-rule="nonzero"></path>
        <path d="M34.3,29.5 C34.3,33.6 37.6,36.9 41.6,36.9 C41.6,36.9 41.6,36.9 41.7,36.9 C42,36.9 42.3,36.6 42.3,36.3 L42.3,29.5 C42.3,29.2 42,28.9 41.7,28.9 L34.9,28.9 C34.5,28.9 34.3,29.2 34.3,29.5 Z" id="Shape" fill="#DF3B57" fill-rule="nonzero"></path>
        <path d="M44.5,36 L44.5,29 C44.5,28.7 44.7,28.5 44.9,28.4 C49.7,27 53,22.2 52.1,16.8 C51.4,12.7 48.1,9.3 44,8.6 C37.5,7.4 31.8,12.4 31.8,18.7 L31.8,26.1 C31.8,26.4 31.5,26.7 31.2,26.7 L24.4,26.7 C24.1,26.7 23.8,26.4 23.8,26.1 L23.8,19.2 C23.8,9.3 31.5,0.9 41.3,0.5 C51.7,0.1 60.2,8.4 60.2,18.7 C60.2,27.7 53.7,35.2 45.1,36.6 C44.9,36.7 44.5,36.4 44.5,36 Z" id="Shape" fill="#DF3B57" fill-rule="nonzero"></path>
        <path d="M31.2,28.9 L24.4,28.9 C24.1,28.9 23.8,29.2 23.8,29.5 L23.8,36.3 C23.8,36.6 24.1,36.9 24.4,36.9 L31.2,36.9 C31.5,36.9 31.8,36.6 31.8,36.3 L31.8,29.5 C31.8,29.2 31.6,28.9 31.2,28.9 Z" id="Shape" fill="#812B39" fill-rule="nonzero"></path>
        <path d="M81.3,30.3 C82.9,31.1 84.1,32.3 84.9,33.8 C85.8,35.3 86.2,37.1 86.2,39 C86.2,41 85.8,42.7 84.9,44.2 C84,45.7 82.8,46.9 81.1,47.7 C79.5,48.5 77.6,48.9 75.5,48.9 L70,48.9 C69.8,48.9 69.8,49 69.8,49.1 L69.8,60 C69.8,60.2 69.7,60.3 69.6,60.4 C69.5,60.5 69.4,60.6 69.2,60.6 L62.8,60.6 C62.6,60.6 62.5,60.5 62.4,60.4 C62.3,60.3 62.2,60.2 62.2,60 L62.2,29.6 C62.2,29.5 62.3,29.3 62.4,29.2 C62.5,29.1 62.6,29 62.8,29 L75.8,29 C77.9,29.1 79.7,29.5 81.3,30.3 Z M77.6,42 C78.4,41.3 78.7,40.4 78.7,39.3 C78.7,38.2 78.3,37.2 77.6,36.5 C76.8,35.8 75.8,35.4 74.6,35.4 L70,35.4 C69.8,35.4 69.8,35.5 69.8,35.6 L69.8,42.7 C69.8,42.9 69.9,42.9 70,42.9 L74.6,42.9 C75.9,43 76.9,42.7 77.6,42 Z" id="Shape" fill="#000000" fill-rule="nonzero"></path>
        <path d="M91.3,58.8 C89.4,57.4 88.1,55.4 87.5,52.9 C87.1,51.7 87,50.3 87,48.8 C87,47.2 87.2,45.7 87.6,44.4 C88.3,42 89.6,40.2 91.4,38.8 C93.3,37.5 95.5,36.8 98.2,36.8 C100.8,36.8 103.1,37.5 104.9,38.8 C106.7,40.1 108,42 108.7,44.3 C109.1,45.7 109.3,47.1 109.3,48.6 C109.3,50 109.1,51.3 108.8,52.6 C108.2,55.1 106.9,57.1 105,58.6 C103.1,60.1 100.8,60.8 98.1,60.8 C95.5,60.9 93.2,60.2 91.3,58.8 Z M100.4,53.7 C101,53.1 101.4,52.4 101.7,51.4 C101.9,50.6 102,49.8 102,48.8 C102,47.9 101.9,47 101.7,46.2 C101.5,45.3 101.1,44.6 100.5,44 C99.9,43.5 99.2,43.2 98.3,43.2 C96.6,43.2 95.4,44.2 94.9,46.1 C94.7,46.8 94.6,47.7 94.6,48.7 C94.6,49.6 94.7,50.5 94.9,51.3 C95.1,52.3 95.6,53 96.1,53.6 C96.7,54.2 97.4,54.4 98.3,54.4 C99.2,54.4 99.8,54.3 100.4,53.7 Z" id="Shape" fill="#000000" fill-rule="nonzero"></path>
        <path d="M112.8,60.4 C112.7,60.3 112.6,60.2 112.6,60 L112.6,29.6 C112.6,29.5 112.7,29.3 112.8,29.2 C112.9,29.1 113,29 113.2,29 L119.6,29 C119.8,29 119.9,29.1 120,29.2 C120.1,29.3 120.2,29.4 120.2,29.6 L120.2,60 C120.2,60.2 120.1,60.3 120,60.4 C119.9,60.5 119.8,60.6 119.6,60.6 L113.2,60.6 C113,60.6 112.9,60.5 112.8,60.4 Z" id="Shape" fill="#000000" fill-rule="nonzero"></path>
        <path d="M123.9,69.4 C123.8,69.3 123.8,69.2 123.8,69 L123.8,64 C123.8,63.6 124,63.5 124.3,63.5 C126.2,63.5 127.6,63.3 128.4,63 C129.2,62.6 129.7,61.9 129.9,60.8 C129.9,60.7 129.9,60.7 129.9,60.5 L122.7,38 C122.7,37.9 122.7,37.9 122.7,37.8 C122.7,37.5 122.9,37.4 123.2,37.4 L130,37.4 C130.3,37.4 130.5,37.6 130.6,37.9 L133.7,51.2 C133.7,51.3 133.8,51.4 133.8,51.4 C133.9,51.4 133.9,51.3 133.9,51.2 L137,37.9 C137.1,37.6 137.3,37.4 137.6,37.4 L144.3,37.4 C144.5,37.4 144.6,37.5 144.7,37.6 C144.8,37.7 144.8,37.9 144.7,38.1 L137.1,61 C136.3,63.2 135.6,65 134.7,66.1 C133.9,67.3 132.7,68.1 131.1,68.7 C129.5,69.3 127.3,69.5 124.4,69.5 L124.1,69.5 C124,69.5 123.9,69.5 123.9,69.4 Z" id="Shape" fill="#000000" fill-rule="nonzero"></path>
        <path d="M152.5,59.8 C150.7,59 149.2,57.9 148.2,56.4 C147.2,54.9 146.7,53.2 146.7,51.2 L146.7,50.3 C146.7,50.2 146.8,50 146.9,49.9 C147,49.8 147.1,49.7 147.3,49.7 L153.6,49.7 C153.7,49.7 153.9,49.8 154,49.9 C154.1,50 154.2,50.1 154.2,50.3 L154.2,50.8 C154.2,51.8 154.7,52.7 155.7,53.4 C156.7,54.1 158,54.5 159.7,54.5 C161,54.5 162,54.2 162.6,53.6 C163.2,53 163.5,52.4 163.5,51.6 C163.5,51 163.3,50.5 162.9,50.1 C162.5,49.7 162,49.4 161.4,49.2 C160.8,48.9 159.8,48.6 158.5,48.1 C158.3,48 158.1,47.9 158,47.9 C157.8,47.9 157.7,47.8 157.5,47.7 C155.5,47.1 153.9,46.4 152.4,45.7 C151,45 149.7,43.9 148.7,42.6 C147.7,41.3 147.2,39.7 147.2,37.8 C147.2,35.9 147.7,34.3 148.7,32.9 C149.7,31.5 151,30.4 152.8,29.7 C154.5,29 156.5,28.6 158.7,28.6 C161,28.6 163.1,29 164.9,29.9 C166.7,30.7 168.2,31.9 169.2,33.5 C170.2,35 170.8,36.8 170.8,38.8 L170.8,39.4 C170.8,39.6 170.7,39.7 170.6,39.8 C170.5,39.9 170.4,40 170.2,40 L163.9,40 C163.7,40 163.6,39.9 163.5,39.8 C163.4,39.7 163.3,39.6 163.3,39.4 L163.3,39.1 C163.3,38.1 162.8,37.1 161.9,36.3 C161,35.5 159.7,35.1 158.2,35.1 C157,35.1 156.1,35.3 155.5,35.8 C154.8,36.3 154.5,37 154.5,37.8 C154.5,38.5 154.7,39 155.1,39.4 C155.5,39.8 156.2,40.2 157.1,40.6 C158,41 159.3,41.5 161.2,42.1 C163.3,42.8 164.9,43.4 166.1,44 C167.3,44.6 168.4,45.4 169.4,46.6 C170.4,47.8 171,49.4 171,51.4 C171,53.4 170.5,55 169.5,56.4 C168.5,57.8 167.1,58.9 165.3,59.7 C163.5,60.5 161.4,60.8 159.1,60.8 C156.5,60.9 154.3,60.5 152.5,59.8 Z" id="Shape" fill="#000000" fill-rule="nonzero"></path>
        <path d="M178.5,59.1 C176.7,57.9 175.3,56.2 174.6,54 C174,52.6 173.7,50.8 173.7,48.8 C173.7,46.8 174,45.1 174.6,43.6 C175.3,41.5 176.7,39.9 178.5,38.7 C180.4,37.5 182.5,36.9 185,36.9 C187.5,36.9 189.7,37.5 191.6,38.7 C193.5,39.9 194.8,41.5 195.4,43.4 C195.6,43.9 195.7,44.5 195.8,45.2 C195.8,45.5 195.6,45.7 195.3,45.8 L189,46.7 L188.9,46.7 C188.6,46.7 188.5,46.6 188.4,46.2 L188.3,45.8 C188.2,45.6 188.2,45.3 188.1,45.2 C187.8,44.6 187.4,44.2 186.9,43.8 C186.3,43.4 185.7,43.3 184.9,43.3 C183.3,43.3 182.3,44 181.7,45.4 C181.4,46.2 181.2,47.4 181.2,48.8 C181.2,50.1 181.3,51.2 181.7,52.2 C182.3,53.7 183.3,54.5 184.9,54.5 C185.7,54.5 186.4,54.3 186.9,53.9 C187.5,53.5 187.9,52.9 188.1,52.2 C188.1,52.1 188.1,52.1 188.1,51.9 C188.1,51.9 188.1,51.8 188.1,51.7 C188.2,51.3 188.4,51.2 188.7,51.2 L195,52.2 C195.3,52.3 195.4,52.4 195.4,52.7 C195.4,53.2 195.3,53.6 195.1,54.2 C194.4,56.3 193.1,57.9 191.2,59.1 C189.3,60.3 187.2,60.9 184.7,60.9 C182.5,60.9 180.3,60.3 178.5,59.1 Z" id="Shape" fill="#000000" fill-rule="nonzero"></path>
        <path d="M213.9,38 C215.5,38.7 216.8,39.6 217.7,40.8 C218.6,42 219.1,43.3 219.1,44.7 L219.1,60 C219.1,60.2 219,60.3 218.9,60.4 C218.8,60.5 218.7,60.6 218.5,60.6 L212.1,60.6 C211.9,60.6 211.8,60.5 211.7,60.4 C211.6,60.3 211.5,60.2 211.5,60 L211.5,58.4 C211.5,58.3 211.5,58.2 211.4,58.2 C211.3,58.2 211.3,58.2 211.2,58.4 C210.1,60.1 208.1,60.9 205.4,60.9 C203,60.9 201.1,60.3 199.7,59.2 C198.3,58.1 197.6,56.4 197.6,54.2 C197.6,51.9 198.4,50.1 200,48.8 C201.6,47.5 203.9,46.9 207,46.9 L211.4,46.9 C211.6,46.9 211.6,46.8 211.6,46.7 L211.6,46 C211.6,45.2 211.3,44.6 210.8,44.1 C210.3,43.6 209.5,43.4 208.6,43.4 C207.9,43.4 207.3,43.5 206.7,43.8 C206.1,44.1 205.8,44.4 205.7,44.8 C205.5,45.1 205.3,45.3 205.1,45.2 L198.6,44.3 C198.2,44.2 198.1,44.1 198.1,43.9 C198.2,42.6 198.7,41.4 199.7,40.3 C200.6,39.2 201.8,38.4 203.4,37.8 C204.9,37.2 206.7,36.9 208.6,36.9 C210.4,37 212.2,37.3 213.9,38 Z M210.5,54.7 C211.2,54.1 211.6,53.3 211.6,52.4 L211.6,51.3 C211.6,51.2 211.5,51.1 211.4,51.1 L208.7,51.1 C207.6,51.1 206.7,51.3 206.1,51.7 C205.5,52.1 205.2,52.7 205.2,53.5 C205.2,54.2 205.4,54.7 205.9,55.1 C206.4,55.5 207,55.7 207.8,55.7 C208.8,55.6 209.8,55.3 210.5,54.7 Z" id="Shape" fill="#000000" fill-rule="nonzero"></path>
        <path d="M222.9,60.4 C222.8,60.3 222.7,60.2 222.7,60 L222.7,29.6 C222.7,29.5 222.8,29.3 222.9,29.2 C223,29.1 223.1,29 223.3,29 L229.7,29 C229.9,29 230,29.1 230.1,29.2 C230.2,29.3 230.3,29.4 230.3,29.6 L230.3,60 C230.3,60.2 230.2,60.3 230.1,60.4 C230,60.5 229.9,60.6 229.7,60.6 L223.3,60.6 C223.1,60.6 223,60.5 222.9,60.4 Z" id="Shape" fill="#000000" fill-rule="nonzero"></path>
        <path d="M255.7,50.5 C255.7,50.9 255.5,51 255.1,51 L241.4,51 C241.3,51 241.3,51 241.2,51.1 C241.1,51.2 241.1,51.2 241.2,51.3 C241.3,51.6 241.4,52.1 241.7,52.6 C242.1,53.2 242.6,53.7 243.3,54.1 C244,54.5 244.9,54.7 246,54.7 C247.9,54.7 249.4,54.1 250.5,52.9 C250.6,52.8 250.8,52.7 250.9,52.7 C251,52.7 251.2,52.8 251.3,52.9 L254.8,56.9 C254.9,57 255,57.1 255,57.3 C255,57.4 254.9,57.5 254.8,57.7 C253.7,58.8 252.5,59.7 250.9,60.3 C249.3,60.9 247.7,61.2 245.8,61.2 C243.1,61.2 240.8,60.6 238.8,59.4 C236.9,58.2 235.5,56.6 234.7,54.4 C234.1,52.9 233.8,51 233.8,48.8 C233.8,47.2 234,45.7 234.5,44.3 C235.3,42.1 236.6,40.3 238.3,39.1 C240.1,37.8 242.2,37.2 244.7,37.2 C246.7,37.2 248.5,37.6 250,38.5 C251.6,39.4 252.8,40.5 253.8,42.1 C254.8,43.6 255.4,45.3 255.7,47.3 C255.7,47.8 255.7,49 255.7,50.5 Z M241.4,45.6 C241.3,45.9 241.2,46.2 241.2,46.5 C241.1,46.7 241.2,46.7 241.4,46.7 L247.8,46.7 C247.9,46.7 248,46.6 248,46.5 C248,46.3 247.9,46 247.8,45.6 C247.6,44.9 247.2,44.3 246.7,43.9 C246.1,43.5 245.4,43.3 244.6,43.3 C242.9,43.4 241.9,44.1 241.4,45.6 Z" id="Shape" fill="#000000" fill-rule="nonzero"></path>
    </g>
</svg>