<svg class="h-5 sm:h-6 w-auto fill-current text-white" enable-background="new 0 0 1361.044 368.505" height="368.505px" id="Prepr_Logo" version="1.1" viewBox="0 0 1361.044 368.505" width="1361.044px" x="0px" xml:space="preserve" xmlns="http://www.w3.org/2000/svg" xmlns:xlink="http://www.w3.org/1999/xlink" y="0px">
<g>
<path d="M523.965,28.912c0.111-0.179,0.219-0.36,0.316-0.548l0.036-0.062c-0.001-0.002-0.003-0.004-0.004-0.005
    c0.591-1.157,0.931-2.465,0.931-3.853c0-3.113-1.678-5.828-4.174-7.311c-0.026-0.026-0.055-0.072-0.081-0.087
    C468.473-11.6,398.352-4.829,351.918,42.938c-26.066,26.814-39.377,61.302-40.062,95.959h-0.045v136.064l0,0
    c0,0.001,0,0.001,0,0.002c0,4.693,3.807,8.502,8.504,8.502H360c4.695,0,8.504-3.809,8.504-8.502c0-0.001,0-0.001,0-0.002l0,0
    V141.732h0.021c-0.002-21.363,7.976-42.749,24.041-59.274c28.676-29.5,71.008-31.715,100.195-16.184
    c0.091,0.051,0.185,0.096,0.277,0.143c0.065,0.035,0.133,0.067,0.198,0.103l0.009-0.003c1.105,0.526,2.338,0.829,3.644,0.829
    c3.319,0,6.188-1.907,7.589-4.683L523.965,28.912z"></path>
<path d="M141.73,0.001C63.457,0.001,0,63.454,0,141.732l0,0v218.271c0,4.693,3.806,8.502,8.504,8.502h39.685l0,0
    c0.001,0,0.001,0,0.001,0c4.696,0,8.503-3.809,8.503-8.502V255.125c23.688,17.794,53.131,28.341,85.038,28.341
    c78.272,0,141.735-63.455,141.735-141.732C283.466,63.454,220.003,0.001,141.73,0.001z M141.731,226.772
    c-46.964,0-85.038-38.074-85.038-85.04s38.074-85.04,85.038-85.04c46.963,0,85.041,38.074,85.041,85.04
    S188.694,226.772,141.731,226.772z"></path>
<path d="M977.53,0C899.258,0,835.801,63.454,835.8,141.732l0,0v218.271c0,4.693,3.807,8.501,8.504,8.502l0,0h39.686
    c4.696,0,8.504-3.809,8.504-8.502V255.126c23.688,17.794,53.131,28.34,85.037,28.34c78.272,0,141.735-63.455,141.735-141.731
    C1119.266,63.455,1055.803,0,977.53,0z M977.532,226.772c-46.965,0-85.039-38.073-85.039-85.04s38.074-85.039,85.039-85.039
    c46.962,0,85.04,38.072,85.04,85.039S1024.494,226.772,977.532,226.772z"></path>
<path d="M806.473,144.567c0-78.279-63.463-144.566-141.735-144.566S523.008,63.456,523.008,141.734
    c0,78.276,63.457,141.731,141.729,141.731c44.307,0,80.852-20.303,103.773-45.209c0.003-0.002,0.006-0.005,0.008-0.008
    c0.018-0.019,0.036-0.037,0.054-0.057v-0.002c1.503-1.534,2.432-3.632,2.432-5.947c0-2.449-1.042-4.649-2.698-6.201v-0.012
    l-0.119-0.098c-0.216-0.194-0.44-0.377-0.676-0.549l-30.322-24.68c-1.496-1.314-3.453-2.118-5.602-2.118
    c-2.672,0-5.053,1.233-6.611,3.159c-13.467,13.71-34.766,25.027-60.236,25.027c-46.964,0-85.038-38.073-85.038-85.04
    c0-46.966,38.074-85.038,85.038-85.038c37.021,0,68.504,23.667,80.182,56.691h-73.097l0,0c-4.698,0.002-8.504,3.809-8.504,8.506
    l-0.002,39.684c0,4.695,3.807,8.504,8.506,8.504h123.31c0.232,0,0.46-0.017,0.688-0.035c0.229,0.019,0.456,0.035,0.688,0.035
    c3.775,0,6.974-2.465,8.083-5.87l0.097,0.016c0.049-0.307,0.096-0.603,0.143-0.9c0.061-0.289,0.107-0.583,0.138-0.883
    C805.955,156.101,806.473,151.58,806.473,144.567z"></path>
<path d="M1360.081,28.353l0.036-0.062c-0.001-0.002-0.003-0.004-0.004-0.005c0.591-1.157,0.931-2.465,0.931-3.853
    c0-3.113-1.678-5.828-4.174-7.311c-0.026-0.026-0.055-0.072-0.081-0.087c-52.517-28.646-122.638-21.876-169.071,25.892
    c-26.066,26.814-39.377,61.302-40.062,95.959h-0.045V274.95l0,0c0,0.001,0,0.001,0,0.002c0,4.693,3.807,8.502,8.504,8.502h39.686
    c4.695,0,8.504-3.809,8.504-8.502c0-0.001,0-0.001,0-0.002l0,0V141.721h0.021c-0.002-21.363,7.976-42.749,24.041-59.274
    c28.676-29.5,71.008-31.715,100.195-16.184c0.091,0.051,0.185,0.096,0.277,0.143c0.065,0.035,0.133,0.067,0.198,0.103l0.009-0.003
    c1.105,0.526,2.338,0.829,3.644,0.829c3.319,0,6.188-1.907,7.589-4.683l19.486-33.751
    C1359.876,28.722,1359.983,28.54,1360.081,28.353z"></path>
</g>
</svg>