<?xml version="1.0" encoding="utf-8"?>
<!-- Generator: Adobe Illustrator 16.0.4, SVG Export Plug-In . SVG Version: 6.00 Build 0)  -->
<!DOCTYPE svg PUBLIC "-//W3C//DTD SVG 1.1//EN" "http://www.w3.org/Graphics/SVG/1.1/DTD/svg11.dtd">
<svg version="1.1" xmlns="http://www.w3.org/2000/svg" xmlns:xlink="http://www.w3.org/1999/xlink" x="0px" y="0px" width="684px"
	 height="108px" viewBox="0 0 684 108" enable-background="new 0 0 684 108" xml:space="preserve">
<g id="PRERENDER_copy_1_" enable-background="new    ">
	<g id="PRERENDER_copy">
		<g>
			<path fill="#5D7B8C" d="M212.087,30.245c-1.961-1.382-4.257-2.37-6.889-2.963c-2.633-0.593-5.46-0.89-8.484-0.89h-18.816v55.216
				h12.348V62.893h6.804c2.911,0,5.655-0.367,8.232-1.102c2.575-0.732,4.843-1.862,6.804-3.388c1.959-1.523,3.513-3.472,4.662-5.843
				c1.147-2.371,1.722-5.166,1.722-8.384c0-3.331-0.575-6.14-1.722-8.426C215.6,33.464,214.046,31.63,212.087,30.245z
				 M196.294,52.984h-6.048V36.301h5.712c3.359,0,5.935,0.593,7.728,1.778c1.792,1.186,2.688,3.218,2.688,6.098
				C206.375,50.049,203.014,52.984,196.294,52.984z M269.274,53.619c1.764-2.625,2.646-5.97,2.646-10.035
				c0-3.273-0.561-6.013-1.68-8.215c-1.121-2.202-2.633-3.965-4.536-5.292c-1.904-1.326-4.13-2.272-6.678-2.838
				c-2.549-0.563-5.279-0.847-8.19-0.847h-19.74v55.216h12.348V61.707h6.804l10.5,19.901h13.86l-12.432-22.104
				C265.144,58.207,267.511,56.244,269.274,53.619z M257.263,49.724c-1.709,1.384-4.187,2.075-7.434,2.075h-6.384V36.301h6.384
				c3.247,0,5.725,0.537,7.434,1.609c1.708,1.073,2.562,2.964,2.562,5.674S258.97,48.341,257.263,49.724z M296.817,58.403h18.648
				V47.987h-18.648V36.894h21.924V26.393h-34.272v55.216h35.113V71.107h-22.765V58.403z M369.306,53.619
				c1.765-2.625,2.646-5.97,2.646-10.035c0-3.273-0.561-6.013-1.68-8.215c-1.121-2.202-2.633-3.965-4.535-5.292
				c-1.904-1.326-4.131-2.272-6.68-2.838c-2.548-0.563-5.278-0.847-8.189-0.847h-19.74v55.216h12.349V61.707h6.804l10.5,19.901
				h13.86l-12.433-22.104C365.175,58.207,367.541,56.244,369.306,53.619z M357.293,49.724c-1.709,1.384-4.187,2.075-7.434,2.075
				h-6.384V36.301h6.384c3.247,0,5.725,0.537,7.434,1.609c1.708,1.073,2.562,2.964,2.562,5.674S359.001,48.341,357.293,49.724z
				 M397.475,58.403h18.648V47.987h-18.648V36.894h21.924V26.393h-34.271v55.216h35.111V71.107h-22.764V58.403z M463.576,45.87
				c0,3.275,0.182,6.72,0.546,10.332c0.363,3.614,0.686,6.889,0.966,9.823h-0.336l-5.376-12.194l-14.28-27.438h-12.684v55.216h11.76
				V62.046c0-3.274-0.183-6.661-0.547-10.163c-0.364-3.499-0.686-6.774-0.965-9.823h0.336l5.375,12.025l14.281,27.523h12.684V26.393
				h-11.76V45.87z M523.72,32.956c-2.408-2.229-5.292-3.881-8.651-4.954c-3.36-1.072-7.141-1.609-11.34-1.609h-15.457v55.216H504.4
				c4.031,0,7.686-0.564,10.962-1.694c3.276-1.129,6.09-2.837,8.441-5.123c2.353-2.287,4.172-5.18,5.46-8.681
				c1.288-3.5,1.933-7.622,1.933-12.364s-0.645-8.835-1.933-12.279C527.976,38.023,526.127,35.187,523.72,32.956z M517.378,62.13
				c-0.756,2.259-1.806,4.08-3.149,5.463c-1.345,1.384-2.97,2.386-4.873,3.006c-1.904,0.622-4.032,0.932-6.384,0.932h-2.353v-35.06
				h2.353c2.352,0,4.479,0.283,6.384,0.847c1.903,0.564,3.528,1.511,4.873,2.837c1.344,1.327,2.394,3.105,3.149,5.335
				c0.756,2.231,1.134,4.983,1.134,8.257C518.512,57.078,518.134,59.873,517.378,62.13z M556.467,58.403h18.648V47.987h-18.648
				V36.894h21.925V26.393h-34.272v55.216h35.112V71.107h-22.765V58.403z M622.484,59.505c2.968-1.298,5.335-3.261,7.099-5.886
				s2.646-5.97,2.646-10.035c0-3.273-0.561-6.013-1.681-8.215c-1.121-2.202-2.633-3.965-4.536-5.292
				c-1.904-1.326-4.13-2.272-6.678-2.838c-2.549-0.563-5.279-0.847-8.19-0.847h-19.739v55.216h12.348V61.707h6.804l10.5,19.901
				h13.86L622.484,59.505z M617.571,49.724c-1.709,1.384-4.188,2.075-7.435,2.075h-6.384V36.301h6.384
				c3.247,0,5.726,0.537,7.435,1.609c1.707,1.073,2.562,2.964,2.562,5.674S619.278,48.341,617.571,49.724z"/>
		</g>
	</g>
</g>
<g id="_x2E_io_1_" enable-background="new    ">
	<g id="_x2E_io">
		<g>
			<path fill="#5D7B8C" d="M654.665,42.335l0.192,23.838l2.991-0.024l-0.191-23.838L654.665,42.335z M682.311,48.814
				c-0.505-1.51-1.212-2.788-2.122-3.835c-0.909-1.047-1.985-1.85-3.228-2.408s-2.607-0.833-4.098-0.821
				c-1.49,0.013-2.852,0.303-4.084,0.87c-1.233,0.567-2.29,1.381-3.17,2.442c-0.882,1.061-1.562,2.351-2.042,3.868
				c-0.48,1.519-0.713,3.234-0.697,5.147c0.015,1.914,0.275,3.639,0.78,5.173c0.504,1.535,1.206,2.837,2.104,3.907
				c0.897,1.071,1.968,1.893,3.21,2.464s2.608,0.851,4.099,0.838c1.489-0.012,2.851-0.313,4.083-0.905
				c1.233-0.592,2.296-1.43,3.188-2.516c0.893-1.085,1.578-2.398,2.059-3.941c0.48-1.542,0.713-3.27,0.698-5.185
				C683.075,52.024,682.814,50.324,682.311,48.814z M679.482,57.995c-0.327,1.202-0.793,2.235-1.399,3.1
				c-0.605,0.866-1.333,1.532-2.183,1.999c-0.85,0.468-1.803,0.705-2.859,0.714c-1.059,0.009-2.015-0.214-2.871-0.667
				c-0.857-0.453-1.595-1.107-2.215-1.963c-0.619-0.854-1.103-1.88-1.448-3.077c-0.347-1.196-0.525-2.545-0.537-4.047
				c-0.012-1.478,0.146-2.812,0.473-4.001c0.326-1.19,0.793-2.199,1.399-3.028c0.605-0.828,1.333-1.471,2.183-1.926
				s1.803-0.687,2.86-0.695c1.057-0.009,2.015,0.207,2.871,0.648s1.595,1.071,2.214,1.89c0.619,0.819,1.102,1.821,1.448,3.005
				c0.346,1.185,0.524,2.516,0.536,3.993C679.967,55.441,679.809,56.793,679.482,57.995z"/>
		</g>
	</g>
</g>
<g id="_x2E_io_copy_1_" enable-background="new    ">
	<g id="_x2E_io_copy">
		<g>
			<path fill="#5D7B8C" d="M644.769,52.542c-0.424-0.42-0.924-0.628-1.501-0.623c-0.602,0.005-1.11,0.221-1.526,0.648
				c-0.418,0.427-0.623,0.992-0.617,1.694c0.005,0.654,0.22,1.192,0.644,1.612c0.423,0.42,0.936,0.628,1.537,0.623
				c0.576-0.004,1.073-0.221,1.49-0.648c0.417-0.427,0.623-0.968,0.617-1.622C645.407,53.524,645.192,52.963,644.769,52.542z"/>
		</g>
	</g>
</g>
<g id="Rectangle_6_1_" enable-background="new    ">
	<g id="Rectangle_6">
		<g>
			<path fill="#F0DA50" d="M36,0v36h18c9.941,0,18-8.059,18-18V0H36z"/>
		</g>
	</g>
</g>
<g id="Rounded_Rectangle_1_1_" enable-background="new    ">
	<g id="Rounded_Rectangle_1">
		<g>
			<path fill="#4BC69A" d="M18,0C8.059,0,0,8.059,0,18v72c0,9.941,8.059,18,18,18h18V0H18z"/>
		</g>
	</g>
</g>
<g id="Rectangle_6_copy_2_1_" enable-background="new    ">
	<g id="Rectangle_6_copy_2">
		<g>
			<path fill="#F0DA50" d="M90,72c-9.941,0-18,8.059-18,18v18h36V72H90z"/>
		</g>
	</g>
</g>
<g id="Rounded_Rectangle_1_copy_1_" enable-background="new    ">
	<g id="Rounded_Rectangle_1_copy">
		<g>
			<path fill="#5D7B8C" d="M126,0h-18v108h18c9.941,0,18-8.059,18-18V18C144,8.059,135.941,0,126,0z"/>
		</g>
	</g>
</g>
</svg>
