<svg version="1.1" id="Layer_1" xmlns:x="ns_extend;" xmlns:i="ns_ai;" xmlns:graph="ns_graphs;" xmlns="http://www.w3.org/2000/svg" xmlns:xlink="http://www.w3.org/1999/xlink" x="0px" y="0px" viewBox="0 0 232.4 42" style="enable-background:new 0 0 232.4 42;" xml:space="preserve">
 <style type="text/css">
  .st0{fill:#118CFD;}
 </style>
 <metadata>
  <sfw xmlns="ns_sfw;">
   <slices>
   </slices>
   <sliceSourceBounds bottomLeftOrigin="true" height="42" width="232.4" x="84" y="-221.2">
   </sliceSourceBounds>
  </sfw>
 </metadata>
 <g>
  <path class="st0" d="M90.3,21.7c0.2,3.6,3.2,6.3,6.8,6.1c2.7,0,5.3-1.2,7.1-3.3c0.2-0.3,0.6-0.4,0.9-0.2c0.1,0,0.1,0.1,0.2,0.1
		l2.5,2.7c0.3,0.2,0.4,0.7,0.2,1.1c0,0,0,0,0,0l0,0.1c-0.5,0.8-4,5.3-11.3,5.3s-13.2-4.8-13.2-13c-0.2-6.9,5.3-12.7,12.2-12.9
		c0,0,0,0,0,0H96c8,0,11.9,4.8,11.9,13.2c0,0.5-0.4,0.8-0.8,0.8L90.3,21.7L90.3,21.7z M101.4,17.8c-0.1-2.3-1.6-4.7-5.2-4.7
		c-3,0-5.2,1.5-5.8,4.7C90.4,17.8,101.4,17.8,101.4,17.8z">
  </path>
  <path class="st0" d="M214.6,21.6c0.2,3.6,3.2,6.3,6.8,6.1c0,0,0,0,0,0l0,0c2.7,0,5.3-1.2,7.1-3.3c0.2-0.3,0.6-0.4,0.9-0.2
		c0.1,0,0.1,0.1,0.2,0.1l2.5,2.7c0.3,0.3,0.4,0.7,0.1,1.1c0,0,0,0,0,0l0,0.1c-0.5,0.8-4,5.3-11.3,5.3s-13.2-4.8-13.2-13
		c-0.2-6.9,5.3-12.7,12.3-12.8c0,0,0,0,0,0h0.3c8,0,11.9,4.8,11.9,13.2c0,0.5-0.4,0.8-0.8,0.8L214.6,21.6L214.6,21.6z M225.7,17.7
		c-0.1-2.3-1.6-4.7-5.2-4.7c-3,0-5.2,1.5-5.8,4.7H225.7z">
  </path>
  <path class="st0" d="M132.1,33.2c-1.1,0.2-2.2-0.6-2.3-1.8c0-0.2,0-0.4,0-0.6v-2.1h-0.1c-0.7,1.7-2.8,4.9-7.8,4.9
		c-7.1,0-11.4-5.3-11.4-12.9c0-8.3,4.9-13,11.5-13c4.9,0,7.2,2.7,7.5,3.6h0.1V8.8c0-0.4,0.2-0.7,0.6-0.7h4.7c0.4,0,0.7,0.3,0.7,0.6
		c0,0,0,0,0,0c0,0,0,0.1,0,0.1v18.9h1.9c0.3,0,0.6,0.2,0.7,0.5c0,0.1,0,0.1,0,0.2v4c0,0.3-0.2,0.7-0.6,0.7c0,0,0,0,0,0L132.1,33.2
		L132.1,33.2z M129,20.7c0-4.8-2.6-7.3-5.9-7.3c-3.6,0-6.1,2.9-6.1,7.3s2.6,7.1,6.1,7.1C126.3,27.9,129,25.5,129,20.7L129,20.7z">
  </path>
  <path class="st0" d="M81.7,14.1c0.9-2,2.3-3.8,4.1-5.2c0.2-0.2,0.2-0.5,0-0.7c-0.1-0.1-0.1-0.1-0.2-0.1c-1.1-0.2-2.3-0.3-3.5-0.4
		c-8.4,0-10.3,6.6-10.3,6.6h-0.2V8.7c0-0.4-0.3-0.7-0.7-0.7h-7.6c-0.4,0-0.7,0.3-0.7,0.7v4c0,0.4,0.2,0.7,0.6,0.7h2.7v14.3h-1.8
		c-0.3,0-0.7,0.2-0.7,0.5c0,0.1,0,0.1,0,0.2v4c0,0.4,0.3,0.7,0.6,0.7c0,0,0,0,0,0h10.5c0.4,0,0.7-0.3,0.7-0.7v-4
		c0-0.4-0.3-0.7-0.7-0.7h-1.8v-6.2c0-3.5,4.2-7.5,8.7-7C81.4,14.4,81.6,14.3,81.7,14.1z">
  </path>
  <path class="st0" d="M164.1,27.6V0.7c0-0.3-0.2-0.7-0.5-0.7c-0.1,0-0.1,0-0.2,0h-7.5c-0.4-0.1-0.7,0.2-0.8,0.5c0,0.1,0,0.1,0,0.2v4
		c0,0.4,0.2,0.7,0.6,0.7c0,0,0,0,0,0h1.8v3.7c0,1.1,0.1,2.1,0.1,2.1h-0.1c-0.5-1-2.5-3.7-7-3.7c-7.1,0-11.6,5.3-11.6,12.8
		c0,8.3,4.9,13,11.5,13c4.8,0,7.3-3.1,7.7-4.1h0.1v2.5c0,0.7,0.6,1.3,1.3,1.3h3.6c0.6,0,1-0.5,1-1L164.1,27.6L164.1,27.6z
		 M151.7,27.7c-3.7,0-6.1-3-6.1-7.4s2.6-7,6.1-7c3.1,0,5.9,2.3,5.9,7.1S155,27.7,151.7,27.7L151.7,27.7z">
  </path>
  <path class="st0" d="M206.5,27.7h-1.9V16.6c0-5.3-3-9-8.5-9s-7.3,3.5-7.7,4.2c-1.2-2.6-3.7-4.2-7.4-4.2c-5.7,0-7.5,3.9-7.7,4.4
		h-0.2v-3c0.1-0.5-0.2-1-0.7-1.1c-0.1,0-0.3,0-0.4,0h-3.7c-0.6,0-1.1,0.5-1.1,1.1c0,0,0,0,0,0l0,0v22.5c0,0.8,0.7,1.5,1.5,1.5h7.1
		c0.4,0,0.7-0.3,0.7-0.7v0v-4c0-0.3-0.2-0.7-0.5-0.7c-0.1,0-0.1,0-0.2,0h-1.8V16.9c0.6-2,2.4-3.4,4.5-3.3c3.3,0,4.2,2.1,4.2,5.3
		v13.7c0,0.3,0.3,0.6,0.6,0.6c0,0,0,0,0,0h8.1c0.4,0,0.7-0.3,0.7-0.6c0,0,0,0,0,0c0,0,0-0.1,0-0.1v-3.9c0-0.3-0.2-0.7-0.5-0.7
		c-0.1,0-0.1,0-0.2,0h-1.8V17.4c0-0.3-0.1-0.7-0.2-1c0.6-1.8,2.3-3,4.2-2.9c3.2,0,4.2,2.1,4.2,5.3v11.9c0,1.3,1.1,2.3,2.3,2.3h6.3
		c0.4,0,0.7-0.3,0.7-0.7v0v-4c0.1-0.3-0.2-0.7-0.5-0.7C206.7,27.7,206.6,27.7,206.5,27.7L206.5,27.7z">
  </path>
  <path class="st0" d="M46,5.5H33.9c-4.2,0-7.9,2.9-8.8,7c-0.9-4.1-4.5-7-8.7-7H4.2C1.9,5.5,0,7.4,0,9.7v21.4c0,2.3,1.9,4.2,4.2,4.2
		H12c8.9,0,11.6,2.1,12.9,6.5c0,0.1,0.1,0.2,0.2,0.2h0.1c0.1,0,0.2-0.1,0.2-0.2c1.3-4.4,3.9-6.5,12.8-6.5H46c2.3,0,4.2-1.9,4.2-4.2
		V9.7C50.2,7.4,48.3,5.5,46,5.5z M21.1,28.6c0,0.2-0.1,0.3-0.3,0.3c0,0,0,0,0,0h-14c-0.2,0-0.3-0.1-0.3-0.3l0,0v-2
		c0-0.2,0.1-0.3,0.3-0.3h0h14c0.2,0,0.3,0.1,0.3,0.3c0,0,0,0,0,0V28.6z M21.1,23.3c0,0.2-0.1,0.3-0.3,0.3c0,0,0,0,0,0h-14
		c-0.2,0-0.3-0.1-0.3-0.3l0,0v-2c0-0.2,0.1-0.3,0.3-0.3h0h14c0.2,0,0.3,0.1,0.3,0.3c0,0,0,0,0,0V23.3z M21.1,18
		c0,0.2-0.1,0.3-0.3,0.3c0,0,0,0,0,0h-14c-0.2,0-0.3-0.1-0.3-0.3l0,0v-2c0-0.2,0.1-0.3,0.3-0.3h0h14c0.2,0,0.3,0.1,0.3,0.3
		c0,0,0,0,0,0V18z M43.7,28.6c0,0.2-0.1,0.3-0.3,0.3l0,0h-14c-0.2,0-0.3-0.1-0.3-0.3l0,0v-2c0-0.2,0.1-0.3,0.3-0.3l0,0h14
		c0.2,0,0.3,0.1,0.3,0.3c0,0,0,0,0,0V28.6z M43.7,23.3c0,0.2-0.1,0.3-0.3,0.3l0,0h-14c-0.2,0-0.3-0.1-0.3-0.3c0,0,0,0,0,0v-2
		c0-0.2,0.1-0.3,0.3-0.3l0,0h14c0.2,0,0.3,0.1,0.3,0.3c0,0,0,0,0,0V23.3z M43.7,18c0,0.2-0.1,0.3-0.3,0.3l0,0h-14
		c-0.2,0-0.3-0.1-0.3-0.3c0,0,0,0,0,0v-2c0-0.2,0.1-0.3,0.3-0.3l0,0h14c0.2,0,0.3,0.1,0.3,0.3c0,0,0,0,0,0V18L43.7,18z">
  </path>
 </g>
</svg>