<svg version="1.1" id="Layer_1" xmlns:x="ns_extend;" xmlns:i="ns_ai;" xmlns:graph="ns_graphs;" xmlns="http://www.w3.org/2000/svg" xmlns:xlink="http://www.w3.org/1999/xlink" x="0px" y="0px" viewBox="0 0 368.6 125.5" style="enable-background:new 0 0 368.6 125.5;" xml:space="preserve">
 <style type="text/css">
  .st0{fill:#A32422;}
	.st1{fill:#DC382C;}
	.st2{fill:#FFFFFF;}
	.st3{fill:#741113;}
	.st4{fill:#AC2724;}
	.st5{fill:#494C4D;}
 </style>
 <metadata>
  <sfw xmlns="ns_sfw;">
   <slices>
   </slices>
   <sliceSourceBounds bottomLeftOrigin="true" height="125.6" width="368.7" x="16" y="-262.9">
   </sliceSourceBounds>
  </sfw>
 </metadata>
 <g id="Layer_2_1_">
  <g id="Layer_1-2">
   <g>
    <g>
     <path class="st0" d="M140.7,96.7c-7.8,4.1-48.3,20.7-57,25.3s-13.4,4.4-20.2,1.2S13.7,102.5,5.9,98.8C2,96.9,0,95.4,0,93.9V79.1
					c0,0,56.1-12.2,65.1-15.4s12.2-3.4,19.9-0.5s53.8,11.1,61.4,13.9v14.6C146.4,93.1,144.6,94.6,140.7,96.7L140.7,96.7z">
     </path>
     <path class="st1" d="M140.7,82c-7.8,4.1-48.3,20.7-57,25.2s-13.4,4.4-20.2,1.2S13.7,87.7,5.9,84s-7.9-6.3-0.3-9.2
					s50.5-19.8,59.5-23s12.2-3.4,19.9-0.5s48,18.8,55.6,21.6S148.5,77.9,140.7,82L140.7,82z">
     </path>
     <path class="st0" d="M140.7,72.6c-7.8,4.1-48.3,20.7-57,25.2s-13.4,4.4-20.2,1.2S13.7,78.4,5.9,74.7C2,72.8,0,71.2,0,69.8V55
					c0,0,56.1-12.2,65.1-15.5S77.3,36.1,85,39s53.8,11.1,61.4,13.9v14.6C146.4,69,144.6,70.5,140.7,72.6z">
     </path>
     <path class="st1" d="M140.7,57.8c-7.8,4.1-48.3,20.7-57,25.2s-13.4,4.5-20.2,1.2S13.7,63.6,5.9,59.8s-7.9-6.2-0.3-9.2
					s50.5-19.8,59.5-23S77.3,24.2,85,27s48,18.9,55.6,21.7S148.5,53.7,140.7,57.8L140.7,57.8z">
     </path>
     <path class="st0" d="M140.7,47.6c-7.8,4.1-48.3,20.7-57,25.2S70.3,77.2,63.5,74S13.7,53.3,5.9,49.6C2,47.8,0,46.2,0,44.7V29.9
					c0,0,56.1-12.2,65.1-15.4s12.2-3.4,19.9-0.6s53.8,11.1,61.4,13.9v14.6C146.4,44,144.6,45.5,140.7,47.6z">
     </path>
     <path class="st1" d="M140.7,32.8c-7.8,4-48.3,20.8-57,25.2s-13.4,4.4-20.2,1.2S13.7,38.5,5.9,34.8s-7.9-6.3-0.3-9.2
					s50.5-19.8,59.5-23S77.3-0.8,85,2s48,18.9,55.6,21.6S148.5,28.7,140.7,32.8L140.7,32.8z">
     </path>
    </g>
   </g>
   <polygon class="st2" points="75.5,11.8 85.2,8.6 82.5,14.9 92.4,18.5 79.7,19.9 76.8,26.7 72.3,19.1 57.6,17.8 68.6,13.8 
			65.3,7.8 75.5,11.8 75.5,11.8 		">
   </polygon>
   <polygon class="st2" points="76.1,51.7 52.4,41.9 86.3,36.7 76.1,51.7 76.1,51.7 		">
   </polygon>
   <path class="st2" d="M43.3,22.3c10,0,18.1,3.1,18.1,7s-8.2,7-18.1,7s-18.1-3.2-18.1-7S33.3,22.3,43.3,22.3z">
   </path>
   <polygon class="st3" points="107.4,20.4 127.4,28.3 107.4,36.3 107.4,20.4 107.4,20.4 		">
   </polygon>
   <polygon class="st4" points="107.4,20.4 107.4,36.3 105.2,37.1 85.2,29.2 107.4,20.4 107.4,20.4 		">
   </polygon>
   <path class="st5" d="M193,41.4c1.7-1.9,3.9-3.4,6.2-4.3c2.3-1,4.8-1.5,7.3-1.6c1.8-0.2,3.6,0.4,5,1.6c1,1,1.6,2.4,1.5,3.8
			c0,1.4-0.5,2.8-1.5,3.8c-1,1.1-2.3,1.7-3.8,1.6c-6.2,0.5-14.9,6.8-14.9,15.2v19.2c-0.1,3-2.5,5.3-5.4,5.4
			c-1.5,0.1-2.9-0.6-3.9-1.7c-1-1-1.6-2.4-1.6-3.8v-40c0-1.4,0.6-2.8,1.6-3.8c1.2-0.9,2.6-1.3,4.1-1.4c3,0.1,5.3,2.4,5.4,5.4
			L193,41.4z">
   </path>
   <path class="st5" d="M258.7,59c0,1.3-0.5,2.6-1.4,3.5c-1,1-2.4,1.5-3.8,1.6h-32c0.3,2.5,1.5,4.9,3.5,6.6c2.5,2.7,5.9,4.3,9.5,4.6
			c3.7,0.6,7.5-0.2,10.6-2.4c1.1-1.1,2.5-1.7,4.1-1.6c1.3-0.1,2.6,0.4,3.5,1.4c1.8,1.6,1.9,4.4,0.3,6.2c0,0,0,0,0,0
			c-0.1,0.1-0.2,0.2-0.3,0.3c-4.8,4.4-11.1,6.8-17.6,6.5c-6.7,0.1-13.1-2.6-17.6-7.6c-4.6-4.8-7.2-11.2-7.3-17.9
			c-0.1-6.7,2.5-13.2,7.3-17.9c4.4-4.8,10.6-7.4,17.1-7.3c6.3-0.2,12.4,2.2,16.7,6.8c4.6,4.4,7.3,10.4,7.6,16.7V59L258.7,59z
			 M234.6,44.7c-3.4,0.1-6.6,1.3-9.1,3.5c-2.2,1.8-3.7,4.3-4.3,7h28.4c-0.8-2.7-2.5-5.1-4.9-6.8C241.9,46.1,238.4,44.8,234.6,44.7">
   </path>
   <path class="st5" d="M309.7,80.1c-0.1,3-2.5,5.3-5.4,5.4c-2.6-0.1-4.8-1.9-5.4-4.3c-4,2.9-8.9,4.4-13.8,4.3
			c-6.5,0.1-12.8-2.6-17.3-7.3c-4.7-4.7-7.3-11.2-7-17.9c0-6.6,2.5-13,7-17.9c4.5-4.8,10.8-7.6,17.3-7.6c4.9-0.1,9.6,1.5,13.5,4.3
			V20.3c0-1.4,0.6-2.8,1.6-3.8c1-1,2.4-1.6,3.8-1.6c1.4,0,2.8,0.6,3.8,1.6c1,1,1.6,2.4,1.6,3.8v59.8H309.7z M285.3,74.7
			c3.6,0.1,7.1-1.5,9.5-4.3c5.4-5.6,5.4-14.4,0-20c-2.4-2.7-5.8-4.3-9.5-4.4c-3.7-0.1-7.2,1.5-9.5,4.3c-5.4,5.6-5.4,14.4,0,20
			C278.2,73.1,281.7,74.7,285.3,74.7">
   </path>
   <path class="st5" d="M325.7,20.3v2.2c0,1.5-0.6,3-1.7,4.1c-1,1-2.4,1.5-3.8,1.4c-1.4,0-2.8-0.5-3.8-1.6c-1.1-1.1-1.7-2.5-1.6-4.1
			v-2c0-1.4,0.6-2.8,1.6-3.8c1-1,2.4-1.6,3.8-1.6c1.4,0,2.8,0.6,3.8,1.6C325.1,17.4,325.7,18.8,325.7,20.3 M316.5,36.8
			c1-1,2.4-1.6,3.8-1.6c1.4,0,2.8,0.5,3.8,1.6c1,1.1,1.6,2.5,1.5,4v39.6c0.1,1.5-0.5,2.9-1.7,3.8c-1,1-2.4,1.6-3.8,1.6
			c-1.4,0-2.8-0.6-3.8-1.6c-1-1-1.6-2.4-1.6-3.8V40.8c0-1.5,0.6-3,1.6-4">
   </path>
   <path class="st5" d="M364.1,40.6c1.1,0.8,1.9,1.9,2.2,3.2c0.2,1.4,0,2.8-0.5,4.1c-0.8,1.1-1.9,1.9-3.2,2.2c-1.4,0.3-2.9,0-4.1-0.8
			c-3.8-2.4-6.8-3.8-9.2-3.8c-2.2-0.1-4.3,0.5-6,1.9c-1.1,0.8-1.6,1.4-1.6,1.9c-0.1,0.5,0,1,0.3,1.4c0.3,0.3,0.7,0.6,1.1,0.8
			c2.2,1.4,4.7,2.2,7.3,2.4l0,0c3.4,0.6,6.6,1.6,9.7,3c2.7,1.1,5,3.1,6.5,5.7c4,6.2,2.3,14.6-4,18.6c0,0-0.1,0-0.1,0.1
			c-3.8,2.7-8.3,4.1-13,4.1c-6.2,0-12.2-2.4-17.9-7c-1-0.9-1.7-2.2-1.9-3.5c-0.3-2.9,1.8-5.4,4.7-5.7c1.3-0.1,2.7,0.3,3.7,1.1
			c3,2.8,7,4.4,11.1,4.3c2.4,0.1,4.8-0.6,6.8-1.9c1.1-1.1,1.9-1.9,1.9-2.7s0-1.1-0.3-1.3c0-0.3-0.5-0.8-1.4-1.1
			c-2.5-1.5-5.2-2.5-8.1-2.9l0,0c-3.2-0.5-6.3-1.5-9.2-3c-2.6-1.3-4.9-3.2-6.5-5.7c-1.1-1.9-1.6-4-1.6-6.2c0-4.5,2.2-8.6,6-11.1
			c3.7-2.5,8-3.8,12.5-3.8C353.7,35.1,358.6,37,364.1,40.6">
   </path>
  </g>
 </g>
</svg>