<svg xmlns="http://www.w3.org/2000/svg" height="60" width="400"><path d="M129.277 15.259a1.68 1.68 0 0 1 .43 1.23v4.55c0 1-.54 1.5-1.61 1.61a10.45 10.45 0 0 0-3.43.83 8.88 8.88 0 0 0-3.1 2.22c-1.29 1.39-1.93 3.43-1.93 6.1v11.41a1.48 1.48 0 0 1-1.35 1.6h-5a1.48 1.48 0 0 1-1.61-1.35v-26.49a1.5 1.5 0 0 1 1.35-1.61h5a1.49 1.49 0 0 1 1.57 1.35 1.13 1.13 0 0 1 0 .26v2.3a10.31 10.31 0 0 1 3.8-3.1 13.55 13.55 0 0 1 4.66-1.29 1.43 1.43 0 0 1 1.22.38zM140.897 44.009a14.93 14.93 0 0 1-6.05-4.82 14.38 14.38 0 0 1-2.63-9 15.23 15.23 0 0 1 2.12-8 14.42 14.42 0 0 1 5.76-5.38 17.27 17.27 0 0 1 8.13-1.9 16.32 16.32 0 0 1 7.42 1.74 14.74 14.74 0 0 1 5.65 5 12.08 12.08 0 0 1 1.87 4.17 23.14 23.14 0 0 1 .43 4.77 3 3 0 0 1-.59 1.87 2 2 0 0 1-1.66.75h-21.15a5.75 5.75 0 0 0 2.94 4.07 10.41 10.41 0 0 0 5.09 1.24 10 10 0 0 0 3.75-.64 9.21 9.21 0 0 0 2.79-1.82 2 2 0 0 1 1.28-.59 1.65 1.65 0 0 1 1 .32l3.48 2a1.38 1.38 0 0 1 .86 1.18 1.76 1.76 0 0 1-.43 1 16.24 16.24 0 0 1-12.73 5.55 18.16 18.16 0 0 1-7.33-1.51zm1.9-20.49a5.7 5.7 0 0 0-2.38 4h14.72a5.75 5.75 0 0 0-1.07-2.73 6.83 6.83 0 0 0-2.41-2.09 7.24 7.24 0 0 0-3.48-.8 8.64 8.64 0 0 0-5.38 1.62zM212.957 18.099q3.07 3.26 3.08 9.31v15.8a1.49 1.49 0 0 1-1.35 1.6h-5.09a1.48 1.48 0 0 1-1.65-1.29 1.13 1.13 0 0 1 0-.26v-15.85a6 6 0 0 0-1.53-4.5 5.87 5.87 0 0 0-4.2-1.44 5.16 5.16 0 0 0-4 1.74 7.62 7.62 0 0 0-1.62 5.22v14.78a1.48 1.48 0 0 1-1.35 1.6h-5.13a1.49 1.49 0 0 1-1.61-1.29v-16.11a6.06 6.06 0 0 0-1.49-4.5 5.8 5.8 0 0 0-4.18-1.39 5.11 5.11 0 0 0-4.1 1.85q-1.57 1.85-1.58 5.91l-.05 14a1.42 1.42 0 0 1-1.61 1.6h-4.76a1.48 1.48 0 0 1-1.61-1.36 1.13 1.13 0 0 1 0-.26v-26.29a1.49 1.49 0 0 1 1.35-1.61h5a1.49 1.49 0 0 1 1.61 1.35 1.13 1.13 0 0 1 0 .26v1.07a13.15 13.15 0 0 1 3.75-2.3 10.66 10.66 0 0 1 4-.91q6.21 0 9.48 4a11.08 11.08 0 0 1 4.12-3 13.69 13.69 0 0 1 5.36-1q6.07 0 9.16 3.27zM229.887 43.449a15.76 15.76 0 0 1-5.81-5.6 14.88 14.88 0 0 1 0-15.37 15.79 15.79 0 0 1 5.84-5.61 16.44 16.44 0 0 1 21.9 5.65 14.69 14.69 0 0 1 0 15.31 16.45 16.45 0 0 1-21.9 5.65zm3.94-20.51a8 8 0 0 0-2.95 3 9.18 9.18 0 0 0 0 8.54 7.39 7.39 0 0 0 2.92 3 8 8 0 0 0 11-2.7c.06-.1.12-.19.17-.29a8.81 8.81 0 0 0 1.07-4.29 8.57 8.57 0 0 0-1-4.2 7.94 7.94 0 0 0-2.92-3 8.25 8.25 0 0 0-4.12-1.07 7.87 7.87 0 0 0-4.07 1.1zM271.407 44.869c-.42 0-.8-.31-1.12-.91l-13.69-26.56a1.87 1.87 0 0 1-.21-.8c0-.75.46-1.13 1.39-1.13h5.41a2 2 0 0 1 1.93 1.18l6.26 13.23 6.22-13.23a2 2 0 0 1 2-1.13h5.46c.93 0 1.39.38 1.39 1.13a1.73 1.73 0 0 1-.21.8l-13.76 26.51c-.28.56-.64.91-1.07.91zM297.487 44.009a14.93 14.93 0 0 1-6.05-4.82 14.31 14.31 0 0 1-2.62-9 15.13 15.13 0 0 1 2.11-8 14.42 14.42 0 0 1 5.76-5.38 17.27 17.27 0 0 1 8.13-1.9 16.32 16.32 0 0 1 7.42 1.74 14.75 14.75 0 0 1 5.65 5 11.94 11.94 0 0 1 1.87 4.18 23 23 0 0 1 .43 4.76 2.92 2.92 0 0 1-.59 1.87 2 2 0 0 1-1.66.75h-21.15a5.74 5.74 0 0 0 2.95 4.07 10.41 10.41 0 0 0 5.09 1.24 10 10 0 0 0 3.75-.64 9.16 9.16 0 0 0 2.78-1.82 2 2 0 0 1 1.24-.54 1.76 1.76 0 0 1 1 .32l3.48 2a1.38 1.38 0 0 1 .85 1.18 1.82 1.82 0 0 1-.42 1 16.27 16.27 0 0 1-12.68 5.5 18.17 18.17 0 0 1-7.34-1.51zm1.9-20.49a5.7 5.7 0 0 0-2.38 4h14.72a5.65 5.65 0 0 0-1.07-2.73 6.83 6.83 0 0 0-2.41-2.09 7.24 7.24 0 0 0-3.48-.8 8.64 8.64 0 0 0-5.38 1.6z" fill="#54616C"/><path d="M336.987 44.409a1.63 1.63 0 0 1-1.18.4h-4.71a1.48 1.48 0 0 1-1.6-1.35 1 1 0 0 1 0-.25V5.939a1.49 1.49 0 0 1 1.34-1.61h5a1.48 1.48 0 0 1 1.61 1.35 1.13 1.13 0 0 1 0 .26v12.48a9 9 0 0 1 3.64-2.68 13.2 13.2 0 0 1 5.3-1 15 15 0 0 1 7.82 2 13.46 13.46 0 0 1 5.19 5.54 17.22 17.22 0 0 1 1.77 7.82 16.9 16.9 0 0 1-1.77 7.81 13.41 13.41 0 0 1-5.09 5.52 15.25 15.25 0 0 1-7.92 2 13.46 13.46 0 0 1-5.35-1.08 8.45 8.45 0 0 1-3.59-2.51v1.44a1.42 1.42 0 0 1-.46 1.13zm2.28-8.24a7.88 7.88 0 0 0 5.91 2.22 7.76 7.76 0 0 0 5.84-2.33 8.23 8.23 0 0 0 2.25-6 8.37 8.37 0 0 0-2.2-6.05 8.65 8.65 0 0 0-11.75 0 8.34 8.34 0 0 0-2.22 6.05 8.33 8.33 0 0 0 2.17 6.08zM397.487 15.789a1.58 1.58 0 0 1 .43 1.18v25.22q0 6.42-3.93 10.07-3.93 3.65-10.95 3.64a22.51 22.51 0 0 1-12.8-3.54 1.38 1.38 0 0 1-.75-1.17 1.86 1.86 0 0 1 .37-1l2.09-3a1.5 1.5 0 0 1 1.24-.75 1.92 1.92 0 0 1 1 .32 14 14 0 0 0 3.86 1.74 15.89 15.89 0 0 0 4.39.62q7.54 0 7.55-6.86v-.48a12.5 12.5 0 0 1-8.25 2.62 16.72 16.72 0 0 1-8.14-1.99 13.67 13.67 0 0 1-5.46-5.36 15.22 15.22 0 0 1-1.87-7.44 15 15 0 0 1 1.87-7.5 13.92 13.92 0 0 1 5.41-5.3 16.13 16.13 0 0 1 8.19-2 12.5 12.5 0 0 1 8.25 2.62v-.48a1.48 1.48 0 0 1 1.34-1.6 1.13 1.13 0 0 1 .26 0h4.72a1.57 1.57 0 0 1 1.18.44zm-11.16 20.73a7.72 7.72 0 0 0 2.92-2.92 8.26 8.26 0 0 0 0-8.08 7.79 7.79 0 0 0-2.92-2.89 8.29 8.29 0 0 0-4.13-1 7.88 7.88 0 0 0-5.83 2.25 7.76 7.76 0 0 0-2.25 5.73 7.79 7.79 0 0 0 2.2 5.78 8 8 0 0 0 5.88 2.19 8.15 8.15 0 0 0 4.1-1z" fill="#BAC0C4"/><g fill="#54616C"><path d="M2.747 24.21L40.59 43.947a1.65 1.65 0 0 0 1.517 0L79.94 24.21a1.641 1.641 0 0 0 .706-2.215 1.703 1.703 0 0 0-.706-.705L42.106 1.553a1.668 1.668 0 0 0-1.526 0L2.747 21.29a1.659 1.659 0 0 0-.697 2.223 1.712 1.712 0 0 0 .697.697z"/><path d="M79.939 36.218l-6.256-3.265-30.06 15.679a4.95 4.95 0 0 1-4.543 0L9.012 32.953l-6.265 3.265a1.65 1.65 0 0 0-.697 2.206 1.615 1.615 0 0 0 .697.705L40.59 58.875a1.65 1.65 0 0 0 1.517 0L79.94 39.13a1.641 1.641 0 0 0 .706-2.214 1.676 1.676 0 0 0-.706-.697z" fill="#BAC0C4"/></g></svg>