<svg baseProfile="basic" height="28" viewBox="0 0 69 28" width="69" xmlns="http://www.w3.org/2000/svg">
<g fill="#E36228">
<path d="M67.359 18.343c-.994 1.082-2.246 1.909-3.632 1.938-2.66.056-2.338-3.337-2.338-3.337s7.72.27 7.609-5.11c-.047-2.264-2.209-3.289-4.172-3.248-4.006.083-7.388 3.808-7.291 8.513.011.451.053.876.124 1.274-.519.679-1.439 1.697-2.269 1.697-.457 0-.627-.404-.627-.859 0-3.457 1.597-6.858 1.597-8.869 0-1.219-.833-1.569-1.864-1.569-1.272 0-1.979.828-1.979.828.693 1.905-1.771 10.469-4.362 10.469-.614 0-.719-.48-.719-.872 0-2.567 1.584-6.867 1.584-8.788 0-1.277-.852-1.657-1.858-1.657-1.191 0-1.982.848-1.982.848.854 1.644-1.392 7.927-1.392 9.744 0 1.819 1.007 3.254 2.784 3.254 2.886 0 4.56-3.616 4.56-3.616s-.385 3.616 3.118 3.616c1.798 0 3.227-1.525 3.977-2.54.925 1.729 2.733 2.578 5.186 2.526 1.76-.036 3.025-.54 4.003-1.417 1.506-1.356.502-3.437-.057-2.825zm-2.651-7.638c.53-.012.81.239.823.813.063 3.13-4.157 3.412-4.157 3.412.223-1.553 1.428-4.186 3.334-4.225zM40.887 8.251c-1.271 0-2.244 1.101-2.244 2.277 0 1.937 1.588 1.993 1.559 3.553-.029 1.558-2.519 5.985-4.2 5.985-.624 0-.72-.629-.72-.924 0-2.983 1.583-7.242 1.583-8.678 0-1.352-.823-1.698-1.808-1.698-1.302 0-2.021.827-2.021.827.451.933.008 3.165-.496 5.308-.871 2.466-3.692 5.431-6.218 5.443-3.297.018-2.815-3.453-2.815-3.453s7.754.174 7.512-5.203c-.102-2.263-2.288-3.235-4.25-3.147-4.002.18-7.191 3.98-6.979 8.683.167 3.71 2.946 5.48 5.903 5.349 2.616-.118 4.57-1.299 5.976-2.678.185 1.545 1.156 2.695 3.016 2.695 4.851 0 8.688-6.982 8.688-11.313.001-1.584-.831-3.026-2.486-3.026zm-14.039 2.41c.473-.021.807.216.832.79.144 3.184-4.206 3.517-4.206 3.517.185-1.557 1.651-4.229 3.374-4.307z"></path>
<path d="M28.631 23.998c-.676.337-1.859.932-4.388.932-7.863 0-9.486-10.078-9.486-10.078s5.953-2.511 5.953-7.603c0-5.1-4.152-7.249-8.346-7.249C7.705 0 2.531 2.503.297 7.353c-1.409 3.061 2.641 4.017 2.842 3.062.66-3.132 4.16-8.065 9.259-8.065 2.688 0 4.261 1.771 4.261 4.898 0 3.879-4.482 5.922-6.47 6.584.885-4.055 1.194-5.278 1.194-5.998 0-1.594-.922-1.859-1.863-1.859-1.141 0-1.966.834-1.966.834.661 1.202-.455 5.475-.938 7.207-.586 2.1-1.396 5.202-1.903 7.174-.507 1.972 3.027 1.441 3.264.859.257-.634.936-2.955 1.55-5.396 1.03-.32 2.211-.775 2.211-.775C12.254 19.303 15.01 28 22.875 28c6.746 0 6.315-4.279 5.756-4.002z"></path>
</g>
</svg>