<?xml version="1.0" encoding="UTF-8" standalone="no"?>
<!-- Created with Inkscape (http://www.inkscape.org/) -->

<svg
   xmlns:dc="http://purl.org/dc/elements/1.1/"
   xmlns:cc="http://creativecommons.org/ns#"
   xmlns:rdf="http://www.w3.org/1999/02/22-rdf-syntax-ns#"
   xmlns:svg="http://www.w3.org/2000/svg"
   xmlns="http://www.w3.org/2000/svg"
   xmlns:sodipodi="http://sodipodi.sourceforge.net/DTD/sodipodi-0.dtd"
   xmlns:inkscape="http://www.inkscape.org/namespaces/inkscape"
   width="135.83904mm"
   height="38.270096mm"
   viewBox="0 0 135.83904 38.270096"
   version="1.1"
   id="svg46"
   sodipodi:docname="logo_white.svg"
   inkscape:version="0.92.4 (5da689c313, 2019-01-14)">
  <defs
     id="defs40" />
  <sodipodi:namedview
     id="base"
     pagecolor="#ffffff"
     bordercolor="#666666"
     borderopacity="1.0"
     inkscape:pageopacity="0.0"
     inkscape:pageshadow="2"
     inkscape:zoom="1.4"
     inkscape:cx="204.57595"
     inkscape:cy="93.159503"
     inkscape:document-units="mm"
     inkscape:current-layer="flowRoot10"
     showgrid="false"
     inkscape:window-width="1920"
     inkscape:window-height="1016"
     inkscape:window-x="0"
     inkscape:window-y="27"
     inkscape:window-maximized="1"
     fit-margin-top="0"
     fit-margin-left="0"
     fit-margin-right="0"
     fit-margin-bottom="0" />
  <metadata
     id="metadata43">
    <rdf:RDF>
      <cc:Work
         rdf:about="">
        <dc:format>image/svg+xml</dc:format>
        <dc:type
           rdf:resource="http://purl.org/dc/dcmitype/StillImage" />
        <dc:title />
      </cc:Work>
    </rdf:RDF>
  </metadata>
  <g
     inkscape:label="Layer 1"
     inkscape:groupmode="layer"
     id="layer1"
     transform="translate(-46.869041,-53.772316)">
    <rect
       style="fill:#ffffff;fill-opacity:1;stroke-width:0.11048492"
       id="rect145"
       width="2.6458333"
       height="14.109261"
       x="46.869041"
       y="53.772316" />
    <rect
       style="fill:#ffffff;fill-opacity:1;stroke-width:0.08553634"
       id="rect147"
       width="14.073954"
       height="2.8348205"
       x="46.869041"
       y="53.77232" />
    <rect
       style="fill:#ffffff;fill-opacity:1;stroke-width:0.0858721"
       id="rect147-2"
       width="14.184661"
       height="2.8348205"
       x="168.52341"
       y="89.207588" />
    <rect
       style="fill:#ffffff;fill-opacity:1;stroke-width:0.11048492"
       id="rect145-7"
       width="2.6458333"
       height="14.109261"
       x="180.06224"
       y="77.933151" />
    <g
       aria-label="savepage"
       transform="matrix(0.29079518,0,0,0.29079518,40.822419,-1.7322006)"
       style="font-style:normal;font-weight:normal;font-size:40px;line-height:1.25;font-family:sans-serif;letter-spacing:0px;word-spacing:0px;fill:#000000;fill-opacity:1;stroke:none"
       id="flowRoot10">
      <path
         d="m 89.3936,271.57396 q -3.669334,0 -7.765334,-0.768 -4.096,-0.768 -7.338667,-2.64534 -1.792,-1.024 -2.218667,-2.47466 -0.426666,-1.536 0.08533,-2.816 0.597333,-1.36534 1.877333,-1.96267 1.365333,-0.59733 3.157334,0.256 3.413333,1.62133 6.4,2.304 2.986666,0.59733 5.888,0.59733 4.096,0 6.058667,-1.36533 2.048,-1.45067 2.048,-3.75467 0,-3.584 -5.290667,-4.608 l -8.533334,-1.62133 q -10.837333,-2.048 -10.837333,-11.264 0,-4.096 2.218666,-7.08267 2.304001,-2.98666 6.314667,-4.608 4.010667,-1.62133 9.216001,-1.62133 7.509333,0 13.39733,3.328 1.62134,0.85333 1.87734,2.38933 0.34133,1.45067 -0.34134,2.816 -0.59733,1.28 -1.96266,1.87734 -1.36534,0.512 -3.15734,-0.34134 -2.64533,-1.36533 -5.119997,-1.96266 -2.389333,-0.59734 -4.608,-0.59734 -4.181334,0 -6.229334,1.45067 -1.962666,1.45067 -1.962666,3.84 0,3.75467 4.864,4.608 l 8.533333,1.62133 q 5.546664,1.024 8.362664,3.75467 2.90134,2.73067 2.90134,7.33867 0,6.22933 -4.864,9.81333 -4.864004,3.49867 -12.97067,3.49867 z"
         style="font-style:normal;font-variant:normal;font-weight:bold;font-stretch:normal;font-size:85.33333588px;font-family:Nunito;-inkscape-font-specification:'Nunito Bold';fill:#ffffff"
         id="path31" />
      <path
         d="m 129.52427,271.57396 q -4.52267,0 -8.10667,-1.70667 -3.49867,-1.792 -5.54667,-4.77867 -1.96266,-2.98666 -1.96266,-6.74133 0,-4.608 2.38933,-7.25333 2.38933,-2.73067 7.76533,-3.92534 5.376,-1.19466 14.42134,-1.19466 h 2.98666 v -1.792 q 0,-4.26667 -1.87733,-6.144 -1.87733,-1.87734 -6.31467,-1.87734 -2.47466,0 -5.376,0.59734 -2.816,0.59733 -5.97333,2.048 -2.048,0.93866 -3.41333,0.256 -1.36534,-0.768 -1.87734,-2.304 -0.42666,-1.62134 0.17067,-3.24267 0.68267,-1.62133 2.64533,-2.38933 3.92534,-1.62134 7.50934,-2.304 3.66933,-0.68267 6.656,-0.68267 9.13066,0 13.568,4.26667 4.43733,4.18133 4.43733,13.056 v 20.48 q 0,5.46133 -4.94933,5.46133 -5.03467,0 -5.03467,-5.46133 v -1.87734 q -1.45067,3.49867 -4.608,5.54667 -3.15733,1.96267 -7.50933,1.96267 z m 2.21866,-7.33867 q 4.18134,0 6.912,-2.90133 2.816,-2.90134 2.816,-7.33867 v -1.87733 h -2.90133 q -8.02133,0 -11.17867,1.28 -3.072,1.19466 -3.072,4.43733 0,2.816 1.96267,4.608 1.96267,1.792 5.46133,1.792 z"
         style="font-style:normal;font-variant:normal;font-weight:bold;font-stretch:normal;font-size:85.33333588px;font-family:Nunito;-inkscape-font-specification:'Nunito Bold';fill:#ffffff"
         id="path33" />
      <path
         d="m 178.84827,271.40329 q -4.26667,0 -6.31467,-4.52267 l -13.568,-31.488 q -1.19467,-2.816 -0.0853,-4.94933 1.19466,-2.13333 4.69333,-2.13333 1.96267,0 3.15734,0.93866 1.19466,0.85334 2.13333,3.328 l 10.24,25.6 10.58133,-25.68533 q 0.93867,-2.38933 2.13334,-3.24267 1.28,-0.93866 3.41333,-0.93866 2.73067,0 3.84,2.13333 1.10933,2.13333 -0.0853,4.864 l -13.824,31.57333 q -1.87734,4.52267 -6.31467,4.52267 z"
         style="font-style:normal;font-variant:normal;font-weight:bold;font-stretch:normal;font-size:85.33333588px;font-family:Nunito;-inkscape-font-specification:'Nunito Bold';fill:#ffffff"
         id="path35" />
      <path
         d="m 226.68427,271.57396 q -7.08267,0 -12.20267,-2.64534 -5.12,-2.64533 -7.936,-7.50933 -2.73067,-4.864 -2.73067,-11.52 0,-6.48533 2.64534,-11.34933 2.73066,-4.864 7.424,-7.59467 4.77866,-2.816 10.83733,-2.816 8.87467,0 13.99467,5.632 5.20533,5.632 5.20533,15.36 0,3.15733 -4.096,3.15733 h -25.77067 q 1.19467,11.17867 12.8,11.17867 2.21867,0 4.94934,-0.512 2.816,-0.59733 5.29066,-1.96267 2.21867,-1.28 3.75467,-0.768 1.536,0.42667 2.13333,1.792 0.68267,1.36534 0.17067,3.072 -0.42667,1.62134 -2.38933,2.816 -2.98667,1.87734 -6.912,2.816 -3.84,0.85334 -7.168,0.85334 z m -1.536,-36.18134 q -4.69334,0 -7.59467,2.90134 -2.90133,2.90133 -3.49867,7.85066 h 20.992 q -0.34133,-5.20533 -2.90133,-7.936 -2.47467,-2.816 -6.99733,-2.816 z"
         style="font-style:normal;font-variant:normal;font-weight:bold;font-stretch:normal;font-size:85.33333588px;font-family:Nunito;-inkscape-font-specification:'Nunito Bold';fill:#ffffff"
         id="path37" />
      <path
         d="m 257.74294,286.76329 q -5.29066,0 -5.29066,-5.376 v -47.70133 q 0,-5.376 5.20533,-5.376 5.29067,0 5.29067,5.376 v 1.792 q 1.792,-3.328 5.376,-5.29067 3.584,-2.048 8.192,-2.048 5.46133,0 9.55733,2.64533 4.18133,2.64534 6.48533,7.50934 2.304,4.77866 2.304,11.52 0,6.656 -2.304,11.60533 -2.304,4.864 -6.4,7.50933 -4.096,2.64534 -9.64266,2.64534 -4.43734,0 -8.02134,-1.87734 -3.49866,-1.96266 -5.376,-5.20533 v 16.896 q 0,5.376 -5.376,5.376 z m 15.78667,-23.296 q 4.77867,0 7.68,-3.41333 2.90133,-3.49867 2.90133,-10.24 0,-6.82667 -2.90133,-10.15467 -2.90133,-3.41333 -7.68,-3.41333 -4.77867,0 -7.68,3.41333 -2.90133,3.328 -2.90133,10.15467 0,6.74133 2.90133,10.24 2.90133,3.41333 7.68,3.41333 z"
         style="font-style:normal;font-variant:normal;font-weight:bold;font-stretch:normal;font-size:85.33333588px;font-family:Nunito;-inkscape-font-specification:'Nunito Bold';fill:#ffffff"
         id="path39" />
      <path
         d="m 317.3576,271.57396 q -4.52267,0 -8.10667,-1.70667 -3.49866,-1.792 -5.54666,-4.77867 -1.96267,-2.98666 -1.96267,-6.74133 0,-4.608 2.38933,-7.25333 2.38934,-2.73067 7.76534,-3.92534 5.376,-1.19466 14.42133,-1.19466 h 2.98667 v -1.792 q 0,-4.26667 -1.87734,-6.144 -1.87733,-1.87734 -6.31466,-1.87734 -2.47467,0 -5.376,0.59734 -2.816,0.59733 -5.97334,2.048 -2.048,0.93866 -3.41333,0.256 -1.36533,-0.768 -1.87733,-2.304 -0.42667,-1.62134 0.17066,-3.24267 0.68267,-1.62133 2.64534,-2.38933 3.92533,-1.62134 7.50933,-2.304 3.66933,-0.68267 6.656,-0.68267 9.13067,0 13.568,4.26667 4.43733,4.18133 4.43733,13.056 v 20.48 q 0,5.46133 -4.94933,5.46133 -5.03467,0 -5.03467,-5.46133 v -1.87734 q -1.45066,3.49867 -4.608,5.54667 -3.15733,1.96267 -7.50933,1.96267 z m 2.21867,-7.33867 q 4.18133,0 6.912,-2.90133 2.816,-2.90134 2.816,-7.33867 v -1.87733 h -2.90134 q -8.02133,0 -11.17866,1.28 -3.072,1.19466 -3.072,4.43733 0,2.816 1.96266,4.608 1.96267,1.792 5.46134,1.792 z"
         style="font-style:normal;font-variant:normal;font-weight:bold;font-stretch:normal;font-size:85.33333588px;font-family:Nunito;-inkscape-font-specification:'Nunito Bold';fill:#ffffff"
         id="path41" />
      <path
         d="m 369.74162,286.93396 q -4.608,0 -8.96,-0.85334 -4.26667,-0.85333 -7.76533,-2.64533 -2.048,-1.024 -2.47467,-2.64533 -0.34133,-1.536 0.34133,-2.98667 0.68267,-1.45067 2.048,-2.13333 1.45067,-0.59734 3.072,0.17066 3.75467,1.87734 7.08267,2.38934 3.41333,0.59733 5.80267,0.59733 11.43466,0 11.43466,-11.008 v -5.71733 q -1.792,3.49866 -5.54666,5.54666 -3.66934,2.048 -8.192,2.048 -5.632,0 -9.81334,-2.56 -4.18133,-2.64533 -6.48533,-7.33866 -2.304,-4.69334 -2.304,-10.92267 0,-6.22933 2.304,-10.83733 2.304,-4.69334 6.48533,-7.25334 4.18134,-2.64533 9.81334,-2.64533 4.52266,0 8.192,1.96267 3.66933,1.96266 5.376,5.376 v -1.792 q 0,-2.64534 1.36533,-4.01067 1.45067,-1.36533 3.92533,-1.36533 5.29067,0 5.29067,5.376 v 32.85333 q 0,10.15467 -5.376,15.27467 -5.376,5.12 -15.616,5.12 z m -0.256,-25.344 q 4.94933,0 7.85067,-3.41334 2.90133,-3.41333 2.90133,-9.30133 0,-5.888 -2.90133,-9.216 -2.90134,-3.41333 -7.85067,-3.41333 -4.94933,0 -7.85067,3.41333 -2.90133,3.328 -2.90133,9.216 0,5.888 2.90133,9.30133 2.90134,3.41334 7.85067,3.41334 z"
         style="font-style:normal;font-variant:normal;font-weight:bold;font-stretch:normal;font-size:85.33333588px;font-family:Nunito;-inkscape-font-specification:'Nunito Bold';fill:#ffffff"
         id="path43" />
      <path
         d="m 422.35095,271.57396 q -7.08266,0 -12.20266,-2.64534 -5.12,-2.64533 -7.936,-7.50933 -2.73067,-4.864 -2.73067,-11.52 0,-6.48533 2.64533,-11.34933 2.73067,-4.864 7.424,-7.59467 4.77867,-2.816 10.83734,-2.816 8.87466,0 13.99466,5.632 5.20534,5.632 5.20534,15.36 0,3.15733 -4.096,3.15733 h -25.77067 q 1.19467,11.17867 12.8,11.17867 2.21867,0 4.94933,-0.512 2.816,-0.59733 5.29067,-1.96267 2.21867,-1.28 3.75467,-0.768 1.536,0.42667 2.13333,1.792 0.68267,1.36534 0.17067,3.072 -0.42667,1.62134 -2.38934,2.816 -2.98666,1.87734 -6.912,2.816 -3.84,0.85334 -7.168,0.85334 z m -1.536,-36.18134 q -4.69333,0 -7.59466,2.90134 -2.90134,2.90133 -3.49867,7.85066 h 20.992 q -0.34133,-5.20533 -2.90133,-7.936 -2.47467,-2.816 -6.99734,-2.816 z"
         style="font-style:normal;font-variant:normal;font-weight:bold;font-stretch:normal;font-size:85.33333588px;font-family:Nunito;-inkscape-font-specification:'Nunito Bold';fill:#ffffff"
         id="path45" />
    </g>
  </g>
</svg>
