<svg id="Слой_1" style="enable-background:new 0 0 1360.2 361.1;" version="1.1" viewBox="0 0 1360.2 361.1" x="0px" xml:space="preserve" xmlns="http://www.w3.org/2000/svg" xmlns:xlink="http://www.w3.org/1999/xlink" y="0px">
 <style type="text/css">
  .st0{fill:#FF642D;}
 </style>
 <g>
  <g>
   <path d="M890.2,163.2c0-19.5-12-33.7-35-33.7h-74.3v101.1h24.4v-34.5h28.9l28.3,34.5h27.5v-2.2l-27.5-32.9
			C879.8,192,890.2,179.4,890.2,163.2z M852.5,175.7h-47.1v-25.2h47.1c8.7,0,14.3,4.6,14.3,12.6
			C866.8,171.3,861.4,175.7,852.5,175.7z">
   </path>
   <polygon points="1259.1,129.5 1236.2,129.5 1236.2,167.9 1174.7,167.9 1174.7,129.5 1150,129.5 1150,230.7 1174.7,230.7 
			1174.7,190.8 1236.2,190.8 1236.2,230.7 1259.1,230.7 		">
   </polygon>
   <polygon points="715.6,129.5 688.4,214.6 686.9,214.6 659.6,129.5 616.1,129.5 616.1,230.7 639.4,230.7 639.4,147.6 640.8,147.6 
			668,230.7 705.5,230.7 732.8,147.6 734.2,147.6 734.2,230.7 758.2,230.7 758.2,129.5 		">
   </polygon>
   <path d="M449.8,170.9c-8.6-0.9-24.7-2.4-33.3-3.3c-8.5-0.9-13.4-3.4-13.4-9c0-5.4,5.2-9.9,26.2-9.9c18.6,0,35.7,4,50.6,11.2v-22.6
			c-14.9-7.1-31.4-10.6-51.9-10.6c-28.8,0-48.7,12-48.7,32.4c0,17.2,11.7,26.6,35.1,29.2c8.5,0.9,22.9,2.2,33,3
			c11,0.9,14.2,4.3,14.2,9.3c0,6.9-7.7,11.1-27.2,11.1c-19.8,0-39.9-6.5-54.2-15.6v23.3c11.5,7.7,31.3,14.2,53.4,14.2
			c31.4,0,51.6-12.1,51.6-33.8C485.4,183.4,474.6,173.5,449.8,170.9z">
   </path>
   <polygon points="501.4,129.5 501.4,230.7 595.7,230.7 595.7,210 524.7,210 524.7,189.5 594.5,189.5 594.5,169 524.7,169 
			524.7,150.2 595.7,150.2 595.7,129.5 		">
   </polygon>
   <path d="M1099.5,170.9c-8.6-0.9-24.7-2.4-33.3-3.3c-8.5-0.9-13.4-3.4-13.4-9c0-5.4,5.2-9.9,26.2-9.9c18.6,0,35.7,4,50.6,11.2
			v-22.6c-14.9-7.1-31.4-10.6-51.9-10.6c-28.8,0-48.7,12-48.7,32.4c0,17.2,11.7,26.6,35.1,29.2c8.5,0.9,22.9,2.2,33,3
			c11,0.9,14.2,4.3,14.2,9.3c0,6.9-7.7,11.1-27.2,11.1c-19.8,0-39.9-6.5-54.2-15.6v23.3c11.5,7.7,31.3,14.2,53.4,14.2
			c31.4,0,51.6-12.1,51.6-33.8C1135.1,183.4,1124.3,173.5,1099.5,170.9z">
   </path>
   <path d="M988,129.5v51.8c0,19.6-11.9,30.4-29.8,30.4c-18,0-29.8-10.6-29.8-30.7v-51.5h-24.3v49.2c0,36.7,22.9,54.9,54.5,54.9
			c30.3,0,53.8-17.4,53.8-53.7v-50.4H988z">
   </path>
  </g>
  <path class="st0" d="M295.7,179.5c0,4.9-2.5,5.7-8.7,5.7c-6.6,0-7.8-1.1-8.5-6.1c-1.3-12.7-9.9-23.5-24.3-24.7
		c-4.6-0.4-5.7-2.1-5.7-7.8c0-5.3,0.8-7.8,4.9-7.8C278.4,138.9,295.7,159,295.7,179.5z M332.1,179.5c0-38.1-25.8-78.4-85.4-78.4
		H128.3c-2.4,0-3.9,1.2-3.9,3.4c0,1.2,0.9,2.3,1.7,2.9c4.3,3.4,10.7,7.2,19.1,11.4c8.2,4.1,14.6,6.8,21,9.4c2.7,1.1,3.7,2.3,3.7,3.8
		c0,2.1-1.5,3.4-4.4,3.4h-94c-2.8,0-4.1,1.8-4.1,3.6c0,1.5,0.5,2.8,1.8,4.1c7.6,8,19.8,17.6,37.5,28.7c15.5,9.7,34.7,20.2,50,27.5
		c2.6,1.2,3.4,2.6,3.4,4.1c-0.1,1.7-1.4,3.1-4.4,3.1h-43.1c-2.4,0-3.8,1.3-3.8,3.3c0,1.1,0.9,2.5,2.1,3.6
		c9.8,8.9,25.5,18.6,46.4,27.5c27.9,11.9,56.2,19,88,19C305.6,259.9,332.1,214.8,332.1,179.5z M253.4,233.6
		c-29.6,0-54.3-24.1-54.3-54.1c0-29.6,24.7-53.3,54.3-53.3c30.4,0,54.1,23.7,54.1,53.3C307.4,209.5,283.7,233.6,253.4,233.6z">
  </path>
 </g>
</svg>