<svg xmlns="http://www.w3.org/2000/svg" width="125" height="35" fill="#fff" fill-rule="evenodd" xmlns:v="https://vecta.io/nano"><path d="M7.809 4.764c2.48 0 4.47.623 5.968 1.869s2.431 2.907 2.8 4.984h-4.862c-.196-.977-.639-1.759-1.326-2.346s-1.584-.88-2.689-.88c-.884 0-1.572.208-2.063.623s-.737.977-.737 1.686c0 .562.196 1.014.589 1.356s.884.611 1.473.806 1.437.428 2.542.696c1.547.342 2.806.702 3.776 1.081s1.805.977 2.505 1.796 1.05 1.924 1.05 3.317a5.11 5.11 0 0 1-2.044 4.215c-1.363 1.075-3.199 1.613-5.507 1.613-2.652 0-4.777-.592-6.373-1.777S.344 20.927 0 18.728h4.973c.123 1.002.565 1.79 1.326 2.364s1.756.861 2.984.861c.884 0 1.559-.214 2.026-.641s.7-.983.7-1.668c0-.586-.203-1.063-.608-1.429s-.909-.647-1.51-.843l-2.56-.696c-1.523-.342-2.757-.69-3.702-1.045a5.91 5.91 0 0 1-2.431-1.704C.522 13.145.184 12.07.184 10.702c0-1.759.675-3.188 2.026-4.288s3.217-1.649 5.599-1.649zm36.749-.037c2.48 0 4.439.764 5.875 2.291s2.155 3.695 2.155 6.505v11.801h-5.157V14.11c0-1.564-.399-2.767-1.197-3.61s-1.897-1.264-3.297-1.264c-1.449 0-2.603.452-3.463 1.356s-1.289 2.223-1.289 3.958v10.775h-5.157V14.11c0-1.564-.399-2.767-1.197-3.61s-1.897-1.264-3.297-1.264c-1.449 0-2.603.452-3.463 1.356s-1.289 2.223-1.289 3.958v10.775h-5.194V5.021h5.194v3.848c.54-1.319 1.394-2.339 2.56-3.06s2.523-1.081 4.07-1.081c1.645 0 3.076.391 4.292 1.173s2.13 1.906 2.744 3.372c.639-1.393 1.59-2.498 2.855-3.317s2.683-1.228 4.255-1.228zm38.668 4.178c.761-1.295 1.768-2.315 3.021-3.06s2.652-1.118 4.199-1.118v5.534h-1.51c-3.807 0-5.71 1.759-5.71 5.277v9.785h-5.194V5.021h5.194v3.885zm18.366 11.984v4.435h-2.726c-2.284 0-4.034-.55-5.249-1.649s-1.823-2.932-1.823-5.497V9.382 5.021 0h5.194v5.021h4.568l1.758 4.361h-6.326v8.869c0 .977.196 1.661.589 2.052s1.056.586 1.989.586h2.026zm6.978-15.869l5.562 13.78 5.157-13.78H125L112.512 35h-5.747l4.605-10.262-8.583-19.717h5.783z" fill-rule="nonzero"/><path d="M65.012 4.477c5.723.09 10.376 4.664 10.519 10.297l.003.171.093 10.376-10.429-.092c-5.74-.051-10.47-4.757-10.521-10.468S59.272 4.426 65.012 4.477zm-3.803 6.5c-1.897 1.887-1.898 4.945-.004 6.83s4.968 1.884 6.865-.004 1.898-4.945.004-6.83-4.968-1.884-6.865.004z"/></svg>