<svg class="h-full w-full" viewBox="0 0 292 40" xmlns="http://www.w3.org/2000/svg"><path class="left-emblem" d="M16.3106 6.7354L20.61 10.3093L18.6992 15.1203L16.0376 13.0584L7.64345 18.9003L15.9011 27.2165L30.3008 17.457L24.3635 40L23.2033 28.3162L15.2869 33.677L0 18.2131L16.3106 6.7354Z"></path> <path class="right-emblem" d="M26.3426 11.5464L26.6156 0L18.0167 23.2302L32.9624 12.7835L41.22 21.0309L32.7577 26.9416L30.4373 25.0172L28.9359 30.3093L32.5529 33.2646L49 21.7869L33.6448 6.18557L26.3426 11.5464Z"></path> <path class="name" d="M65.7959 29V11.0557H72.1094V7.8623H55.7031V11.0557H62.0312V29H65.7959ZM73.2385 29H76.8859V20.0791C76.8859 17.7939 78.2189 16.2705 80.4162 16.2705C82.5256 16.2705 83.6096 17.5742 83.6096 19.7422V29H87.257V18.9951C87.257 15.4355 85.2502 13.1797 81.8225 13.1797C79.4641 13.1797 77.7502 14.249 76.9152 16.1387H76.842V7.8623H73.2385V29ZM99.2699 24.3564C98.8744 25.6455 97.5854 26.4951 95.8861 26.4951C93.4984 26.4951 91.975 24.8252 91.975 22.335V22.1152H102.829V20.9287C102.829 16.2119 100.076 13.1504 95.6664 13.1504C91.184 13.1504 88.3422 16.3877 88.3422 21.2949C88.3422 26.2461 91.1547 29.3076 95.8129 29.3076C99.4896 29.3076 102.214 27.2861 102.683 24.3564H99.2699ZM95.6811 15.9775C97.7758 15.9775 99.182 17.5156 99.2553 19.7129H92.0043C92.1508 17.5449 93.6303 15.9775 95.6811 15.9775ZM118.271 29.3516C123.266 29.3516 126.723 26.6123 127.383 22.0859H123.677C123.091 24.6348 121.084 26.1436 118.286 26.1436C114.624 26.1436 112.309 23.1699 112.309 18.4238C112.309 13.707 114.638 10.7188 118.271 10.7188C121.011 10.7188 123.164 12.4619 123.662 15.1133H127.383C126.914 10.5723 123.179 7.51074 118.271 7.51074C112.265 7.51074 108.442 11.6855 108.442 18.4238C108.442 25.2061 112.236 29.3516 118.271 29.3516ZM135.558 29.3076C140.113 29.3076 143.072 26.2754 143.072 21.2363C143.072 16.2119 140.084 13.1504 135.558 13.1504C131.031 13.1504 128.043 16.2266 128.043 21.2363C128.043 26.2754 131.002 29.3076 135.558 29.3076ZM135.558 26.4219C133.243 26.4219 131.749 24.5469 131.749 21.2363C131.749 17.9404 133.258 16.0508 135.558 16.0508C137.872 16.0508 139.366 17.9404 139.366 21.2363C139.366 24.5469 137.872 26.4219 135.558 26.4219ZM144.216 29H147.863V19.4932C147.863 17.6182 149.094 16.2559 150.852 16.2559C152.551 16.2559 153.606 17.3252 153.606 19.0537V29H157.151V19.4053C157.151 17.5449 158.352 16.2559 160.11 16.2559C161.897 16.2559 162.893 17.3398 162.893 19.2441V29H166.54V18.3506C166.54 15.2451 164.533 13.1797 161.472 13.1797C159.231 13.1797 157.385 14.3809 156.638 16.2998H156.55C155.979 14.3076 154.411 13.1797 152.214 13.1797C150.105 13.1797 148.464 14.3662 147.79 16.168H147.717V13.4727H144.216V29ZM176.795 13.209C174.539 13.209 172.782 14.3516 171.903 16.1533H171.829V13.4727H168.27V34.1123H171.917V26.4219H171.991C172.84 28.165 174.598 29.249 176.854 29.249C180.75 29.249 183.241 26.1875 183.241 21.2363C183.241 16.2705 180.736 13.209 176.795 13.209ZM175.682 26.2607C173.412 26.2607 171.903 24.2832 171.888 21.2363C171.903 18.2188 173.412 16.2119 175.682 16.2119C178.04 16.2119 179.505 18.1748 179.505 21.2363C179.505 24.3125 178.04 26.2607 175.682 26.2607ZM188.955 29.249C190.947 29.249 192.895 28.209 193.789 26.5244H193.862V29H197.378V18.3066C197.378 15.1865 194.873 13.1504 191.02 13.1504C187.065 13.1504 184.589 15.2305 184.428 18.1309H187.812C188.046 16.8418 189.145 16.0068 190.874 16.0068C192.675 16.0068 193.774 16.9443 193.774 18.5703V19.6836L189.672 19.918C185.893 20.1523 183.769 21.8076 183.769 24.5615C183.769 27.3594 185.952 29.249 188.955 29.249ZM190.053 26.4951C188.471 26.4951 187.417 25.6895 187.417 24.415C187.417 23.1846 188.427 22.3936 190.185 22.2764L193.774 22.0566V23.2432C193.774 25.1182 192.119 26.4951 190.053 26.4951ZM199.122 29H202.769V20.0059C202.769 17.7793 204.102 16.2705 206.197 16.2705C208.277 16.2705 209.303 17.501 209.303 19.6982V29H212.95V18.9658C212.95 15.377 211.002 13.1797 207.574 13.1797C205.186 13.1797 203.531 14.293 202.696 16.1387H202.623V13.4727H199.122V29ZM216.584 11.1289C217.697 11.1289 218.576 10.2354 218.576 9.15137C218.576 8.05273 217.697 7.17383 216.584 7.17383C215.471 7.17383 214.577 8.05273 214.577 9.15137C214.577 10.2354 215.471 11.1289 216.584 11.1289ZM214.768 29H218.415V13.4727H214.768V29ZM230.56 24.3564C230.164 25.6455 228.875 26.4951 227.176 26.4951C224.788 26.4951 223.265 24.8252 223.265 22.335V22.1152H234.119V20.9287C234.119 16.2119 231.365 13.1504 226.956 13.1504C222.474 13.1504 219.632 16.3877 219.632 21.2949C219.632 26.2461 222.445 29.3076 227.103 29.3076C230.779 29.3076 233.504 27.2861 233.973 24.3564H230.56ZM226.971 15.9775C229.066 15.9775 230.472 17.5156 230.545 19.7129H223.294C223.441 17.5449 224.92 15.9775 226.971 15.9775ZM234.999 17.9258C234.999 20.2256 236.494 21.6904 239.467 22.3496L242.045 22.9209C243.671 23.2871 244.228 23.8145 244.228 24.752C244.228 25.9092 243.129 26.6416 241.357 26.6416C239.511 26.6416 238.471 25.8799 238.193 24.3711H234.604C234.897 27.374 237.299 29.3076 241.357 29.3076C245.165 29.3076 247.861 27.3301 247.861 24.4004C247.861 22.1445 246.616 20.8994 243.393 20.1816L240.815 19.6104C239.189 19.2441 238.544 18.6289 238.544 17.7354C238.544 16.5928 239.614 15.8311 241.225 15.8311C242.91 15.8311 243.95 16.7246 244.096 18.1309H247.495C247.407 15.1865 245.004 13.1504 241.225 13.1504C237.475 13.1504 234.999 15.084 234.999 17.9258ZM268.327 29H270.436L262.541 7.8623H260.549L252.638 29H254.762L257.106 22.5254H265.983L268.327 29ZM261.501 10.3379H261.589L265.383 20.7969H257.707L261.501 10.3379ZM271.565 7.8623V29H273.558V21.0312H278.743C282.771 21.0312 285.54 18.3652 285.54 14.4395C285.54 10.5137 282.801 7.8623 278.758 7.8623H271.565ZM273.558 9.64941H278.289C281.556 9.64941 283.489 11.4365 283.489 14.4395C283.489 17.4424 281.541 19.2441 278.289 19.2441H273.558V9.64941ZM289.203 29V7.8623H287.211V29H289.203Z"></path></svg>