<svg version="1.1" id="Layer_1" xmlns="http://www.w3.org/2000/svg" xmlns:xlink="http://www.w3.org/1999/xlink" x="0px" y="0px" viewBox="0 0 311.1 63.4" style="enable-background:new 0 0 311.1 63.4;" xml:space="preserve">
 <style type="text/css">
  .st0{fill-rule:evenodd;clip-rule:evenodd;fill:url(#SVGID_1_);}
	.st1{fill:#293856;}
 </style>
 <g>
  <linearGradient id="SVGID_1_" gradientUnits="userSpaceOnUse" x1="-35.3508" y1="317.8715" x2="-35.3508" y2="320.7159" gradientTransform="matrix(21.9446 0 0 -21.9305 806.9689 7033.4502)">
   <stop offset="0" style="stop-color:#0052CC">
   </stop>
   <stop offset="1" style="stop-color:#2684FF">
   </stop>
  </linearGradient>
  <path class="st0" d="M55,0H7.4C3.3,0,0,3.3,0,7.4v47.5c0,2,0.8,3.9,2.2,5.3s3.3,2.2,5.3,2.2H55c2,0,3.9-0.8,5.3-2.2
		s2.2-3.3,2.2-5.3V7.4C62.4,3.3,59.1,0,55,0z M26.9,44.9c0,0.7-0.3,1.3-0.7,1.8c-0.5,0.5-1.1,0.7-1.8,0.7H14c-1.4,0-2.5-1.1-2.5-2.5
		V14c0-1.4,1.1-2.5,2.5-2.5h10.4c1.4,0,2.5,1.1,2.5,2.5L26.9,44.9z M50.9,30.7c0,0.7-0.3,1.3-0.7,1.8s-1.1,0.7-1.8,0.7H38
		c-1.4,0-2.5-1.1-2.5-2.5V14c0-1.4,1.1-2.5,2.5-2.5h10.4c1.4,0,2.5,1.1,2.5,2.5L50.9,30.7z">
  </path>
  <g transform="translate(87)">
   <path class="st1" d="M42.3,4.6v12.1H28.1v45.7H14.3V16.6H0V4.6L42.3,4.6z">
   </path>
   <path class="st1" d="M59.9,62.4H47.1v-45h12.7V26c2.4-6.1,6.3-9.7,13.2-9.2v13.3c-9-0.7-13.2,1.5-13.2,8.7V62.4z">
   </path>
   <path class="st1" d="M142.7,62.7c-8.4,0-13.6-4-13.6-13.5V0h12.8v47.5c0,2.7,1.8,3.7,4,3.7c0.6,0,1.3,0,1.9-0.1v11.1
			C146.1,62.6,144.4,62.8,142.7,62.7z">
   </path>
   <path class="st1" d="M169.4,62.7c-8.4,0-13.6-4-13.6-13.5V0h12.8v47.5c0,2.7,1.8,3.7,4.1,3.7c0.6,0,1.3,0,1.9-0.1v11.1
			C172.9,62.6,171.2,62.8,169.4,62.7z">
   </path>
   <path class="st1" d="M180.7,39.9c0-13.9,8-23.4,21.8-23.4s21.6,9.5,21.6,23.4s-7.9,23.6-21.6,23.6S180.7,53.7,180.7,39.9z
			 M193.2,39.9c0,6.8,2.8,12.1,9.3,12.1s9.1-5.4,9.1-12.1s-2.8-12-9.1-12S193.2,33.1,193.2,39.9z">
   </path>
   <path class="st1" d="M90.3,43.9c3.6,0.4,7.2,0.6,10.7,0.6c9.8,0,18-2.6,18-12.1c0-9.2-8.5-16.1-18.7-16.1
			c-13.7,0-22.5,9.9-22.5,23.9c0,14.4,7.6,23,24.7,23c5.1,0,10.1-0.9,14.9-2.7V49.8c-4.4,1.4-9.3,2.8-14.4,2.8
			C96.2,52.7,91.4,50.4,90.3,43.9z M100.1,26.2c3.6,0,6.5,2.5,6.5,5.8c0,4.3-4.6,5.7-9.8,5.7c-2.2,0-4.5-0.2-6.7-0.5
			c0.2-2.1,0.8-4.1,1.8-6C93.5,28.2,96.7,26.3,100.1,26.2L100.1,26.2z">
   </path>
  </g>
 </g>
</svg>