<svg class="c-header__logo-svg" viewBox="0 0 110 44" xmlns="http://www.w3.org/2000/svg">
<path d="M15.606 12.898C6.987 12.898 0 19.886 0 28.504 0 37.123 6.987 44.11 15.606 44.11s15.606-6.987 15.606-15.606c0-8.618-6.987-15.606-15.606-15.606zm0 22.542c-3.824 0-6.936-3.112-6.936-6.937s3.112-6.936 6.936-6.936 6.936 3.111 6.936 6.936-3.112 6.937-6.936 6.937z" fill="#ED760A" id="symbol-ring"></path>
<path d="M9.564 11.716a2.06 2.06 0 0 1-.626.119 1.734 1.734 0 0 1-1.586-1.032L4.575 4.848l.03.065a1.72 1.72 0 0 1-.182-.775c0-.658.381-1.25.959-1.552A22.218 22.218 0 0 1 15.606.11c12.33 0 22.325 9.995 22.325 22.325 0 6.562-2.832 12.465-7.341 16.55l-.002.003c-.052.042-.094.062-.153.062a.217.217 0 0 1-.217-.216c0-.059.014-.109.041-.156a17.747 17.747 0 0 0 3.188-10.175c0-9.853-7.988-17.841-17.841-17.841a17.783 17.783 0 0 0-6.042 1.054" fill="#F9A01B" id="symbol-curve"></path>
<path class="wordmark" d="M59.723 20.332v-.323c0-.941-.353-1.646-3.116-1.646-1.382 0-2.5.176-3 .265-1.529.235-1.852-.177-2.117-1.646l-.059-.324c-.059-.382-.118-.706-.118-.97 0-.882.441-1.176 1.764-1.44 1.353-.265 3.881-.353 5.293-.353 5.468 0 7.174 1.323 7.232 5.91v7.116c0 1.617-.295 2.087-2.029 2.527-.559.148-2.734.618-5.381.618-3.939 0-7.703-1.059-7.703-4.91v-.765c0-2.999 2.117-4.616 5.704-4.616 1.266-.002 2.295.204 3.53.557zm-3.058 4.498c0 .823.617 1.323 1.94 1.323.441 0 .823-.06 1.117-.118v-1.91c-.471-.354-1.088-.441-1.559-.441-1.028 0-1.499.412-1.499 1.029v.117zM84.119 21.155v.471c0 6.615-4.439 8.438-9.232 8.438-2.029 0-4.264-.323-5.322-.618-1.088-.322-1.734-.881-1.734-2.234V9.629c0-1.235.529-1.764 1.764-1.764h2.353c1.235 0 1.765.529 1.765 1.764v5.41c1.676-.911 2.999-1.146 4.175-1.146 3.88 0 6.231 2.616 6.231 7.262zm-6.175.323c0-1.793-.765-2.793-2.411-2.793-.559 0-1.264.118-1.822.441v6.292c.5.118.911.146 1.176.146 1.676 0 3.058-1.146 3.058-3.674v-.412zM93.77 27.623c.059 1.441-.293 1.734-1.529 1.971-.47.088-1.176.176-1.881.176-2.734 0-4.322-1.234-4.322-5.498V9.923c0-1.44.617-2.058 2.059-2.058h1.764c1.44 0 2.058.618 2.058 2.058v14.319c0 .823.089 1.029.53 1.029h.264c.794 0 1 .734 1.029 1.646l.028.706zM102.443 24.807c1.117-2.353 1.971-5.116 1.971-8.204v-.353c0-1.44.617-2.058 2.058-2.058h1.47c1.441 0 2.059.618 2.059 2.058v.382c0 7.879-3.705 12.29-9.145 19.023-.323.44-.705.705-1.176.705s-.823-.205-1.293-.588l-1.029-.823c-.706-.559-1-1.058-1-1.499 0-.324.146-.617.441-.912.705-.734 1.705-1.793 2.527-2.822-1.352-1.822-4.351-8.35-5.321-13.584-.265-1.411-.028-1.94 1.853-1.94h2.293c1.559 0 1.765 1.146 1.912 2.029.617 3.558 2.058 7.88 2.058 7.85l.322.736z" fill="#202020" id="wordmark"></path>
<path d="M0 0h110v44H0z" fill="none"></path>
</svg>