<svg version="1.1" id="Layer_1" xmlns="http://www.w3.org/2000/svg" xmlns:xlink="http://www.w3.org/1999/xlink" x="0px" y="0px" viewBox="0 0 64 58.7" style="enable-background:new 0 0 64 58.7;" xml:space="preserve">
 <style type="text/css">
  .st0{clip-path:url(#SVGID_2_);}
	.st1{fill:url(#SVGID_3_);}
	.st2{fill:url(#SVGID_4_);}
 </style>
 <g>
  <g>
   <defs>
    <rect id="SVGID_1_" width="64" height="58.7">
    </rect>
   </defs>
   <clipPath id="SVGID_2_">
    <use href="#SVGID_1_" style="overflow:visible;">
    </use>
   </clipPath>
   <g class="st0">
    <radialGradient id="SVGID_3_" cx="62.849" cy="126.7464" r="1.984" gradientTransform="matrix(-10.5381 25.5522 17.442 7.1933 -1524.3568 -2509.332)" gradientUnits="userSpaceOnUse">
     <stop offset="0" style="stop-color:#142167">
     </stop>
     <stop offset="1" style="stop-color:#263DB5">
     </stop>
    </radialGradient>
    <path class="st1" d="M6,37.5L1,49.4c-1.4,3.3-1.7,7.1,1.9,8.5c0.9,0.3,1.7,0.5,2.6,0.5c2.7,0,5.4-1.6,6.4-4.1l1-2.4l7.8-18.3
				l7.8-18.3c1.9-3.2,3-8.2,10.3-10.9c-5.7-0.7-17.1-2.2-17.2-2.2c-0.1,0.1-0.8,1.3-0.9,1.4c-0.2,0.3-0.3,0.5-0.4,0.8c0,0,0,0,0,0
				L6,37.5C6.1,37.5,6,37.5,6,37.5z">
    </path>
    <radialGradient id="SVGID_4_" cx="62.7164" cy="127.9159" r="1.984" gradientTransform="matrix(-17.303 18.9426 66.2772 60.5407 -7334.0693 -8919.1387)" gradientUnits="userSpaceOnUse">
     <stop offset="0" style="stop-color:#4259D4">
     </stop>
     <stop offset="1" style="stop-color:#6A81FC">
     </stop>
    </radialGradient>
    <path class="st2" d="M56.7,37.5l5.1,11.9c1.4,3.3,1.7,7.1-1.9,8.5c-0.9,0.3-1.7,0.5-2.6,0.5c-2.7,0-5.4-1.6-6.4-4.1l-1-2.4
				L42,33.5l-7.8-18.3c-1.9-3.2-5-10-13.3-12.1c1.1-2.5,4.7-2.9,7.5-2.9h7.7h0.1c0.3,0,0.6,0,0.9,0.1c0.2,0,0.3,0,0.5,0.1
				c0.2,0,0.4,0.1,0.6,0.2c0.2,0.1,0.5,0.1,0.7,0.2c0.1,0,0.2,0.1,0.3,0.1C39.4,1,39.7,1.2,40,1.3c0.2,0.1,0.4,0.3,0.5,0.4
				C40.7,1.9,40.9,2,41,2.1c0.1,0.1,0.3,0.3,0.4,0.4c0.2,0.2,0.3,0.3,0.5,0.5c0.1,0.1,0.1,0.3,0.2,0.4c0.2,0.3,0.3,0.5,0.4,0.8
				c0,0,0,0,0,0L56.7,37.5C56.7,37.5,56.7,37.5,56.7,37.5z">
    </path>
   </g>
  </g>
 </g>
</svg>