<svg fill="none" height="168" viewBox="0 0 168 168" width="168" xmlns="http://www.w3.org/2000/svg">
<rect fill="url(#paint0_radial_8:2)" height="168" rx="84" width="168"></rect>
<path d="M45.4203 100.916L68.6795 93.5137C79.4164 90.0967 84.1716 82.0778 81.5644 73.8852C79.3285 66.8596 72.727 63.9005 66.3041 65.6768L66.1493 65.1906C71.504 62.2282 73.9864 56.7531 72.238 51.259C69.8242 43.6742 62.2931 40.7164 51.0013 44.31L29.5757 51.1285L45.4203 100.916ZM55.4003 85.8528L52.0581 75.3508L58.5244 73.293C62.602 71.9953 65.7061 73.1492 66.8202 76.6499C67.8801 79.9804 66.1855 82.4205 61.6736 83.8564L55.4003 85.8528ZM49.3967 66.9881L46.364 57.4585L52.0582 55.6464C55.3878 54.5867 58.3904 55.5052 59.3652 58.5683C60.34 61.6314 58.4205 64.1163 54.8979 65.2374L49.3967 66.9881Z" fill="white"></path>
<path d="M90.8048 86.4725L126.321 75.1696L122.855 64.2786L100.754 71.3122L98.0306 62.755L118.395 56.2743L114.929 45.3833L94.5646 51.8641L91.8413 43.3069L114.039 36.2426L110.573 25.3516L74.9602 36.6852L90.8048 86.4725Z" fill="white"></path>
<path d="M58.427 141.786L84.0578 133.629L81.5747 125.827L65.6251 130.903L63.6741 124.772L78.37 120.095L75.8869 112.293L61.191 116.97L59.24 110.839L75.2592 105.741L72.7761 97.9385L47.0757 106.117L58.427 141.786Z" fill="white"></path>
<path d="M97.9832 129.197L107.246 126.249L106.965 104.397L107.244 104.308L119.644 122.304L128.907 119.356L128.073 80.3406L117.277 83.7762L119.408 107.342L119.129 107.431L106.342 87.2561L97.8453 89.9603L99.0482 113.745L98.7696 113.833L86.9105 93.4403L76.1149 96.8759L97.9832 129.197Z" fill="white"></path>
<defs>
<radialGradient cx="0" cy="0" gradientTransform="translate(-6.50001 -5.50002) rotate(45.4658) scale(260.931)" gradientUnits="userSpaceOnUse" id="paint0_radial_8:2" r="1">
<stop stop-color="#FF654D"></stop>
<stop offset="1" stop-color="#FF3087"></stop>
</radialGradient>
</defs>
</svg>