<svg height="49.441" viewBox="0 0 174 49.441" width="174" xmlns="http://www.w3.org/2000/svg">
<defs>
<style>
      .cls-1 {
        fill: #f8f7fc;
      }
    </style>
</defs>
<g data-name="Group 459" id="Group_459" transform="translate(-180 -3680.899)">
<path class="cls-1" d="M180,3695.41h14.106a12.07,12.07,0,0,1,7.885,2.405,7.556,7.556,0,0,1,2.937,6.105q0,5.5-6.429,7.445a8.106,8.106,0,0,1,5.226,2.729,7.914,7.914,0,0,1,1.943,5.318,7.511,7.511,0,0,1-2.844,6.174q-2.845,2.29-7.932,2.29H180Zm7.909,6.013v7.03h5.18a4.124,4.124,0,0,0,2.752-.878,3.232,3.232,0,0,0,1.041-2.614,3.3,3.3,0,0,0-1.041-2.635,4.054,4.054,0,0,0-2.752-.9Zm0,20.442h5.966a3.827,3.827,0,0,0,2.682-.971,3.449,3.449,0,0,0,1.064-2.683,3.687,3.687,0,0,0-1.018-2.728,3.566,3.566,0,0,0-2.636-1.018h-6.059Z" data-name="Path 182" id="Path_182" transform="translate(0 -10.303)"></path>
<path class="cls-1" d="M283.135,3688.854a4.747,4.747,0,1,1,1.341-3.308A4.468,4.468,0,0,1,283.135,3688.854Zm-7.215,28.721v-25.808h7.909v25.808Z" data-name="Path 183" id="Path_183" transform="translate(-67.61 0)"></path>
<path class="cls-1" d="M532.111,3740.129a14.876,14.876,0,0,1,0-18.986,10.913,10.913,0,0,1,8.348-3.723,8.761,8.761,0,0,1,7.562,3.653V3717.7h7.909v25.808h-7.909v-3.747a8.943,8.943,0,0,1-7.678,4.07A10.818,10.818,0,0,1,532.111,3740.129Zm14.2-4.811a6.281,6.281,0,0,0,1.711-4.718,6.2,6.2,0,0,0-1.711-4.693,5.5,5.5,0,0,0-7.863.022,6.28,6.28,0,0,0-1.711,4.718,6.2,6.2,0,0,0,1.711,4.695,5.5,5.5,0,0,0,7.863-.024Z" data-name="Path 184" id="Path_184" transform="translate(-247.568 -25.931)"></path>
<path class="cls-1" d="M643.221,3722.079h2.821v6.706h-4.023a10.465,10.465,0,0,1-6.729-1.92q-2.383-1.918-2.382-6.59v-10.729H630.5v-6.568h2.405v-6.289h7.909v6.289H646v6.568h-5.18v10.729Q640.816,3722.078,643.221,3722.079Z" data-name="Path 185" id="Path_185" transform="translate(-319.856 -11.21)"></path>
<path class="cls-1" d="M689.487,3740.129a14.876,14.876,0,0,1,0-18.986,10.913,10.913,0,0,1,8.348-3.723,8.761,8.761,0,0,1,7.562,3.653V3717.7h7.909v25.808H705.4v-3.747a8.943,8.943,0,0,1-7.678,4.07A10.818,10.818,0,0,1,689.487,3740.129Zm14.2-4.811a6.281,6.281,0,0,0,1.711-4.718,6.2,6.2,0,0,0-1.711-4.693,5.5,5.5,0,0,0-7.863.022,6.281,6.281,0,0,0-1.711,4.718,6.2,6.2,0,0,0,1.711,4.695,5.5,5.5,0,0,0,7.863-.024Z" data-name="Path 186" id="Path_186" transform="translate(-359.305 -25.931)"></path>
<path class="cls-1" d="M351.615,3725.212c-.059,0-.119.01-.179.01a4.059,4.059,0,1,1,1.044-7.974l3.533.937.038-3.655a10.577,10.577,0,0,1,19.895-4.892l1.18,2.19,2.327-.879a7.373,7.373,0,1,1,3.294,14.238l-.389.036Z" id="cloud" transform="translate(-118.838 -16.449)"></path>
<path class="cls-1" d="M326.9,3737.547v-.024c-.154.011-.308.024-.465.024a6.9,6.9,0,1,1,1.772-13.565,13.369,13.369,0,0,1,1.057-5.083,9.374,9.374,0,0,0-5.331-1.478,10.913,10.913,0,0,0-8.348,3.723,14.876,14.876,0,0,0,0,18.986,10.818,10.818,0,0,0,8.233,3.7,8.943,8.943,0,0,0,7.678-4.07v3.608a6.36,6.36,0,0,1-1.434,4.6,4.851,4.851,0,0,1-3.607,1.457q-4.44,0-5.55-2.915h-7.77a9.49,9.49,0,0,0,3.931,7.354q3.469,2.405,9.389,2.405a16.076,16.076,0,0,0,5.943-1.018,9.563,9.563,0,0,0,4.047-2.868,13.75,13.75,0,0,0,2.96-9.019v-5.819Z" data-name="Path 188" id="Path_188" transform="translate(-93.834 -25.931)"></path>
<path class="cls-1" d="M449.98,3699.919q-5-4.51-12.765-4.51H425.791v.132a13.448,13.448,0,0,1,8.332,6.6,10.216,10.216,0,1,1,4.56,19.729v.048H425.791v5.958h11.424q7.77,0,12.765-4.532a16.23,16.23,0,0,0,0-23.426Z" data-name="Path 189" id="Path_189" transform="translate(-174.512 -10.303)"></path>
<g data-name="Group 458" id="Group_458" transform="translate(322.023 3720.98)">
<path class="cls-1" d="M673.157,3820.914a3.168,3.168,0,0,1,2.075.645,3.27,3.27,0,0,1,1.079,1.68l-1.086.217a2.545,2.545,0,0,0-.8-1.194,1.957,1.957,0,0,0-1.271-.44,2.045,2.045,0,0,0-1.673.843,3.7,3.7,0,0,0-.664,2.344,4.334,4.334,0,0,0,.594,2.408,1.952,1.952,0,0,0,1.744.907,2.167,2.167,0,0,0,1.513-.5,1.717,1.717,0,0,0,.555-1.335h1.086a2.507,2.507,0,0,1-.862,2.005,3.5,3.5,0,0,1-2.363.741,2.968,2.968,0,0,1-2.427-1.15,4.765,4.765,0,0,1-.926-3.078,4.378,4.378,0,0,1,.958-3.008A3.146,3.146,0,0,1,673.157,3820.914Z" data-name="Path 190" id="Path_190" transform="translate(-669.734 -3820.39)"></path>
<path class="cls-1" d="M698.983,3819.109h1.009v8.7h-1.009Z" data-name="Path 191" id="Path_191" transform="translate(-690.501 -3819.109)"></path>
<path class="cls-1" d="M712.123,3827.521a2.709,2.709,0,0,1,2.063.831,3.966,3.966,0,0,1,0,4.738,2.978,2.978,0,0,1-4.125,0,3.966,3.966,0,0,1,0-4.738A2.708,2.708,0,0,1,712.123,3827.521Zm1.826,3.2a2.818,2.818,0,0,0-.46-1.711,1.574,1.574,0,0,0-1.348-.62,1.608,1.608,0,0,0-1.36.62,2.763,2.763,0,0,0-.472,1.711,2.877,2.877,0,0,0,.447,1.711,1.538,1.538,0,0,0,1.335.619,1.643,1.643,0,0,0,1.373-.619A2.709,2.709,0,0,0,713.949,3830.721Z" data-name="Path 192" id="Path_192" transform="translate(-697.808 -3825.081)"></path>
<path class="cls-1" d="M739.633,3832.909a2.105,2.105,0,0,1-2.031,1.329,2.383,2.383,0,0,1-1.667-.575,2.285,2.285,0,0,1-.632-1.775V3828h1.009v3.806q0,1.546,1.43,1.545a1.654,1.654,0,0,0,1.348-.638,2.629,2.629,0,0,0,.543-1.635V3828h1.009v6.118h-1.009Z" data-name="Path 193" id="Path_193" transform="translate(-716.288 -3825.425)"></path>
<path class="cls-1" d="M765.178,3822.608v-3.5h1v8.7h-.817l-.128-1.022a2.1,2.1,0,0,1-.779.869,2.007,2.007,0,0,1-1.061.294,2.487,2.487,0,0,1-1.947-.894,3.4,3.4,0,0,1-.786-2.331,3.342,3.342,0,0,1,.773-2.306,2.5,2.5,0,0,1,1.954-.868A1.958,1.958,0,0,1,765.178,3822.608Zm-1.737-.166a1.543,1.543,0,0,0-1.245.625,3.022,3.022,0,0,0,.006,3.353,1.533,1.533,0,0,0,1.227.632,1.708,1.708,0,0,0,1.22-.479,1.769,1.769,0,0,0,.53-1.284v-1a1.83,1.83,0,0,0-.5-1.354A1.682,1.682,0,0,0,763.441,3822.442Z" data-name="Path 194" id="Path_194" transform="translate(-734.289 -3819.109)"></path>
</g>
</g>
</svg>