<?xml version="1.0" standalone="no"?>
<!DOCTYPE svg PUBLIC "-//W3C//DTD SVG 20010904//EN"
 "http://www.w3.org/TR/2001/REC-SVG-20010904/DTD/svg10.dtd">
<svg version="1.0" xmlns="http://www.w3.org/2000/svg"
 width="1424.000000pt" height="1424.000000pt" viewBox="0 0 1424.000000 1424.000000"
 preserveAspectRatio="xMidYMid meet">
<metadata>
Created by potrace 1.11, written by Peter Selinger 2001-2013
</metadata>
<g transform="translate(0.000000,1424.000000) scale(0.100000,-0.100000)"
fill="#000000" stroke="none">
<path d="M6889 12237 c-2 -3 -60 -7 -129 -11 -133 -7 -149 -8 -335 -32 -848
-106 -1682 -450 -2395 -987 -994 -750 -1690 -1854 -1929 -3062 -16 -82 -32
-168 -36 -190 -17 -115 -25 -179 -31 -241 -3 -38 -7 -80 -10 -93 -25 -162 -24
-802 1 -1006 2 -16 7 -57 10 -91 3 -33 7 -71 10 -85 2 -13 9 -60 15 -104 50
-364 178 -824 325 -1170 217 -511 501 -970 861 -1389 637 -742 1507 -1299
2454 -1572 85 -25 187 -51 225 -60 149 -32 252 -52 290 -58 22 -4 67 -11 100
-16 280 -44 438 -55 800 -55 305 0 555 14 705 40 14 2 45 7 70 10 113 14 340
60 500 100 536 135 1027 350 1505 659 61 39 112 73 115 76 3 3 25 18 50 34 67
44 240 177 370 285 110 92 423 395 506 491 100 116 145 170 217 264 43 55 84
108 90 116 34 41 172 248 232 345 509 825 756 1700 758 2685 0 143 -11 452
-18 473 -2 7 -6 48 -10 92 -8 105 -30 260 -61 418 -146 763 -450 1447 -933
2097 -47 63 -95 126 -107 140 -12 14 -57 68 -100 120 -101 121 -399 421 -529
532 -599 510 -1261 866 -1987 1067 -97 27 -287 72 -363 86 -93 16 -267 44
-315 50 -30 4 -66 8 -80 10 -14 2 -61 7 -105 11 -44 3 -91 8 -105 10 -35 6
-625 15 -631 11z m231 -5113 l0 -3627 -167 7 c-93 3 -179 8 -193 10 -14 3 -52
7 -85 11 -554 57 -1144 284 -1640 630 -880 613 -1451 1608 -1532 2666 -14 189
-8 606 12 730 2 13 6 51 10 84 5 49 24 154 50 287 16 78 84 313 121 416 227
632 634 1202 1154 1617 104 83 362 265 375 265 3 0 24 12 48 27 74 48 252 140
402 208 223 102 603 213 850 249 198 29 325 40 483 44 l112 3 0 -3627z"/>
</g>
</svg>
