<svg xmlns="http://www.w3.org/2000/svg" viewBox="0 0 542 99" id="logo-wordmark-2018"><path d="M508.3 16.2v30.1c0 4.7-1.2 8.4-3.6 11-2.4 2.6-5.6 3.8-9.5 3.8-3.4 0-6.3-1.2-8.5-3.6-2.3-2.4-3.4-5.4-3.4-9V16.2h-12.5v32.3c0 7.3 2.1 13.5 6.3 17.9 4.2 4.4 9.4 6.6 16 6.6 1.9 0 3.9-.3 5.7-.7 1.9-.5 3.4-1.1 4.6-1.7 1.2-.6 2.4-1.3 3.4-2.1.3-.2.8-.6 1-.9l.4-.5V72h12.4V16.2h-12.3zM36.5 60.9c-13.4 0-24.2-10.9-24.2-24.2 0-13.4 10.9-24.2 24.2-24.2 8 0 15.1 3.9 19.5 10l10.7-6.1C60.1 6.7 49 .3 36.5.3 16.4.3 0 16.7 0 36.8s16.4 36.5 36.5 36.5c12.6 0 23.7-6.4 30.3-16.1l-10.7-6.1c-4.5 5.9-11.6 9.8-19.6 9.8zM529.3.9h12.3v71.3h-12.3zM324.2.9l-20.1 34.2L284 .9h-15.8v71.3h12.3v-53l19.2 32.7h8.8l19.4-33v53.3h12.3l.1-71.3zm-80.6 27.6h16.5V16.2h-16.5V1h-12.3v50.1c0 12.1 5.5 21 20.8 21h8V59.8h-6.8c-8.7 0-9.7-4.3-9.7-8.6V28.5zm-59 16.3V16.3h-12.3v5.1c-4.6-3.2-10.2-5.1-16.2-5.1-15.7 0-28.6 12.8-28.6 28.6 0 15.7 12.8 28.6 28.6 28.6 6 0 11.6-1.9 16.2-5.1v3.9h12.3V44.8zm-28.5 16c-8.9 0-16.1-7.2-16.1-16.1 0-8.9 7.2-16.1 16.1-16.1 8.9 0 16.1 7.2 16.1 16.1-.1 8.9-7.3 16.1-16.1 16.1zm66.3-44.6c-2.4 0-10.1.2-17 4.5v-4.5h-12.3v55.9h12.3V41.7c0-3.5.8-6.2 2.4-8.1 4.2-5 12.3-5.3 12.8-5.3.6 0 1.4-.1 2.2-.1h3.2V16.3h-2.2c-.2-.1-1.3-.1-1.4-.1zM374 73.3c-15.7 0-28.5-12.8-28.5-28.5s12.8-28.5 28.5-28.5 28.5 12.8 28.5 28.5-12.8 28.5-28.5 28.5zm0-44.5c-8.8 0-16 7.2-16 16s7.2 16 16 16 16-7.2 16-16c0-8.9-7.2-16-16-16zm76.7-12.6v5.1c-4.6-3.2-10.1-5-16.1-5-15.7 0-28.5 12.8-28.5 28.5s12.8 28.5 28.5 28.5c6 0 11.5-1.9 16.1-5v1.1c0 .5-.1 1.1-.1 1.1-.6 4.2-2.6 8-5 10.7-3.1 3-6.9 4.3-11.3 4.4h-.3c-6.3-.2-11.9-3.1-15.4-7.6l-8.4 8.9c5 6.9 14.1 11.4 24.4 11.2 7.9 0 14.7-2.9 20.2-8.6 5.1-5.3 7.8-11.8 8.1-19.4 0 0 .1-.9.1-2V16.2h-12.3zm-16.1 44.6c-8.8 0-16-7.2-16-16s7.2-16 16-16 16 7.2 16 16-7.2 16-16 16zM95.7 28.6h2.4c-.4 0-.8-.1-1.2-.1-.5 0-.8 0-1.2.1z"></path><path d="M121.6 40c0-14.6-10.1-23.8-23.8-23.8-5 0-9.7 1.6-13.5 4.2V.9H72v71.2h12.3V43.2c0-4.7 1.1-8.3 3.3-10.9 2-2.3 4.7-3.6 8.1-3.8.4 0 .7-.1 1.1-.1.4 0 .8 0 1.2.1 3.3.2 6 1.5 8 3.8 2.1 2.5 3.2 6 3.3 10.3v29.5h12.3V40z"></path></svg>