<svg xmlns="http://www.w3.org/2000/svg" width="170" height="50" viewBox="0 0 170 50" xmlns:xlink="http://www.w3.org/1999/xlink">
 <defs>
  <linearGradient id="color-a" x1="50%" x2="100%" y1="0%" y2="100%">
   <stop offset="0%" stop-color="#DEF2FE">
   </stop>
   <stop offset="100%" stop-color="#DBF1FE">
   </stop>
  </linearGradient>
  <linearGradient id="color-b" x1="0%" x2="50%" y1="0%" y2="100%">
   <stop offset="0%" stop-color="#57BCFD">
   </stop>
   <stop offset="100%" stop-color="#51B5FD">
   </stop>
  </linearGradient>
  <linearGradient id="color-c" x1="37.5%" x2="62.5%" y1="0%" y2="100%">
   <stop offset="0%" stop-color="#1CA7FD">
   </stop>
   <stop offset="100%" stop-color="#148CFC">
   </stop>
  </linearGradient>
 </defs>
 <g fill="none" fill-rule="evenodd">
  <path fill="url(#color-a)" d="M50,25 L50,36.6464313 L49.9971402,37.2482645 C49.9561869,41.4394547 49.4761844,43.0489863 48.6086838,44.6710714 C47.7008344,46.3686022 46.3686022,47.7008344 44.6710714,48.6086838 L44.4445544,48.7272104 C42.8180249,49.5585531 41.0833879,50 36.6464313,50 L25,50 L25,25 L50,25 Z">
  </path>
  <path fill="url(#color-b)" d="M44.6710714,1.39131617 C46.3686022,2.29916561 47.7008344,3.63139776 48.6086838,5.32892863 L48.7272104,5.55544563 C49.5585531,7.18197506 50,8.91661206 50,13.3535687 L50,25 L25,25 L25,0 L36.6464313,0 C41.289758,0 42.9735405,0.483466725 44.6710714,1.39131617 Z">
  </path>
  <path fill="url(#color-c)" d="M25,0 L25,50 L13.3535687,50 L12.7517355,49.9971402 C8.56054527,49.9561869 6.95101368,49.4761844 5.32892863,48.6086838 C3.63139776,47.7008344 2.29916561,46.3686022 1.39131617,44.6710714 L1.27278962,44.4445544 C0.441446901,42.8180249 0,41.0833879 0,36.6464313 L0,13.3535687 C0,8.71024198 0.483466725,7.02645949 1.39131617,5.32892863 C2.29916561,3.63139776 3.63139776,2.29916561 5.32892863,1.39131617 L5.55544563,1.27278962 C7.18197506,0.441446901 8.91661206,0 13.3535687,0 L25,0 Z">
  </path>
  <path fill="#27282A" d="M85.26,18.824 C84.7373307,18.1146631 84.0560042,17.5966683 83.216,17.27 C82.3759958,16.9433317 81.5546707,16.78 80.752,16.78 C79.7253282,16.78 78.7920042,16.9666648 77.952,17.34 C77.1119958,17.7133352 76.3886697,18.2266634 75.782,18.88 C75.1753303,19.5333366 74.7086683,20.2986623 74.382,21.176 C74.0553317,22.0533377 73.892,23.0053282 73.892,24.032 C73.892,25.1146721 74.0506651,26.1039955 74.368,27 C74.6853349,27.8960045 75.1379971,28.6659968 75.726,29.31 C76.3140029,29.9540032 77.0186626,30.4533316 77.84,30.808 C78.6613374,31.1626684 79.5853282,31.34 80.612,31.34 C81.6760053,31.34 82.6186626,31.1300021 83.44,30.71 C84.2613374,30.2899979 84.9239975,29.7346701 85.428,29.044 L88.256,31.032 C87.3786623,32.1333388 86.3053397,32.9873303 85.036,33.594 C83.7666603,34.2006697 82.2826752,34.504 80.584,34.504 C79.0346589,34.504 77.6113398,34.2473359 76.314,33.734 C75.0166602,33.2206641 73.901338,32.5020046 72.968,31.578 C72.034662,30.6539954 71.3066693,29.5526731 70.784,28.274 C70.2613307,26.9953269 70,25.5813411 70,24.032 C70,22.4453254 70.2753306,21.0126731 70.826,19.734 C71.3766694,18.4553269 72.1326619,17.3680045 73.094,16.472 C74.0553381,15.5759955 75.1893268,14.8853358 76.496,14.4 C77.8026732,13.9146642 79.2213257,13.672 80.752,13.672 C81.3866698,13.672 82.0493299,13.7326661 82.74,13.854 C83.4306701,13.9753339 84.0933302,14.1619987 84.728,14.414 C85.3626698,14.6660013 85.9599972,14.9786648 86.52,15.352 C87.0800028,15.7253352 87.555998,16.1733307 87.948,16.696 L85.26,18.824 Z M90.328,12.832 L93.688,12.832 L93.688,34 L90.328,34 L90.328,12.832 Z M106.24,25.936 C106.24,25.5066645 106.179334,25.096002 106.058,24.704 C105.936666,24.311998 105.745335,23.9666682 105.484,23.668 C105.222665,23.3693318 104.891335,23.1313342 104.49,22.954 C104.088665,22.7766658 103.617336,22.688 103.076,22.688 C102.067995,22.688 101.214003,22.9913303 100.514,23.598 C99.8139965,24.2046697 99.426667,24.9839952 99.352,25.936 L106.24,25.936 Z M109.6,27.448 L109.6,27.896 C109.6,28.0453341 109.590667,28.1946659 109.572,28.344 L99.352,28.344 C99.3893335,28.8293358 99.5153323,29.2726647 99.73,29.674 C99.9446677,30.0753353 100.229332,30.4206652 100.584,30.71 C100.938668,30.9993348 101.339998,31.2279992 101.788,31.396 C102.236002,31.5640008 102.702664,31.648 103.188,31.648 C104.028004,31.648 104.73733,31.4940015 105.316,31.186 C105.89467,30.8779985 106.370665,30.453336 106.744,29.912 L108.984,31.704 C107.65866,33.496009 105.736013,34.392 103.216,34.392 C102.170661,34.392 101.209338,34.2286683 100.332,33.902 C99.4546623,33.5753317 98.6940032,33.1133363 98.05,32.516 C97.4059968,31.9186637 96.9020018,31.1860043 96.538,30.318 C96.1739982,29.4499957 95.992,28.4653388 95.992,27.364 C95.992,26.2813279 96.1739982,25.2966711 96.538,24.41 C96.9020018,23.5233289 97.4013302,22.7673365 98.036,22.142 C98.6706698,21.5166635 99.4219957,21.0313351 100.29,20.686 C101.158004,20.3406649 102.095995,20.168 103.104,20.168 C104.037338,20.168 104.900663,20.3219985 105.694,20.63 C106.487337,20.9380015 107.17333,21.3953303 107.752,22.002 C108.33067,22.6086697 108.783332,23.3646621 109.11,24.27 C109.436668,25.1753379 109.6,26.2346606 109.6,27.448 Z M121.024,32.292 L120.94,32.292 C120.603998,32.8893363 120.06267,33.3793314 119.316,33.762 C118.56933,34.1446686 117.720005,34.336 116.768,34.336 C116.226664,34.336 115.662003,34.2660007 115.074,34.126 C114.485997,33.9859993 113.944669,33.7526683 113.45,33.426 C112.955331,33.0993317 112.544668,32.6700027 112.218,32.138 C111.891332,31.6059973 111.728,30.9480039 111.728,30.164 C111.728,29.155995 112.012664,28.3533363 112.582,27.756 C113.151336,27.1586637 113.883996,26.7013349 114.78,26.384 C115.676004,26.0666651 116.669995,25.8566672 117.762,25.754 C118.854005,25.6513328 119.922661,25.6 120.968,25.6 L120.968,25.264 C120.968,24.4239958 120.66467,23.8033353 120.058,23.402 C119.45133,23.0006647 118.728,22.8 117.888,22.8 C117.178663,22.8 116.497337,22.9493318 115.844,23.248 C115.190663,23.5466682 114.649335,23.9106645 114.22,24.34 L112.484,22.296 C113.249337,21.5866631 114.131328,21.0546684 115.13,20.7 C116.128672,20.3453316 117.141328,20.168 118.168,20.168 C119.362673,20.168 120.347329,20.3359983 121.122,20.672 C121.896671,21.0080017 122.507998,21.446664 122.956,21.988 C123.404002,22.529336 123.716666,23.1359966 123.894,23.808 C124.071334,24.4800034 124.16,25.1519966 124.16,25.824 L124.16,34 L121.024,34 L121.024,32.292 Z M120.968,27.868 L120.212,27.868 C119.670664,27.868 119.101336,27.8913331 118.504,27.938 C117.906664,27.9846669 117.356003,28.0873325 116.852,28.246 C116.347997,28.4046675 115.928002,28.6286652 115.592,28.918 C115.255998,29.2073348 115.088,29.6039975 115.088,30.108 C115.088,30.4253349 115.157999,30.6913323 115.298,30.906 C115.438001,31.1206677 115.619999,31.2933327 115.844,31.424 C116.068001,31.5546673 116.319999,31.6479997 116.6,31.704 C116.880001,31.7600003 117.159999,31.788 117.44,31.788 C118.597339,31.788 119.474664,31.4800031 120.072,30.864 C120.669336,30.2479969 120.968,29.4080053 120.968,28.344 L120.968,27.868 Z M127.08,20.56 L130.3,20.56 L130.3,22.8 L130.356,22.8 C130.729335,22.0159961 131.251997,21.3813358 131.924,20.896 C132.596003,20.4106642 133.379996,20.168 134.276,20.168 C134.406667,20.168 134.546666,20.1726666 134.696,20.182 C134.845334,20.1913334 134.975999,20.2146665 135.088,20.252 L135.088,23.332 C134.863999,23.2759997 134.672667,23.2386668 134.514,23.22 C134.355333,23.2013332 134.201334,23.192 134.052,23.192 C133.286663,23.192 132.670669,23.3319986 132.204,23.612 C131.737331,23.8920014 131.373335,24.227998 131.112,24.62 C130.850665,25.012002 130.673334,25.4133313 130.58,25.824 C130.486666,26.2346687 130.44,26.5613321 130.44,26.804 L130.44,34 L127.08,34 L127.08,20.56 Z M140.688,12.832 L140.688,22.268 L140.772,22.268 C140.940001,22.0439989 141.154665,21.8106679 141.416,21.568 C141.677335,21.3253321 141.989998,21.1013344 142.354,20.896 C142.718002,20.6906656 143.142664,20.5180007 143.628,20.378 C144.113336,20.2379993 144.663997,20.168 145.28,20.168 C146.232005,20.168 147.109329,20.3499982 147.912,20.714 C148.714671,21.0780018 149.40533,21.5773302 149.984,22.212 C150.56267,22.8466698 151.010665,23.593329 151.328,24.452 C151.645335,25.310671 151.804,26.2346617 151.804,27.224 C151.804,28.2133383 151.650002,29.1419957 151.342,30.01 C151.033998,30.8780043 150.595336,31.6339968 150.026,32.278 C149.456664,32.9220032 148.766004,33.4353314 147.954,33.818 C147.141996,34.2006686 146.222672,34.392 145.196,34.392 C144.243995,34.392 143.352671,34.1866687 142.522,33.776 C141.691329,33.3653313 141.042669,32.7680039 140.576,31.984 L140.52,31.984 L140.52,34 L137.328,34 L137.328,12.832 L140.688,12.832 Z M148.388,27.224 C148.388,26.7013307 148.308667,26.1833359 148.15,25.67 C147.991333,25.1566641 147.753335,24.6946687 147.436,24.284 C147.118665,23.8733313 146.717336,23.5420013 146.232,23.29 C145.746664,23.0379987 145.177337,22.912 144.524,22.912 C143.907997,22.912 143.357336,23.0426654 142.872,23.304 C142.386664,23.5653346 141.971335,23.9013313 141.626,24.312 C141.280665,24.7226687 141.019334,25.1893307 140.842,25.712 C140.664666,26.2346693 140.576,26.7573307 140.576,27.28 C140.576,27.8026693 140.664666,28.3206641 140.842,28.834 C141.019334,29.3473359 141.280665,29.8093313 141.626,30.22 C141.971335,30.6306687 142.386664,30.9619987 142.872,31.214 C143.357336,31.4660013 143.907997,31.592 144.524,31.592 C145.177337,31.592 145.746664,31.4613346 146.232,31.2 C146.717336,30.9386654 147.118665,30.6026687 147.436,30.192 C147.753335,29.7813313 147.991333,29.3146693 148.15,28.792 C148.308667,28.2693307 148.388,27.7466693 148.388,27.224 Z M154.108,20.56 L157.468,20.56 L157.468,34 L154.108,34 L154.108,20.56 Z M153.632,15.996 C153.632,15.454664 153.832665,14.9833353 154.234,14.582 C154.635335,14.1806647 155.143997,13.98 155.76,13.98 C156.376003,13.98 156.893998,14.1713314 157.314,14.554 C157.734002,14.9366686 157.944,15.4173304 157.944,15.996 C157.944,16.5746696 157.734002,17.0553314 157.314,17.438 C156.893998,17.8206686 156.376003,18.012 155.76,18.012 C155.143997,18.012 154.635335,17.8113353 154.234,17.41 C153.832665,17.0086647 153.632,16.537336 153.632,15.996 Z M159.624,23.248 L159.624,20.56 L161.976,20.56 L161.976,16.668 L165.28,16.668 L165.28,20.56 L168.64,20.56 L168.64,23.248 L165.28,23.248 L165.28,29.492 C165.28,30.0893363 165.387332,30.583998 165.602,30.976 C165.816668,31.368002 166.29733,31.564 167.044,31.564 C167.268001,31.564 167.510665,31.5406669 167.772,31.494 C168.033335,31.4473331 168.266666,31.3773338 168.472,31.284 L168.584,33.916 C168.285332,34.0280006 167.930669,34.1166663 167.52,34.182 C167.109331,34.2473337 166.717335,34.28 166.344,34.28 C165.447996,34.28 164.720003,34.1540013 164.16,33.902 C163.599997,33.6499987 163.156668,33.3046689 162.83,32.866 C162.503332,32.4273311 162.279334,31.9233362 162.158,31.354 C162.036666,30.7846638 161.976,30.1733366 161.976,29.52 L161.976,23.248 L159.624,23.248 Z">
  </path>
 </g>
</svg>