<svg viewBox="0 0 318.02 126.99" xmlns="http://www.w3.org/2000/svg" xmlns:xlink="http://www.w3.org/1999/xlink"><defs><linearGradient gradientUnits="userSpaceOnUse" id="linear-gradient" x1="33.34" x2="33.34" y1="77.16" y2="42.87"><stop offset="0" stop-color="#5061ac"></stop><stop offset="0.75" stop-color="#6ccef5" stop-opacity="0"></stop></linearGradient><linearGradient id="linear-gradient-2" x1="8.57" x2="8.57" href="#linear-gradient" y1="60.01" y2="42.87"></linearGradient><linearGradient id="linear-gradient-3" x1="58.11" x2="58.11" href="#linear-gradient" y1="102.88" y2="42.87"></linearGradient><linearGradient id="linear-gradient-4" x1="82.87" x2="82.87" href="#linear-gradient" y1="77.16" y2="42.87"></linearGradient><linearGradient gradientUnits="userSpaceOnUse" id="linear-gradient-5" x1="107.64" x2="107.64" y1="60.01" y2="25.72"><stop offset="0" stop-color="#40b981"></stop><stop offset="1" stop-color="#77c7a0" stop-opacity="0"></stop></linearGradient><linearGradient id="linear-gradient-6" x1="132.41" x2="132.41" href="#linear-gradient-5" y1="60.01" y2="0"></linearGradient><linearGradient id="linear-gradient-7" x1="157.18" x2="157.18" href="#linear-gradient-5" y1="60.01" y2="25.72"></linearGradient><linearGradient id="linear-gradient-8" x1="181.94" x2="181.94" href="#linear-gradient-5" y1="60.01" y2="42.87"></linearGradient></defs><title>Full_Color_Logo_Black_Text</title><g data-name="Pantone P 115-5 C" id="Pantone_P_115-5_C"><g data-name="Pantone P 115-5 C " id="Pantone_P_115-5_C_"><rect height="34.29" rx="8.57" ry="8.57" style="fill:#6ccef5" width="17.15" x="24.77" y="42.87"></rect><circle cx="8.58" cy="51.44" r="8.57" style="fill:#6ccef5"></circle><path d="M58.11,42.87a8.59,8.59,0,0,0-8.57,8.57V94.31a8.57,8.57,0,0,0,17.14,0V51.44A8.59,8.59,0,0,0,58.11,42.87Z" style="fill:#6ccef5" transform="translate(0 0)"></path><path d="M82.88,42.87a8.6,8.6,0,0,0-8.58,8.57V68.59a8.58,8.58,0,0,0,17.15,0V51.44A8.6,8.6,0,0,0,82.88,42.87Z" style="fill:#6ccef5" transform="translate(0 0)"></path></g></g><g data-name="Pantone 2726 C" id="Pantone_2726_C"><rect height="34.29" rx="8.57" ry="8.57" style="fill:url(#linear-gradient)" width="17.15" x="24.77" y="42.87"></rect><circle cx="8.57" cy="51.44" r="8.57" style="fill:url(#linear-gradient-2)"></circle><path d="M58.11,42.87a8.6,8.6,0,0,0-8.58,8.57V94.31a8.58,8.58,0,0,0,17.15,0V51.44A8.6,8.6,0,0,0,58.11,42.87Z" style="fill:url(#linear-gradient-3)" transform="translate(0 0)"></path><path d="M82.87,42.87a8.6,8.6,0,0,0-8.57,8.57V68.59a8.58,8.58,0,0,0,17.15,0V51.44A8.6,8.6,0,0,0,82.87,42.87Z" style="fill:url(#linear-gradient-4)" transform="translate(0 0)"></path></g><g data-name="Pantone P 3385 C" id="Pantone_P_3385_C"><g data-name="Pantone P 3385 C" id="Pantone_P_3385_C_"><path d="M107.64,25.72a8.6,8.6,0,0,0-8.57,8.57V51.44a8.58,8.58,0,0,0,17.15,0V34.29A8.6,8.6,0,0,0,107.64,25.72Z" style="fill:#64c3a4" transform="translate(0 0)"></path><rect height="60.01" rx="8.57" ry="8.57" style="fill:#64c3a4" width="17.15" x="123.84"></rect><path d="M157.18,25.72a8.59,8.59,0,0,0-8.57,8.57V51.44a8.57,8.57,0,0,0,17.14,0V34.29A8.6,8.6,0,0,0,157.18,25.72Z" style="fill:#64c3a4" transform="translate(0 0)"></path><path d="M182,42.87a8.57,8.57,0,1,0,8.57,8.57A8.6,8.6,0,0,0,182,42.87Z" style="fill:#64c3a4" transform="translate(0 0)"></path></g></g><g data-name="Pantone 3395 C" id="Pantone_3395_C"><path d="M107.64,25.72a8.6,8.6,0,0,0-8.57,8.57V51.44a8.58,8.58,0,0,0,17.15,0V34.29A8.6,8.6,0,0,0,107.64,25.72Z" style="fill:url(#linear-gradient-5)" transform="translate(0 0)"></path><rect height="60.01" rx="8.57" ry="8.57" style="fill:url(#linear-gradient-6)" width="17.15" x="123.84"></rect><path d="M157.18,25.72a8.6,8.6,0,0,0-8.58,8.57V51.44a8.58,8.58,0,0,0,17.15,0V34.29A8.6,8.6,0,0,0,157.18,25.72Z" style="fill:url(#linear-gradient-7)" transform="translate(0 0)"></path><path d="M181.94,42.87a8.57,8.57,0,1,0,8.58,8.57A8.6,8.6,0,0,0,181.94,42.87Z" style="fill:url(#linear-gradient-8)" transform="translate(0 0)"></path></g><g id="Black"><g data-name="Black" id="Black-2"><path d="M124.85,109.1a1.53,1.53,0,0,1-.07,2.26,15.55,15.55,0,0,1-10.59,3.74c-8.91,0-16.32-5.36-16.32-16.25s7.41-16.26,16.32-16.26a14.35,14.35,0,0,1,9.89,3.47,1.52,1.52,0,0,1,.11,2.21l-2.76,2.91a1.56,1.56,0,0,1-2,.19,9.19,9.19,0,0,0-5.12-1.62c-5.11,0-8.84,3.74-8.84,9.1,0,5.85,4,9,8.72,9a9.58,9.58,0,0,0,5.74-1.71,1.49,1.49,0,0,1,1.94.1Z" transform="translate(0 0)"></path><path d="M160.52,98.85c0,8.84-6,16-16,16s-15.94-7.16-15.94-16,6.1-16,15.88-16S160.52,90.07,160.52,98.85Zm-24.35,0c0,4.67,2.8,9,8.34,9s8.35-4.36,8.35-9-3.24-9.1-8.35-9.1C139,89.75,136.17,94.24,136.17,98.85Z" transform="translate(0 0)"></path><path d="M174,74.81c0,5.91-9,5.91-9,0S174,68.89,174,74.81Zm-8.28,10.38v27.13a1.85,1.85,0,0,0,1.85,1.85h3.9a1.85,1.85,0,0,0,1.85-1.85V85.19a1.85,1.85,0,0,0-1.85-1.85h-3.9A1.85,1.85,0,0,0,165.75,85.19Z" transform="translate(0 0)"></path><path d="M204.32,114.17a1.52,1.52,0,0,1-1.51-1.52V98.1c0-4.22-2.09-7.53-6.07-8.13a8.18,8.18,0,0,0-9.19,8.21v14.47a1.52,1.52,0,0,1-1.52,1.52h-4.5a1.52,1.52,0,0,1-1.52-1.52V84.92a1.52,1.52,0,0,1,1.52-1.52h3.93a1.52,1.52,0,0,1,1.5,1.34h0a1.51,1.51,0,0,0,2.4,1,12.74,12.74,0,0,1,8-2.81c7.22,0,13,5.41,13,15.07v14.61a1.51,1.51,0,0,1-1.51,1.52Z" transform="translate(0 0)"></path><path d="M242,109a1.64,1.64,0,0,1-.07,2.44,15.62,15.62,0,0,1-10.49,3.65c-8.91,0-16.32-5.36-16.32-16.25s7.41-16.26,16.32-16.26a14.35,14.35,0,0,1,9.73,3.34,1.66,1.66,0,0,1,.18,2.44l-2.6,2.73a1.68,1.68,0,0,1-2.16.21,9.15,9.15,0,0,0-5-1.56c-5.11,0-8.84,3.74-8.84,9.1,0,5.85,4,9,8.72,9a9.61,9.61,0,0,0,5.71-1.69,1.64,1.64,0,0,1,2.09.19Z" transform="translate(0 0)"></path><path d="M272.17,83.46h4.88a1.24,1.24,0,0,1,1.24,1.24v28.23a1.24,1.24,0,0,1-1.24,1.24h-4.79A1.24,1.24,0,0,1,271,113l0-.2a1.23,1.23,0,0,0-2.07-.79,13.24,13.24,0,0,1-8.15,3.06c-9.09.06-15.82-5.54-15.82-16.32,0-10.58,7-16.13,16-16.06a12.28,12.28,0,0,1,7.94,2.78,1.23,1.23,0,0,0,2-.87h0A1.24,1.24,0,0,1,272.17,83.46Zm-19.6,15.32c0,6.43,4.88,10,10.6,9.24,10.5-1.4,10.48-17.07,0-18.42C257.43,88.87,252.57,92.37,252.57,98.78Z" transform="translate(0 0)"></path><path d="M284.7,125.82V84.64a1.18,1.18,0,0,1,1.18-1.18h4.88a1.17,1.17,0,0,1,1.16,1l.08.61a1.17,1.17,0,0,0,1.93.75,12.68,12.68,0,0,1,8.34-3.08c9.46,0,15.75,7,15.75,16.07s-5.67,16.06-15.51,16.06a14.64,14.64,0,0,1-8.33-2.39,1.18,1.18,0,0,0-1.88.94v12.36a1.18,1.18,0,0,1-1.17,1.18h-5.25A1.18,1.18,0,0,1,284.7,125.82Zm25.72-27c0-4.8-3.23-8.72-8.71-8.72A8.33,8.33,0,0,0,293,98.85a8.72,8.72,0,0,0,17.43,0Z" transform="translate(0 0)"></path></g></g></svg>