<svg data-name="Layer 1" id="Layer_1" viewBox="0 0 417.57 37.58" xmlns="http://www.w3.org/2000/svg"><defs><style>.cls-1{fill:#1c4b71;}.cls-2{fill:#991c20;}</style></defs><title>congress_gov_logo_vector</title><path class="cls-1" d="M6.25,32.41A17.58,17.58,0,0,1,0,18.31,17.67,17.67,0,0,1,5.85,5.22C9.49,2.08,14.26.17,21.71.17A51.78,51.78,0,0,1,29,.67c1.88.28,3.52.62,5,.79.57.06.74.28.74.56s-.11,1-.23,2.64-.11,4.21-.17,5.17c-.06.67-.23,1.18-.68,1.18s-.51-.39-.51-1A6.7,6.7,0,0,0,31.2,5.56c-1.7-1.63-5.06-2.81-9.66-2.81-4.38,0-7.16.79-9.43,2.7C8.41,8.59,7.5,13.2,7.5,17.86c0,11.35,8.86,16.74,15.57,16.74,4.43,0,6.88-.34,8.87-2.53a7.69,7.69,0,0,0,1.71-3.2c.11-.73.23-1,.63-1s.57.45.57.84a41.71,41.71,0,0,1-1.08,6.35,1.68,1.68,0,0,1-1.31,1.4c-2,.79-5.8,1.07-9,1.07C16.59,37.58,10.8,36.18,6.25,32.41Z"></path><path class="cls-1" d="M36.66,18.87c0-8.15,5.8-18.71,21-18.71C70.25.17,78.09,7.08,78.09,18S70,37.58,57.12,37.58C42.57,37.58,36.66,27.36,36.66,18.87Zm34,.9C70.64,9.21,64.22,2.7,56.15,2.7,50.58,2.7,44,5.62,44,17.41,44,27.24,49.73,35,59.16,35,62.69,35,70.64,33.37,70.64,19.77Z"></path><path class="cls-1" d="M87.13,30.45c.11,3.71.74,4.83,1.7,5.17a8.58,8.58,0,0,0,2.61.34c.57,0,.85.22.85.5s-.45.51-1.14.51c-3.24,0-5.57-.17-6.48-.17-.45,0-2.84.17-5.4.17-.68,0-1.14-.06-1.14-.51,0-.28.34-.5.8-.5a10.37,10.37,0,0,0,2.27-.23c1.31-.34,1.48-1.63,1.53-5.79l.46-28.31c0-1,.34-1.63.85-1.63s1.31.73,2.16,1.57c.62.62,8.13,8.2,15.4,15.22,3.41,3.31,10.06,10.06,10.8,10.73h.23l-.51-21.23c-.06-2.92-.51-3.76-1.7-4.21a8.49,8.49,0,0,0-2.61-.28c-.63,0-.8-.22-.8-.51s.51-.45,1.25-.45c2.61,0,5.29.11,6.36.11.57,0,2.44-.11,4.89-.11.68,0,1.14.06,1.14.45s-.28.51-.85.51a5.13,5.13,0,0,0-1.53.17c-1.36.39-1.76,1.24-1.82,3.93L115.88,36c0,1.07-.4,1.52-.8,1.52a3,3,0,0,1-2-1c-3.13-2.87-9.38-8.76-14.6-13.76C93,17.58,87.7,11.8,86.73,11h-.17Z"></path><path class="cls-1" d="M158.34,33.76c0,1.29,0,1.35-.62,1.68-3.35,1.63-8.3,2.14-12.22,2.14-12.28,0-23.13-5.5-23.13-18.71a17.64,17.64,0,0,1,8.75-15.62C135.89.51,140.38.17,144.59.17a57.57,57.57,0,0,1,8.87.79c1,.17,2.78.45,4,.5.57.06.68.23.68.56a64.06,64.06,0,0,0-.34,7.86c0,.73-.28,1.07-.68,1.07s-.45-.23-.51-.62a6.31,6.31,0,0,0-1.71-3.93C153.4,4.89,149.65,2.75,144,2.75c-2.73,0-6.19.06-9.66,2.81-2.79,2.25-4.6,5.79-4.6,11.63,0,10.28,6.71,17.75,17.39,17.75a8.27,8.27,0,0,0,3.52-.51,1.58,1.58,0,0,0,1-1.69V28.37c0-2.36,0-4.16-.06-5.62-.06-1.63-.57-2.13-2.16-2.58a9.11,9.11,0,0,0-1.93-.17c-.45,0-.8-.22-.8-.51s.4-.45,1.08-.45c2.61,0,6.19.11,7.67.11s4.21-.11,5.85-.11c.68,0,1,.06,1,.45a.58.58,0,0,1-.62.51,6.89,6.89,0,0,0-1.36.17c-1.36.22-1.88.9-1.93,2.58-.06,1.46-.06,3.37-.06,5.73Z"></path><path class="cls-1" d="M168.92,14.66c0-7.25,0-8.59-.06-10.11S168.29,2.42,166.7,2a9.32,9.32,0,0,0-2-.17c-.51,0-.85-.17-.85-.51s.4-.45,1.14-.45c2.61,0,5.8.11,6.82.11,1.71,0,6.25-.11,7.79-.11,3.18,0,6.82.28,9.49,2a8.32,8.32,0,0,1,3.52,6.57c0,3.54-2,6.68-6.93,10.56,4.43,5.39,8,9.72,11,12.7,2.78,2.75,4.54,3,5.34,3.14a4.7,4.7,0,0,0,1.19.11.58.58,0,0,1,.62.5c0,.39-.34.51-1,.51h-4.77c-2.78,0-4.15-.28-5.46-1-2.16-1.07-4-3.31-6.82-7-2-2.58-4.09-5.79-4.72-6.52a1.16,1.16,0,0,0-.91-.34L175.68,22a.36.36,0,0,0-.4.39v.67c0,4.44.06,8.15.28,10.17.17,1.4.4,2.3,1.93,2.53a19.19,19.19,0,0,0,2.44.17.58.58,0,0,1,.63.5c0,.34-.4.51-1,.51-2.9,0-7-.17-7.79-.17-1,0-4.15.17-6.14.17-.62,0-1-.17-1-.51s.17-.5.8-.5a7.44,7.44,0,0,0,1.76-.17c1-.23,1.31-1.12,1.48-2.53.23-2,.23-5.79.23-10.17Zm6.36,3.71c0,.51.11.67.46.84a13.89,13.89,0,0,0,3.81.45c2,0,2.67-.17,3.52-.79,1.53-1.07,3.24-3.15,3.24-7.08,0-6.74-4.66-8.48-7.61-8.48a18.34,18.34,0,0,0-3,.17c-.34.11-.46.28-.46.67Z"></path><path class="cls-1" d="M204.5,14.66c0-7.25,0-8.59-.06-10.11s-.57-2.14-2.16-2.58a9.33,9.33,0,0,0-2-.17c-.51,0-.85-.17-.85-.51s.4-.45,1.14-.45c2.61,0,5.8.11,7.22.11,1.59,0,12.67.06,13.64,0s1.71-.23,2.1-.28a5.8,5.8,0,0,1,.79-.23c.29,0,.34.23.34.45a20.93,20.93,0,0,0-.4,3.09c-.06.5-.17,2.58-.29,3.15-.06.22-.17.79-.57.79s-.4-.22-.4-.62a4.46,4.46,0,0,0-.34-1.74c-.4-.84-.8-1.52-3.3-1.74-.85-.11-6.82-.22-7.84-.22-.23,0-.34.17-.34.45v11.8c0,.28.06.51.34.51,1.13,0,7.62,0,8.75-.11s1.93-.22,2.39-.73c.4-.34.57-.62.8-.62a.45.45,0,0,1,.4.5c0,.28-.11,1.07-.4,3.48-.11,1-.23,2.87-.23,3.2s-.06,1.07-.51,1.07-.45-.17-.45-.39c-.06-.5-.06-1.12-.17-1.74-.29-1-.91-1.69-2.79-1.85-.91-.11-6.59-.22-7.84-.22-.23,0-.28.22-.28.5v3.82c0,1.63-.06,5.67,0,7.08.11,3.26,1.65,4,6.76,4a13.64,13.64,0,0,0,4.72-.62c1.25-.56,1.82-1.57,2.16-3.54.11-.51.23-.73.57-.73s.45.62.45,1.12a31.8,31.8,0,0,1-.68,5.28c-.34,1.24-.79,1.24-2.67,1.24-3.75,0-6.76-.06-9.21-.17s-4.32-.11-5.8-.11c-.57,0-1.65.06-2.84.06s-2.44.11-3.47.11c-.62,0-1-.17-1-.51s.17-.5.8-.5a7.45,7.45,0,0,0,1.76-.17c1-.23,1.31-1.12,1.48-2.53.23-2,.23-5.79.23-10.17Z"></path><path class="cls-1" d="M231.1,36.35c-.8-.34-1-.56-1-1.63,0-2.58.23-5.56.29-6.35s.23-1.24.63-1.24.51.45.51.79a8.83,8.83,0,0,0,.45,2.47c1.08,3.54,4.83,4.72,8,4.72,4.32,0,6.93-2.7,6.93-6.07,0-2.08-.51-4.16-4.95-6.74l-2.9-1.68c-5.91-3.43-7.84-6.63-7.84-10.84,0-5.84,5.68-9.61,12.62-9.61a30,30,0,0,1,7.1.79c.46.11.68.28.68.62,0,.62-.17,2-.17,5.73,0,1-.23,1.52-.63,1.52s-.51-.28-.51-.84A5.36,5.36,0,0,0,249,4.83c-.74-.9-2.33-2.25-5.57-2.25-3.58,0-6.82,1.85-6.82,5.11,0,2.13.8,3.82,5.28,6.29l2,1.12c6.59,3.59,8.64,7.25,8.64,11.57,0,3.54-1.36,6.4-5,8.93-2.39,1.69-5.68,2-8.35,2A21.49,21.49,0,0,1,231.1,36.35Z"></path><path class="cls-1" d="M258.38,36.35c-.8-.34-1-.56-1-1.63,0-2.58.23-5.56.29-6.35s.23-1.24.63-1.24.51.45.51.79a8.83,8.83,0,0,0,.45,2.47c1.08,3.54,4.83,4.72,8,4.72,4.32,0,6.93-2.7,6.93-6.07,0-2.08-.51-4.16-4.95-6.74l-2.9-1.68c-5.91-3.43-7.84-6.63-7.84-10.84,0-5.84,5.68-9.61,12.62-9.61a29.94,29.94,0,0,1,7.1.79c.46.11.68.28.68.62,0,.62-.17,2-.17,5.73,0,1-.23,1.52-.62,1.52s-.51-.28-.51-.84a5.35,5.35,0,0,0-1.31-3.15c-.74-.9-2.33-2.25-5.57-2.25-3.58,0-6.82,1.85-6.82,5.11,0,2.13.8,3.82,5.29,6.29l2,1.12c6.59,3.59,8.64,7.25,8.64,11.57,0,3.54-1.37,6.4-5,8.93-2.39,1.69-5.68,2-8.35,2A21.49,21.49,0,0,1,258.38,36.35Z"></path><path class="cls-2" d="M332.54,33.76c0,1.29,0,1.35-.62,1.68-3.35,1.63-8.3,2.14-12.22,2.14-12.28,0-23.13-5.5-23.13-18.71a17.64,17.64,0,0,1,8.75-15.62C310.09.51,314.58.17,318.79.17a57.55,57.55,0,0,1,8.87.79c1,.17,2.79.45,4,.5.57.06.68.23.68.56A64.25,64.25,0,0,0,332,9.89c0,.73-.29,1.07-.68,1.07s-.46-.23-.51-.62a6.3,6.3,0,0,0-1.71-3.93c-1.48-1.52-5.23-3.65-10.85-3.65-2.73,0-6.2.06-9.66,2.81C305.78,7.81,304,11.35,304,17.19c0,10.28,6.71,17.75,17.39,17.75a8.26,8.26,0,0,0,3.52-.51,1.58,1.58,0,0,0,1-1.69V28.37c0-2.36,0-4.16-.06-5.62-.06-1.63-.57-2.13-2.16-2.58a9.11,9.11,0,0,0-1.93-.17c-.45,0-.79-.22-.79-.51s.4-.45,1.08-.45c2.61,0,6.2.11,7.67.11s4.21-.11,5.85-.11c.68,0,1,.06,1,.45a.58.58,0,0,1-.62.51,6.91,6.91,0,0,0-1.37.17c-1.36.22-1.87.9-1.93,2.58-.06,1.46-.06,3.37-.06,5.73Z"></path><path class="cls-2" d="M337.66,18.87c0-8.15,5.8-18.71,21-18.71,12.62,0,20.46,6.91,20.46,17.86s-8.07,19.55-21,19.55C343.57,37.58,337.66,27.36,337.66,18.87Zm34,.9c0-10.56-6.42-17.08-14.49-17.08-5.57,0-12.11,2.92-12.11,14.72,0,9.83,5.68,17.58,15.12,17.58C363.69,35,371.65,33.37,371.65,19.77Z"></path><path class="cls-2" d="M382,5.5c-1.13-2.64-1.87-3.09-3.69-3.54a9,9,0,0,0-1.93-.17c-.46,0-.57-.22-.57-.51s.51-.45,1.25-.45c2.67,0,5.51.11,7.27.11,1.25,0,3.87-.11,6.37-.11.63,0,1.19.11,1.19.45s-.34.51-.8.51a3.72,3.72,0,0,0-1.93.34,1,1,0,0,0-.51,1,13.66,13.66,0,0,0,1.14,3.6l8.41,21.4h.17c2.16-4.94,8.58-20.34,9.78-23.48a6.6,6.6,0,0,0,.46-1.74c0-.51-.23-.67-.68-.84a7.68,7.68,0,0,0-2-.23c-.45,0-.85-.17-.85-.51s.46-.45,1.42-.45c2.5,0,4.72.11,5.34.11.85,0,3.18-.11,4.72-.11.63,0,1,.11,1,.45s-.29.51-.8.51a4,4,0,0,0-2.44.56c-.63.45-1.31,1.18-2.62,4.21-2,4.49-3.29,7.08-6,12.92-3.18,7-5.51,12.19-6.65,14.61-1.25,2.75-1.71,3.48-2.39,3.48s-1.08-.62-2-2.87Z"></path><polygon class="cls-2" points="289.15 26.48 290.38 30.47 294.37 30.47 291.15 32.94 292.38 36.92 289.15 34.46 285.93 36.92 287.16 32.94 283.93 30.47 287.92 30.47 289.15 26.48"></polygon></svg>