<svg height="25.184" viewBox="0 0 93.04 25.184" width="93.04" xmlns="http://www.w3.org/2000/svg"><g transform="translate(0.037)"><path d="M850,498.51V484.991h3.09V486.4a5.349,5.349,0,0,1,1.352-1.077,3.284,3.284,0,0,1,1.518-.331,4.722,4.722,0,0,1,2.441.773,1.562,1.562,0,0,1,0,1.811c-.6,1.181-1.352.916-1.352.916a2.808,2.808,0,0,0-1.642-.608q-1.931,0-2.318,2.355v8.273Z" fill="#fff" transform="translate(-796.357 -477.215)"></path><path d="M850,498.51V484.991h3.09V486.4a5.349,5.349,0,0,1,1.352-1.077,3.284,3.284,0,0,1,1.518-.331,4.722,4.722,0,0,1,2.441.773,1.562,1.562,0,0,1,0,1.811c-.6,1.181-1.352.916-1.352.916a2.808,2.808,0,0,0-1.642-.608q-1.931,0-2.318,2.355v8.273Z" fill="#fff" transform="translate(-765.666 -477.215)"></path><path d="M1016.925,497.99a6.287,6.287,0,0,1-1.091-.623,6.565,6.565,0,0,1-.951-.826,6.775,6.775,0,0,1-1.375-2.149,7.111,7.111,0,0,1,0-5.263,6.8,6.8,0,0,1,.592-1.148,6.7,6.7,0,0,1,.784-1,6.554,6.554,0,0,1,.95-.826,6.314,6.314,0,0,1,1.091-.623,6.15,6.15,0,0,1,5,0,6.363,6.363,0,0,1,1.091.623,6.62,6.62,0,0,1,.95.826,6.829,6.829,0,0,1,.784,1,6.923,6.923,0,0,1,.592,1.148,7.044,7.044,0,0,1,.5,2.631c0,.226-.011.453-.032.676h-10.059a3.976,3.976,0,0,0,1.055,2.138,3.754,3.754,0,0,0,1.2.838,3.655,3.655,0,0,0,2.933,0,3.754,3.754,0,0,0,1.2-.838,3.977,3.977,0,0,0,.4-.5s.148-.59,1.425-.59,1.494.59,1.494.59c-.037.106-.076.211-.118.314a6.818,6.818,0,0,1-.592,1.148,6.723,6.723,0,0,1-.784,1,6.567,6.567,0,0,1-.95.826,6.326,6.326,0,0,1-1.091.623A6.15,6.15,0,0,1,1016.925,497.99Zm5.9-7.967a3.877,3.877,0,0,0-.689-.979,3.734,3.734,0,0,0-1.2-.838,3.652,3.652,0,0,0-2.932,0,3.754,3.754,0,0,0-1.2.838,3.893,3.893,0,0,0-.687.979Z" fill="#fff" transform="translate(-943.516 -477.226)"></path><path d="M716.649,498.519A5.645,5.645,0,0,1,711,492.87V485h3.09v8.063a2.559,2.559,0,0,0,5.118,0V485h3.09v7.87a5.645,5.645,0,0,1-5.649,5.649Z" fill="#fff" transform="translate(-670.82 -477.224)"></path><path d="M555.913,498.709a6.749,6.749,0,1,1,2.63-.531,6.749,6.749,0,0,1-2.63.531Zm0-10.333a3.685,3.685,0,0,0-2.595,1.062,3.588,3.588,0,0,0,0,5.118,3.7,3.7,0,0,0,5.189,0,3.588,3.588,0,0,0,0-5.118A3.681,3.681,0,0,0,555.913,488.377Z" fill="#fff" transform="translate(-524.669 -477.414)"></path><g transform="translate(-0.037 2.303)"><path d="M307.361,451.725a11.442,11.442,0,0,1-9.022-18.427,5.1,5.1,0,0,1,1.435.957,5.552,5.552,0,0,1,.924,1.145,6.048,6.048,0,0,1,.714,1.725,6.744,6.744,0,0,0,11.666,6.752H318.2A11.39,11.39,0,0,1,307.361,451.725Zm10.831-15.018h-5.118a6.718,6.718,0,0,0-5.311-3.163,8.732,8.732,0,0,0-1.73-1.464,7.226,7.226,0,0,0-1.537-.758,5.714,5.714,0,0,0-1.877-.331,5.451,5.451,0,0,0-1.392.183,6.351,6.351,0,0,0-1.485.612,11.377,11.377,0,0,1,18.251,4.348c.073.188.142.377.2.569Z" fill="#fff" transform="translate(-295.963 -428.844)"></path><path d="M475.342,501.974a5.173,5.173,0,0,1,2.691.743c.49,1.9-3.705,2.659-5.113,0A4.928,4.928,0,0,1,475.342,501.974Z" fill="#fff" transform="translate(-455.832 -494.883)"></path><path d="M475.532,568.465a5.23,5.23,0,0,0,2.716-.742c.489-1.9-3.716-2.66-5.118,0A4.871,4.871,0,0,0,475.532,568.465Z" fill="#fff" transform="translate(-456.022 -552.706)"></path><ellipse cx="0.579" cy="0.579" fill="#fff" rx="0.579" ry="0.579" transform="translate(6.667 3.395)"></ellipse><path d="M372.065,527.718a6.934,6.934,0,0,1-6.8-5.588,11.781,11.781,0,0,0,8.262,5.436A7.035,7.035,0,0,1,372.065,527.718Z" fill="#fff" transform="translate(-358.568 -513.082)"></path></g><rect fill="#fff" height="13.519" transform="translate(64.191 7.776)" width="3.09"></rect><ellipse cx="2.124" cy="2.124" fill="#fff" rx="2.124" ry="2.124" transform="translate(63.612)"></ellipse></g></svg>