<svg fill="none" height="39" viewBox="0 0 197 39" width="197" xmlns="http://www.w3.org/2000/svg"><g fill="#0b0021"><path d="m32.4489 16.5529h-9.5438c-.0795-.8075-.2386-1.5342-.5567-2.1801-.3181-.646-.7158-1.2112-1.193-1.6957s-1.1134-.8075-1.8292-1.1304c-.7158-.2423-1.5111-.4038-2.386-.4038-1.5906 0-2.9426.4038-3.9765 1.1305-1.1135.8074-1.9088 1.8571-2.4655 3.3105-.55674 1.4534-.87487 3.2298-.87487 5.2485 0 2.1801.31813 3.9565.87487 5.4099.5567 1.4534 1.4316 2.5031 2.4655 3.2298 1.1134.7267 2.3859 1.1305 3.897 1.1305.8749 0 1.6702-.0808 2.3064-.323.7158-.2423 1.2725-.5652 1.8293-.969.5567-.4037.9543-.9689 1.2725-1.5341.3181-.5652.5567-1.2919.6362-2.0187l9.5438.0808c-.0795 1.4534-.5567 2.9876-1.2725 4.5217-.7158 1.5342-1.7497 2.9876-3.0222 4.2795-1.2725 1.292-2.9427 2.3416-4.8514 3.1491-1.9088.8074-4.1357 1.2112-6.6807 1.2112-3.1812 0-6.0444-.7267-8.50987-2.0994-2.54501-1.3727-4.5333-3.3913-5.96487-6.1366-1.431575-2.6646-2.14736-5.9752-2.14736-9.851s.715785-7.1863 2.22689-9.9316c1.5111-2.66465 3.49939-4.68328 6.04441-6.05595 2.545-1.37267 5.3286-2.09938 8.4304-2.09938 2.2268 0 4.2151.32298 6.0444.8882 1.8292.56522 3.4198 1.45342 4.8514 2.6646 1.352 1.13043 2.4655 2.58385 3.3403 4.27953.8749 1.7764 1.3521 3.7143 1.5111 5.8944z"/><path d="m36.9026 38.5155v-26.4037h9.0666v5.0062h.2386c.4772-1.8571 1.193-3.2298 2.2269-4.0373 1.0339-.8882 2.2269-1.2919 3.6584-1.2919.3977 0 .7954 0 1.193.0808.3977.0807.7953.1615 1.193.2422v8.0745c-.4772-.1615-1.0339-.2422-1.6702-.3229-.7158-.0808-1.2725-.0808-1.7497-.0808-.8748 0-1.7497.2422-2.4655.646-.7157.4037-1.2725.9689-1.7496 1.7764-.3977.7267-.6363 1.6149-.6363 2.6646v13.7267h-9.3052z"/><path d="m68.5564 39.0001c-2.7836 0-5.2491-.5653-7.2374-1.6957s-3.5789-2.7453-4.6128-4.764c-1.0339-2.0186-1.5907-4.441-1.5907-7.1056s.5568-5.0869 1.5907-7.1055c1.0339-2.0187 2.6245-3.6336 4.6128-4.764 1.9883-1.1305 4.4538-1.6957 7.2374-1.6957s5.2491.5652 7.2374 1.6957c1.9883 1.1304 3.5789 2.7453 4.6128 4.764 1.0339 2.0186 1.5907 4.4409 1.5907 7.1055s-.5568 5.087-1.5907 7.1056c-1.0339 2.0187-2.6245 3.6336-4.6128 4.764-2.0678 1.1304-4.4538 1.6957-7.2374 1.6957zm0-7.0249c.7953 0 1.5111-.2422 2.0678-.8074.5567-.5653 1.0339-1.292 1.3521-2.2609.3181-.9689.4771-2.1801.4771-3.5528s-.159-2.5838-.4771-3.5528c-.3182-.9689-.7954-1.7764-1.3521-2.2609-.5567-.5652-1.2725-.8074-2.0678-.8074s-1.5111.2422-2.1474.8074c-.6362.5653-1.0339 1.292-1.352 2.2609-.3181.969-.4772 2.1801-.4772 3.5528s.1591 2.5839.4772 3.5528.7953 1.7764 1.352 2.2609c.6363.5652 1.3521.8074 2.1474.8074z"/><path d="m95.1198 23.6586v14.8571h-9.3053v-26.4037h8.8281v5.0062h.2386c.5567-1.6957 1.5906-2.9876 3.0222-3.9565 1.4315-.969 3.1016-1.4534 5.0106-1.4534 1.829 0 3.42.4037 4.772 1.2919s2.386 2.0186 3.181 3.472c.716 1.4534 1.113 3.1491 1.113 5.087v16.795h-9.384v-14.6956c0-1.292-.318-2.3417-.955-3.0684-.636-.7267-1.59-1.1304-2.7832-1.1304-.7954 0-1.4316.1615-1.9883.4845-.5568.323-1.034.8074-1.2726 1.4534-.2385.646-.4771 1.4534-.4771 2.2609z"/><path d="m116.514 38.5155v-26.4037h9.305v26.4037z"/><path d="m146.1 12.1119v6.8633h-17.1v-6.8633zm-13.759-6.29818h9.305v24.22358c0 .4037.079.646.159.8882.159.2423.318.4037.557.5652.238.0808.556.1615 1.034.1615.318 0 .636 0 .954-.0807.398-.0808.636-.1615.875-.1615l1.352 6.7019c-.398.1614-1.034.2422-1.75.4844-.716.2423-1.67.323-2.783.323-2.148.0808-3.977-.0807-5.409-.646-1.431-.5652-2.545-1.4534-3.26-2.6646-.716-1.2111-1.114-2.7453-1.034-4.6024z"/><path d="m162.165 39.0001c-2.783 0-5.249-.5653-7.237-1.6957s-3.579-2.7453-4.613-4.764c-1.034-2.0186-1.591-4.441-1.591-7.1056s.557-5.0869 1.591-7.1055c1.034-2.0187 2.625-3.6336 4.613-4.764 1.988-1.1305 4.454-1.6957 7.237-1.6957 2.784 0 5.249.5652 7.238 1.6957 1.988 1.1304 3.579 2.7453 4.612 4.764 1.034 2.0186 1.591 4.4409 1.591 7.1055s-.557 5.087-1.591 7.1056c-1.033 2.0187-2.624 3.6336-4.612 4.764-1.989 1.1304-4.454 1.6957-7.238 1.6957zm.08-7.0249c.795 0 1.511-.2422 2.068-.8074.556-.5653 1.034-1.292 1.352-2.2609s.477-2.1801.477-3.5528-.159-2.5838-.477-3.5528c-.318-.9689-.796-1.7764-1.352-2.2609-.557-.5652-1.273-.8074-2.068-.8074-.796 0-1.511.2422-2.148.8074-.636.5653-1.033 1.292-1.352 2.2609-.318.969-.477 2.1801-.477 3.5528s.159 2.5839.477 3.5528c.319.9689.796 1.7764 1.352 2.2609.557.5652 1.273.8074 2.148.8074z"/><path d="m179.424 38.5155v-26.4037h9.066v5.0062h.239c.477-1.8571 1.193-3.2298 2.227-4.0373 1.034-.8882 2.226-1.2919 3.658-1.2919.398 0 .795 0 1.193.0808.398.0807.795.1615 1.193.2422v8.0745c-.477-.1615-1.034-.2422-1.67-.3229-.716-.0808-1.273-.0808-1.75-.0808-.875 0-1.75.2422-2.465.646-.716.4037-1.273.9689-1.75 1.7764-.398.7267-.636 1.6149-.636 2.6646v13.7267h-9.305z"/></g><path d="m120.968 10.4969c2.855 0 5.169-2.34981 5.169-5.24845s-2.314-5.24845-5.169-5.24845-5.17 2.34981-5.17 5.24845 2.315 5.24845 5.17 5.24845z" fill="#81d7a0"/></svg>