<svg height="40px" version="1.1" viewBox="0 0 120 40" width="120px" xmlns="http://www.w3.org/2000/svg" xmlns:xlink="http://www.w3.org/1999/xlink">
<!-- Generator: Sketch 52.5 (67469) - http://www.bohemiancoding.com/sketch -->
<title>grist-logo-trans</title>
<desc>Created with Sketch.</desc>
<defs>
<path d="M16.8233488,17.96096 C15.9040884,18.4102422 14.8954706,18.7601587 13.7974651,19.01072 C12.6994596,19.2612813 11.4354955,19.38656 10.0055349,19.38656 C8.54152756,19.38656 7.20521535,19.1489624 5.99655814,18.67376 C4.78790093,18.1985576 3.74949271,17.5332843 2.88130233,16.67792 C2.01311194,15.8225557 1.33644429,14.8030459 0.85127907,13.61936 C0.366113853,12.4356741 0.123534884,11.1267272 0.123534884,9.69248 C0.123534884,8.22367266 0.374625396,6.89744592 0.876813953,5.71376 C1.37900251,4.53007408 2.06843748,3.52352415 2.94513953,2.69408 C3.82184159,1.86463585 4.85599404,1.22528225 6.04762791,0.776 C7.23926177,0.326717754 8.53301628,0.10208 9.92893023,0.10208 C11.3759142,0.10208 12.6994591,0.313757883 13.8996047,0.73712 C15.0997502,1.16048212 16.0658103,1.71775654 16.797814,2.40896 L14.5762791,4.84544 C14.1166489,4.32703741 13.4740274,3.88640181 12.6483953,3.52352 C11.8227633,3.16063819 10.9247955,2.9792 9.95446512,2.9792 C9.00115802,2.9792 8.13723643,3.15199827 7.36267442,3.4976 C6.58811241,3.84320173 5.92846784,4.31839698 5.38372093,4.9232 C4.83897402,5.52800302 4.41765265,6.23647594 4.11974419,7.04864 C3.82183572,7.86080406 3.67288372,8.74207525 3.67288372,9.69248 C3.67288372,10.6774449 3.82183572,11.5803159 4.11974419,12.40112 C4.41765265,13.2219241 4.84322979,13.934717 5.39648837,14.53952 C5.94974695,15.144323 6.62215883,15.6151983 7.41374419,15.95216 C8.20532954,16.2891217 9.1032973,16.4576 10.1076744,16.4576 C11.486565,16.4576 12.6866926,16.2416022 13.708093,15.8096 L13.708093,11.144 L9.90339535,11.144 L9.90339535,8.44832 L16.8233488,8.44832 L16.8233488,17.96096 Z M20.5769767,6.4784 L23.5134884,6.4784 L23.5134884,8.552 L23.5645581,8.552 C23.905025,7.82623637 24.3816714,7.23872225 24.9945116,6.78944 C25.6073519,6.34015775 26.3223215,6.11552 27.1394419,6.11552 C27.2586052,6.11552 27.3862784,6.11983996 27.5224651,6.12848 C27.6586518,6.13712004 27.7778134,6.15871983 27.8799535,6.19328 L27.8799535,9.04448 C27.6756734,8.99263974 27.5011868,8.95808009 27.3564884,8.9408 C27.21179,8.92351991 27.0713495,8.91488 26.9351628,8.91488 C26.2372058,8.91488 25.675444,9.0444787 25.2498605,9.30368 C24.8242769,9.5628813 24.4923268,9.87391819 24.254,10.2368 C24.0156732,10.5996818 23.8539539,10.9711981 23.7688372,11.35136 C23.6837205,11.7315219 23.6411628,12.0339189 23.6411628,12.25856 L23.6411628,18.92 L20.5769767,18.92 L20.5769767,6.4784 Z M29.9227442,6.4784 L32.9869302,6.4784 L32.9869302,18.92 L29.9227442,18.92 L29.9227442,6.4784 Z M29.4886512,2.25344 C29.4886512,1.75231749 29.6716493,1.31600186 30.0376512,0.94448 C30.403653,0.572958142 30.8675321,0.3872 31.4293023,0.3872 C31.9910726,0.3872 32.4634632,0.564318229 32.8464884,0.91856 C33.2295135,1.27280177 33.4210233,1.71775732 33.4210233,2.25344 C33.4210233,2.78912268 33.2295135,3.23407823 32.8464884,3.58832 C32.4634632,3.94256177 31.9910726,4.11968 31.4293023,4.11968 C30.8675321,4.11968 30.403653,3.93392186 30.0376512,3.5624 C29.6716493,3.19087814 29.4886512,2.75456251 29.4886512,2.25344 Z M43.4306977,9.79616 C43.1583242,9.43327819 42.7838163,9.11792134 42.3071628,8.85008 C41.8305092,8.58223866 41.3113051,8.44832 40.7495349,8.44832 C40.255858,8.44832 39.8047462,8.55199896 39.396186,8.75936 C38.9876259,8.96672104 38.7833488,9.31231758 38.7833488,9.79616 C38.7833488,10.2800024 39.0089047,10.621279 39.4600233,10.82 C39.9111418,11.018721 40.5707864,11.221759 41.4389767,11.42912 C41.8986069,11.5328005 42.362486,11.6710391 42.8306279,11.84384 C43.2987698,12.0166409 43.7243469,12.2455986 44.1073721,12.53072 C44.4903973,12.8158414 44.8010686,13.1700779 45.0393953,13.59344 C45.2777221,14.0168021 45.3968837,14.530877 45.3968837,15.13568 C45.3968837,15.8960038 45.2564433,16.5396774 44.9755581,17.06672 C44.694673,17.5937626 44.3201651,18.0214384 43.8520233,18.34976 C43.3838814,18.6780816 42.8391426,18.9156793 42.2177907,19.06256 C41.5964388,19.2094407 40.9538173,19.28288 40.289907,19.28288 C39.3365999,19.28288 38.4088417,19.1057618 37.5066047,18.75152 C36.6043676,18.3972782 35.8553518,17.8918433 35.2595349,17.2352 L37.2767907,15.31712 C37.6172575,15.7664022 38.0598577,16.1379185 38.6046047,16.43168 C39.1493516,16.7254415 39.7536711,16.87232 40.4175814,16.87232 C40.6388848,16.87232 40.8644407,16.8464003 41.0942558,16.79456 C41.3240709,16.7427197 41.5368595,16.6606406 41.7326279,16.54832 C41.9283963,16.4359994 42.0858599,16.284801 42.2050233,16.09472 C42.3241866,15.904639 42.3837674,15.6713614 42.3837674,15.39488 C42.3837674,14.8764774 42.1497,14.5049611 41.6815581,14.28032 C41.2134163,14.0556789 40.511214,13.8310411 39.5749302,13.6064 C39.1153,13.5027195 38.668444,13.3688008 38.2343488,13.20464 C37.8002536,13.0404792 37.4129784,12.8244813 37.0725116,12.55664 C36.7320448,12.2887987 36.4596754,11.956162 36.2553953,11.55872 C36.0511153,11.161278 35.9489767,10.6688029 35.9489767,10.08128 C35.9489767,9.39007654 36.0894172,8.79392251 36.3703023,8.2928 C36.6511875,7.79167749 37.0214396,7.3812816 37.4810698,7.0616 C37.9407,6.7419184 38.4599041,6.50432078 39.0386977,6.3488 C39.6174913,6.19327922 40.2132993,6.11552 40.8261395,6.11552 C41.7113533,6.11552 42.5752749,6.27103844 43.4179302,6.58208 C44.2605856,6.89312156 44.9287417,7.3683168 45.4224186,8.00768 L43.4306977,9.79616 Z M46.2906047,8.96672 L46.2906047,6.4784 L48.4355349,6.4784 L48.4355349,2.87552 L51.4486512,2.87552 L51.4486512,6.4784 L54.5128372,6.4784 L54.5128372,8.96672 L51.4486512,8.96672 L51.4486512,14.74688 C51.4486512,15.2998428 51.5465339,15.7577582 51.7423023,16.12064 C51.9380707,16.4835218 52.3764152,16.66496 53.0573488,16.66496 C53.2616289,16.66496 53.482929,16.6433602 53.7212558,16.60016 C53.9595826,16.5569598 54.1723712,16.4921604 54.3596279,16.40576 L54.4617674,18.84224 C54.189394,18.9459205 53.8659554,19.0279997 53.4914419,19.08848 C53.1169284,19.1489603 52.7594436,19.1792 52.4189767,19.1792 C51.6018564,19.1792 50.937956,19.0625612 50.4272558,18.82928 C49.9165556,18.5959988 49.5122573,18.276322 49.2143488,17.87024 C48.9164404,17.464158 48.7121633,16.9976026 48.6015116,16.47056 C48.4908599,15.9435174 48.4355349,15.377603 48.4355349,14.7728 L48.4355349,8.96672 L46.2906047,8.96672 Z" id="path-1"></path>
</defs>
<g fill="none" fill-rule="evenodd" id="grist-logo-trans" stroke="none" stroke-width="1">
<g id="square-color">
<rect height="40" id="Rectangle" width="116" x="0" y="0"></rect>
<g id="Group" transform="translate(59.000000, 10.000000)">
<g id="Grist">
<use fill="#000000" href="#path-1"></use>
<use fill="#232338" href="#path-1"></use>
</g>
</g>
<g id="Group" transform="translate(2.000000, 1.000000)">
<g fill="#2CB0AF" id="Path" transform="translate(29.558621, 0.000000)">
<path d="M11.2982446,0.108088889 L5.21679781,0.108088889 C2.41061149,0.108088889 0.132408831,2.50940741 0.132408831,5.46721481 L0.132408831,10.8074815 L6.26175399,10.8074815 C9.04151359,10.8074815 11.2982446,8.42868148 11.2982446,5.49874074 L11.2982446,0.108088889 Z"></path>
</g>
<g fill="#2CB0AF" id="Path" transform="translate(20.731034, 5.500000) scale(-1, 1) translate(-20.731034, -5.500000) translate(14.731034, 0.000000)">
<path d="M11.2982446,0.108088889 L5.21679781,0.108088889 C2.41061149,0.108088889 0.132408831,2.50940741 0.132408831,5.46721481 L0.132408831,10.8074815 L6.26175399,10.8074815 C9.04151359,10.8074815 11.2982446,8.42868148 11.2982446,5.49874074 L11.2982446,0.108088889 Z"></path>
</g>
<g fill="#F9AE41" id="Path" transform="translate(6.310345, 19.077778) scale(-1, 1) translate(-6.310345, -19.077778) translate(0.310345, 13.577778)">
<path d="M11.2982446,0.108088889 L5.21679781,0.108088889 C2.41061149,0.108088889 0.132408831,2.50940741 0.132408831,5.46721481 L0.132408831,10.8074815 L6.26175399,10.8074815 C9.04151359,10.8074815 11.2982446,8.42868148 11.2982446,5.49874074 L11.2982446,0.108088889 Z"></path>
</g>
<g fill="#F9AE41" id="Path" transform="translate(6.310345, 32.366667) scale(-1, 1) translate(-6.310345, -32.366667) translate(0.310345, 26.866667)">
<path d="M11.2982446,0.108088889 L5.21679781,0.108088889 C2.41061149,0.108088889 0.132408831,2.50940741 0.132408831,5.46721481 L0.132408831,10.8074815 L6.26175399,10.8074815 C9.04151359,10.8074815 11.2982446,8.42868148 11.2982446,5.49874074 L11.2982446,0.108088889 Z"></path>
</g>
<g fill="#D2D2D2" id="Path" transform="translate(20.731034, 19.077778) scale(-1, 1) translate(-20.731034, -19.077778) translate(14.731034, 13.577778)">
<path d="M11.2982446,0.108088889 L5.21679781,0.108088889 C2.41061149,0.108088889 0.132408831,2.50940741 0.132408831,5.46721481 L0.132408831,10.8074815 L6.26175399,10.8074815 C9.04151359,10.8074815 11.2982446,8.42868148 11.2982446,5.49874074 L11.2982446,0.108088889 Z"></path>
</g>
<g fill="#D2D2D2" id="Path" transform="translate(29.558621, 13.577778)">
<path d="M11.2982446,0.108088889 L5.21679781,0.108088889 C2.41061149,0.108088889 0.132408831,2.50940741 0.132408831,5.46721481 L0.132408831,10.8074815 L6.26175399,10.8074815 C9.04151359,10.8074815 11.2982446,8.42868148 11.2982446,5.49874074 L11.2982446,0.108088889 Z"></path>
</g>
<g fill="#D2D2D2" id="Path" transform="translate(20.731034, 32.366667) scale(-1, 1) translate(-20.731034, -32.366667) translate(14.731034, 26.866667)">
<path d="M11.2982446,0.108088889 L5.21679781,0.108088889 C2.41061149,0.108088889 0.132408831,2.50940741 0.132408831,5.46721481 L0.132408831,10.8074815 L6.26175399,10.8074815 C9.04151359,10.8074815 11.2982446,8.42868148 11.2982446,5.49874074 L11.2982446,0.108088889 Z"></path>
</g>
<g fill="#D2D2D2" id="Path" transform="translate(29.558621, 26.866667)">
<path d="M11.2982446,0.108088889 L5.21679781,0.108088889 C2.41061149,0.108088889 0.132408831,2.50940741 0.132408831,5.46721481 L0.132408831,10.8074815 L6.26175399,10.8074815 C9.04151359,10.8074815 11.2982446,8.42868148 11.2982446,5.49874074 L11.2982446,0.108088889 Z"></path>
</g>
</g>
</g>
</g>
</svg>