<svg xmlns="http://www.w3.org/2000/svg" viewBox="0 0 996.53 226.47"><defs><style>.cls-1{fill:#00b3e6;fill-rule:evenodd;}</style></defs><title>HelloSign_DBXlogo_nospace</title><g id="Spacing_Markers" data-name="Spacing Markers"><path class="cls-1" d="M27.61,147.88v-24h108v24Zm85.06-120H50.54l31.07,43,31.06-43m46.94-24-78,108-78-108Z"/><path d="M494.09,208a12.44,12.44,0,0,1-4.15,3.59,11,11,0,0,1-5.38,1.37,12,12,0,0,1-6.51-1.78A12.09,12.09,0,0,1,473.6,206a20.21,20.21,0,0,1,0-15.69,12.2,12.2,0,0,1,4.45-5.21,11.82,11.82,0,0,1,6.54-1.85,11.09,11.09,0,0,1,5.29,1.32,12.54,12.54,0,0,1,4.24,3.65v-4.27h4.38v28.23h-4.38Zm0-16.38a10,10,0,0,0-3.59-3.32,9.75,9.75,0,0,0-4.88-1.35,8,8,0,0,0-6.61,3.15,14.4,14.4,0,0,0,0,16.07,8,8,0,0,0,6.61,3.11,10.53,10.53,0,0,0,8.47-4.55Z"/><path d="M522.5,173.19h13.32a21.19,21.19,0,0,1,10.47,2.54,17.85,17.85,0,0,1,7,7,20.17,20.17,0,0,1,2.48,10,20,20,0,0,1-2.48,10,17.89,17.89,0,0,1-7,6.95,21.08,21.08,0,0,1-10.47,2.54H522.5Zm13.32,35a15.16,15.16,0,0,0,8-2.06,13.59,13.59,0,0,0,5.17-5.59,17.16,17.16,0,0,0,1.79-7.84,17.46,17.46,0,0,0-1.76-7.89,13.39,13.39,0,0,0-5.14-5.59,15.19,15.19,0,0,0-8.07-2.07h-8.47v31Z"/><path d="M562.75,183.94h4.38v4.56a15.45,15.45,0,0,1,4.24-3.8,9.87,9.87,0,0,1,5.17-1.46v4.15a8.18,8.18,0,0,0-1.75-.17,8.36,8.36,0,0,0-4.33,1.43,9.25,9.25,0,0,0-3.33,3.15v20.37h-4.38Z"/><path d="M585.45,210.94a13.41,13.41,0,0,1-4.88-5.38,17.12,17.12,0,0,1,0-15,13.23,13.23,0,0,1,4.88-5.36,14.82,14.82,0,0,1,14.73,0,13.3,13.3,0,0,1,4.88,5.36,17.21,17.21,0,0,1,0,15,14.1,14.1,0,0,1-19.61,5.38Zm12.39-3.21a9.71,9.71,0,0,0,3.21-4.11,13.87,13.87,0,0,0,1.11-5.56,13.71,13.71,0,0,0-1.11-5.54,9.77,9.77,0,0,0-3.21-4.07,8.32,8.32,0,0,0-5-1.53,8.42,8.42,0,0,0-5,1.53,9.62,9.62,0,0,0-3.25,4.07,13.71,13.71,0,0,0-1.11,5.54,13.87,13.87,0,0,0,1.11,5.56,9.56,9.56,0,0,0,3.25,4.11,8.48,8.48,0,0,0,5,1.52A8.38,8.38,0,0,0,597.84,207.73Z"/><path d="M613.18,222.93v-39h4.38v4.21a11.66,11.66,0,0,1,4.09-3.56,11.33,11.33,0,0,1,5.44-1.35,12.11,12.11,0,0,1,6.54,1.79,11.85,11.85,0,0,1,4.45,5.15,20.56,20.56,0,0,1,0,15.76,11.69,11.69,0,0,1-11,7,11.41,11.41,0,0,1-5.35-1.28,11.68,11.68,0,0,1-4.18-3.68v15ZM632.58,190a8,8,0,0,0-6.6-3.12,10.51,10.51,0,0,0-8.42,4.61v13.05a9.36,9.36,0,0,0,3.54,3.33,9.78,9.78,0,0,0,4.88,1.34,8,8,0,0,0,6.6-3.14,12.68,12.68,0,0,0,2.46-8.05A12.54,12.54,0,0,0,632.58,190Z"/><path d="M646.18,173.19h4.38v15a12.63,12.63,0,0,1,4.21-3.65,11.07,11.07,0,0,1,5.32-1.32,11.67,11.67,0,0,1,6.51,1.85,12.4,12.4,0,0,1,4.45,5.21,19.92,19.92,0,0,1,0,15.69,11.62,11.62,0,0,1-11,6.94,11,11,0,0,1-5.38-1.37,12.44,12.44,0,0,1-4.15-3.59v4.2h-4.38Zm7.92,34.74a9.86,9.86,0,0,0,4.88,1.32,8.05,8.05,0,0,0,6.66-3.11,14.35,14.35,0,0,0,0-16.07,8,8,0,0,0-6.66-3.15,9.69,9.69,0,0,0-4.88,1.35,9.42,9.42,0,0,0-3.54,3.32V204.7A9.23,9.23,0,0,0,654.1,207.93Z"/><path d="M684.28,210.94a13.49,13.49,0,0,1-4.88-5.38,17.21,17.21,0,0,1,0-15,13.3,13.3,0,0,1,4.88-5.36,14.82,14.82,0,0,1,14.73,0,13.3,13.3,0,0,1,4.88,5.36,17.21,17.21,0,0,1,0,15,14.1,14.1,0,0,1-19.61,5.38Zm12.39-3.21a9.73,9.73,0,0,0,3.22-4.11,13.87,13.87,0,0,0,1.11-5.56,13.71,13.71,0,0,0-1.11-5.54,9.79,9.79,0,0,0-3.22-4.07,8.32,8.32,0,0,0-5-1.53,8.44,8.44,0,0,0-5,1.53,9.68,9.68,0,0,0-3.24,4.07,13.55,13.55,0,0,0-1.12,5.54,13.71,13.71,0,0,0,1.12,5.56,9.62,9.62,0,0,0,3.24,4.11,8.5,8.5,0,0,0,5,1.52A8.38,8.38,0,0,0,696.67,207.73Z"/><path d="M720.77,200.6l-8.48,11.57h-5l10.82-14.49-10.23-13.74h5.08l7.84,10.76,7.83-10.76h5.08l-10.23,13.74,10.88,14.49h-5.09Z"/><path d="M762.85,210.39a18.56,18.56,0,0,1-7.19-7.17,22.2,22.2,0,0,1,0-21,18.56,18.56,0,0,1,7.19-7.17,20.24,20.24,0,0,1,10-2.55,18.9,18.9,0,0,1,8.74,1.91,17.11,17.11,0,0,1,6.22,5.46l-4.09,2.28a12.8,12.8,0,0,0-4.58-4.09,13,13,0,0,0-6.29-1.58,14.26,14.26,0,0,0-7.54,2.06,14.65,14.65,0,0,0-5.35,5.78,17.74,17.74,0,0,0-2,8.38,17.56,17.56,0,0,0,2,8.35,14.92,14.92,0,0,0,5.35,5.78A14.1,14.1,0,0,0,772.9,209a13.17,13.17,0,0,0,6.29-1.55,12.34,12.34,0,0,0,4.58-4.12l4.15,2.28a18,18,0,0,1-15,7.36A20.23,20.23,0,0,1,762.85,210.39Z"/><path d="M798.22,210.94a13.49,13.49,0,0,1-4.88-5.38,17.21,17.21,0,0,1,0-15,13.3,13.3,0,0,1,4.88-5.36,14.82,14.82,0,0,1,14.73,0,13.23,13.23,0,0,1,4.88,5.36,17.12,17.12,0,0,1,0,15,14.1,14.1,0,0,1-19.61,5.38Zm12.39-3.21a9.65,9.65,0,0,0,3.22-4.11,13.87,13.87,0,0,0,1.11-5.56,13.71,13.71,0,0,0-1.11-5.54,9.71,9.71,0,0,0-3.22-4.07,8.29,8.29,0,0,0-5-1.53,8.45,8.45,0,0,0-5.06,1.53,9.68,9.68,0,0,0-3.24,4.07,13.71,13.71,0,0,0-1.11,5.54,13.87,13.87,0,0,0,1.11,5.56,9.62,9.62,0,0,0,3.24,4.11,8.51,8.51,0,0,0,5.06,1.52A8.35,8.35,0,0,0,810.61,207.73Z"/><path d="M860,192.82a6.6,6.6,0,0,0-1.29-4.33,4.75,4.75,0,0,0-3.91-1.57,8,8,0,0,0-4.21,1.3,10.46,10.46,0,0,0-3.28,3.07v20.88H843V192.82q0-5.9-5.2-5.9a7.75,7.75,0,0,0-4.12,1.3,10.67,10.67,0,0,0-3.3,3.13v20.82H826V183.94h4.39V188a10.92,10.92,0,0,1,3.68-3.21,10.42,10.42,0,0,1,5.43-1.58,8.14,8.14,0,0,1,5,1.46,7,7,0,0,1,2.57,3.8,11.28,11.28,0,0,1,3.92-3.68,10.62,10.62,0,0,1,5.55-1.58,7.67,7.67,0,0,1,5.88,2.16q2,2.17,2,6.37v20.4H860Z"/><path d="M872.36,222.93v-39h4.38v4.21a11.66,11.66,0,0,1,4.09-3.56,11.33,11.33,0,0,1,5.44-1.35,12.11,12.11,0,0,1,6.54,1.79,11.85,11.85,0,0,1,4.45,5.15,20.56,20.56,0,0,1,0,15.76,11.69,11.69,0,0,1-11,7,11.41,11.41,0,0,1-5.35-1.28,11.68,11.68,0,0,1-4.18-3.68v15ZM891.76,190a8,8,0,0,0-6.6-3.12,10.51,10.51,0,0,0-8.42,4.61v13.05a9.36,9.36,0,0,0,3.54,3.33,9.78,9.78,0,0,0,4.88,1.34,8,8,0,0,0,6.6-3.14,12.68,12.68,0,0,0,2.46-8.05A12.54,12.54,0,0,0,891.76,190Z"/><path d="M926.05,208a12.53,12.53,0,0,1-4.15,3.59,11,11,0,0,1-5.38,1.37,11.59,11.59,0,0,1-11-6.94,20.09,20.09,0,0,1,0-15.69,12.11,12.11,0,0,1,4.44-5.21,11.85,11.85,0,0,1,6.55-1.85,11.12,11.12,0,0,1,5.29,1.32,12.54,12.54,0,0,1,4.24,3.65v-4.27h4.38v28.23h-4.38Zm0-16.38a9.92,9.92,0,0,0-3.6-3.32,9.69,9.69,0,0,0-4.88-1.35,7.93,7.93,0,0,0-6.6,3.15,14.35,14.35,0,0,0,0,16.07,8,8,0,0,0,6.6,3.11,10.57,10.57,0,0,0,8.48-4.55Z"/><path d="M957.41,193.53q0-3.6-1.64-5.1a6.68,6.68,0,0,0-4.68-1.51,9.67,9.67,0,0,0-4.76,1.3,10.66,10.66,0,0,0-3.59,3.13v20.82h-4.39V183.94h4.39V188a14.51,14.51,0,0,1,4.38-3.36,12.17,12.17,0,0,1,5.67-1.43q9,0,9,9.12v19.81h-4.38Z"/><path d="M971.42,216.09a9.51,9.51,0,0,0,3.74,2.89,11.94,11.94,0,0,0,4.85,1,8.48,8.48,0,0,0,6.29-2.27,8.67,8.67,0,0,0,2.25-6.38v-3.8a14.73,14.73,0,0,1-4.41,3.33,12.32,12.32,0,0,1-5.64,1.34q-9,0-9-9V183.94h4.39V202q0,3.57,1.6,5a6.81,6.81,0,0,0,4.71,1.46,10,10,0,0,0,4.76-1.23,10.17,10.17,0,0,0,3.6-3V183.94h4.38v27.47q0,6-3.65,9.12a13.81,13.81,0,0,1-9.27,3.1,16.11,16.11,0,0,1-6-1,14.64,14.64,0,0,1-4.79-3.23Z"/><path d="M254.8,123.89V85.37H217.86v38.52H195.59v-96h22.27V65.46H254.8V27.87h22.27v96Z"/><path d="M305.17,123.89v-96H366V48.3H327.44V65.46h35.11V84.85H327.44v18.73H366v20.31Z"/><path d="M392.53,123.89v-96h22.26v75.71h38.52v20.31Z"/><path d="M472,123.89v-96H494.3v75.71h38.51v20.31Z"/><path d="M595.63,125.46c-29.74,0-48.73-21.35-48.73-49.52s19.91-49.65,49.65-49.65,48.73,21.36,48.73,49.65S625.24,125.46,595.63,125.46ZM596,46.21c-15.19,0-25.41,12.44-25.41,29.73s10.22,29.74,25.41,29.74,25.42-12.58,25.42-29.74S611.22,46.21,596,46.21Z"/><path d="M693.4,125.46c-10.87,0-24-4.32-32.35-9.83l6.15-20.17c7.73,5.63,17.82,9.3,26.86,9.3,7.86,0,10.87-3.67,10.87-8.38,0-5-2.49-8.39-17.16-14.28C670.87,75.29,665,65.46,665,53.93c0-14,11.39-27.64,33.79-27.64,10.48,0,21.23,3.67,26.86,7.47L720,53.67c-5.51-3.8-14.41-7.86-21.23-7.86-8.12,0-11.39,3.8-11.39,7.73,0,6.29,4.84,8.39,16.9,13.49,17.94,7.6,23.31,16.25,23.31,28.56C727.59,110.92,716.46,125.46,693.4,125.46Z"/><path d="M751.47,123.89v-96h22.27v96Z"/><path d="M884.76,69.92v45.85a69.26,69.26,0,0,1-36.42,9.69c-28.16,0-50.43-20.17-50.43-49.52s22.53-49.65,51.61-49.65c12.58,0,22.66,3.28,32.22,8.26l-9.3,17.94A46.65,46.65,0,0,0,851,47.12c-19.13,0-29.34,11.92-29.34,28.82,0,18.34,12.31,29.74,28,29.74,7.07,0,10.61-.79,14.15-2.62V88.91H844.54v-19Z"/><path d="M990.52,125.72l-57.9-52v50.17H910.35V26.56l3-.53,57.12,51.61V27.87h22.27v97.46Z"/></g></svg>