<svg id="Layer_1" data-name="Layer 1" xmlns="http://www.w3.org/2000/svg" viewBox="0 0 586.85 90.58" xmlns:xlink="http://www.w3.org/1999/xlink">
 <path d="M35.11,70.67V62.09H9.73V19.91H0V70.67Zm24.37-1.55a14.13,14.13,0,0,0,4.76-6.31v7.86h9.3V46.16a12.64,12.64,0,0,0-2-7A12.89,12.89,0,0,0,66,34.44a20.27,20.27,0,0,0-8.62-1.69,28.92,28.92,0,0,0-5.26.46,26.35,26.35,0,0,0-4.8,1.37,27.54,27.54,0,0,0-4.14,2.06l.28,8.72a31.53,31.53,0,0,1,6.71-3.42,21.5,21.5,0,0,1,7.28-1.19,7.52,7.52,0,0,1,5,1.51,4.86,4.86,0,0,1,1.8,3.9v2.52H56q-7.43,0-11.75,3.14a10.11,10.11,0,0,0-4.33,8.68,11,11,0,0,0,1.44,5.59A10.23,10.23,0,0,0,45.53,70a13.06,13.06,0,0,0,6.24,1.44A12.65,12.65,0,0,0,59.48,69.12Zm-8.4-6.31a3.89,3.89,0,0,1-1.55-3.32,4.35,4.35,0,0,1,2.16-3.89,12.18,12.18,0,0,1,6.42-1.37h6v1.44a7.76,7.76,0,0,1-1,3.68A9,9,0,0,1,60,62.63,8.49,8.49,0,0,1,55.23,64,6.79,6.79,0,0,1,51.08,62.81ZM103.17,69A16.9,16.9,0,0,0,108,61.3v9.37h9.45V33.9H108V51.06a17.85,17.85,0,0,1-1.15,6.6,10.14,10.14,0,0,1-3.35,4.54,8.36,8.36,0,0,1-5.09,1.62A6.35,6.35,0,0,1,93.55,62a7.42,7.42,0,0,1-1.7-5.27V33.9H82.41v23q0,7.14,3.39,11A11.5,11.5,0,0,0,95,71.82,12,12,0,0,0,103.17,69Zm34,1.69V53.51a17.85,17.85,0,0,1,1.15-6.6,10.24,10.24,0,0,1,3.32-4.54,8.18,8.18,0,0,1,5.05-1.62,6.35,6.35,0,0,1,4.86,1.8,7.41,7.41,0,0,1,1.7,5.26V70.67h9.52v-23q0-7.14-3.43-11a11.61,11.61,0,0,0-9.19-3.89,11.87,11.87,0,0,0-8.18,2.84,17.19,17.19,0,0,0-4.8,7.68V33.9h-9.44V70.67Zm57.35.79a22.42,22.42,0,0,0,3.43-.79c1.06-.34,2-.67,3-1l.07-8.94a21.37,21.37,0,0,1-4.8,1.73,22.11,22.11,0,0,1-5.08.58,13.09,13.09,0,0,1-6.38-1.41,8.88,8.88,0,0,1-3.79-3.86,12.92,12.92,0,0,1,0-11,9.1,9.1,0,0,1,3.79-3.89,12.55,12.55,0,0,1,6.24-1.44,21.08,21.08,0,0,1,5.3.65,25.79,25.79,0,0,1,4.72,1.73l-.07-9.16a25.09,25.09,0,0,0-3.1-1,28.85,28.85,0,0,0-7.21-.9,22.27,22.27,0,0,0-10.93,2.56,18,18,0,0,0-7.17,7,20.18,20.18,0,0,0-2.53,10.09,19.6,19.6,0,0,0,2.56,10,17.71,17.71,0,0,0,7.21,6.85,22.85,22.85,0,0,0,10.78,2.45A26,26,0,0,0,194.48,71.46Zm24.34-.79V53.51a17.85,17.85,0,0,1,1.15-6.6,10.14,10.14,0,0,1,3.35-4.54,8.25,8.25,0,0,1,5-1.62,6.44,6.44,0,0,1,4.93,1.8,7.41,7.41,0,0,1,1.7,5.26V70.67h9.44v-23q0-7.14-3.39-11a11.5,11.5,0,0,0-9.15-3.89,12,12,0,0,0-8.22,2.84,17,17,0,0,0-4.83,7.68V19.91h-9.3V70.67Zm55.95,0a28.41,28.41,0,0,0,13.77-3.1,20.69,20.69,0,0,0,8.65-8.8,28.7,28.7,0,0,0,2.95-13.41,29,29,0,0,0-2.95-13.44,20.85,20.85,0,0,0-8.65-8.87,28.19,28.19,0,0,0-13.77-3.14H255.3V70.67ZM265,62.09V28.49h9.66q7.29,0,11.43,4.44t4.15,12.43q0,8-4.15,12.37t-11.43,4.36Zm59.92,7a14.21,14.21,0,0,0,4.76-6.31v7.86H339V46.16a12.64,12.64,0,0,0-1.95-7,12.92,12.92,0,0,0-5.59-4.72,20.26,20.26,0,0,0-8.61-1.69,29,29,0,0,0-5.27.46,26.24,26.24,0,0,0-4.79,1.37,27.2,27.2,0,0,0-4.15,2.06l.29,8.72a31.3,31.3,0,0,1,6.71-3.42,21.46,21.46,0,0,1,7.28-1.19,7.49,7.49,0,0,1,5,1.51,4.87,4.87,0,0,1,1.81,3.9v2.52h-8.22c-5,0-8.87,1-11.76,3.14a10.12,10.12,0,0,0-4.32,8.68,11,11,0,0,0,1.44,5.59A10.17,10.17,0,0,0,311,70a13,13,0,0,0,6.23,1.44A12.66,12.66,0,0,0,325,69.12Zm-8.4-6.31A3.86,3.86,0,0,1,315,59.49a4.35,4.35,0,0,1,2.16-3.89,12.16,12.16,0,0,1,6.42-1.37h6v1.44a7.88,7.88,0,0,1-1,3.68,9,9,0,0,1-3.1,3.28A8.5,8.5,0,0,1,320.69,64,6.76,6.76,0,0,1,316.55,62.81ZM358,70.67V55c0-4.08.86-7.2,2.59-9.33a8.53,8.53,0,0,1,7-3.21,12.84,12.84,0,0,1,3.89.57V34a10.43,10.43,0,0,0-1.84-.39,15.14,15.14,0,0,0-2-.11A8.1,8.1,0,0,0,361.72,36,15.47,15.47,0,0,0,358,42.7V33.9h-9.45V70.67Zm28.91,0V58.77l3.39-3.24,11,15.14H412.4L396.69,49.18,412.11,33.9H400.29L386.88,47v-27h-9.3V70.67Zm40.74,0V19.91h-9.38V70.67ZM442,84.37a15.46,15.46,0,0,0,8.5-2.13q3.31-2.13,5.48-7.39L472.89,33.9h-9.66l-10,25.74L443.12,33.9h-9.66L448.6,70.6l-.8,1.87a5.62,5.62,0,0,1-2,2.74,6.68,6.68,0,0,1-3.78.87h-7.85v8.29Z">
 </path>
 <path d="M542.1,90.58a2,2,0,0,1-1.8-1.12,1.9,1.9,0,0,1,.18-2l21.28-29.3L524.5,73.38a2.05,2.05,0,0,1-.8.17,2,2,0,0,1-1.91-1.44,1.92,1.92,0,0,1,.82-2.19l32.77-19.35-57.7-3.32a2,2,0,0,1,0-3.94L555.41,40,522.63,20.65a1.92,1.92,0,0,1-.82-2.19,2,2,0,0,1,1.9-1.44,1.84,1.84,0,0,1,.8.18l37.27,15.24L540.5,3.15a1.9,1.9,0,0,1-.18-2A2,2,0,0,1,542.11,0a1.94,1.94,0,0,1,1.39.6L585.91,43a3.22,3.22,0,0,1,0,4.55L543.48,90A1.93,1.93,0,0,1,542.1,90.58Z">
 </path>
</svg>