<svg version="1.1" id="Layer_1" xmlns:x="ns_extend;" xmlns:i="ns_ai;" xmlns:graph="ns_graphs;" xmlns="http://www.w3.org/2000/svg" xmlns:xlink="http://www.w3.org/1999/xlink" x="0px" y="0px" viewBox="0 0 199.8 50.2" style="enable-background:new 0 0 199.8 50.2;" xml:space="preserve">
 <style type="text/css">
  .st0{fill:#FFFFFF;}
	.st1{fill:#09C269;}
 </style>
 <metadata>
  <sfw xmlns="ns_sfw;">
   <slices>
   </slices>
   <sliceSourceBounds bottomLeftOrigin="true" height="50.2" width="199.8" x="99.9" y="-225.3">
   </sliceSourceBounds>
  </sfw>
 </metadata>
 <g id="mailerlite-light">
  <g>
   <g id="mailer" transform="translate(0.000000, 18.000000)">
    <path id="Shape" class="st0" d="M25.9,8.8c-3.3,0-5.9,1.3-7.8,3.9c-1.1-2-3.3-3.9-6.6-3.9c-3.4,0-5.4,1.5-6.8,3.1v-0.4
				C4.8,10.1,3.7,9,2.4,9S0,10.1,0,11.4v18.1c0,1.3,1,2.3,2.4,2.3s2.4-1,2.4-2.3V17c1.1-1.8,2.7-3.7,5.7-3.7c2.8,0,3.9,1.3,3.9,4.9
				v11.4c0,1.3,1,2.3,2.4,2.3s2.4-1,2.4-2.3V17c1.1-1.8,2.7-3.7,5.7-3.7c2.8,0,3.9,1.3,3.9,4.9v11.4c0,1.3,1,2.3,2.4,2.3
				c1.3,0,2.4-1,2.4-2.3V17.3C33.5,13.2,31.2,8.8,25.9,8.8z M48.8,8.8c-2.6,0-5,0.5-7.5,1.6c-0.9,0.4-1.4,1.1-1.4,2
				c0,1.2,0.9,2.1,2,2.1c0.2,0,0.4,0,0.7-0.1c1.7-0.5,3.3-1,5.5-1c3.7,0,5.2,1.3,5.3,4.7h-4.7c-6.4,0-10.3,2.7-10.3,7.3
				c0,4.5,3.7,6.8,7.4,6.8c2.9,0,5.5-0.9,7.6-2.6v0c0,1.3,1,2.3,2.4,2.3s2.4-1,2.4-2.3v-12C58.1,13.2,55.2,8.8,48.8,8.8z M47.3,27.7
				c-2.7,0-4.1-1-4.1-2.9c0-0.7,0-2.9,6-2.9h4.2v2.9C52.1,26.2,49.8,27.7,47.3,27.7z M67.5,0.3c1.5,0,2.6,1.2,2.6,2.6v0.2
				c0,1.4-1.2,2.6-2.6,2.6h-0.3c-1.5,0-2.6-1.2-2.6-2.6V2.9c0-1.4,1.2-2.6,2.6-2.6H67.5z M67.4,8.9c1.4,0,2.4,1.1,2.4,2.4v18.1
				c0,1.3-1,2.3-2.4,2.3c-1.3,0-2.4-1-2.4-2.3V11.3C65,10,66,8.9,67.4,8.9z M79.5-0.4c1.4,0,2.4,1.1,2.4,2.4v27.4
				c0,1.3-1,2.3-2.4,2.3c-1.3,0-2.4-1-2.4-2.3V2C77.1,0.7,78.1-0.4,79.5-0.4z M98.4,8.8c-3.4,0-6.2,1.3-8.1,3.6
				c-1.6,2.1-2.5,4.9-2.5,8c0,7.3,4.3,11.6,11.5,11.6c3.9,0,5.9-0.9,7.7-1.9c0.9-0.5,1.3-1.2,1.3-1.9c0-1.2-1-2.1-2.2-2.1
				c-0.4,0-0.7,0-1,0.2c-1.3,0.7-2.9,1.3-5.5,1.3c-4,0-6.3-1.8-6.9-5.4h13.9c1.4,0,2.4-1,2.4-2.3C109,12.2,103.5,8.8,98.4,8.8z
				 M98.4,12.9c2,0,5.4,1.1,5.8,5.3H92.6C93,14.5,95.7,12.9,98.4,12.9z M125.5,8.8c1.3,0,2.3,1,2.3,2.3s-1,2.2-2.4,2.2h-0.2
				c-2.4,0-4.6,1.2-6.2,3.4v12.7c0,1.3-1.1,2.3-2.4,2.3s-2.4-1-2.4-2.3V11.3c0-1.3,1-2.4,2.4-2.4s2.4,1.1,2.4,2.4v0.6
				c1.9-2.1,4-3.1,6.3-3.1H125.5z">
    </path>
   </g>
   <g id="lite" transform="translate(137.000000, 0.000000)">
    <path id="Shape-path" class="st1" d="M55.8,0H6.9C3.1,0,0,3.1,0,6.8v22.8v4.5v16.2l9.5-9.3h46.4c3.8,0,6.9-3.1,6.9-6.8V6.8
				C62.7,3.1,59.6,0,55.8,0z">
    </path>
    <path id="Shape-path-3" class="st0" d="M46.8,15.8c5.2,0,7.6,4.1,7.6,8c0,1-0.8,1.8-1.8,1.8H43c0.5,2.3,2.1,3.6,4.7,3.6
				c1.9,0,2.9-0.4,3.9-0.9c0.2-0.1,0.5-0.2,0.7-0.2c0.9,0,1.7,0.7,1.7,1.6c0,0.6-0.4,1.1-1,1.5c-1.3,0.7-2.7,1.4-5.5,1.4
				c-5.2,0-8.3-3.1-8.3-8.4C39.1,18.1,43.3,15.8,46.8,15.8z M31.5,13.2c0.6,0,1,0.5,1,1v1.9h2.9c0.9,0,1.7,0.7,1.7,1.6
				c0,0.9-0.7,1.6-1.7,1.6h-2.9V28c0,1.2,0.6,1.3,1.5,1.3c0.5,0,0.8-0.1,1.1-0.1c0.2,0,0.5-0.1,0.7-0.1c0.7,0,1.6,0.6,1.6,1.5
				c0,0.6-0.4,1.1-1,1.4c-0.9,0.4-1.7,0.6-2.7,0.6c-3.2,0-4.9-1.5-4.9-4.4v-8.8h-1.7c-0.6,0-1-0.5-1-1c0-0.3,0.1-0.6,0.4-0.9l4-4
				C30.7,13.5,31,13.2,31.5,13.2z M12.8,9.4c1,0,1.8,0.8,1.8,1.8v19.4c0,1-0.8,1.8-1.8,1.8S11,31.6,11,30.6V11.2
				C11,10.2,11.8,9.4,12.8,9.4z M21.4,16c1,0,1.8,0.8,1.8,1.8v12.8c0,1-0.8,1.8-1.8,1.8s-1.8-0.8-1.8-1.8V17.8
				C19.6,16.8,20.4,16,21.4,16z M46.9,19.1c-1.7,0-3.6,1-3.9,3.5h7.9C50.4,20.1,48.6,19.1,46.9,19.1z M21.5,9.9c1.1,0,2,0.9,2,2V12
				c0,1.1-0.9,2-2,2h-0.2c-1.1,0-2-0.9-2-2v-0.1c0-1.1,0.9-2,2-2H21.5z">
    </path>
   </g>
  </g>
 </g>
</svg>