<svg version="1.1" id="Layer_1" xmlns:x="ns_extend;" xmlns:i="ns_ai;" xmlns:graph="ns_graphs;" xmlns="http://www.w3.org/2000/svg" xmlns:xlink="http://www.w3.org/1999/xlink" x="0px" y="0px" viewBox="0 0 264 71" style="enable-background:new 0 0 264 71;" xml:space="preserve">
 <style type="text/css">
  .st0{fill:#4BD56E;}
	.st1{fill:#1B2021;}
 </style>
 <metadata>
  <sfw xmlns="ns_sfw;">
   <slices>
   </slices>
   <sliceSourceBounds bottomLeftOrigin="true" height="71" width="264" x="-76" y="-19.9">
   </sliceSourceBounds>
  </sfw>
 </metadata>
 <g>
  <path class="st0" d="M59.3,0L59.3,0c-6.4,0-11.6,5.2-11.6,11.6v14.6c0,1.1-0.9,2.1-2.1,2.1c-0.5,0-1.1-0.2-1.5-0.6L19.8,3.4
		c-4.5-4.5-11.9-4.5-16.4,0l0,0c-4.5,4.5-4.5,11.9,0,16.4l47.1,47.1c2.2,2.6,5.4,4.1,8.8,4.1l0,0c6.4,0,11.6-5.2,11.6-11.6V11.6
		C70.9,5.2,65.7,0,59.3,0z">
  </path>
  <path class="st0" d="M11.6,71L11.6,71C5.2,71,0,65.8,0,59.3v0c0-6.4,5.2-11.6,11.6-11.6l0,0c6.4,0,11.6,5.2,11.6,11.6v0
		C23.2,65.8,18,71,11.6,71z">
  </path>
  <path class="st1" d="M139.5,29.4c-5.4-0.3-10,3.8-10.3,9.2c0,0.3,0,0.5,0,0.8c0,5.7,4.6,10.3,10.3,10.3c5.7,0,10.3-4.6,10.3-10.3
		c0.1-5.4-4.2-9.9-9.6-10C140,29.4,139.8,29.4,139.5,29.4z M139.5,44.1c-2.4,0.1-4.5-1.9-4.5-4.3c0-0.2,0-0.3,0-0.5
		c0-2.5,2-4.5,4.5-4.5s4.5,2,4.5,4.5c0,0,0,0,0,0c0.2,2.4-1.6,4.6-4.1,4.8C139.8,44,139.7,44.1,139.5,44.1z">
  </path>
  <path class="st1" d="M120.2,23v15.6l-10.4-15.9c-0.3-0.4-0.7-0.6-1.1-0.6h-6c-0.5,0-0.9,0.4-0.9,0.9v25c0,0.5,0.4,0.9,0.9,0.9h4.3
		c0.5,0,0.9-0.4,0.9-0.9c0,0,0,0,0,0V31.5l11,16.7c0.3,0.4,0.7,0.6,1.1,0.6h5.3c0.5,0,0.9-0.4,0.9-0.9V23c0-0.5-0.4-0.9-0.9-0.9
		h-4.3C120.6,22.1,120.2,22.5,120.2,23C120.2,23,120.2,23,120.2,23z">
  </path>
  <path class="st1" d="M158.8,32.4c0.4-1.1,1.2-2,2.2-2.6c1.3-0.5,2.8-0.5,4.1,0.2c0.2,0.1,0.3,0.3,0.2,0.6l-1.2,4.1
		c-0.1,0.3-0.4,0.4-0.6,0.3c0,0,0,0-0.1,0c-0.5-0.3-1-0.4-1.5-0.4c-0.7,0-1.4,0.3-2,0.8c-0.7,0.7-1.2,1.6-1.1,2.7v10
		c0,0.5-0.4,0.9-0.9,0.9h-4.1c-0.5,0-0.9-0.4-0.9-0.9c0,0,0,0,0,0V30.5c0-0.5,0.4-0.9,0.8-0.9c0,0,0,0,0,0h4.1
		c0.5,0,0.9,0.4,0.9,0.9c0,0,0,0,0,0V32.4">
  </path>
  <path class="st1" d="M185.1,20.6H181c-0.5,0-0.9,0.4-0.9,0.9c0,0,0,0,0,0v10c-1.4-1.3-3.2-2-5.1-2.1c-5.2,0-9.4,4.1-9.4,9.3
		c0,0.2,0,0.5,0,0.7c-0.3,5.2,3.6,9.7,8.8,10c0.2,0,0.4,0,0.6,0c1.9,0,3.7-0.8,5.1-2.1V48c0,0.5,0.4,0.9,0.9,0.9l0,0h4.1
		c0.5,0,0.9-0.4,0.9-0.9V21.5C186,21,185.6,20.6,185.1,20.6C185.1,20.6,185.1,20.6,185.1,20.6z M175.8,44.1c-2.4,0-4.4-1.9-4.4-4.3
		c0-0.1,0-0.3,0-0.4c-0.2-2.4,1.6-4.5,4.1-4.7c2.4-0.2,4.5,1.6,4.7,4.1c0,0.2,0,0.4,0,0.6c0.2,2.4-1.5,4.5-3.9,4.8
		C176.1,44,175.9,44.1,175.8,44.1z">
  </path>
  <path class="st1" d="M203.4,49.4c-0.3-0.3-0.8-0.3-1.1,0l-2.4,2.8c-0.1,0.2-0.2,0.4-0.2,0.6c0,0.2,0.1,0.4,0.3,0.5
		c2.4,2.2,5.5,3.3,8.8,3.3c3.2,0.1,6.3-1,8.6-3.3c1.8-2,2.9-4.6,2.8-7.3V30.5c0-0.5-0.4-0.9-0.8-0.9c0,0,0,0,0,0h-4.1
		c-0.5,0-0.9,0.4-0.9,0.8c0,0,0,0,0,0V31c-1.4-1.3-3.2-2.1-5.1-2.1c-5.2,0-9.4,4.2-9.4,9.4c0,0.2,0,0.4,0,0.6
		c-0.1,3.4,1.4,6.5,4.2,8.5c3.2,2.3,7.5,2,10.3-0.6c-0.1,1.3-0.7,2.5-1.6,3.4C211.1,51.8,206.6,52.1,203.4,49.4z M214.3,39
		c0.2,2.4-1.6,4.5-4.1,4.7s-4.5-1.6-4.7-4.1c0-0.2,0-0.4,0-0.6c-0.2-2.4,1.6-4.5,4.1-4.7s4.5,1.6,4.7,4.1
		C214.4,38.5,214.4,38.7,214.3,39z">
  </path>
  <path class="st1" d="M261.7,30.7c-1.3-1-2.9-1.5-4.5-1.4c-2.1,0.1-4.1,1.1-5.5,2.7v-1.6c0-0.5-0.4-0.9-0.9-0.9l0,0h-4
		c-0.5,0-0.9,0.4-0.9,0.9V48c0,0.5,0.4,0.9,0.9,0.9h4.2c0.5,0,0.9-0.4,0.9-0.9c0,0,0,0,0,0v-9c0,0,0-0.1,0-0.1v-1l0,0
		c0-1,0.4-2,1.1-2.8c0.6-0.5,1.3-0.9,2.1-0.9c0.9-0.1,1.7,0.1,2.4,0.7c0.5,0.5,0.9,1.2,0.8,3.7V48c0,0.5,0.4,0.9,0.9,0.9h4.2
		c0.5,0,0.9-0.4,0.9-0.9V36.2C264.1,34.1,263.2,32.1,261.7,30.7z">
  </path>
  <path class="st1" d="M191.3,29.6h4.2c0.5,0,0.9,0.4,0.9,0.9V48c0,0.5-0.4,0.9-0.9,0.9h-4.2c-0.5,0-0.9-0.4-0.9-0.9V30.5
		C190.4,30,190.8,29.6,191.3,29.6z">
  </path>
  <circle class="st1" cx="193.4" cy="24.1" r="3.5">
  </circle>
  <path class="st1" d="M233.4,29.3c-5.4-0.3-10,3.8-10.3,9.2c0,0.3,0,0.5,0,0.8c-0.1,5.4,4.2,9.9,9.6,10c0.2,0,0.5,0,0.7,0
		c2.9,0.1,5.7-0.9,7.9-2.8c0.1-0.1,0.2-0.3,0.3-0.5c0-0.2,0-0.4-0.2-0.6l-2.4-2.9c-0.3-0.3-0.7-0.4-1.1-0.1c0,0,0,0,0,0
		c-0.7,0.5-1.5,0.9-2.3,1.2c-0.8,0.3-1.6,0.4-2.4,0.4c-1,0-1.9-0.3-2.7-0.8c-0.9-0.7-1.5-1.6-1.7-2.7h13c0.5,0,0.9-0.4,0.9-0.9
		c0,0,0,0,0,0v-0.2C242.9,33.9,238.7,29.5,233.4,29.3z M230.6,35.4c0.8-0.6,1.8-0.9,2.8-0.9c1,0,2,0.3,2.8,0.9
		c0.6,0.5,1.1,1.1,1.4,1.7h-8.3C229.5,36.5,230,35.9,230.6,35.4L230.6,35.4z">
  </path>
 </g>
</svg>