<svg xmlns="http://www.w3.org/2000/svg" xmlns:xlink="http://www.w3.org/1999/xlink" width="22" height="22" viewBox="0 0 22 22"><defs><linearGradient id="a" x1="1" x2="0" y2="1" gradientUnits="objectBoundingBox"><stop offset="0" stop-color="#524ce6"/><stop offset="1" stop-color="#6b66ff"/></linearGradient></defs><g transform="translate(-506 -418)"><path d="M1,0H21a1,1,0,0,1,1,1V21a1,1,0,0,1-1,1H1a1,1,0,0,1-1-1V1A1,1,0,0,1,1,0Z" transform="translate(506 418)" fill="url(#a)"/><g transform="translate(511.006 421)"><path d="M10.561,0A2.027,2.027,0,0,0,8.892.849C7.365,2.735,7.006,5.856,6.9,7.223a.17.17,0,0,1-.189.16,6.035,6.035,0,0,0-.83,0H5.233a.179.179,0,0,1-.189-.16C4.95,5.818,4.583,2.754,3.055.849A2.018,2.018,0,0,0,1.4,0C.377.047-.057,1.132,0,2.027.16,4.376,1.829,6.8,2.725,7.94a.17.17,0,0,1-.047.255,4.715,4.715,0,0,0-2.4,3.961c0,2.659,2.556,4.819,5.611,4.819s5.611-2.159,5.611-4.819A4.63,4.63,0,0,0,9.213,8.27a.17.17,0,0,1,0-.255c.877-1.1,2.622-3.593,2.782-5.988C12,1.132,11.57.047,10.561,0Z" transform="translate(-0.001 0)" fill="#fff"/><path d="M9.644,2.561a1.047,1.047,0,0,1,.82-.471c.5,0,.688.566.641,1.037A7.638,7.638,0,0,1,9.512,6.513a.264.264,0,0,1-.3.085L8.975,6.5h0L8.73,6.409a.245.245,0,0,1-.17-.264A7.62,7.62,0,0,1,9.644,2.561Z" transform="translate(-0.488 -0.119)" fill="#e5bdcc"/><path d="M11.128,3.128A7.638,7.638,0,0,1,9.534,6.514a.264.264,0,0,1-.3.085L9,6.5H8.94a7.544,7.544,0,0,0,1.565-3.376,1.018,1.018,0,0,0-.358-.943.887.887,0,0,1,.34-.075C10.986,2.091,11.175,2.657,11.128,3.128Z" transform="translate(-0.509 -0.12)" fill="#c3a1ae"/><path d="M2.911,2.561a1.047,1.047,0,0,0-.82-.471c-.5,0-.688.566-.641,1.037A7.638,7.638,0,0,0,3,6.513a.264.264,0,0,0,.3.085L3.543,6.5h0l.245-.094a.245.245,0,0,0,.17-.264A7.619,7.619,0,0,0,2.911,2.561Z" transform="translate(-0.083 -0.119)" fill="#e5bdcc"/><path d="M3.974,6.137A.255.255,0,0,1,3.8,6.4L3.559,6.5H3.483A7.7,7.7,0,0,0,2.38,2.95a1.047,1.047,0,0,0-.83-.472h0a.575.575,0,0,1,.528-.358,1.047,1.047,0,0,1,.82.471A7.619,7.619,0,0,1,3.974,6.137Z" transform="translate(-0.089 -0.121)" fill="#c3a1ae"/><circle cx="0.547" cy="0.547" r="0.547" transform="translate(3.046 11.156)" fill="#36364d"/><circle cx="0.547" cy="0.547" r="0.547" transform="translate(7.629 11.156)" fill="#36364d"/><path d="M7.111,15.143a.679.679,0,0,1-.5-.17.773.773,0,0,1-.189-.49v-.123a1.254,1.254,0,0,0,.462-.4c.066-.113.179-.245.17-.377s-.141-.141-.236-.16a3.715,3.715,0,0,0-.566-.047H6.1a3.715,3.715,0,0,0-.566.047c-.094,0-.236.047-.236.16a.957.957,0,0,0,.17.377,1.255,1.255,0,0,0,.443.387V14.5a.792.792,0,0,1-.189.49.679.679,0,0,1-.5.17.255.255,0,1,0,0,.509,1.179,1.179,0,0,0,.868-.33l.075-.085.075.085a1.179,1.179,0,0,0,.868.33.255.255,0,1,0,0-.509Z" transform="translate(-0.284 -0.762)" fill="#36364d"/><path d="M7.094,13.567a.852.852,0,0,1-.17.377,1.037,1.037,0,0,1-.622.472.462.462,0,0,1-.226,0h0a1.094,1.094,0,0,0,.453-.453c.066-.113.179-.245.17-.377s-.141-.141-.236-.16A3.39,3.39,0,0,0,6,13.36h.264a3.715,3.715,0,0,1,.566.047C6.943,13.426,7.094,13.454,7.094,13.567Z" transform="translate(-0.343 -0.761)" fill="#2b2b3e"/></g></g></svg>