<svg version="1.1" id="Layer_1" xmlns="http://www.w3.org/2000/svg" xmlns:xlink="http://www.w3.org/1999/xlink" x="0px" y="0px" viewBox="0 0 4314.3 1030.2" style="enable-background:new 0 0 4314.3 1030.2;" xml:space="preserve">
 <style type="text/css">
  .st0{fill:#FFFFFF;}
	.st1{fill-rule:evenodd;clip-rule:evenodd;fill:#FFFFFF;}
	.st2{fill:#58B1E4;}
	.st3{fill:#222222;}
	.st4{fill-rule:evenodd;clip-rule:evenodd;fill:#222222;}
 </style>
 <g>
  <path class="st3" d="M1667.3,362.6c-17.6-76.8-101.6-140-208-140c-100-1.6-192.8,76.8-190.4,172c0,85.6,47.2,140,129.6,158.4
		l21.6,4c47.2,9.6,76.8,16,88.8,20c34.4,10.4,54.4,38.4,54.4,64.8c0,44.8-41.6,75.2-101.6,75.2c-28,0-54.4-6.4-78.4-20
		c-23.2-13.6-36.8-32-40.8-55.2l-94.4,14.4c6.4,98.4,105.6,154.4,209.6,154.4c107.2,0,204-61.6,204-169.6
		c0-88.8-56-150.4-152.8-167.2l-19.2-3.2c-12.8-2.4-42.4-7.2-64-12.8c-39.2-7.2-60-32.8-60-62.4c0-7.2,0.8-12,1.6-16
		c10.4-38.4,48.8-63.2,94.4-63.2c51.2,0,99.2,27.2,111.2,71.2L1667.3,362.6z">
  </path>
  <path class="st3" d="M2112.7,602.6c0-73.6-17.6-126.4-52.8-158.4c-34.4-32-69.2-48-123.6-48c-44.8,0-70.8,21-98.8,53.8V233.8h-95.2
		v568h95.2V613c2.4-40.8,13.6-71.2,35.2-91.2c21.6-20,36.4-29.6,63.6-29.6c51.2,0,82,39.2,82,115.2v194.4h94.4V602.6z">
  </path>
  <path class="st3" d="M2378.7,812.2c106.4,2.4,196-92,194.4-201.6c0-112.8-86.4-204.8-194.4-204.8c-106.4-2.4-198.4,95.2-196,204.8
		C2180.3,717,2273.9,814.6,2378.7,812.2z M2378.7,495.4c60.8,0,100.8,49.6,100.8,116s-39.2,112.8-100.8,112.8
		c-61.6,0-103.2-52-103.2-112.8C2275.5,546.6,2317.1,495.4,2378.7,495.4z">
  </path>
  <path class="st3" d="M2849.4,417.8c-53.6,0-90.4,14.4-111.2,45.6v-45.6h-93.6l0.8,384h92.8V606.6c4-63.2,44.2-110.4,101-110.4
		c10.4,0,28.6,0,28.6,0v-78.4H2849.4z">
  </path>
  <path class="st3" d="M3153,496.2v-78.4h-77V297.2l-95.2,16v104.6h-53.4v78.4h53.4v191.6c0,74,47.2,113.2,104,113.2l67.2,0.8v-85.6
		l-29.2-0.8c-25.6,0-46.8-14-46.8-42V496.2H3153z">
  </path>
  <path class="st3" d="M3583.3,525c-12-36-34.4-64.8-67.2-86.4s-69.6-32.8-111.2-32.8c-106.4-2.4-201.6,95.2-199.2,204.8
		c-2.4,111.2,92.8,203.2,199.2,200.8c80,0,144.8-40,171.2-104.8l-80.8-32.8c-12,29.6-41.6,56-90.4,56
		c-66.4,0-106.4-51.2-106.4-119.2s40-120.8,106.4-120.8c51.2,0,80,27.2,95.2,65.6L3583.3,525z">
  </path>
  <path class="st3" d="M4290.3,496.2v-78.4h-77V297.2l-95.2,16v104.6h-53.4v78.4h53.4v191.6c0,74,47.2,113.2,104,113.2l67.2,0.8
		v-85.6l-29.2-0.8c-25.6,0-46.8-14-46.8-42V496.2H4290.3z">
  </path>
  <path class="st4" d="M3648.4,418.1l92-0.2l0.5,224.8c0.1,58.1,32.9,86.3,83.8,86.2c50.9-0.1,83.6-29.2,83.5-87.3l-0.5-224l92-0.2
		l0.5,230.2c0.1,53.5-16.5,94.9-49.9,123.2c-33.4,28.4-75.2,42.2-126.1,42.3c-50.9,0.1-92.8-13.6-125.5-41.8
		c-32.8-28.2-49.6-68-49.7-120.7L3648.4,418.1z">
  </path>
 </g>
 <g>
  <path class="st2" d="M1008.6,273.9L1008.6,273.9c0-136.5-110.6-247.1-247.1-247.1H267.3l0,0c0,0,0,0,0,0
		C204,26.8,140.8,51,92.5,99.2l0,0C-4,195.7-4,352.2,92.5,448.7l88,88C86.9,571.8,20.2,662.2,20.2,768.1v0
		c0,136.5,110.6,247.1,247.1,247.1h494.2l0,0c63.2,0,126.5-24.1,174.7-72.4l0,0c96.5-96.5,96.5-252.9,0-349.4l-88-88
		C941.9,470.3,1008.6,379.9,1008.6,273.9z M160.3,875.1c-28.6-28.6-44.3-66.5-44.3-106.9c0-40.4,15.7-78.4,44.3-106.9
		c27.1-27.1,62.6-42.6,100.6-44.2l302.3,302.3h-296C226.9,919.3,188.9,903.6,160.3,875.1z M868.4,661.2
		c28.6,28.6,44.3,66.5,44.3,106.9c0,40.4-15.7,78.4-44.3,106.9c-28.6,28.6-66.5,44.3-106.9,44.3c-40.4,0-78.4-15.7-106.9-44.3
		L160.3,380.9c-28.6-28.6-44.3-66.5-44.3-106.9c0-40.4,15.7-78.4,44.3-106.9c28.6-28.6,66.5-44.3,106.9-44.3
		c40.4,0,78.4,15.7,106.9,44.3L868.4,661.2z M868.4,380.9c-27.1,27.1-62.6,42.6-100.6,44.2L465.5,122.7l0,0h296
		c40.4,0,78.4,15.7,106.9,44.3c28.6,28.6,44.3,66.5,44.3,106.9C912.7,314.3,896.9,352.3,868.4,380.9z">
  </path>
 </g>
</svg>