<?xml version="1.0" encoding="utf-8"?>
<!-- Generator: Adobe Illustrator 26.0.2, SVG Export Plug-In . SVG Version: 6.00 Build 0)  -->
<svg version="1.1" id="Layer_1" xmlns="http://www.w3.org/2000/svg" xmlns:xlink="http://www.w3.org/1999/xlink" x="0px" y="0px"
	 viewBox="0 0 1258.3 248.8" style="enable-background:new 0 0 1258.3 248.8;" xml:space="preserve">
<style type="text/css">
	.st0{fill:#40407D;}
</style>
<g>
	<g>
		<path class="st0" d="M380.4,192.5c40.2,0,53.7-9,53.7-36.7c0-23-9.2-31.5-37.9-34l-19.9-1.7c-14.5-1.2-16.3-3.5-16.3-9.5
			c0-8.4,3.5-10.6,22.4-10.6c17.4,0,30.4,1.8,44.5,6.2l1.7-24.6c-14.5-3.9-28-5.4-43.5-5.4c-38.9,0-52.6,9.4-52.6,36.4
			c0,23,10,30.8,37.9,33.2l20,1.7c13.8,1.2,16.2,3.5,16.2,10.1c0,9.2-4.5,11.2-24.2,11.2c-20.5,0-35.5-2.2-49.4-7.2l-1.7,24.8
			C344.6,190.3,360.7,192.5,380.4,192.5z"/>
		<path class="st0" d="M380.4,193.5c-19.2,0-35.8-2.1-49.3-6.2l-0.8-0.2l1.8-26.9l1.2,0.5c13.8,5,28.5,7.1,49,7.1
			c20.1,0,23.2-2.3,23.2-10.2c0-5.5-1.4-7.9-15.3-9.1l-20-1.7c-29-2.4-38.8-11.1-38.8-34.2c0-27.6,14-37.4,53.6-37.4
			c16.2,0,29.7,1.7,43.8,5.4l0.8,0.2l-1.8,26.7l-1.2-0.4c-14.2-4.4-27.1-6.2-44.3-6.2c-18.7,0-21.4,2-21.4,9.6
			c0,4.9,0.7,7.4,15.4,8.6l19.9,1.7c29,2.5,38.8,11.4,38.8,35C435.2,184,421.3,193.5,380.4,193.5z M332.4,185.6
			c13.2,3.9,29.4,5.9,48,5.9c39.9,0,52.7-8.7,52.7-35.7c0-22.5-9-30.6-37-33l-19.9-1.7c-13.9-1.1-17.3-3.2-17.3-10.5
			c0-9.4,4.4-11.6,23.4-11.6c16.9,0,29.7,1.7,43.6,5.9l1.5-22.5c-13.6-3.5-26.7-5.1-42.5-5.1c-38.5,0-51.6,8.9-51.6,35.4
			c0,22,9,29.8,37,32.2l20,1.7c13.6,1.2,17.1,3.4,17.1,11c0,10.5-6.3,12.2-25.2,12.2c-19.9,0-35-2.1-48.5-6.8L332.4,185.6z"/>
	</g>
	<g>
		<path class="st0" d="M465.9,190.5h27.5V78.3h-27.5V190.5z"/>
		<path class="st0" d="M494.5,191.5h-29.5V77.3h29.5V191.5z M466.9,189.5h25.5V79.3h-25.5V189.5z"/>
	</g>
	<g>
		<path class="st0" d="M532.9,190.5h53.1c44.2,0,59.1-14.1,59.1-56.1c0-42.1-14.8-56.1-59.1-56.1h-53.1V190.5z M560.4,166.4v-64
			h23.7c26.4,0,32.7,5.9,32.7,32c0,26.1-6.3,32-32.7,32H560.4z"/>
		<path class="st0" d="M585.9,191.5h-54.1V77.3h54.1c44.9,0,60.1,14.4,60.1,57.1C646,177.1,630.8,191.5,585.9,191.5z M533.9,189.5
			h52.1c22.7,0,36.7-3.7,45.4-12c8.7-8.3,12.6-21.6,12.6-43.1c0-21.5-3.9-34.8-12.6-43.1c-8.8-8.3-22.8-12-45.4-12h-52.1V189.5z
			 M584.1,167.4h-24.7v-66h24.7c27.1,0,33.7,6.5,33.7,33S611.2,167.4,584.1,167.4z M561.4,165.4h22.7c26.1,0,31.7-5.5,31.7-31
			c0-25.5-5.6-31-31.7-31h-22.7V165.4z"/>
	</g>
	<g>
		<path class="st0" d="M679.3,190.5h101.8v-24.1h-74.2v-20.9h61.2v-23.6h-61.2v-19.4h72.9V78.3H679.3V190.5z"/>
		<path class="st0" d="M782.1,191.5H678.3V77.3h102.4v26.1h-72.9v17.4h61.2v25.6h-61.2v18.9h74.2V191.5z M680.3,189.5h99.8v-22.1
			h-74.2v-22.9h61.2v-21.6h-61.2v-21.4h72.9V79.3h-98.4V189.5z"/>
	</g>
	<g>
		<path class="st0" d="M815.8,190.5h27.5v-30.8l19.2-18.4l33.5,49.3h33.2l-46.6-68.4l46-43.9h-34.4l-51,48.9V78.3h-27.5V190.5z"/>
		<path class="st0" d="M931.2,191.5h-35.6l-0.3-0.4l-32.9-48.3l-18,17.3v31.4h-29.5V77.3h29.5v47.6L894,77.3h37.3l-47.2,45
			L931.2,191.5z M896.6,189.5h30.8l-46-67.5l44.9-42.8h-31.5l-52.5,50.3V79.3h-25.5v110.2h25.5v-30.3l20.3-19.5L896.6,189.5z"/>
	</g>
	<g>
		<path class="st0" d="M953.6,190.5h27.5V78.3h-27.5V190.5z"/>
		<path class="st0" d="M982.2,191.5h-29.5V77.3h29.5V191.5z M954.6,189.5h25.5V79.3h-25.5V189.5z"/>
	</g>
	<g>
		<path class="st0" d="M1076.8,192.5c13.8,0,23.7-1.5,37.2-5.7l-1.7-24.5c-13.3,3.9-22.5,5.4-34.2,5.4c-26,0-34.4-7.5-34.4-33.3
			c0-25.8,8.3-33.3,34.4-33.3c11.7,0,20.9,1.5,34.2,5.4l1.7-24.5c-13.5-4.2-23.4-5.7-37.2-5.7c-44.5,0-61.2,15.7-61.2,58.1
			C1015.6,176.8,1032.3,192.5,1076.8,192.5z"/>
		<path class="st0" d="M1076.8,193.5c-23.1,0-38.3-4.3-48-13.4c-9.7-9.2-14.2-23.7-14.2-45.7c0-22,4.5-36.5,14.2-45.7
			c9.7-9.2,24.9-13.4,48-13.4c14,0,23.8,1.5,37.5,5.7l0.8,0.2l-1.8,26.5l-1.2-0.3c-13.4-3.9-22.6-5.3-33.9-5.3
			c-25.9,0-33.4,7.3-33.4,32.3c0,25.1,7.5,32.3,33.4,32.3c11.3,0,20.5-1.4,33.9-5.3l1.2-0.3l1.8,26.5l-0.8,0.2
			C1100.6,192,1090.8,193.5,1076.8,193.5z M1076.8,77.3c-43.9,0-60.2,15.5-60.2,57.1s16.3,57.1,60.2,57.1c13.5,0,23.1-1.4,36.2-5.4
			l-1.5-22.4c-13,3.7-22.1,5.1-33.3,5.1c-26.8,0-35.4-8.3-35.4-34.3c0-26,8.6-34.3,35.4-34.3c11.2,0,20.3,1.4,33.3,5.1l1.5-22.4
			C1099.9,78.7,1090.3,77.3,1076.8,77.3z"/>
	</g>
	<g>
		<path class="st0" d="M1144.9,190.5h27.5v-30.8l19.2-18.4l33.5,49.3h33.2l-46.5-68.4l46-43.9h-34.4l-51.1,48.9V78.3h-27.5V190.5z"
			/>
		<path class="st0" d="M1260.2,191.5h-35.6l-0.3-0.4l-32.9-48.3l-18,17.3v31.4h-29.5V77.3h29.5v47.6l49.7-47.6h37.3l-47.2,45
			L1260.2,191.5z M1225.6,189.5h30.8l-46-67.5l44.8-42.8h-31.5l-52.5,50.3V79.3h-25.5v110.2h25.5v-30.3l20.3-19.5L1225.6,189.5z"/>
	</g>
</g>
<g>
	
		<ellipse transform="matrix(3.926320e-03 -1 1 3.926320e-03 -20.6806 275.2264)" class="st0" cx="127.8" cy="148" rx="37.8" ry="37.8"/>
	<path class="st0" d="M215.1,97.6c-15.9-27.6-42.9-44.8-72.2-49.3l-8.6-14.9l12.1-21c-3.1-2.7-6.4-5.1-10.1-7.2
		c-3.8-2.2-7.7-3.9-11.6-5.2l-19.3,33.4c0,0,0,0,0,0l0,0l8.5,14.7c-8.6,1.2-17.1,3.5-25.4,7L69.2,21.7c-3.8,1.3-7.6,3-11.3,5.1
		c-3.8,2.2-7.2,4.7-10.4,7.5l19.3,33.5c-7,5.3-13.2,11.5-18.5,18.2l-8.5-14.7l0,0c0,0,0,0,0,0H1.3C0.4,75.3,0,79.6,0,83.9
		c0,4.2,0.4,8.4,1.2,12.3h24.2l8.6,14.9c-10.8,27.6-9.4,59.6,6.5,87.2c25.7,44.5,80.1,61.9,126.2,42.5l-19.1-33.1
		c-27.8,9.2-59.1-2-74.4-28.3c-17.4-30.1-7.1-68.7,23.1-86c30.1-17.4,68.7-7.1,86,23.1c15.3,26.4,9.2,59.3-12.9,78.8l19.1,33.1
		C228.6,198.2,240.8,142.2,215.1,97.6z"/>
</g>
</svg>
