<svg id="Layer_1" style="enable-background:new 0 0 1726.3 471;" version="1.1" viewBox="0 0 1726.3 471" x="0px" xml:space="preserve" xmlns="http://www.w3.org/2000/svg" xmlns:xlink="http://www.w3.org/1999/xlink" y="0px">
<style type="text/css">
	.st0{fill:#FFFFFF;}
	.st1{fill:url(#XMLID_61_);}
	.st2{fill:url(#XMLID_62_);}
	.st3{fill:none;}
	.st4{fill:url(#XMLID_63_);}
	.st5{fill:url(#XMLID_64_);}
	.st6{fill:url(#XMLID_65_);}
	.st7{fill:url(#XMLID_66_);}
	.st8{fill:url(#XMLID_67_);}
	.st9{fill:url(#XMLID_68_);}
</style>
<g id="XMLID_124_">
<g id="XMLID_2_">
<g id="XMLID_204_">
<path class="st0" d="M515.9,127.5c0-6.1,1.7-10.5,5.2-13.2c3.5-2.7,8.3-4.1,14.4-4.1c3.9,0,7.6,0.5,10.9,1.5
				c3.4,1,5.6,1.7,6.7,2.1v42.8h47.3c7.2,0,12.2,1.5,15.2,4.4c2.9,2.9,4.4,7.2,4.4,12.9c0,3.7-0.5,7.1-1.6,10.3
				c-1.1,3.2-2,5.4-2.6,6.7h-62.7v72.8c0,5.7,0.8,10.3,2.3,13.9c1.5,3.6,3.6,6.5,6.4,8.7c2.7,2.2,5.9,3.7,9.5,4.6
				c3.6,0.9,7.3,1.3,11.3,1.3c6.3,0,12.2-1,17.6-2.9c5.4-2,9.4-3.8,11.7-5.5l15,24.8c-1.7,1.3-4.2,2.9-7.3,4.9
				c-3.2,2-7,3.8-11.6,5.5c-4.6,1.7-9.7,3.2-15.3,4.4c-5.7,1.2-11.9,1.8-18.6,1.8c-19.2,0-33.6-4.9-43.4-14.9
				c-9.8-9.9-14.7-22.9-14.7-39V127.5z" id="XMLID_222_"></path>
<path class="st0" d="M777.4,308.4c-1.7,1.1-4.5,2.6-8.2,4.6c-3.7,2-8.3,3.8-13.9,5.5c-5.6,1.7-12,3.3-19.3,4.6
				c-7.3,1.3-15.3,2-24,2c-12.2,0-23.6-1.9-34.1-5.5c-10.6-3.7-19.8-9.2-27.7-16.5c-7.9-7.3-14.2-16.2-18.8-26.8
				c-4.6-10.6-6.9-22.7-6.9-36.4c0-13.1,2.2-25,6.7-35.7c4.5-10.8,10.7-20,18.6-27.7c7.9-7.7,17.3-13.7,28.1-18
				c10.8-4.2,22.6-6.4,35.4-6.4c11.3,0,21.3,1.5,30,4.4c8.7,2.9,16,6.9,22,11.8c6,4.9,10.5,10.6,13.5,17.1c3,6.5,4.6,13.5,4.6,20.9
				c0,7.6-1.4,14.5-4.2,20.7c-2.8,6.2-7.8,11.5-15,16c-7.2,4.5-16.9,7.9-29,10.4c-12.2,2.5-27.6,3.8-46.4,3.8
				c-4.4,0-8.4-0.1-12.2-0.2c-3.8-0.1-7.9-0.3-12.2-0.5c1.7,11.1,7.1,20.1,16.2,26.9c9,6.9,21.9,10.3,38.7,10.3
				c5.7,0,10.9-0.4,15.7-1.3c4.8-0.9,9.1-2,12.9-3.3c3.8-1.3,7.1-2.6,9.8-3.9c2.7-1.3,4.7-2.3,6-2.9L777.4,308.4z M662.8,231
				c5,0.2,9.8,0.3,14.4,0.3c4.6,0,9.1,0,13.7,0c12,0,21.7-0.8,29.1-2.3c7.4-1.5,13.2-3.5,17.3-5.9c4.1-2.4,6.9-5.1,8.2-8.2
				c1.3-3,2-6.2,2-9.5c0-8.3-3.3-14.5-10-18.6c-6.6-4.1-14.9-6.2-24.6-6.2c-8.1,0-15.1,1.4-21.2,4.2c-6.1,2.8-11.2,6.6-15.3,11.3
				c-4.1,4.7-7.3,10.1-9.6,16.2C664.3,218.5,663.1,224.7,662.8,231z" id="XMLID_219_"></path>
<path class="st0" d="M796.7,221.5c0-10.9,2-20.6,6-29.2c4-8.6,9.6-15.9,16.6-21.9c7.1-6,15.5-10.6,25.1-13.7
				c9.7-3.2,20.3-4.7,31.8-4.7s22.2,1.6,32,4.7c9.8,3.2,18.2,7.7,25.3,13.7c7.1,6,12.6,13.3,16.5,21.9c3.9,8.6,5.9,18.3,5.9,29.2
				v98.9h-37.2V231c0-14.8-3.6-26.1-10.8-33.8c-7.2-7.7-17.7-11.6-31.7-11.6c-14.1,0-24.8,3.9-31.8,11.6c-7.1,7.7-10.6,19-10.6,33.8
				v89.4h-37.2V221.5z" id="XMLID_217_"></path>
<path class="st0" d="M1112,97.2c0-5.9,1.7-10.2,5.1-13.1c3.4-2.8,8.2-4.2,14.5-4.2c3.9,0,7.5,0.5,10.8,1.5
				c3.3,1,5.4,1.7,6.5,2.1v147.2c0,15.9-2.2,29.7-6.7,41.5c-4.5,11.8-10.6,21.5-18.4,29.4c-7.8,7.8-17.1,13.7-27.7,17.6
				c-10.7,3.9-22.3,5.9-34.9,5.9c-12.8,0-24.6-2.2-35.4-6.5c-10.8-4.4-20.1-10.3-27.9-18c-7.8-7.6-14-16.8-18.4-27.4
				c-4.5-10.7-6.7-22.2-6.7-34.6c0-12.6,2.1-24.2,6.4-34.8c4.2-10.6,10.1-19.7,17.6-27.4c7.5-7.7,16.3-13.7,26.4-18
				c10.1-4.2,21.2-6.4,33.1-6.4c12.6,0,23.7,2.4,33.3,7.3c9.6,4.9,17.1,10.8,22.5,17.8V97.2z M1112,238.5c0-7.4-1.3-14.4-3.8-20.9
				c-2.5-6.5-5.9-12.2-10.3-17c-4.4-4.8-9.6-8.5-15.8-11.3c-6.2-2.7-13-4.1-20.4-4.1c-7.6,0-14.5,1.4-20.6,4.1
				c-6.1,2.7-11.4,6.4-15.8,11.1c-4.5,4.7-7.9,10.3-10.3,16.8c-2.4,6.5-3.6,13.6-3.6,21.2c0,7.6,1.2,14.6,3.6,21.1
				c2.4,6.4,5.8,12,10.3,16.6c4.5,4.7,9.7,8.4,15.8,11.1c6.1,2.7,12.9,4.1,20.6,4.1c7.4,0,14.2-1.3,20.4-3.9
				c6.2-2.6,11.5-6.2,15.8-10.8c4.3-4.6,7.8-10.1,10.3-16.6C1110.7,253.5,1112,246.3,1112,238.5z" id="XMLID_214_"></path>
<path class="st0" d="M1314.4,308.4c-1.7,1.1-4.5,2.6-8.2,4.6c-3.7,2-8.3,3.8-13.9,5.5c-5.6,1.7-12,3.3-19.3,4.6
				c-7.3,1.3-15.3,2-24,2c-12.2,0-23.6-1.9-34.1-5.5c-10.6-3.7-19.8-9.2-27.7-16.5c-7.9-7.3-14.2-16.2-18.8-26.8
				c-4.6-10.6-6.9-22.7-6.9-36.4c0-13.1,2.2-25,6.7-35.7c4.5-10.8,10.7-20,18.6-27.7c7.9-7.7,17.3-13.7,28.1-18
				c10.8-4.2,22.6-6.4,35.4-6.4c11.3,0,21.3,1.5,30,4.4c8.7,2.9,16,6.9,22,11.8c6,4.9,10.5,10.6,13.5,17.1c3,6.5,4.6,13.5,4.6,20.9
				c0,7.6-1.4,14.5-4.2,20.7c-2.8,6.2-7.8,11.5-15,16c-7.2,4.5-16.9,7.9-29,10.4c-12.2,2.5-27.6,3.8-46.4,3.8
				c-4.4,0-8.4-0.1-12.2-0.2c-3.8-0.1-7.9-0.3-12.2-0.5c1.7,11.1,7.1,20.1,16.2,26.9c9,6.9,21.9,10.3,38.7,10.3
				c5.7,0,10.9-0.4,15.7-1.3c4.8-0.9,9.1-2,12.9-3.3c3.8-1.3,7.1-2.6,9.8-3.9c2.7-1.3,4.7-2.3,6-2.9L1314.4,308.4z M1199.8,231
				c5,0.2,9.8,0.3,14.4,0.3c4.6,0,9.1,0,13.7,0c12,0,21.7-0.8,29.1-2.3c7.4-1.5,13.2-3.5,17.3-5.9c4.1-2.4,6.9-5.1,8.2-8.2
				c1.3-3,2-6.2,2-9.5c0-8.3-3.3-14.5-10-18.6c-6.6-4.1-14.9-6.2-24.6-6.2c-8.1,0-15.1,1.4-21.2,4.2c-6.1,2.8-11.2,6.6-15.3,11.3
				c-4.1,4.7-7.3,10.1-9.6,16.2C1201.3,218.5,1200,224.7,1199.8,231z" id="XMLID_211_"></path>
<path class="st0" d="M1340.2,215c0-20,6.1-35.5,18.4-46.5c12.3-11,29.3-16.5,51.1-16.5c13.7,0,24.9,1.9,33.5,5.7
				c8.6,3.8,12.9,9.6,12.9,17.5c0,3.7-1,7.3-3.1,10.8c-2.1,3.5-3.8,5.7-5.1,6.5c-3.7-1.7-8.3-3.4-13.7-4.9
				c-5.4-1.5-11.6-2.3-18.6-2.3c-25.5,0-38.2,13.5-38.2,40.5v94.7h-37.2V215z" id="XMLID_209_"></path>
<path class="st0" d="M1476,97.2c0-5.9,1.7-10.2,5.2-13.1c3.5-2.8,8.4-4.2,14.7-4.2c3.9,0,7.5,0.5,10.8,1.5
				c3.3,1,5.4,1.7,6.5,2.1v237H1476V97.2z" id="XMLID_207_"></path>
<path class="st0" d="M1538.3,173.9c0-5.9,1.7-10.2,5.2-13.1c3.5-2.8,8.3-4.2,14.4-4.2c3.9,0,7.6,0.5,10.9,1.5
				c3.4,1,5.6,1.7,6.7,2.1v87.2c0,12.8,3.4,23.1,10.3,30.7c6.9,7.6,17.5,11.4,31.8,11.4c13.3,0,23.7-3.9,31.3-11.6
				c7.6-7.7,11.4-19.1,11.4-34.1v-69.9c0-5.9,1.7-10.2,5.2-13.1c3.5-2.8,8.3-4.2,14.4-4.2c3.9,0,7.6,0.5,10.9,1.5
				c3.4,1,5.6,1.7,6.7,2.1v143c0,15.5-2.1,28.6-6.2,39.3s-10,19.6-17.6,26.6c-7.6,7-16.8,12-27.4,15.2c-10.7,3.2-22.5,4.7-35.6,4.7
				c-8.9,0-17.1-0.5-24.5-1.5c-7.4-1-14-2.1-19.7-3.4c-5.8-1.3-10.5-2.6-14.2-3.8c-3.7-1.2-6.3-2.1-7.8-2.8
				c1.7-4.6,3.4-9.2,4.9-13.9c1.5-4.7,3-9.3,4.6-13.9c1.5,0.7,3.9,1.5,7.2,2.6c3.3,1.1,7.2,2.1,11.8,3.1c4.6,1,9.7,1.8,15.5,2.4
				c5.8,0.7,11.9,1,18.4,1c8.5,0,16.1-0.9,22.9-2.8c6.7-1.9,12.5-5.1,17.1-9.6c4.7-4.6,8.3-10.6,10.8-18.1
				c2.5-7.5,3.8-16.9,3.8-28.2c-4.4,6.3-11.2,11.4-20.4,15.2c-9.3,3.8-19.4,5.7-30.5,5.7c-10.4,0-20.1-1.5-29.1-4.4
				c-8.9-2.9-16.5-7.2-22.8-12.7c-6.3-5.5-11.3-12.5-14.9-20.7c-3.6-8.3-5.4-17.7-5.4-28.4V173.9z" id="XMLID_205_"></path>
</g>
</g>
<g id="XMLID_351_">
<linearGradient gradientUnits="userSpaceOnUse" id="XMLID_61_" x1="27.935" x2="180.3297" y1="297.1948" y2="297.1948">
<stop offset="0" style="stop-color:#B6B0E7"></stop>
<stop offset="4.852235e-002" style="stop-color:#B2ACE7"></stop>
<stop offset="0.4188" style="stop-color:#9B91E7"></stop>
<stop offset="0.7479" style="stop-color:#8C81E7"></stop>
<stop offset="1" style="stop-color:#877BE7"></stop>
</linearGradient>
<path class="st1" d="M105.9,191.1l-75.2-43l0.1,85.5L30.7,385c0,14.7,7.8,28.2,20.6,35.5l35.4,20.3
			c12.6,7.2,27.2,7.2,39.8,0.1l53.6-30.5" id="XMLID_682_"></path>
<linearGradient gradientUnits="userSpaceOnUse" id="XMLID_62_" x1="180.3472" x2="335.3472" y1="321.7967" y2="321.7967">
<stop offset="0" style="stop-color:#6254C4"></stop>
<stop offset="1" style="stop-color:#7567DB"></stop>
</linearGradient>
<polyline class="st2" id="XMLID_681_" points="258.3,364.4 258.3,277.7 257.5,277.2 257.5,277.2 180.3,233.3 180.3,234.9 
			180.5,410.3 180.5,410.3 180.5,410.3 		"></polyline>
<polygon class="st3" id="XMLID_680_" points="257,277.2 179.9,233.3 256.8,277.3 		"></polygon>
<polygon class="st3" id="XMLID_679_" points="257.8,191.3 257.9,191.3 261.1,189.4 		"></polygon>
<linearGradient gradientUnits="userSpaceOnUse" id="XMLID_63_" x1="258.3472" x2="413.3472" y1="256.2227" y2="256.2227">
<stop offset="0" style="stop-color:#5245B0"></stop>
<stop offset="1" style="stop-color:#6456D1"></stop>
</linearGradient>
<path class="st4" d="M333.7,234.2l-75.3,43.5v86.6l129.4-77c12.7-7.3,18.6-20.8,18.6-35.5v-18.3v-19.4
			c0-14.6-7-28.1-19.7-35.5l-52.9-30.6L333.7,234.2L333.7,234.2z" id="XMLID_678_"></path>
<linearGradient gradientUnits="userSpaceOnUse" id="XMLID_64_" x1="258.3472" x2="410.1355" y1="212.9285" y2="212.9285">
<stop offset="0" style="stop-color:#6254C4"></stop>
<stop offset="1" style="stop-color:#7567DB"></stop>
</linearGradient>
<polyline class="st5" id="XMLID_677_" points="258.3,277.7 333.7,234.2 333.7,234.2 333.8,148.1 333.8,148.1 258.3,191 258.3,191 
					"></polyline>
<linearGradient gradientUnits="userSpaceOnUse" id="XMLID_65_" x1="104.9316" x2="104.9316" y1="365.2113" y2="365.2113">
<stop offset="0" style="stop-color:#7A6DD9"></stop>
<stop offset="1" style="stop-color:#877BE7"></stop>
</linearGradient>
<path class="st6" d="M104.9,365.2" id="XMLID_676_"></path>
<linearGradient gradientUnits="userSpaceOnUse" id="XMLID_66_" x1="105.8857" x2="105.8857" y1="364.3026" y2="364.3026">
<stop offset="0" style="stop-color:#7A6DD9"></stop>
<stop offset="1" style="stop-color:#877BE7"></stop>
</linearGradient>
<path class="st7" d="M105.9,364.3" id="XMLID_675_"></path>
<linearGradient gradientUnits="userSpaceOnUse" id="XMLID_67_" x1="22.2301" x2="491.9025" y1="236.8344" y2="236.8344">
<stop offset="0" style="stop-color:#7A6DD9"></stop>
<stop offset="1" style="stop-color:#877BE7"></stop>
</linearGradient>
<path class="st8" d="M35.9,63.4c-3.3,5.9-5.2,13-5.2,20.1l0,63.9l0.2,0.8l72.4,42.9v86v0.6v90l77.1,42.5
			l-0.1-176.4l0,0l78,43.9l0,0v-0.6v-86.7" id="XMLID_674_"></path>
<linearGradient gradientUnits="userSpaceOnUse" id="XMLID_68_" x1="28.1163" x2="438.0858" y1="106.7947" y2="106.7947">
<stop offset="0" style="stop-color:#6254C4"></stop>
<stop offset="0.308" style="stop-color:#6659C8"></stop>
<stop offset="0.6598" style="stop-color:#7467D5"></stop>
<stop offset="1" style="stop-color:#877BE7"></stop>
</linearGradient>
<path class="st9" d="M258.3,191L258.3,191l75.4-42.9l0,0L217.3,80.7v-0.1L125.9,28c-12.6-7.2-26.9-7.3-39.5,0
			L51.1,48.1c-6.6,3.8-11.8,9.1-15.4,15.4c0,0,0,0,0,0" id="XMLID_673_"></path>
</g>
</g>
</svg>