<svg fill="none" height="51" viewBox="0 0 242 51" width="242" xmlns="http://www.w3.org/2000/svg">
<path d="M11.8188 6.19606H0V0.44656H29.8337V6.19606H18.0149V39.5208H11.8188V6.19606Z" fill="black"></path>
<path d="M64.514 11.3873H70.431V14.6249C70.9892 13.6574 71.9381 12.8015 73.2778 12.0572C74.6547 11.3129 76.1805 10.9408 77.8551 10.9408C81.9486 10.9408 85.0931 12.2619 87.2887 14.904C89.4843 17.5462 90.5821 21.0629 90.5821 25.4541C90.5821 29.8453 89.4843 33.3619 87.2887 36.0041C85.0931 38.6463 81.9486 39.9674 77.8551 39.9674C76.4037 39.9674 74.971 39.651 73.5569 39.0184C72.18 38.3486 71.138 37.5113 70.431 36.5065V50.9081H64.514V11.3873ZM77.1294 34.8319C79.325 34.8319 81.0927 33.9946 82.4323 32.32C83.772 30.6081 84.4419 28.3195 84.4419 25.4541C84.4419 22.5886 83.772 20.3186 82.4323 18.644C81.0927 16.9322 79.325 16.0763 77.1294 16.0763C74.971 16.0763 73.222 16.9322 71.8823 18.644C70.5426 20.3186 69.8727 22.5886 69.8727 25.4541C69.8727 28.3195 70.5426 30.6081 71.8823 32.32C73.222 33.9946 74.971 34.8319 77.1294 34.8319Z" fill="black"></path>
<path d="M109.296 39.9674C106.431 39.9674 104.012 39.2789 102.039 37.902C100.067 36.5251 98.5786 34.7388 97.5738 32.5433C96.6063 30.3104 96.1225 27.9474 96.1225 25.4541C96.1225 22.9608 96.6063 20.6163 97.5738 18.4207C98.5786 16.1879 100.067 14.383 102.039 13.0061C104.012 11.6292 106.431 10.9408 109.296 10.9408C112.087 10.9408 114.45 11.592 116.385 12.8945C118.32 14.197 119.772 15.8902 120.739 17.9741C121.707 20.0581 122.191 22.2537 122.191 24.5609V27.017H102.263C102.337 29.2126 103.007 31.0733 104.272 32.5991C105.575 34.0876 107.342 34.8319 109.575 34.8319C111.287 34.8319 112.701 34.4411 113.818 33.6597C114.971 32.8782 116.013 31.6501 116.944 29.9755L121.8 31.8734C120.572 34.59 118.953 36.6181 116.944 37.9578C114.934 39.2975 112.385 39.9674 109.296 39.9674ZM116.162 22.2165C115.827 20.393 115.083 18.9231 113.929 17.8067C112.813 16.6531 111.268 16.0763 109.296 16.0763C107.473 16.0763 105.965 16.6717 104.775 17.8625C103.584 19.0161 102.821 20.4675 102.486 22.2165H116.162Z" fill="black"></path>
<path d="M130.543 16.5228H126.691V11.3873H130.543V9.82438C130.543 6.54958 131.362 4.09349 132.999 2.45609C134.674 0.818698 136.981 0 139.921 0C141.893 0 143.456 0.334921 144.61 1.00476L143.326 5.86113C142.247 5.37736 141.186 5.13547 140.144 5.13547C137.651 5.13547 136.404 6.53098 136.404 9.32199V11.3873H142.6V16.5228H136.404V39.5208H130.543V16.5228Z" fill="black"></path>
<path d="M160.125 39.9674C157.26 39.9674 154.767 39.3161 152.645 38.0136C150.561 36.7112 148.961 34.9621 147.845 32.7665C146.728 30.5709 146.17 28.1334 146.17 25.4541C146.17 22.7747 146.728 20.3372 147.845 18.1416C148.961 15.946 150.561 14.197 152.645 12.8945C154.767 11.592 157.26 10.9408 160.125 10.9408C162.954 10.9408 165.428 11.592 167.549 12.8945C169.671 14.197 171.289 15.946 172.406 18.1416C173.522 20.3372 174.08 22.7747 174.08 25.4541C174.08 28.1334 173.522 30.5709 172.406 32.7665C171.289 34.9621 169.671 36.7112 167.549 38.0136C165.428 39.3161 162.954 39.9674 160.125 39.9674ZM160.125 34.8319C162.544 34.8319 164.442 33.9202 165.819 32.0967C167.196 30.2732 167.884 28.059 167.884 25.4541C167.884 22.8491 167.196 20.6349 165.819 18.8115C164.442 16.988 162.544 16.0763 160.125 16.0763C157.706 16.0763 155.79 16.988 154.376 18.8115C152.999 20.6349 152.311 22.8491 152.311 25.4541C152.311 28.059 152.999 30.2732 154.376 32.0967C155.79 33.9202 157.706 34.8319 160.125 34.8319Z" fill="black"></path>
<path d="M179.839 11.3873H185.756V16.0763C186.686 14.4016 187.877 13.1364 189.328 12.2805C190.78 11.3873 192.361 10.9408 194.073 10.9408C195.152 10.9408 196.362 11.1641 197.702 11.6106L196.585 17.081C195.655 16.5228 194.576 16.2437 193.348 16.2437C191.152 16.2437 189.328 17.3229 187.877 19.4813C186.463 21.6025 185.756 24.8587 185.756 29.2499V39.5208H179.839V11.3873Z" fill="black"></path>
<path d="M202.926 11.3873H208.843V16.2995C210.964 12.727 213.736 10.9408 217.16 10.9408C219.095 10.9408 220.732 11.4432 222.072 12.4479C223.449 13.4155 224.417 14.8854 224.975 16.8577C225.98 15.0343 227.245 13.6016 228.771 12.5596C230.334 11.4804 231.99 10.9408 233.739 10.9408C236.418 10.9408 238.465 11.7037 239.879 13.2294C241.293 14.7552 242 16.9322 242 19.7604V39.5208H236.139V20.7093C236.139 19.1092 235.804 17.9369 235.134 17.1927C234.501 16.4484 233.515 16.0763 232.176 16.0763C230.91 16.0763 229.757 16.5414 228.715 17.4718C227.71 18.4021 226.91 19.779 226.314 21.6025C225.719 23.3887 225.421 25.5657 225.421 28.1334V39.5208H219.56V20.7093C219.56 19.1092 219.225 17.9369 218.555 17.1927C217.923 16.4484 216.937 16.0763 215.597 16.0763C213.625 16.0763 212.006 17.1741 210.741 19.3697C209.475 21.528 208.843 24.5982 208.843 28.58V39.5208H202.926V11.3873Z" fill="black"></path>
<path d="M41.3066 38.237L29.5693 11.3874H36.4698L44.6601 30.5896L52.3345 11.3874H59.1705L42.5964 50.9082H36.0184L41.3066 38.237Z" fill="black"></path>
</svg>