<svg data-v-fde0c5aa="" style="height:30px" viewBox="40 130 220 40" xmlns="http://www.w3.org/2000/svg"><!-- -->
<defs data-v-fde0c5aa=""><!-- --></defs>
<rect class="logo-background-square" data-v-fde0c5aa="" fill="transparent" height="300px" width="300px" x="0" y="0"></rect>
<defs data-v-fde0c5aa=""><!-- --></defs><g data-v-fde0c5aa="" fill="#000000" id="30819d0d-1d4a-4e55-b3ab-4ee763a7256e" transform="matrix(2.708255436667925,0,0,2.708255436667925,91.43817255618264,125.69340771418473)"><path d="M7.59 13.78L7.59 6.83L5.82 6.83L5.82 10.42C5.82 11.65 5.22 12.35 4.09 12.35C3.08 12.35 2.52 11.77 2.52 10.81L2.52 6.83L0.76 6.83L0.76 10.98C0.76 12.78 1.92 13.89 3.46 13.89C4.73 13.89 5.38 13.30 5.66 12.66L5.85 12.66L5.85 13.78ZM9.02 8.79C9.02 10.08 9.90 10.68 11.84 10.95L12.05 10.98C12.81 11.07 13.52 11.13 13.52 11.65C13.52 12.19 12.87 12.49 12.18 12.49C11.28 12.49 10.36 12.04 9.93 11.13L8.51 12.01C9.16 12.99 10.22 13.97 12.14 13.97C13.99 13.97 15.26 12.98 15.26 11.62C15.26 10.35 14.43 9.79 12.21 9.49L12.00 9.46C11.27 9.37 10.75 9.28 10.75 8.78C10.75 8.36 11.12 8.09 11.75 8.09C12.67 8.09 13.37 8.62 13.90 9.25L15.18 8.25C14.24 7.27 13.23 6.64 11.80 6.64C10.19 6.64 9.02 7.50 9.02 8.79ZM15.99 10.25C15.99 12.40 17.49 13.97 19.56 13.97C21.42 13.97 22.23 12.99 22.71 12.26L21.20 11.40C20.96 11.89 20.51 12.43 19.53 12.43C18.52 12.43 17.86 11.72 17.82 10.82L22.96 10.82L22.96 10.14C22.96 8.05 21.55 6.64 19.53 6.64C17.49 6.64 15.99 8.15 15.99 10.25ZM17.84 9.59C17.95 8.76 18.52 8.18 19.52 8.18C20.43 8.18 21.04 8.74 21.14 9.59ZM25.96 6.83L24.22 6.83L24.22 13.78L25.98 13.78L25.98 9.88C25.98 8.90 26.63 8.43 27.52 8.43L28.56 8.43L28.56 6.80L27.86 6.80C26.98 6.80 26.39 7.07 26.12 7.84L25.96 7.84ZM29.06 6.83L29.06 8.37L30.83 8.37L30.83 13.78L32.59 13.78L32.59 8.37L34.41 8.37L34.41 6.83L32.59 6.83L32.59 5.94C32.59 5.66 32.73 5.52 32.98 5.52L34.05 5.52L34.05 3.98L32.23 3.98C31.42 3.98 30.83 4.59 30.83 5.40L30.83 6.83ZM37.32 6.83L35.59 6.83L35.59 13.78L37.35 13.78L37.35 9.88C37.35 8.90 38.00 8.43 38.89 8.43L39.93 8.43L39.93 6.80L39.23 6.80C38.35 6.80 37.76 7.07 37.49 7.84L37.32 7.84ZM40.54 10.30C40.54 12.49 42.14 13.97 44.18 13.97C46.23 13.97 47.82 12.49 47.82 10.30C47.82 8.12 46.23 6.64 44.18 6.64C42.14 6.64 40.54 8.12 40.54 10.30ZM42.31 10.30C42.31 9.07 43.06 8.26 44.18 8.26C45.30 8.26 46.06 9.07 46.06 10.30C46.06 11.54 45.30 12.35 44.18 12.35C43.06 12.35 42.31 11.54 42.31 10.30ZM49.08 6.83L49.08 13.78L50.85 13.78L50.85 10.19C50.85 8.96 51.45 8.26 52.58 8.26C53.59 8.26 54.15 8.83 54.15 9.80L54.15 13.78L55.92 13.78L55.92 9.63C55.92 7.83 54.75 6.72 53.21 6.72C51.94 6.72 51.30 7.31 51.02 7.95L50.82 7.95L50.82 6.83ZM56.81 6.83L56.81 8.37L58.58 8.37L58.58 12.43C58.58 13.22 59.16 13.78 59.95 13.78L61.85 13.78L61.85 12.24L60.73 12.24C60.48 12.24 60.34 12.10 60.34 11.82L60.34 8.37L62.24 8.37L62.24 6.83L60.34 6.83L60.34 4.68L58.58 4.68L58.58 6.83Z"></path></g><defs data-v-fde0c5aa=""><linearGradient data-v-fde0c5aa="" gradientTransform="rotate(25)" id="0c9dba8a-c2ae-4360-83d1-83a35b825f00" x1="0%" x2="100%" y1="0%" y2="0%"><stop data-v-fde0c5aa="" offset="0%" stop-color="#4E1A70" stop-opacity="1"></stop><stop data-v-fde0c5aa="" offset="100%" stop-color="#2B4CF2" stop-opacity="1"></stop></linearGradient></defs><g data-v-fde0c5aa="" fill="url(#0c9dba8a-c2ae-4360-83d1-83a35b825f00)" id="1ecdd2f2-a2ca-4905-bbf8-6f9630a3c2fb" stroke="none" transform="matrix(0.42562404719105174,0,0,0.42562404719105174,38.72653666308031,128.85709990395634)"><path d="M11.476 66.845a2 2 0 0 1-1.99-1.824c-.04-.45-.095-.914-.149-1.387-.277-2.371-.623-5.322.688-8.052 1.57-3.272 5.917-3.191 8.238-2.626a2 2 0 0 1-.937 3.889c-1.055-.25-3.291-.372-3.695.469-.809 1.685-.561 3.805-.32 5.855.06.512.118 1.013.161 1.5a2 2 0 0 1-1.996 2.176z"></path><path d="M18.598 63.696a2 2 0 0 1-1.99-1.826c-.04-.453-.095-.921-.15-1.397-.276-2.367-.62-5.313.689-8.04 1.572-3.269 5.919-3.189 8.238-2.627a2 2 0 0 1-.936 3.889c-1.053-.248-3.293-.37-3.696.472-.808 1.681-.561 3.797-.321 5.843.06.517.118 1.022.161 1.514a1.999 1.999 0 0 1-1.995 2.172zM13.561 97.35a2 2 0 0 1-1.902-1.384c-.54-1.664-1.232-3.456-1.482-3.835-.091-.123-.479-.518-.792-.835-1.277-1.298-3.208-3.26-3.885-5.435-.635-2.035-3.81-17.729-1.909-24.397.528-1.87 1.785-3.222 3.539-3.8 1.54-.508 3.629.041 4.229.22a2 2 0 0 1-1.142 3.834c-.667-.195-1.567-.315-1.854-.249-.173.058-.681.225-.924 1.087-1.438 5.046 1.053 19.463 1.879 22.117.389 1.249 1.971 2.856 2.916 3.817.555.563.956.971 1.229 1.363.713 1.031 1.636 3.756 1.999 4.88a1.999 1.999 0 0 1-1.901 2.617z"></path><path d="M38.22 75.45a2 2 0 0 1-1.957-1.596c-.477-2.311-7.649-34.64-8.795-39.804-.19-.046-.497-.075-.94-.021-.259.031-.602.532-.796.945.263 2.861 1.684 18.308 2.343 23.794a2 2 0 1 1-3.971.477c-.731-6.082-2.381-24.184-2.397-24.365a2.02 2.02 0 0 1 .077-.758c.113-.377 1.197-3.695 4.27-4.064 3.552-.425 4.826 1.654 4.959 1.893.096.17.165.353.207.543.345 1.552 8.44 38.025 8.962 40.553a2 2 0 0 1-1.962 2.403z"></path><path d="M36.462 94.681a2.001 2.001 0 0 1-.86-3.807c2.774-1.318 4.439-4.622 4.837-6.394.07-.318.119-.635.17-.956.267-1.694.598-3.803 3.318-7.169 3.45-4.269 6.869-5.123 8.512-5.534 1.149-.289 2.416.01 3.642.298.293.069.693.163 1.045.229-.064-.514-.418-1.048-1.471-1.977-1.757-1.551-6.261-.682-8.471.573-5.374 3.054-8.939 1.729-10.985.079a2 2 0 0 1 2.511-3.113c1.567 1.266 3.755 1.116 6.497-.443 2.516-1.431 9.309-3.438 13.094-.095 2.06 1.815 3.3 3.643 2.656 6.66-.173.81-.618 1.463-1.289 1.888-1.323.84-2.939.461-4.503.094-.554-.131-1.481-.353-1.78-.307-1.383.347-3.738.936-6.347 4.162-2.047 2.533-2.257 3.865-2.479 5.276-.063.405-.128.802-.218 1.207-.701 3.126-3.197 7.316-7.023 9.135a1.979 1.979 0 0 1-.856.194zM85.429 46.693c-.952 0-1.852-.127-2.562-.3a2 2 0 0 1 .937-3.889c1.053.249 3.291.371 3.695-.469.809-1.685.561-3.805.32-5.855a53.288 53.288 0 0 1-.161-1.5 2 2 0 0 1 3.984-.352c.04.45.095.914.149 1.387.277 2.371.623 5.322-.688 8.052-1.087 2.271-3.515 2.926-5.674 2.926z"></path><path d="M78.299 49.843c-.949 0-1.847-.127-2.555-.299a2 2 0 0 1 .936-3.889c1.053.248 3.294.369 3.696-.472.808-1.681.561-3.797.321-5.843a54.176 54.176 0 0 1-.161-1.514 1.999 1.999 0 0 1 1.818-2.166c1.097-.112 2.07.719 2.166 1.818.04.453.095.921.15 1.397.276 2.367.62 5.313-.689 8.04-1.09 2.273-3.522 2.928-5.682 2.928zM92.51 41.896c-1.177 0-2.32-.305-2.74-.43a2 2 0 0 1 1.142-3.834c.667.195 1.567.316 1.854.249.173-.058.681-.225.924-1.087 1.438-5.046-1.053-19.463-1.879-22.117-.389-1.249-1.971-2.856-2.916-3.817-.555-.563-.956-.971-1.229-1.363-.713-1.031-1.636-3.756-1.999-4.88a1.999 1.999 0 0 1 1.286-2.519 1.998 1.998 0 0 1 2.519 1.286c.54 1.664 1.232 3.456 1.482 3.835.091.123.479.518.792.835 1.277 1.298 3.208 3.26 3.885 5.435.634 2.035 3.809 17.729 1.908 24.397-.528 1.87-1.785 3.222-3.539 3.8-.466.153-.981.21-1.49.21z"></path><path d="M74.154 69.349c-2.856 0-3.916-1.732-4.037-1.949a1.966 1.966 0 0 1-.207-.543c-.345-1.552-8.44-38.025-8.962-40.553a2 2 0 1 1 3.918-.808c.477 2.311 7.649 34.64 8.795 39.804.19.046.497.075.94.021.259-.031.602-.532.796-.945-.263-2.861-1.684-18.308-2.343-23.794a2 2 0 1 1 3.971-.477c.731 6.082 2.381 24.184 2.397 24.365a2.02 2.02 0 0 1-.077.758c-.113.377-1.197 3.695-4.27 4.064a7.733 7.733 0 0 1-.921.057z"></path><path d="M48.375 34.801c-2.021 0-4.026-.479-5.548-1.823-2.06-1.815-3.3-3.643-2.656-6.66.173-.81.618-1.463 1.289-1.888 1.323-.839 2.939-.461 4.503-.094.553.131 1.484.354 1.78.307 1.383-.347 3.738-.936 6.347-4.162 2.047-2.533 2.257-3.865 2.479-5.276.063-.405.128-.802.218-1.207.701-3.126 3.197-7.316 7.023-9.135a2 2 0 0 1 1.717 3.613c-2.774 1.318-4.439 4.622-4.837 6.394-.07.318-.119.635-.17.956-.267 1.694-.598 3.803-3.318 7.169-3.45 4.269-6.869 5.123-8.512 5.534-1.15.288-2.416-.01-3.642-.298a24.481 24.481 0 0 0-1.045-.229c.064.514.418 1.048 1.471 1.977 1.759 1.551 6.262.684 8.471-.573 5.375-3.054 8.939-1.729 10.985-.079a2 2 0 0 1-2.511 3.113c-1.566-1.266-3.755-1.115-6.497.443-1.506.855-4.541 1.918-7.547 1.918z"></path></g><!-- -->
</svg>