<svg version="1.1" id="Layer_1" xmlns:x="ns_extend;" xmlns:i="ns_ai;" xmlns:graph="ns_graphs;" xmlns="http://www.w3.org/2000/svg" xmlns:xlink="http://www.w3.org/1999/xlink" x="0px" y="0px" viewBox="0 0 251.8 48" style="enable-background:new 0 0 251.8 48;" xml:space="preserve">
 <style type="text/css">
  .st0{fill:#29363D;}
	.st1{fill:#6363F1;}
 </style>
 <metadata>
  <sfw xmlns="ns_sfw;">
   <slices>
   </slices>
   <sliceSourceBounds bottomLeftOrigin="true" height="48" width="251.8" x="55.4" y="-228.6">
   </sliceSourceBounds>
  </sfw>
 </metadata>
 <g>
  <path id="logo-text" class="st0" d="M73,7.2h7l5,20.6c0.9,3.9,1.1,6.2,1.1,6.2h0.1c0,0,0.3-2.3,1.3-6.2l4.8-20.6h7.9l5.1,20.6
		c1,4,1.2,6.2,1.2,6.2h0.1c0,0,0.1-2.2,1-6.2l4.8-20.6h7l-8.8,33.9h-7.7l-5.3-20.5c-1.1-4.5-1.2-6.4-1.2-6.4h-0.1c0,0-0.1,2-1.1,6.4
		l-5,20.5h-8C82,41.1,73,7.2,73,7.2z M118.2,28.8c0-7.7,5-12.8,12.6-12.8c7.5,0,12.5,5,12.5,12.8c0,7.8-5,12.8-12.5,12.8
		C123.2,41.6,118.2,36.6,118.2,28.8L118.2,28.8z M136.8,28.8c0-5-2.4-7.8-6-7.8c-3.9,0-6.1,3.2-6.1,7.8c0,5.1,2.4,7.9,6.1,7.9
		C134.6,36.7,136.8,33.6,136.8,28.8L136.8,28.8z M146.4,16.4h6.2V21h0.1c1.1-2.4,3.6-4.7,8-4.7c0.7,0,1.2,0.1,1.5,0.2v6.2H162
		c0,0-0.6-0.2-2.1-0.2c-4.8,0-7.4,2.8-7.4,8.1v10.6h-6.2V16.4z M165.1,7.2h6.2v10.9c0,6.4-0.1,7.6-0.1,7.6h0.1l9.2-9.2h7.7
		l-10.8,10.7l12.5,14h-7.3l-9-10.2l-2.3,2.3v7.9H165L165.1,7.2L165.1,7.2z M189.9,24.3c0-10.4,6.5-17.4,16.2-17.4s16.2,7,16.2,17.4
		s-6.5,17.4-16.2,17.4C196.4,41.7,189.9,34.7,189.9,24.3z M215.7,24.3c0-7.1-3.8-11.9-9.5-11.9c-5.7,0-9.5,4.8-9.5,11.9
		s3.8,11.9,9.5,11.9C211.8,36.2,215.7,31.4,215.7,24.3z M224.7,29.8h7.1c0,4,2.7,6.2,6.9,6.2c3.5,0,5.9-1.8,5.9-4.3
		c0-2.8-1.9-3.6-7.7-4.7c-5.4-1.1-11.1-2.9-11.1-9.9c0-5.9,5-10.3,12.7-10.3c8,0,12.9,4.2,12.9,10.5h-7.1c0-3.1-2.4-5-5.8-5
		c-3.5,0-5.7,1.7-5.7,4.2c0,2.6,1.5,3.7,6.3,4.6c7,1.5,12.8,2.3,12.8,10.1c0,6.2-5.4,10.3-13.3,10.3
		C230.4,41.5,224.7,36.9,224.7,29.8z">
  </path>
  <path id="logo-icon" class="st1" d="M0,24c0,1.1,0.3,2.1,0.8,3l9.7,16.8c1,1.7,2.5,3.1,4.4,3.7c3.6,1.2,7.5-0.3,9.4-3.5l2.3-4.1
		l-9.2-16l9.8-16.9L29.5,3c0.7-1.2,1.6-2.2,2.7-3H17.2c-2.6,0-5.1,1.4-6.4,3.7L0.8,21C0.3,21.9,0,22.9,0,24z">
  </path>
  <path id="logo-icon_1_" class="st1" d="M55.4,24c0-1.1-0.3-2.1-0.8-3l-9.8-17c-1.9-3.3-5.8-4.7-9.4-3.5c-1.9,0.6-3.4,2-4.4,3.7
		L28.7,8L38,24l-9.8,16.9L25.9,45c-0.7,1.2-1.6,2.2-2.7,3h15.1c2.6,0,5.1-1.4,6.4-3.7l10-17.3C55.1,26.1,55.4,25.1,55.4,24z">
  </path>
 </g>
</svg>