<svg width="377" height="64" viewBox="0 0 171 29" fill="#000000" xmlns="http://www.w3.org/2000/svg" class="navigationstyles__Lockup-o9u2ti-15 drwLSU" xmlns:xlink="http://www.w3.org/1999/xlink">
 <g>
  <path d="M51.2949 13.92L45.8097 4.47284H41.9041L49.3997 18.1421V24.5732H53.2482V17.9979L60.569 4.47284H56.6923L51.2949 13.92Z">
  </path>
  <path d="M74.176 4.47284L65.3591 24.5732H69.3517L71.1318 20.3248H80.9517L82.7327 24.5732H86.8678L78.1669 4.47284H74.176ZM72.5102 17.0205L76.0704 8.57975L79.5734 17.0205H72.5102Z">
  </path>
  <path d="M109.337 6.28278C107.948 5.07672 105.992 4.47284 103.463 4.47284H95.2231V24.5732H99.0716V18.6573H103.463C105.992 18.6573 107.948 18.0227 109.337 16.7492C110.725 15.4758 111.417 13.6914 111.417 11.3945C111.418 9.19216 110.725 7.48884 109.337 6.28278ZM106.609 14.3226C105.833 14.9538 104.718 15.2702 103.263 15.2702H99.0716V7.83257H103.263C104.718 7.83257 105.833 8.13878 106.609 8.75119C107.384 9.36446 107.771 10.2831 107.771 11.5088C107.772 12.7532 107.384 13.6906 106.609 14.3226Z">
  </path>
  <path d="M123.709 4.47284H119.861V24.5724H123.709V4.47284Z">
  </path>
  <path d="M138.351 4.47284H134.505V24.5732H147.023V21.0984H138.351V4.47284Z">
  </path>
  <path d="M166.358 4.47284L160.96 13.92L155.475 4.47284H151.571L159.066 18.1421V24.5732H162.913V17.9988L170.236 4.47284H166.358Z">
  </path>
  <path d="M24.4691 0.047712C21.8318 0.0835355 19.7225 2.25001 19.7575 4.88645L19.801 8.07559C19.8078 8.64024 19.5912 9.18442 19.198 9.58956L19.0402 9.75162C18.6461 10.1585 18.1053 10.3922 17.539 10.399L17.0886 10.4058C17.0895 10.4058 17.0895 10.4067 17.0895 10.4084C16.3432 9.92904 15.4518 9.65439 14.4983 9.66633C13.6811 9.67742 12.916 9.89748 12.2508 10.2753C12.1032 10.2685 11.9582 10.2557 11.8089 10.2574L11.7578 10.2583C11.194 10.2659 10.6489 10.0502 10.2446 9.65609C9.83693 9.26118 9.60493 8.72127 9.5964 8.15407L9.55205 4.76277C9.51623 2.12633 7.34976 0.0161531 4.71161 0.0511237C2.07431 0.0860943 -0.0358624 2.25342 -3.88295e-05 4.89071C0.0349318 7.52801 2.20226 9.63733 4.8387 9.60236L8.02784 9.55971C8.59249 9.55204 9.13667 9.76868 9.54181 10.1627L9.70473 10.3197C10.1107 10.7154 10.3436 11.2571 10.3513 11.8226L10.3581 12.2721C10.3598 12.2712 10.3615 12.2704 10.3632 12.2695C10.0408 12.9169 9.86081 13.647 9.8702 14.4206C9.88299 15.3452 10.1662 16.2033 10.6387 16.9249C10.6378 17.0136 10.6285 17.1014 10.6285 17.1918L10.6293 17.2422C10.6361 17.8068 10.4203 18.351 10.0263 18.7553C9.63223 19.1638 9.09146 19.3958 8.52511 19.4035L5.13467 19.4479C2.49652 19.482 0.387196 21.6493 0.422167 24.2874C0.457138 26.9256 2.62531 29.0341 5.26176 28.9991C7.8999 28.965 10.0092 26.7968 9.9734 24.1587L9.93161 20.9704C9.92393 20.4066 10.1406 19.8615 10.5338 19.4564L10.6907 19.2952C11.0865 18.8875 11.6264 18.6546 12.1936 18.6478L12.6423 18.6418C12.6414 18.6384 12.6388 18.6342 12.6371 18.6299C13.2427 18.9037 13.9148 19.0564 14.6228 19.0461C17.2132 19.012 19.2841 16.8831 19.25 14.2935C19.244 13.8253 19.1673 13.3732 19.0333 12.9484C19.0768 12.5911 19.1058 12.2277 19.1016 11.8567V11.8055C19.0948 11.2417 19.3105 10.6967 19.7038 10.2924C20.0978 9.88468 20.6386 9.65268 21.2058 9.64415L24.5971 9.5998C27.2344 9.56398 29.3445 7.39751 29.3096 4.75936C29.2738 2.12206 27.1064 0.0110355 24.4691 0.047712Z">
  </path>
 </g>
</svg>