<svg version="1.1" id="Layer_1" xmlns="http://www.w3.org/2000/svg" xmlns:xlink="http://www.w3.org/1999/xlink" x="0px" y="0px" viewBox="374.9 471.6 468.6 138.4" style="enable-background:new 374.9 471.6 468.6 138.4;" xml:space="preserve">
 <g id="Layer_1_1_">
  <path d="M482.1,471.6h-45l13.9,43.3h45l-36.4,25.8l13.9,43.5l0,0c23.5-17.1,31.1-42.9,22.5-69.4L482.1,471.6z M378.3,514.9h45
		l13.9-43.3h-45L378.3,514.9L378.3,514.9c-8.6,26.5-0.9,52.3,22.5,69.4l0,0l13.9-43.5L378.3,514.9z M400.8,584.2l36.4,25.8
		l36.4-25.8L437.2,558L400.8,584.2z M740.1,513.8c-10.6,0-17.4,4.8-20.6,12.7h-0.8v-35.6h-16V584H719v-40.5c0-10,6.2-15.8,15-15.8
		c8.6,0,13.6,5.5,13.6,14.8V584H764v-44.1C764,523.1,754.5,513.8,740.1,513.8z M808.1,490.7c-22.1,0-35.4,17.3-35.4,47.3
		c0,30,13.2,47.6,35.4,47.6s35.4-17.5,35.4-47.6C843.5,508,830.2,490.7,808.1,490.7L808.1,490.7z M789.5,538
		c0-21.9,7.2-33.4,18.6-33.4c7.8,0,13.6,5.4,16.5,15.7l-34.8,25.3C789.6,543.2,789.5,540.7,789.5,538z M808.1,571.6
		c-8,0-14-5.7-16.8-16.8l35-25.4c0.3,2.9,0.4,5.7,0.4,8.6C826.7,560.1,819.6,571.6,808.1,571.6z M629.3,554.9
		c0,10.5-7.5,15.8-14.7,15.8c-7.8,0-13.1-5.5-13.1-14.3v-41.6h-16.3v44.1c0,16.6,9.5,26.1,23.1,26.1c10.4,0,17.7-5.5,20.8-13.2h0.7
		V584h15.8v-69.2h-16.3V554.9z M548.3,513.7c-14.6,0-25.7,6.5-29.3,19.1l15.2,2.2c1.6-4.7,6.2-8.8,14.2-8.8
		c7.6,0,11.7,3.9,11.7,10.7v0.3c0,4.7-4.9,4.9-17.1,6.2c-13.4,1.4-26.3,5.4-26.3,21c0,13.6,10,20.8,23.2,20.8
		c10.9,0,17.3-5.1,20.3-10.9h0.5v9.5h15.7v-46.3C576.4,519.2,561.5,513.7,548.3,513.7L548.3,513.7z M560.1,559
		c0,7.7-6.2,14.2-16,14.2c-6.8,0-11.7-3.1-11.7-9.1c0-6.3,5.5-8.9,12.8-9.9c4.3-0.6,12.8-1.7,15-3.4L560.1,559z M680.5,497.5h-16.3
		v17.3h-9.9v13h9.9v38.3c-0.1,13,9.4,19.4,21.6,19.1c2.8-0.1,5.6-0.5,8.3-1.2V571c-1.2,0.2-4.1,0.5-6.2,0.6c-4.1,0.1-7.4-1.4-7.4-8
		v-35.8h13.7v-13h-13.7V497.5z">
  </path>
 </g>
</svg>