<svg viewBox="0 0 153.82001 24.002188" xmlns="http://www.w3.org/2000/svg">
<g>
<path d="M 11.35,0 H 0 v 11.35 h 11.35 z" fill="#f26522"></path>
<path d="M 23.88,0 H 12.53 v 11.35 h 11.35 z" fill="#8dc63f"></path>
<path d="M 11.35,12.53 H 0 v 11.35 h 11.35 z" fill="#00aeef"></path>
<path d="M 23.88,12.53 H 12.53 v 11.35 h 11.35 z" fill="#ffc20e"></path>
</g>
<g fill="#737373">
<path d="M 46.55,4.77 V 19.1 H 44.07 V 7.87 H 44.02 L 39.59,19.1 H 37.94 L 33.37,7.87 H 33.34 V 19.1 h -2.3 V 4.77 h 3.57 l 4.11,10.62 h 0.06 L 43.13,4.77 Z m 2.08,1.1 c 0,-0.4 0.15,-0.74 0.44,-1.01 0.29,-0.27 0.63,-0.4 1.03,-0.4 a 1.44,1.44 0 0 1 1.48,1.4 c 0,0.4 -0.14,0.73 -0.43,1 -0.28,0.26 -0.64,0.4 -1.05,0.4 -0.41,0 -0.76,-0.14 -1.04,-0.41 C 48.77,6.58 48.63,6.25 48.63,5.86 Z M 51.3,8.83 V 19.1 H 48.88 V 8.83 Z m 7.34,8.51 c 0.35,0 0.75,-0.08 1.18,-0.24 0.44,-0.17 0.84,-0.39 1.2,-0.66 v 2.24 c -0.38,0.22 -0.82,0.4 -1.3,0.5 A 7.2,7.2 0 0 1 58.1,19.35 4.97,4.97 0 0 1 54.4,17.92 4.99,4.99 0 0 1 53,14.26 c 0,-1.65 0.48,-3.01 1.45,-4.08 0.96,-1.07 2.33,-1.6 4.1,-1.6 a 5.62,5.62 0 0 1 2.48,0.58 v 2.31 a 5,5 0 0 0 -1.14,-0.63 3.32,3.32 0 0 0 -1.2,-0.23 c -0.95,0 -1.72,0.31 -2.3,0.93 -0.58,0.62 -0.89,1.46 -0.89,2.51 0,1.04 0.29,1.85 0.85,2.43 0.56,0.58 1.33,0.86 2.3,0.86 z m 9.27,-8.68 a 2.54,2.54 0 0 1 0.91,0.14 v 2.45 a 2.56,2.56 0 0 0 -1.44,-0.4 c -0.6,0 -1.1,0.26 -1.5,0.76 -0.4,0.5 -0.62,1.27 -0.62,2.3 v 5.2 H 62.84 V 8.82 h 2.42 v 1.62 h 0.04 c 0.22,-0.56 0.56,-1 1,-1.31 0.45,-0.32 0.98,-0.48 1.6,-0.48 z m 1.04,5.46 c 0,-1.7 0.48,-3.05 1.44,-4.04 0.96,-0.99 2.3,-1.49 4,-1.49 1.6,0 2.85,0.48 3.76,1.43 0.91,0.95 1.35,2.25 1.35,3.88 0,1.66 -0.48,2.99 -1.44,3.97 a 5.22,5.22 0 0 1 -3.92,1.48 c -1.59,0 -2.85,-0.47 -3.79,-1.4 a 5.17,5.17 0 0 1 -1.4,-3.83 z m 2.52,-0.08 c 0,1.07 0.24,1.89 0.73,2.46 0.49,0.57 1.18,0.84 2.09,0.84 0.87,0 1.54,-0.28 2,-0.84 0.46,-0.56 0.7,-1.41 0.7,-2.52 0,-1.1 -0.24,-1.94 -0.72,-2.5 a 2.48,2.48 0 0 0 -2,-0.85 c -0.89,0 -1.57,0.3 -2.06,0.88 -0.5,0.6 -0.74,1.44 -0.74,2.53 z M 83.1,11.53 c 0,0.35 0.1,0.62 0.33,0.82 0.22,0.2 0.7,0.44 1.46,0.74 0.96,0.39 1.64,0.82 2.03,1.3 0.39,0.49 0.58,1.07 0.58,1.76 0,0.96 -0.37,1.74 -1.11,2.33 -0.74,0.59 -1.75,0.88 -3.01,0.88 A 7.25,7.25 0 0 1 80.65,18.8 v -2.37 c 0.44,0.3 0.91,0.55 1.42,0.73 0.5,0.18 0.97,0.27 1.38,0.27 0.55,0 0.95,-0.08 1.21,-0.23 0.26,-0.16 0.39,-0.41 0.39,-0.77 0,-0.34 -0.14,-0.62 -0.4,-0.85 -0.28,-0.23 -0.79,-0.5 -1.54,-0.8 -0.89,-0.37 -1.52,-0.79 -1.9,-1.26 -0.38,-0.47 -0.56,-1.05 -0.56,-1.77 0,-0.93 0.37,-1.7 1.1,-2.29 0.75,-0.6 1.7,-0.9 2.87,-0.9 A 7.06,7.06 0 0 1 86.95,9 v 2.3 c -0.32,-0.22 -0.7,-0.4 -1.12,-0.56 a 3.74,3.74 0 0 0 -1.27,-0.23 c -0.46,0 -0.82,0.1 -1.07,0.27 a 0.86,0.86 0 0 0 -0.4,0.75 z m 5.44,2.59 c 0,-1.7 0.48,-3.05 1.44,-4.04 a 5.3,5.3 0 0 1 4,-1.49 c 1.6,0 2.86,0.48 3.76,1.43 0.9,0.95 1.35,2.25 1.35,3.88 0,1.66 -0.48,2.99 -1.44,3.97 a 5.22,5.22 0 0 1 -3.91,1.48 c -1.6,0 -2.86,-0.47 -3.8,-1.4 a 5.17,5.17 0 0 1 -1.4,-3.83 z m 2.52,-0.08 c 0,1.07 0.24,1.89 0.73,2.46 0.49,0.57 1.18,0.84 2.1,0.84 0.87,0 1.54,-0.28 2,-0.84 0.46,-0.56 0.7,-1.41 0.7,-2.52 0,-1.1 -0.25,-1.94 -0.72,-2.5 a 2.48,2.48 0 0 0 -2,-0.85 c -0.89,0 -1.58,0.3 -2.07,0.88 a 3.8,3.8 0 0 0 -0.74,2.53 z m 16.06,-3.23 h -3.6 v 8.3 h -2.45 v -8.3 H 99.35 V 8.83 h 1.72 V 7.4 a 3.56,3.56 0 0 1 3.75,-3.69 c 0.3,0 0.56,0.02 0.78,0.05 0.23,0.03 0.43,0.08 0.6,0.14 v 2.09 a 2.42,2.42 0 0 0 -1.1,-0.27 c -0.51,0 -0.9,0.16 -1.18,0.47 -0.27,0.32 -0.4,0.78 -0.4,1.4 v 1.25 h 3.6 V 6.53 l 2.42,-0.74 V 8.84 H 112 v 1.97 h -2.45 v 4.8 c 0,0.64 0.12,1.09 0.35,1.35 0.23,0.26 0.59,0.39 1.08,0.39 A 2.35,2.35 0 0 0 112,17.01 v 2 c -0.15,0.09 -0.4,0.17 -0.76,0.24 -0.36,0.07 -0.7,0.1 -1.06,0.1 -1.01,0 -1.78,-0.26 -2.29,-0.8 -0.5,-0.55 -0.76,-1.36 -0.76,-2.46 v -5.28 z"></path>
<path d="M 117.5,19.24 V 5.07 h 4.5 c 1.37,0 2.46,0.3 3.26,0.9 0.8,0.6 1.2,1.38 1.2,2.34 0,0.8 -0.23,1.5 -0.68,2.1 a 3.68,3.68 0 0 1 -1.89,1.26 v 0.04 c 0.98,0.11 1.75,0.47 2.33,1.09 0.59,0.6 0.88,1.4 0.88,2.37 0,1.21 -0.48,2.2 -1.43,2.94 -0.95,0.74 -2.16,1.13 -3.62,1.13 z m 2.35,-12.28 v 4.03 h 1.52 c 0.82,0 1.46,-0.2 1.92,-0.57 0.47,-0.4 0.7,-0.94 0.7,-1.64 0,-1.22 -0.81,-1.82 -2.43,-1.82 z m 0,5.92 v 4.48 h 2 c 0.88,0 1.56,-0.2 2.03,-0.6 0.48,-0.41 0.72,-0.97 0.72,-1.68 0,-1.47 -1.01,-2.2 -3.05,-2.2 z M 129.97,7 c -0.37,0 -0.7,-0.13 -0.96,-0.37 -0.27,-0.24 -0.4,-0.55 -0.4,-0.93 0,-0.38 0.13,-0.69 0.4,-0.94 0.27,-0.25 0.59,-0.37 0.97,-0.37 0.38,0 0.71,0.12 0.98,0.37 0.27,0.25 0.4,0.57 0.4,0.94 0,0.36 -0.13,0.66 -0.4,0.92 -0.27,0.25 -0.6,0.38 -0.99,0.38 z m 1.14,12.24 h -2.29 V 9.12 h 2.3 z m 11.35,0 h -2.29 v -5.7 c 0,-1.9 -0.67,-2.84 -2,-2.84 -0.7,0 -1.28,0.27 -1.74,0.8 a 2.9,2.9 0 0 0 -0.68,1.97 v 5.77 h -2.3 V 9.12 h 2.3 v 1.68 h 0.04 a 3.6,3.6 0 0 1 3.28,-1.92 c 1.1,0 1.94,0.36 2.52,1.08 0.58,0.71 0.87,1.74 0.87,3.1 z m 11.35,-0.81 c 0,3.71 -1.86,5.57 -5.6,5.57 a 8.35,8.35 0 0 1 -3.45,-0.66 v -2.1 c 1.1,0.64 2.16,0.95 3.15,0.95 2.4,0 3.61,-1.18 3.61,-3.55 v -1.1 h -0.04 a 3.71,3.71 0 0 1 -3.42,1.93 3.72,3.72 0 0 1 -2.98,-1.34 5.49,5.49 0 0 1 -1.13,-3.63 c 0,-1.72 0.4,-3.08 1.22,-4.1 0.82,-1.02 1.92,-1.52 3.34,-1.52 1.33,0 2.32,0.55 2.97,1.64 h 0.04 v -1.4 h 2.3 z m -2.27,-3.82 v -1.32 c 0,-0.71 -0.24,-1.32 -0.71,-1.82 a 2.3,2.3 0 0 0 -1.76,-0.76 c -0.87,0 -1.55,0.33 -2.04,0.97 a 4.34,4.34 0 0 0 -0.74,2.69 c 0,1 0.24,1.79 0.7,2.39 0.48,0.6 1.1,0.89 1.88,0.89 0.8,0 1.44,-0.29 1.93,-0.85 0.5,-0.58 0.74,-1.3 0.74,-2.2 z"></path>
</g>
</svg>