<svg width="426" height="76" viewBox="0 0 426 76" fill="none" xmlns="http://www.w3.org/2000/svg" xmlns:xlink="http://www.w3.org/1999/xlink">
 <path fill-rule="evenodd" clip-rule="evenodd" d="M386.327 21.0563H392.421V47.0074H386.327V21.0563ZM389.398 16.7797C388.293 16.7797 387.367 16.4395 386.619 15.7592C385.872 15.0464 385.498 14.1716 385.498 13.1349C385.498 12.0981 385.872 11.2396 386.619 10.5592C387.367 9.84646 388.293 9.49008 389.398 9.49008C390.504 9.49008 391.43 9.83026 392.178 10.5106C392.925 11.1586 393.299 11.9848 393.299 12.9891C393.299 14.0582 392.925 14.9654 392.178 15.7106C391.462 16.4233 390.536 16.7797 389.398 16.7797ZM377.349 47.3476C376.244 47.3476 375.301 46.975 374.521 46.2298C373.741 45.4523 373.351 44.4803 373.351 43.314C373.351 42.1152 373.725 41.1433 374.473 40.3981C375.253 39.653 376.212 39.2804 377.349 39.2804C378.487 39.2804 379.429 39.653 380.177 40.3981C380.957 41.1433 381.347 42.1152 381.347 43.314C381.347 44.4803 380.957 45.4523 380.177 46.2298C379.397 46.975 378.454 47.3476 377.349 47.3476ZM404.028 45.6467C406.141 46.7806 408.513 47.3476 411.146 47.3476C413.811 47.3476 416.2 46.7806 418.313 45.6467C420.426 44.5127 422.067 42.9414 423.237 40.9327C424.44 38.8916 425.041 36.5913 425.041 34.0318C425.041 31.4724 424.44 29.1883 423.237 27.1796C422.067 25.1709 420.426 23.5996 418.313 22.4656C416.2 21.3317 413.811 20.7647 411.146 20.7647C408.513 20.7647 406.141 21.3317 404.028 22.4656C401.915 23.5996 400.258 25.1709 399.055 27.1796C397.885 29.1883 397.3 31.4724 397.3 34.0318C397.3 36.5913 397.885 38.8916 399.055 40.9327C400.258 42.9414 401.915 44.5127 404.028 45.6467ZM416.704 39.9121C415.242 41.4025 413.389 42.1476 411.146 42.1476C408.903 42.1476 407.051 41.4025 405.588 39.9121C404.158 38.4218 403.443 36.4617 403.443 34.0318C403.443 31.602 404.158 29.6419 405.588 28.1515C407.051 26.6612 408.903 25.9161 411.146 25.9161C413.389 25.9161 415.242 26.6612 416.704 28.1515C418.167 29.6419 418.898 31.602 418.898 34.0318C418.898 36.4617 418.167 38.4218 416.704 39.9121ZM244.415 45.6095C243.705 46.1889 242.834 46.6234 241.802 46.9131C240.801 47.2028 239.736 47.3476 238.607 47.3476C235.768 47.3476 233.573 46.6073 232.025 45.1267C230.476 43.6461 229.701 41.4896 229.701 38.6572V15.531H235.751V21.4212H242.673V26.2492H235.751V38.5123C235.751 39.7676 236.058 40.7332 236.671 41.4092C237.284 42.0529 238.171 42.3748 239.333 42.3748C240.688 42.3748 241.818 42.0207 242.721 41.3126L244.415 45.6095ZM157.071 47.3476C154.393 47.3476 151.989 46.7843 149.86 45.6578C147.73 44.5313 146.068 42.9702 144.874 40.9746C143.68 38.9469 143.083 36.6616 143.083 34.1188C143.083 31.5761 143.68 29.3069 144.874 27.3113C146.068 25.3158 147.714 23.7547 149.811 22.6282C151.941 21.5016 154.361 20.9384 157.071 20.9384C159.62 20.9384 161.847 21.4534 163.751 22.4833C165.687 23.5133 167.139 24.9939 168.107 26.9251L163.46 29.6288C162.718 28.4379 161.782 27.5527 160.653 26.9734C159.556 26.3618 158.346 26.0561 157.023 26.0561C154.764 26.0561 152.893 26.7964 151.408 28.2769C149.924 29.7253 149.182 31.6727 149.182 34.1188C149.182 36.565 149.908 38.5284 151.36 40.009C152.844 41.4574 154.732 42.1816 157.023 42.1816C158.346 42.1816 159.556 41.892 160.653 41.3126C161.782 40.701 162.718 39.7998 163.46 38.6089L168.107 41.3126C167.106 43.2438 165.638 44.7405 163.702 45.8026C161.798 46.8326 159.588 47.3476 157.071 47.3476ZM206.947 46.5268C208.947 47.074 210.996 47.3476 213.094 47.3476C216.708 47.3476 219.563 46.6234 221.661 45.175C223.758 43.7266 224.807 41.7954 224.807 39.3814C224.807 37.5467 224.323 36.1305 223.355 35.1327C222.419 34.1349 221.289 33.4268 219.967 33.0084C218.644 32.59 216.95 32.2198 214.884 31.898C212.819 31.5439 211.287 31.1738 210.286 30.7875C209.318 30.3691 208.834 29.6771 208.834 28.7115C208.834 27.8424 209.286 27.1504 210.19 26.6354C211.125 26.0882 212.481 25.8147 214.255 25.8147C216.998 25.8147 219.466 26.4584 221.661 27.7459L223.984 23.1593C222.854 22.4833 221.402 21.9522 219.628 21.566C217.853 21.1476 216.078 20.9384 214.304 20.9384C210.819 20.9384 208.044 21.6787 205.979 23.1593C203.946 24.6077 202.929 26.555 202.929 29.0011C202.929 30.868 203.414 32.3325 204.382 33.3946C205.382 34.4246 206.543 35.1488 207.866 35.5673C209.222 35.9857 210.964 36.3558 213.094 36.6777C215.126 36.9996 216.595 37.3375 217.498 37.6916C218.434 38.0456 218.902 38.6733 218.902 39.5745C218.902 41.4735 217.095 42.423 213.481 42.423C211.9 42.423 210.286 42.1977 208.641 41.7471C207.027 41.2643 205.64 40.6367 204.478 39.8642L202.155 44.4508C203.349 45.2877 204.946 45.9797 206.947 46.5268ZM253.091 45.6578C255.188 46.7843 257.544 47.3476 260.157 47.3476C262.803 47.3476 265.175 46.7843 267.272 45.6578C269.37 44.5313 270.999 42.9702 272.161 40.9746C273.355 38.9469 273.952 36.6616 273.952 34.1188C273.952 31.5761 273.355 29.3069 272.161 27.3113C270.999 25.3158 269.37 23.7547 267.272 22.6282C265.175 21.5016 262.803 20.9384 260.157 20.9384C257.544 20.9384 255.188 21.5016 253.091 22.6282C250.994 23.7547 249.348 25.3158 248.154 27.3113C246.992 29.3069 246.412 31.5761 246.412 34.1188C246.412 36.6616 246.992 38.9469 248.154 40.9746C249.348 42.9702 250.994 44.5313 253.091 45.6578ZM265.675 39.9607C264.223 41.4413 262.384 42.1816 260.157 42.1816C257.931 42.1816 256.092 41.4413 254.64 39.9607C253.22 38.4802 252.51 36.5329 252.51 34.1188C252.51 31.7048 253.22 29.7575 254.64 28.2769C256.092 26.7964 257.931 26.0561 260.157 26.0561C262.384 26.0561 264.223 26.7964 265.675 28.2769C267.127 29.7575 267.853 31.7048 267.853 34.1188C267.853 36.5329 267.127 38.4802 265.675 39.9607ZM312.359 20.9384C315.618 20.9384 318.199 21.8879 320.103 23.7869C322.007 25.6537 322.959 28.4701 322.959 32.2359V47.0096H316.909V33.0084C316.909 30.7553 316.409 29.0655 315.408 27.939C314.408 26.7803 312.972 26.2009 311.101 26.2009C309.068 26.2009 307.438 26.8768 306.212 28.2287C304.986 29.5483 304.373 31.4473 304.373 33.9257V47.0096H298.323V33.0084C298.323 30.7553 297.823 29.0655 296.822 27.939C295.822 26.7803 294.386 26.2009 292.515 26.2009C290.45 26.2009 288.804 26.8607 287.578 28.1804C286.384 29.5 285.787 31.4152 285.787 33.9257V47.0096H279.737V32.583C279.737 25.3508 285.214 20.9384 292.374 20.9384C294.31 20.9384 297.613 21.3085 299.097 22.0488C300.614 22.7569 301.808 23.8191 302.679 25.2353C303.744 23.8835 305.115 22.8374 306.793 22.0971C308.471 21.3246 310.326 20.9384 312.359 20.9384ZM355.127 36.0501C355.191 35.2776 355.224 34.6821 355.224 34.2637C355.224 31.6244 354.659 29.3069 353.53 27.3113C352.432 25.2836 350.884 23.7225 348.883 22.6282C346.915 21.5016 344.672 20.9384 342.155 20.9384C339.606 20.9384 337.315 21.5016 335.282 22.6282C333.25 23.7547 331.652 25.3319 330.491 27.3596C329.361 29.3552 328.797 31.6083 328.797 34.1188C328.797 36.6616 329.378 38.9469 330.539 40.9746C331.733 42.9702 333.411 44.5313 335.573 45.6578C337.735 46.7843 340.235 47.3476 343.075 47.3476C345.301 47.3476 347.302 46.9936 349.077 46.2854C350.851 45.5773 352.32 44.5313 353.481 43.1472L350.238 39.4297C348.399 41.2965 346.06 42.2299 343.22 42.2299C340.994 42.2299 339.122 41.6827 337.606 40.5884C336.121 39.4618 335.202 37.9491 334.847 36.0501H355.127ZM337.219 27.5045C338.574 26.3457 340.219 25.7664 342.155 25.7664C344.124 25.7664 345.769 26.3457 347.092 27.5045C348.415 28.6632 349.206 30.176 349.464 32.0428H334.798C335.089 30.1438 335.896 28.631 337.219 27.5045ZM375.991 20.9384V26.6837C375.475 26.5871 375.007 26.5389 374.587 26.5389C372.232 26.5389 370.393 27.2309 369.07 28.6149C367.747 29.9668 367.085 31.9301 367.085 34.5051V47.0096H361.035V34.01C361.035 24.5863 367.085 19.7578 375.991 20.9384ZM185.128 47.3477C181.682 47.3438 177.998 46.3943 176.001 44.4992C174.033 42.568 173.049 39.7195 173.049 35.9536V21.2282H179.099V35.1328C179.099 37.4503 179.615 39.1884 180.648 40.3471C181.713 41.4736 183.213 42.0369 185.149 42.0369C187.075 42.0328 188.568 41.4696 189.629 40.3472C190.662 39.1885 191.178 37.4504 191.178 35.1329V21.2283H197.228V35.9537C197.228 39.7196 196.244 42.5681 194.276 44.4993C192.275 46.3983 188.581 47.3477 185.128 47.3477Z" fill="white">
 </path>
 <path d="M54.2851 43.4286C66.2776 43.4286 75.9994 33.7068 75.9994 21.7143C75.9994 9.72182 66.2776 0 54.2851 0C42.2926 0 32.5708 9.72182 32.5708 21.7143C32.5708 33.7068 42.2926 43.4286 54.2851 43.4286Z" fill="white">
 </path>
 <mask id="mask0" mask-type="alpha" maskUnits="userSpaceOnUse" x="0" y="21" width="109" height="55">
  <path fill-rule="evenodd" clip-rule="evenodd" d="M11.0552 21.7143C16.9421 21.7143 21.5428 26.613 23.4347 32.1875C27.7959 45.0383 39.9609 54.2857 54.2857 54.2857C68.6106 54.2857 80.7756 45.0383 85.1368 32.1875C87.0286 26.613 91.6294 21.7143 97.5162 21.7143H108.571C108.571 51.6954 84.2669 76 54.2857 76C24.3045 76 0 51.6954 0 21.7143H11.0552Z" fill="#8D6FFF">
  </path>
 </mask>
 <g mask="url(#mask0)">
  <path fill-rule="evenodd" clip-rule="evenodd" d="M28.5075 41.6261C24.2486 36.1206 21.7143 29.2134 21.7143 21.7143H0C0 35.2117 4.926 47.5587 13.0783 57.0553L28.5075 41.6261ZM18.9451 62.9221C28.4417 71.0741 40.7885 76 54.2857 76C67.7832 76 80.1301 71.074 89.6268 62.9217L74.1976 47.4925C68.692 51.7514 61.7848 54.2857 54.2857 54.2857C46.7868 54.2857 39.8798 51.7515 34.3743 47.4929L18.9451 62.9221ZM80.0643 41.6257L95.4935 57.0549C103.646 47.5583 108.571 35.2115 108.571 21.7143H86.8572C86.8572 29.2132 84.323 36.1202 80.0643 41.6257Z" fill="white">
  </path>
  <path d="M54.2853 54.2854C72.274 54.2854 86.8567 39.7027 86.8567 21.714C86.8567 3.72531 72.274 -10.8574 54.2853 -10.8574C36.2966 -10.8574 21.7139 3.72531 21.7139 21.714C21.7139 39.7027 36.2966 54.2854 54.2853 54.2854Z" fill="#574699">
  </path>
 </g>
</svg>