<svg class="DataddoLogo relative z-10" fill="none" height="44" viewBox="0 0 170 44" width="170" xmlns="http://www.w3.org/2000/svg"><path d="M23.6133 13.6515C26.8256 13.6515 29.4297 11.0432 29.4297 7.82575C29.4297 4.60828 26.8256 2 23.6133 2C20.401 2 17.7969 4.60828 17.7969 7.82575C17.7969 11.0432 20.401 13.6515 23.6133 13.6515Z" fill="white" stroke="white" stroke-width="0.583333"></path> <path d="M17.8211 35.125C22.2241 35.125 25.7935 31.5502 25.7935 27.1404C25.7935 22.7306 22.2241 19.1558 17.8211 19.1558C13.418 19.1558 9.84863 22.7306 9.84863 27.1404C9.84863 31.5502 13.418 35.125 17.8211 35.125Z" fill="white" stroke="white" stroke-width="0.583333"></path> <path d="M37.6501 25.3583C40.4227 25.3583 42.6703 23.1071 42.6703 20.33C42.6703 17.553 40.4227 15.3018 37.6501 15.3018C34.8775 15.3018 32.6299 17.553 32.6299 20.33C32.6299 23.1071 34.8775 25.3583 37.6501 25.3583Z" fill="white" stroke="white" stroke-width="0.583333"></path> <path clip-rule="evenodd" d="M2.14941 8.77246V41.6573V8.77246Z" fill="white" fill-rule="evenodd"></path> <path d="M2.14941 8.77246V41.6573" stroke="white" stroke-linecap="square" stroke-width="3.61915"></path> <path clip-rule="evenodd" d="M2.14941 2V41.6571V2Z" fill="white" fill-rule="evenodd"></path> <path d="M2.14941 2V41.6571" stroke="white" stroke-linecap="round" stroke-width="3.61915"></path> <path clip-rule="evenodd" d="M43.3872 41.6997H3.57715H43.3872Z" fill="white" fill-rule="evenodd"></path> <path d="M43.3872 41.6997H3.57715" stroke="white" stroke-linecap="round" stroke-width="3.61915"></path> <path clip-rule="evenodd" d="M67.463 29.4625H67.3179C66.0813 31.2602 64.2317 32.159 61.7692 32.159C59.4573 32.159 57.6588 31.3678 56.3738 29.7854C55.0888 28.2031 54.4463 25.9533 54.4463 23.0362C54.4463 20.119 55.0915 17.8531 56.3819 16.2384C57.6723 14.6238 59.468 13.8164 61.7692 13.8164C64.1672 13.8164 66.006 14.6883 67.2856 16.4322H67.4953L67.3824 15.1566L67.3179 13.9133V6.71191H69.9954V31.8361H67.8179L67.463 29.4625ZM62.1079 29.9146C63.936 29.9146 65.2613 29.4168 66.0839 28.4211C66.9066 27.4253 67.3179 25.8188 67.3179 23.6013V23.0362C67.3179 20.528 66.9012 18.7385 66.0678 17.6674C65.2344 16.5963 63.9037 16.0608 62.0757 16.0608C60.5057 16.0608 59.3041 16.6717 58.4707 17.8935C57.6373 19.1152 57.2206 20.8402 57.2206 23.0684C57.2206 25.329 57.6346 27.0351 58.4626 28.1869C59.2906 29.3387 60.5057 29.9146 62.1079 29.9146ZM84.8929 31.8361L84.3606 29.3172H84.2316C83.3498 30.4259 82.4708 31.1767 81.5944 31.5696C80.718 31.9625 79.6239 32.159 78.312 32.159C76.5592 32.159 75.1855 31.7069 74.1908 30.8027C73.1961 29.8985 72.6988 28.6121 72.6988 26.9436C72.6988 23.3698 75.5537 21.4968 81.2637 21.3246L84.2639 21.2277V20.1298C84.2639 18.7411 83.9655 17.7158 83.3687 17.0538C82.7718 16.3918 81.8175 16.0608 80.5056 16.0608C79.0324 16.0608 77.3657 16.5129 75.5054 17.4171L74.6828 15.3665C75.5538 14.8929 76.5081 14.5215 77.5458 14.2524C78.5835 13.9833 79.6238 13.8487 80.6669 13.8487C82.7746 13.8487 84.3364 14.317 85.3526 15.2535C86.3688 16.19 86.8769 17.6916 86.8769 19.7584V31.8361H84.8929ZM78.8442 29.9469C80.511 29.9469 81.8202 29.4894 82.7718 28.5744C83.7235 27.6595 84.1993 26.3785 84.1993 24.7315V23.133L81.5218 23.2461C79.3926 23.3214 77.8576 23.6524 76.9167 24.2391C75.9758 24.8257 75.5054 25.738 75.5054 26.9759C75.5054 27.9447 75.7984 28.6821 76.3844 29.188C76.9705 29.6939 77.7904 29.9469 78.8442 29.9469ZM96.4515 29.9469C96.9247 29.9469 97.3817 29.9119 97.8226 29.842C98.2635 29.772 98.6129 29.6993 98.871 29.624V31.6746C98.5807 31.8145 98.1532 31.9303 97.5887 32.0218C97.0241 32.1132 96.5161 32.159 96.0644 32.159C92.6449 32.159 90.9352 30.356 90.9352 26.7499V16.2223H88.4028V14.9305L90.9352 13.8164L92.0642 10.0381H93.6127V14.1394H98.742V16.2223H93.6127V26.6369C93.6127 27.7025 93.8654 28.5206 94.3708 29.0911C94.8762 29.6617 95.5698 29.9469 96.4515 29.9469ZM111.623 31.8361L111.091 29.3172H110.962C110.08 30.4259 109.201 31.1767 108.325 31.5696C107.448 31.9625 106.354 32.159 105.042 32.159C103.29 32.159 101.916 31.7069 100.921 30.8027C99.9264 29.8985 99.4291 28.6121 99.4291 26.9436C99.4291 23.3698 102.284 21.4968 107.994 21.3246L110.994 21.2277V20.1298C110.994 18.7411 110.696 17.7158 110.099 17.0538C109.502 16.3918 108.548 16.0608 107.236 16.0608C105.763 16.0608 104.096 16.5129 102.236 17.4171L101.413 15.3665C102.284 14.8929 103.238 14.5215 104.276 14.2524C105.314 13.9833 106.354 13.8487 107.397 13.8487C109.505 13.8487 111.067 14.317 112.083 15.2535C113.099 16.19 113.607 17.6916 113.607 19.7584V31.8361H111.623ZM105.575 29.9469C107.241 29.9469 108.551 29.4894 109.502 28.5744C110.454 27.6595 110.93 26.3785 110.93 24.7315V23.133L108.252 23.2461C106.123 23.3214 104.588 23.6524 103.647 24.2391C102.706 24.8257 102.236 25.738 102.236 26.9759C102.236 27.9447 102.529 28.6821 103.115 29.188C103.701 29.6939 104.521 29.9469 105.575 29.9469ZM129.505 29.4625H129.36C128.123 31.2602 126.273 32.159 123.811 32.159C121.499 32.159 119.701 31.3678 118.416 29.7854C117.13 28.2031 116.488 25.9533 116.488 23.0362C116.488 20.119 117.133 17.8531 118.424 16.2384C119.714 14.6238 121.51 13.8164 123.811 13.8164C126.209 13.8164 128.048 14.6883 129.327 16.4322H129.537L129.424 15.1566L129.36 13.9133V6.71191H132.037V31.8361H129.86L129.505 29.4625ZM124.15 29.9146C125.978 29.9146 127.303 29.4168 128.126 28.4211C128.948 27.4253 129.36 25.8188 129.36 23.6013V23.0362C129.36 20.528 128.943 18.7385 128.11 17.6674C127.276 16.5963 125.945 16.0608 124.117 16.0608C122.547 16.0608 121.346 16.6717 120.512 17.8935C119.679 19.1152 119.262 20.8402 119.262 23.0684C119.262 25.329 119.676 27.0351 120.504 28.1869C121.332 29.3387 122.547 29.9146 124.15 29.9146ZM148.096 29.4625H147.951C146.714 31.2602 144.865 32.159 142.402 32.159C140.09 32.159 138.292 31.3678 137.007 29.7854C135.722 28.2031 135.079 25.9533 135.079 23.0362C135.079 20.119 135.724 17.8531 137.015 16.2384C138.305 14.6238 140.101 13.8164 142.402 13.8164C144.8 13.8164 146.639 14.6883 147.919 16.4322H148.128L148.015 15.1566L147.951 13.9133V6.71191H150.628V31.8361H148.451L148.096 29.4625ZM142.741 29.9146C144.569 29.9146 145.894 29.4168 146.717 28.4211C147.54 27.4253 147.951 25.8188 147.951 23.6013V23.0362C147.951 20.528 147.534 18.7385 146.701 17.6674C145.867 16.5963 144.537 16.0608 142.709 16.0608C141.139 16.0608 139.937 16.6717 139.104 17.8935C138.27 19.1152 137.854 20.8402 137.854 23.0684C137.854 25.329 138.268 27.0351 139.096 28.1869C139.924 29.3387 141.139 29.9146 142.741 29.9146ZM169.913 22.9716C169.913 25.8564 169.187 28.1089 167.736 29.7289C166.284 31.349 164.278 32.159 161.719 32.159C160.138 32.159 158.735 31.7876 157.509 31.0449C156.283 30.3021 155.337 29.2365 154.67 27.8478C154.004 26.4592 153.67 24.8338 153.67 22.9716C153.67 20.0867 154.391 17.8396 155.832 16.2303C157.273 14.6211 159.273 13.8164 161.832 13.8164C164.305 13.8164 166.271 14.6399 167.728 16.2869C169.185 17.9338 169.913 20.162 169.913 22.9716ZM156.445 22.9716C156.445 25.2321 156.896 26.9544 157.8 28.1385C158.703 29.3226 160.031 29.9146 161.784 29.9146C163.537 29.9146 164.867 29.3253 165.776 28.1466C166.685 26.9678 167.139 25.2429 167.139 22.9716C167.139 20.7218 166.685 19.013 165.776 17.845C164.867 16.6771 163.526 16.0931 161.751 16.0931C159.999 16.0931 158.676 16.669 157.784 17.8208C156.891 18.9726 156.445 20.6895 156.445 22.9716Z" fill="white" fill-rule="evenodd"></path></svg>