<svg id="logo_Bg" data-name="logo Bg" xmlns="http://www.w3.org/2000/svg" width="196" height="27.7183" viewBox="0 0 196 27.7183" xmlns:xlink="http://www.w3.org/1999/xlink">
 <title>
  DHL_rgb_BG0
 </title>
 <g>
  <g>
   <g>
    <polygon points="0 22.1 26.506 22.1 25.058 24.071 0 24.071 0 22.1 0 22.1" fill="#d40511">
    </polygon>
    <polygon points="0 18.445 29.199 18.445 27.748 20.412 0 20.412 0 18.445 0 18.445" fill="#d40511">
    </polygon>
    <polygon points="0 25.759 23.815 25.759 22.373 27.716 0 27.716 0 25.759 0 25.759" fill="#d40511">
    </polygon>
   </g>
   <g>
    <polygon points="196 24.071 169.598 24.071 171.045 22.102 196 22.102 196 24.071 196 24.071" fill="#d40511">
    </polygon>
    <polygon points="196 27.716 166.913 27.718 168.354 25.759 196 25.759 196 27.716 196 27.716" fill="#d40511">
    </polygon>
    <polygon points="173.735 18.445 196 18.445 196 20.414 172.287 20.415 173.735 18.445 173.735 18.445" fill="#d40511">
    </polygon>
   </g>
  </g>
  <g>
   <path d="M25.6726,27.7156,38.2505,10.6268H53.8587c1.7252,0,1.7026.655.86,1.7975-.8562,1.16-2.3133,3.1547-3.1854,4.3323-.4426.5982-1.2431,1.6881,1.4089,1.6881h20.91c-1.739,2.3822-7.38,9.2709-17.5082,9.2709Z" fill="#d40511">
   </path>
   <path d="M97.7056,18.4433l-6.82,9.2723H72.893s6.8172-9.2709,6.8233-9.2709l17.9893-.0014Z" fill="#d40511">
   </path>
   <path d="M123.7239,18.4447,116.9,27.7156H98.9143s6.8178-9.2709,6.8239-9.2709Z" fill="#d40511">
   </path>
   <path d="M129.5749,18.4447c.0006,0-1.3141,1.7974-1.9529,2.66-2.2593,3.0534-.2626,6.61,7.111,6.61h28.8853l6.8226-9.2709Z" fill="#d40511">
   </path>
  </g>
  <g>
   <path d="M34.4685,0,28.2064,8.5079H62.3353c1.7249,0,1.7023.655.8592,1.7975-.8562,1.1587-2.2894,3.1763-3.1614,4.3539-.4427.5969-1.2432,1.6867,1.4089,1.6867H75.3984s2.25-3.0615,4.1352-5.6206C82.0991,7.2439,79.7561,0,70.585,0Z" fill="#d40511">
   </path>
   <polygon points="125.269 16.346 81.262 16.346 93.296 0 111.282 0 104.386 9.372 112.414 9.372 119.315 0 137.299 0 125.269 16.346 125.269 16.346" fill="#d40511">
   </polygon>
   <path d="M162.2084,0,150.177,16.346H131.1177S143.1532,0,143.1592,0Z" fill="#d40511">
   </path>
  </g>
 </g>
</svg>