<svg id="Слой_1" data-name="Слой 1" xmlns="http://www.w3.org/2000/svg" viewBox="0 0 226.66 27.38"><rect x="8.97" width="19.37" height="19.37" rx="3.79" style="fill:#ff7171"/><rect y="8.01" width="19.37" height="19.37" rx="3.79" style="fill:#a7fceb"/><path d="M15.69,8H9.07v7.59a3.79,3.79,0,0,0,3.79,3.79h6.62V11.83A3.79,3.79,0,0,0,15.69,8Z" transform="translate(-0.11 -0.03)" style="fill:#7f0052"/><path d="M48.58,5.53a7.49,7.49,0,0,1,3.31.7,6.84,6.84,0,0,1,2.45,1.95,8.87,8.87,0,0,1,1.5,2.9,12.15,12.15,0,0,1,.5,3.51,11.3,11.3,0,0,1-.9,4.57,7.84,7.84,0,0,1-2.63,3.28,7.16,7.16,0,0,1-4.23,1.21H42.39a1.54,1.54,0,0,1-1.58-1.58v-15a1.54,1.54,0,0,1,1.58-1.58Zm-.26,15.14A4.09,4.09,0,0,0,51,19.83a4.84,4.84,0,0,0,1.52-2.22,9.19,9.19,0,0,0,.48-3,9.76,9.76,0,0,0-.27-2.32,6.21,6.21,0,0,0-.85-1.94A4.11,4.11,0,0,0,50.41,9a4.17,4.17,0,0,0-2.09-.5H43.79L44,8.27V21l-.15-.29Z" transform="translate(-0.11 -0.03)" style="fill:#7f0052"/><path d="M70.2,5.45a1.53,1.53,0,0,1,1.07.45,1.52,1.52,0,0,1,.48,1.15,2,2,0,0,1-.06.48,1.74,1.74,0,0,1-.22.48l-5.88,8.42.46-1.79v7.43a1.54,1.54,0,0,1-.45,1.13,1.44,1.44,0,0,1-1,.45,1.5,1.5,0,0,1-1.1-.45A1.54,1.54,0,0,1,63,22.07V14.85l.21.83-5.6-7.43a2.37,2.37,0,0,1-.36-.65,1.8,1.8,0,0,1-.1-.57,1.39,1.39,0,0,1,.54-1.14,1.76,1.76,0,0,1,1.11-.44,1.56,1.56,0,0,1,1.27.72L65,13l-.72-.11,4.58-6.7A1.57,1.57,0,0,1,70.2,5.45Z" transform="translate(-0.11 -0.03)" style="fill:#7f0052"/><path d="M87.83,5.53a1.35,1.35,0,0,1,1,.41,1.46,1.46,0,0,1,.39,1V22.07a1.55,1.55,0,0,1-1.58,1.58,2.37,2.37,0,0,1-.69-.11,1.21,1.21,0,0,1-.53-.33L76.26,10.29l.67-.41V22.2a1.47,1.47,0,0,1-.4,1,1.42,1.42,0,0,1-1,.41,1.33,1.33,0,0,1-1-.41,1.46,1.46,0,0,1-.39-1V7.11A1.54,1.54,0,0,1,74.53,6a1.55,1.55,0,0,1,1.13-.45,2.07,2.07,0,0,1,.75.14A1.06,1.06,0,0,1,77,6.1l9.87,12.58-.44.31V7a1.45,1.45,0,0,1,.38-1A1.39,1.39,0,0,1,87.83,5.53Z" transform="translate(-0.11 -0.03)" style="fill:#7f0052"/><path d="M99.77,9.59l-5.6,13.16a1.6,1.6,0,0,1-.55.76,1.39,1.39,0,0,1-.82.27,1.27,1.27,0,0,1-1-.39,1.39,1.39,0,0,1-.34-.95,1.53,1.53,0,0,1,.08-.5L98,6.46a1.65,1.65,0,0,1,.64-.8,1.38,1.38,0,0,1,.92-.24,1.49,1.49,0,0,1,.86.27,1.57,1.57,0,0,1,.59.77l6.37,15.17a1.91,1.91,0,0,1,.13.62A1.49,1.49,0,0,1,106,23.78a1.38,1.38,0,0,1-.85-.28,1.86,1.86,0,0,1-.58-.78L99,9.75ZM95,19.59l1.42-3h7l.49,3Z" transform="translate(-0.11 -0.03)" style="fill:#7f0052"/><path d="M117.09,5.53a4.76,4.76,0,0,1,2.56.7,4.94,4.94,0,0,1,1.8,1.91,5.73,5.73,0,0,1,.66,2.77,5.81,5.81,0,0,1-.66,2.77,5.11,5.11,0,0,1-1.8,2,4.69,4.69,0,0,1-2.56.73h-5.26l.18-.32v6.53a1.08,1.08,0,0,1-.28.75.93.93,0,0,1-.73.31.9.9,0,0,1-.73-.31,1.08,1.08,0,0,1-.28-.75v-16a1,1,0,0,1,.3-.74,1,1,0,0,1,.74-.29Zm0,8.85a2.49,2.49,0,0,0,1.5-.46,3.36,3.36,0,0,0,1-1.27,4.09,4.09,0,0,0,.38-1.74,3.83,3.83,0,0,0-.38-1.73,3.4,3.4,0,0,0-1-1.21,2.56,2.56,0,0,0-1.5-.45h-5.26l.18-.28v7.4l-.18-.26Z" transform="translate(-0.11 -0.03)" style="fill:#7f0052"/><path d="M127.65,22.59a1,1,0,0,1-.32.75,1.06,1.06,0,0,1-.76.31,1,1,0,0,1-.78-.31,1.08,1.08,0,0,1-.29-.75v-16a1.06,1.06,0,0,1,.31-.77,1.12,1.12,0,0,1,.78-.29,1.08,1.08,0,0,1,.75.29,1,1,0,0,1,.31.77Z" transform="translate(-0.11 -0.03)" style="fill:#7f0052"/><path d="M145.26,6.72a.89.89,0,0,1,.5.7,1,1,0,0,1-.24.85.75.75,0,0,1-.6.36,1.34,1.34,0,0,1-.72-.15,7.82,7.82,0,0,0-1.84-.82,7.45,7.45,0,0,0-2.07-.29,7.09,7.09,0,0,0-2.8.53,6.54,6.54,0,0,0-2.2,1.49,6.74,6.74,0,0,0-1.45,2.27,8.08,8.08,0,0,0-.52,2.93,8,8,0,0,0,.55,3.06,6.83,6.83,0,0,0,1.49,2.29,6.2,6.2,0,0,0,2.2,1.43,7.33,7.33,0,0,0,2.73.5,7.24,7.24,0,0,0,2-.29,7.63,7.63,0,0,0,1.87-.83,1.24,1.24,0,0,1,.72-.13,1,1,0,0,1,.62.36,1.11,1.11,0,0,1,.24.87.88.88,0,0,1-.49.66,10.74,10.74,0,0,1-1.48.72,11,11,0,0,1-1.72.5,9.16,9.16,0,0,1-1.8.18,9.61,9.61,0,0,1-3.52-.65,8.73,8.73,0,0,1-4.94-4.8,9.78,9.78,0,0,1-.73-3.87,9.46,9.46,0,0,1,.7-3.7A8.75,8.75,0,0,1,133.75,8,9,9,0,0,1,136.68,6a9.15,9.15,0,0,1,3.61-.7,9.7,9.7,0,0,1,2.63.36A8.83,8.83,0,0,1,145.26,6.72Z" transform="translate(-0.11 -0.03)" style="fill:#7f0052"/><path d="M148.52,7.49a1.07,1.07,0,0,1-.74-.27,1,1,0,0,1,0-1.42,1.07,1.07,0,0,1,.74-.27h12a1.08,1.08,0,0,1,.75.27.89.89,0,0,1,.31.71.9.9,0,0,1-.31.73,1.11,1.11,0,0,1-.75.25Zm6,16.16a1.06,1.06,0,0,1-1.09-1.06v-16h2.2v16a1,1,0,0,1-.31.75A1.07,1.07,0,0,1,154.53,23.65Z" transform="translate(-0.11 -0.03)" style="fill:#7f0052"/><path d="M177.57,5.5a.93.93,0,0,1,.73.31,1.08,1.08,0,0,1,.28.75V16.84a6.94,6.94,0,0,1-.92,3.58,6.78,6.78,0,0,1-2.47,2.49,6.7,6.7,0,0,1-3.52.92,6.82,6.82,0,0,1-3.56-.92,6.63,6.63,0,0,1-2.47-2.49,7,7,0,0,1-.91-3.58V6.56a1.05,1.05,0,0,1,.3-.75,1,1,0,0,1,.79-.31,1,1,0,0,1,.74.31,1,1,0,0,1,.32.75V16.84a5,5,0,0,0,.65,2.54,4.71,4.71,0,0,0,4.14,2.38,4.84,4.84,0,0,0,2.43-.63,5,5,0,0,0,1.8-1.75,4.72,4.72,0,0,0,.69-2.54V6.56a1.16,1.16,0,0,1,.26-.75A.87.87,0,0,1,177.57,5.5Z" transform="translate(-0.11 -0.03)" style="fill:#7f0052"/><path d="M184.31,23.65a1.24,1.24,0,0,1-.85-.31,1,1,0,0,1-.35-.75v-16a1,1,0,0,1,.3-.74,1,1,0,0,1,.74-.29h7.15a5.22,5.22,0,0,1,2.61.66A4.87,4.87,0,0,1,195.76,8a5.06,5.06,0,0,1,.69,2.65,5.08,5.08,0,0,1-1.55,3.67,5.44,5.44,0,0,1-1.66,1l-.57-.42a4.25,4.25,0,0,1,1.58.74A4.19,4.19,0,0,1,195.39,17a4.07,4.07,0,0,1,.46,1.9c0,.64.08,1.15.13,1.53a2.75,2.75,0,0,0,.24.89,1.22,1.22,0,0,0,.44.51,1.09,1.09,0,0,1,.48.62.83.83,0,0,1-.15.75.81.81,0,0,1-.44.32,1.6,1.6,0,0,1-.57.07,1.09,1.09,0,0,1-.49-.16,2.79,2.79,0,0,1-.8-.69,3.5,3.5,0,0,1-.65-1.3,8.45,8.45,0,0,1-.26-2.33,3.12,3.12,0,0,0-.26-1.38,2.34,2.34,0,0,0-.7-.88,2.53,2.53,0,0,0-1-.46,4.56,4.56,0,0,0-1.11-.13H185l.31-.47v6.76a1.11,1.11,0,0,1-.26.75A.84.84,0,0,1,184.31,23.65Zm.64-9.22h6.35a2.69,2.69,0,0,0,1.41-.51,3.56,3.56,0,0,0,1.09-1.31,4.21,4.21,0,0,0,.42-1.9,3.18,3.18,0,0,0-.86-2.28,2.89,2.89,0,0,0-2.19-.91h-6.11l.2-.49V14.9Z" transform="translate(-0.11 -0.03)" style="fill:#7f0052"/><path d="M201.65,5.53h9.22a1.06,1.06,0,0,1,.75.28.93.93,0,0,1,.31.73.89.89,0,0,1-.31.71,1.1,1.1,0,0,1-.75.27h-8.34l.24-.44v6.55l-.26-.28h7.2a1.08,1.08,0,0,1,.75.28,1,1,0,0,1,.31.73.92.92,0,0,1-.31.71,1.11,1.11,0,0,1-.75.27h-7.12l.18-.23v6.7l-.16-.18h8.26a1,1,0,0,1,.75.31,1,1,0,0,1,.31.7.93.93,0,0,1-.31.73,1.06,1.06,0,0,1-.75.28h-9.22a1,1,0,0,1-.73-.31,1.05,1.05,0,0,1-.3-.75v-16a1,1,0,0,1,1-1Z" transform="translate(-0.11 -0.03)" style="fill:#7f0052"/><path d="M220.66,23.91a9.19,9.19,0,0,1-3.37-.57,8.93,8.93,0,0,1-2.79-1.81,1.9,1.9,0,0,1-.3-.4,1,1,0,0,1-.12-.48,1.06,1.06,0,0,1,.3-.74.94.94,0,0,1,.74-.32.87.87,0,0,1,.64.28,7.38,7.38,0,0,0,2.19,1.5,6.48,6.48,0,0,0,2.66.52,5.64,5.64,0,0,0,2.06-.36,3.57,3.57,0,0,0,1.46-1,2.27,2.27,0,0,0,.54-1.5,2.64,2.64,0,0,0-.61-1.71,4.45,4.45,0,0,0-1.6-1.13,13.49,13.49,0,0,0-2.37-.76,14.07,14.07,0,0,1-2.19-.7,6.86,6.86,0,0,1-1.72-1,4.33,4.33,0,0,1-1.13-1.48,4.78,4.78,0,0,1-.4-2,4.38,4.38,0,0,1,.78-2.59,5,5,0,0,1,2.15-1.72,7.65,7.65,0,0,1,3.16-.61,8.51,8.51,0,0,1,3,.52A5.76,5.76,0,0,1,226,7.21a1.37,1.37,0,0,1,.52,1,1.1,1.1,0,0,1-1.06,1,.76.76,0,0,1-.52-.2,4.36,4.36,0,0,0-1.11-.88,6.8,6.8,0,0,0-1.48-.63,6.11,6.11,0,0,0-3.7.12,3.1,3.1,0,0,0-1.41,1,2.32,2.32,0,0,0-.51,1.51,2.32,2.32,0,0,0,.57,1.62,4.12,4.12,0,0,0,1.53,1,16.94,16.94,0,0,0,2.12.72,19.2,19.2,0,0,1,2.35.71,7.23,7.23,0,0,1,1.85,1,3.88,3.88,0,0,1,1.2,1.51,5.28,5.28,0,0,1,.43,2.27,4.26,4.26,0,0,1-.8,2.53,5.38,5.38,0,0,1-2.19,1.75A7.76,7.76,0,0,1,220.66,23.91Z" transform="translate(-0.11 -0.03)" style="fill:#7f0052"/><rect x="8.97" y="12.91" width="3.23" height="14.47" style="fill:#7f0052"/></svg>