<?xml version="1.0" encoding="utf-8"?>
<!-- Generator: Adobe Illustrator 23.0.1, SVG Export Plug-In . SVG Version: 6.00 Build 0)  -->
<svg version="1.1" xmlns="http://www.w3.org/2000/svg" xmlns:xlink="http://www.w3.org/1999/xlink" x="0px" y="0px"
	 viewBox="0 0 338.2 312.2" style="enable-background:new 0 0 338.2 312.2;" xml:space="preserve">
<style type="text/css">
	.st0{fill:#63BC6F;}
	.st1{fill:#378BD1;}
	.st2{fill:#3F9EFC;}
	.st3{fill:#FFFFFF;}
	.st4{opacity:0.3;}
	.st5{fill:#E0E0E0;}
	.st6{fill:#3A3A3A;}
	.st7{fill:none;stroke:#3A3A3A;stroke-width:5;stroke-miterlimit:10;}
	.st8{fill:none;stroke:#3A3A3A;stroke-width:5.08;stroke-miterlimit:10;}
	.st9{enable-background:new    ;}
	.st10{fill:none;stroke:#3A3A3A;stroke-width:4;stroke-linejoin:round;}
	.st11{fill:none;stroke:#3A3A3A;stroke-width:4;stroke-linecap:round;stroke-linejoin:round;}
	.st12{display:none;}
	.st13{display:inline;fill:#FFC4A6;}
	.st14{font-family:'VisbyRoundCF-Bold';}
	.st15{font-size:101.75px;}
	.st16{display:inline;fill:none;stroke:#3A3A3A;stroke-width:4;stroke-linejoin:round;}
	.st17{display:inline;fill:#63BC6F;}
	.st18{font-size:102.7px;}
	.st19{display:inline;fill:none;stroke:#3A3A3A;stroke-width:4;stroke-linecap:round;stroke-linejoin:round;}
</style>
<g id="Layer_2">
</g>
<g id="main_logo">
	<title>logo</title>
	<path class="st0" d="M26,2.5h271.2c11.6,0,21,9.9,21,22.1V273c0,12.2-9.4,22.1-21,22.1H26c-11.6,0-21-9.9-21-22.1V24.7
		C5.1,12.4,14.5,2.5,26,2.5z"/>
	<path class="st1" d="M27.8,2.5h13.9v90.4H2.5V27.4C2.5,20.7,13.8,2.5,27.8,2.5z"/>
	<path class="st2" d="M42.2,2.5h271.4c12.1,0,22,11.2,22,25v242.7c0,13.8-9.8,25-22,25H42.2c-12.1,0-22-11.2-22-25V27.5
		C20.3,13.7,30.1,2.5,42.2,2.5z"/>
	<path class="st3" d="M5.1,92.9h313.1v184c0,10.6-9.5,19.3-21.3,19.3H26.4c-11.8,0-21.3-8.6-21.3-19.3L5.1,92.9L5.1,92.9z"/>
	<g class="st4">
		<path class="st5" d="M2.5,92.9h319.3v210.9H21.5c-6-4.6-15-7.4-19-17.6V92.9z"/>
	</g>
	<path class="st3" d="M20.3,92.9h315.4v186.6c0,13.4-10.9,24.3-24.3,24.3l0,0H44.6c-13.4,0-24.3-10.8-24.4-24.2l0,0V92.9H20.3z"/>
	<path class="st6" d="M78.6,127.9H52v17.4h21.8c4.2,0,7.6,3.4,7.6,7.6c0,4.2-3.4,7.6-7.6,7.6H52v20.1c0,4.9-3.9,9-8.8,9.1
		c-5-0.1-9-4.1-9.1-9.1v-58.3c-0.2-5.3,3.9-9.7,9.2-9.9c0,0,0,0,0.1,0h35.2c4.3,0,7.8,3.5,7.8,7.8C86.4,124.4,82.9,127.9,78.6,127.9
		z"/>
	<path class="st6" d="M231.7,119.1c2.6,2.7,4,5,4,7.8c0,4-3.3,7.1-7.2,7.1l0,0h-0.2c-2.7-0.2-5.2-1.3-7-3.3c-3.1-2.3-4.8-3-8-3
		c-5.5,0-8.2,2.8-8.2,6.4c0,2.2,0.8,5.1,6.8,7.4l3,1.1c18.8,7,24.7,14,24.7,23.9c0,15.7-15.7,23.4-28.5,23.4c-8,0-16.4-2.8-22.3-8.6
		c-1.3-1.6-3.9-4.8-3.9-9c0-3.6,2.4-7.5,7.3-7.5c3.8,0,6.4,2.6,8.4,4.9c2.8,2.8,6.5,4.4,10.5,4.4c3.8,0,10.2-1.2,10.2-7.5
		c0-4.3-2.4-6.9-10.6-10l-3.4-1.2c-11.5-4.4-20.1-9.8-20.1-21.5c0-13.5,11.2-21.8,25.3-21.8C221.7,112,227.1,114.8,231.7,119.1z"/>
	<path class="st6" d="M317.7,120.6c0,4.3-3.5,7.8-7.9,7.9h-13.6v52.1c0,5.1-4.1,9.4-8.8,9.4c-5.1-0.1-9.1-4.3-9.1-9.4v-52.1h-13.4
		c-4.4,0-7.9-3.5-7.9-7.9s3.5-7.9,7.9-7.9l0,0h44.9C314.1,112.6,317.7,116.2,317.7,120.6L317.7,120.6z"/>
	<path class="st6" d="M92,248c0,25.6-18.6,38.8-39.5,38.8H36.6c-5.3,0.2-9.7-3.9-9.9-9.2l0,0c0-0.2,0-0.5,0-0.7v-56.6
		c-0.2-5.3,3.9-9.7,9.2-9.9l0,0h16.6C73.4,210.3,92,223.5,92,248z M74,248c0-16.1-7.9-22.6-21.5-22.6h-7.9v46.3h7.9
		C66.1,271.7,74,265.1,74,248L74,248z"/>
	<path class="st6" d="M244.2,218c0,1.6-0.4,3.2-1.3,4.5l-21.1,30.9V279c-0.2,4.9-4.4,8.7-9.3,8.4c-4.6-0.2-8.2-3.9-8.4-8.4v-25.7
		L183,222.4c-0.9-1.3-1.3-2.9-1.3-4.5c0-4.5,3.7-8.1,8.2-8.2c2.6,0,5,1.2,6.6,3.3l16.5,25.1l16.5-25.2c1.5-2.1,3.9-3.3,6.5-3.3
		C240.4,209.7,244.1,213.4,244.2,218L244.2,218z"/>
	<path class="st6" d="M308.4,217.3c2.6,2.7,3.9,4.9,3.9,7.6c0,3.9-3.1,7-7,7c0,0,0,0-0.1,0H305c-2.6-0.2-5.1-1.3-6.9-3.2
		c-3-2.3-4.7-3-7.9-3c-5.4,0-8,2.8-8,6.3c0,2.1,0.8,5.1,6.7,7.3l3,1.1c18.5,6.9,24.3,13.8,24.3,23.5c0,15.5-15.5,23-28,23
		c-7.9,0-16.1-2.8-21.9-8.5c-1.3-1.6-3.9-4.7-3.9-8.9c0-3.5,2.4-7.4,7.2-7.4c3.8,0,6.3,2.6,8.3,4.8c2.7,2.8,6.4,4.3,10.3,4.3
		c3.8,0,10-1.2,10-7.4c0-4.2-2.4-6.8-10.4-9.8l-3.3-1.2c-11.3-4.3-19.8-9.7-19.8-21.1c0-13.3,11.1-21.5,24.9-21.5
		C298.5,210.3,303.8,213.1,308.4,217.3z"/>
	<line class="st7" x1="335.7" y1="93.3" x2="2.5" y2="92.9"/>
	<path class="st8" d="M32.7,2.5h272.7c16.7,0,30.2,13.5,30.2,30.2v240.9c0,16.7-13.5,30.2-30.2,30.2H32.7
		c-16.7,0-30.2-13.5-30.2-30.2V32.7C2.5,16.1,16.1,2.5,32.7,2.5z"/>
	<g>
		<g>
			<path class="st0" d="M153.5,128.9l-12,15c8,1.6,17.6,9,17.6,20.8c0,13.4-11.4,22.6-25.6,22.6c-10.2,0-19.8-4.5-23.9-14.8
				c-1.4-4,0.8-8.5,5.5-8.5c3.2,0,5.2,1.9,5.9,3.8c2.6,6.6,9,8,12.5,8c3.8,0,12.3-1.9,12.3-11.1c0-8.5-9.3-11.1-13.6-12.2
				c-2.8-0.6-4.7-3.1-4.7-5.4c0-2.1,1.5-3.8,3.2-5.9l11.2-14.8h-24.6c-3.2,0-5.8-2.4-5.8-5.7c0-3.2,2.6-5.7,5.8-5.7h28.4
				C153.5,115,158.4,122.6,153.5,128.9z"/>
		</g>
		<g class="st9">
			<path class="st10" d="M153.5,128.9l-12,15c8,1.6,17.6,9,17.6,20.8c0,13.4-11.4,22.6-25.6,22.6c-10.2,0-19.8-4.5-23.9-14.8
				c-1.4-4,0.8-8.5,5.5-8.5c3.2,0,5.2,1.9,5.9,3.8c2.6,6.6,9,8,12.5,8c3.8,0,12.3-1.9,12.3-11.1c0-8.5-9.3-11.1-13.6-12.2
				c-2.8-0.6-4.7-3.1-4.7-5.4c0-2.1,1.5-3.8,3.2-5.9l11.2-14.8h-24.6c-3.2,0-5.8-2.4-5.8-5.7c0-3.2,2.6-5.7,5.8-5.7h28.4
				C153.5,115,158.4,122.6,153.5,128.9z"/>
		</g>
		<g>
			<path class="st2" d="M154.7,256.9c3.2,0,5.9,2.5,5.9,5.4c0,3.2-2.7,5.5-5.9,5.5h-2.6v10.7c0,3.7-3.1,6.7-6.8,6.7
				c-3.6,0-6.7-3-6.7-6.7v-10.7h-19.9c-8.6,0-11.4-6.5-6.9-12.7l27-38.5c4.5-6.4,13.2-4.3,13.2,3.2v37.1H154.7z M124.1,256.9h14.6
				v-21.3L124.1,256.9z"/>
		</g>
		<g class="st9">
			<path class="st11" d="M154.7,256.9c3.2,0,5.9,2.5,5.9,5.4c0,3.2-2.7,5.5-5.9,5.5h-2.6v10.7c0,3.7-3.1,6.7-6.8,6.7
				c-3.6,0-6.7-3-6.7-6.7v-10.7h-19.9c-8.6,0-11.4-6.5-6.9-12.7l27-38.5c4.5-6.4,13.2-4.3,13.2,3.2v37.1H154.7z M124.1,256.9h14.6
				v-21.3L124.1,256.9z"/>
		</g>
	</g>
	<g class="st12">
		<text transform="matrix(1 0 0 1 104.8801 186.23)" class="st13 st14 st15">3</text>
		<text transform="matrix(1 0 0 1 104.8801 186.23)" class="st16 st14 st15">3</text>
		<text transform="matrix(1 0 0 1 105.5801 284.53)" class="st17 st14 st18">4</text>
		<text transform="matrix(1 0 0 1 105.5801 284.53)" class="st19 st14 st18">4</text>
	</g>
</g>
</svg>
