<svg height="24px" viewBox="0 0 1469 380" xmlns="http://www.w3.org/2000/svg"><defs></defs><g fill="#3F5C71" fill-rule="nonzero"><path d="M188.5 248.14l164.6-73.154c8.4082-3.737 18.254.049796 21.991 8.458 3.737 8.408204-.049796 18.254-8.458 21.991l-178.13 79.169-177.66-78.96C4.54 202.8427.478 196.5921.478 189.695V96.04c0-7.211 4.2467-13.746 10.836-16.674L188.504.616l176.5 78.444c8.8086 3.9149 12.776 14.229 8.8608 23.038-1.7549 3.9486-4.9122 7.1058-8.8608 8.8608l-176.5 78.444-92.448-41.088c-8.4082-3.737-12.195-13.583-8.458-21.991 3.737-8.4082 13.583-12.195 21.991-8.458l78.915 35.074 130.34-57.93-130.34-57.93-154.7 68.757v73.548l154.7 68.757-.004-.0018zM23.9 270.188l164.6 73.154 164.6-73.154c8.4082-3.737 18.254.049796 21.991 8.458 3.737 8.408204-.049796 18.254-8.458 21.991l-178.13 79.169-178.13-79.169c-8.4082-3.737-12.195-13.583-8.458-21.991s13.583-12.195 21.991-8.458H23.9zM540.791 132.27v3.4715h40.907v36.053h-40.907v137.29h-37.445v-137.29h-26.347v-36.053h26.347V132.27c0-46.805 26.347-73.845 78.352-70.378V97.95c-26.348-2.4315-40.908 7.6267-40.908 34.32M611.35 309.09h37.44V56h-37.44zM819.77 222.41c0-32.24-23.573-55.471-54.778-55.471-31.2 0-54.778 23.231-54.778 55.471 0 32.24 23.578 55.471 54.778 55.471 31.205 0 54.778-23.231 54.778-55.471zm37.445-86.671v173.35H819.77v-24.965c-13.173 18.378-33.627 29.467-60.671 29.467-47.151 0-86.325-39.867-86.325-91.178 0-51.658 39.173-91.178 86.325-91.178 27.045 0 47.498 11.093 60.671 29.12v-24.613h37.445v-.003zM954.62 171.79v83.205c0 22.191 14.56 21.84 42.991 20.458v33.631c-57.547 6.9285-80.431-9.0133-80.431-54.09v-83.205h-31.898v-36.053h31.898v-37.45l37.44-11.089v48.538h42.991v36.053H954.62v.002zM1086.93 132.27v3.4715h40.907v36.053h-40.907v137.29h-37.445v-137.29h-26.347v-36.053h26.347V132.27c0-46.805 26.347-73.845 78.352-70.378V97.95c-26.348-2.4315-40.908 7.6267-40.908 34.32M1159.02 308.94h37.44V135.59h-37.44v173.35zm-5.2048-223.27c0-13.173 10.747-23.92 23.92-23.92 13.178 0 23.925 10.747 23.925 23.92 0 12.827-10.747 23.92-23.925 23.92-13.173 0-23.92-11.093-23.92-23.92zM1228.48 309.09h37.45V56h-37.45zM1430.671 207.85c-5.201-29.813-27.041-42.64-49.579-42.64-28.085 0-47.151 16.64-52.351 42.64h101.93zm-46.112 71.423c20.8 0 36.4-9.36 44.725-21.498l30.853 18.027c-15.942 23.578-41.951 37.791-75.925 37.791-57.205 0-94.298-39.178-94.298-91.183 0-51.311 37.093-91.178 91.525-91.178 51.658 0 87.023 41.605 87.023 91.53 0 5.2-.69815 10.747-1.3867 15.6h-137.99c5.8933 27.04 27.733 40.911 55.471 40.911h.0027z"></path></g></svg>