<svg version="1.1" id="Layer_1" xmlns:x="ns_extend;" xmlns:i="ns_ai;" xmlns:graph="ns_graphs;" xmlns="http://www.w3.org/2000/svg" xmlns:xlink="http://www.w3.org/1999/xlink" x="0px" y="0px" viewBox="0 0 318.5 64" style="enable-background:new 0 0 318.5 64;" xml:space="preserve">
 <style type="text/css">
  .st0{fill-rule:evenodd;clip-rule:evenodd;fill:#FA5D00;}
 </style>
 <metadata>
  <sfw xmlns="ns_sfw;">
   <slices>
   </slices>
   <sliceSourceBounds bottomLeftOrigin="true" height="64" width="318.5" x="41" y="-232.2">
   </sliceSourceBounds>
  </sfw>
 </metadata>
 <g>
  <path class="st0" d="M318.5,23.7h-10.3V13h-7.8v10.8H300c-3.2,0-5.6,2.3-5.6,5.5v1.6h6.1v21.6c0,6.8,3.8,10.5,10.6,10.5h7.5v-7.2
		h-6.4c-2.5,0-3.9-1.4-3.9-4v-21h4c2.4,0,3.8-0.6,4.9-1.8c0.8-0.9,1.4-2.3,1.4-3.8V23.7z M274.5,39.4c-3-0.2-4.7-1.9-4.7-4.5
		c0-3.2,2.9-5.3,7.6-5.3c4.1,0,7.2,2.1,7.7,5.2h7.7c-0.5-7.3-6.6-12.1-15.4-12.1c-9.1,0-15.1,4.9-15.1,12.5
		c0,6.8,4.1,10.8,11.4,11.2l7.5,0.5c3.5,0.2,5.1,1.9,5.1,4.6c0,3.3-3,5.5-8.1,5.5c-4.9,0-8.5-2.4-9-5.9h-7.8
		c0.5,7.7,7.2,12.7,16.9,12.7c9.4,0,15.4-5,15.4-12.7c0-6.9-4.2-10.9-11.8-11.4L274.5,39.4z M231.3,41.2c-0.8,0.9-1.4,2-1.6,3.4
		v-1.2c0-8,4.5-13.6,11-13.6c5.3,0,9.1,3.7,10.1,9.5h-14.1C234,39.3,232.4,40,231.3,41.2L231.3,41.2z M258.8,43.9
		c0-12.5-6.2-21.1-18.1-21.1c-11.1,0-18.7,8.4-18.7,20.6c0,11.9,7.5,20.6,19.2,20.6c9.1,0,15.7-5,17-12.7h-7.6
		c-1.2,3.5-5,5.7-9.4,5.7c-6.8,0-10.7-4.6-11.5-11.1h29V43.9z M204.8,54.8l-10.1-31.1h-8.4l13.4,39.3h9.8L223,23.7h-8L204.8,54.8z
		 M176.7,23.7c-3.3,0-4.7,0.5-5.8,1.5c-1.3,1.2-2.1,2.8-2.4,4.5v-6h-7.8v39.3h7.8V31.5h8.5c3.5,0,5-0.8,6.1-2c0.8-1,1.4-2.3,1.4-3.8
		v-2H176.7z M136.6,57.3c-4.4,0-7.1-2.3-7.1-5.9c0-3.5,2.7-5.8,7-5.8h10.4v5.8C144.3,55.3,141,57.3,136.6,57.3L136.6,57.3z
		 M139.2,22.8c-9.7,0-16.1,5.5-16.5,13.8h7.7c0.5-4.1,3.8-6.8,8.5-6.8c4.8,0,7.9,3,7.9,7.6v6.9c-1.2-3-5.3-5.1-10.4-5.1
		c-8.8,0-14.6,5-14.6,12.7c0,6.9,4.7,11.9,12.7,11.9c5.8,0,10.4-2.5,12.4-7.3v6.6h7.6V36.5C154.5,28.2,148.5,22.8,139.2,22.8
		L139.2,22.8z M104.1,22.8c-6.1,0-10.5,2.7-12.4,7.5V8.6h-7.8v54.5h7.8V32c3.1-1.2,5.8-1.8,8.5-1.8c6.1,0,9.2,2.6,9.2,8.1v24.7h7.8
		V36.5C117.2,27.6,112.3,22.8,104.1,22.8L104.1,22.8z M27.2,39.5v23.6h-3.9V27.6c0-2.2,1.8-3.9,3.9-3.9h11.6v11.8c0,2.2-1.7,4-3.8,4
		H27.2z M62.1,0v59.1c0,2.2-1.8,4-3.9,4h-3.8V3.9c0-2.2,1.7-3.9,3.8-3.9H62.1z M46.6,0h3.8v59.1c0,2.2-1.8,4-3.8,4h-3.9V19.7
		c0-2.2,1.8-3.9,3.9-3.9V0z M15.5,63.1h-3.8V3.9c0-2.2,1.7-3.9,3.8-3.9h3.9v43.3c0,2.2-1.8,4-3.9,4V63.1z M0,63.1V3.9
		C0,1.7,1.8,0,3.9,0h3.8v59.1c0,2.2-1.7,4-3.8,4H0z M0,63.1">
  </path>
 </g>
</svg>