<?xml version="1.0" encoding="utf-8"?>
<!-- Generator: Adobe Illustrator 24.2.1, SVG Export Plug-In . SVG Version: 6.00 Build 0)  -->
<svg version="1.1" id="Layer_1" xmlns="http://www.w3.org/2000/svg" xmlns:xlink="http://www.w3.org/1999/xlink" x="0px" y="0px"
	 viewBox="0 0 370.1 79.5" style="enable-background:new 0 0 370.1 79.5;" xml:space="preserve">
<style type="text/css">
	.st0{fill:#676767;}
</style>
<g>
	<path class="st0" d="M3,58.3c-1.7-1.9-2.5-4.4-2.5-7.5V1.1h9.8v45.7c0,2.1,0.1,3.6,0.4,4.5c0.2,0.9,0.7,1.4,1.3,1.6
		c0.6,0.2,1.6,0.3,3.1,0.3l-0.9,8.1h-3.6C7.3,61.1,4.7,60.2,3,58.3z"/>
	<path class="st0" d="M19.8,5h9.8v9.8h-9.8V5z M19.8,20.8h9.8v39.5h-9.8V20.8z"/>
	<path class="st0" d="M68.5,25.1c2.5,3.3,3.8,7.7,3.8,13.2v22h-9.8V39.1c0-3.7-0.6-6.4-1.9-8.2c-1.2-1.8-3.2-2.6-6-2.6
		c-3,0-5.5,1.1-7.4,3.4v28.7h-9.8V20.8h9.2l0.2,2.8c3.3-2.3,6.8-3.4,10.6-3.4C62.2,20.2,65.9,21.8,68.5,25.1z"/>
	<path class="st0" d="M79.7,1.1h9.8V37l12.2-16.2h11.1l-14.4,19l14.7,20.5h-11.1L89.5,42.8v17.5h-9.8V1.1z"/>
	<path class="st0" d="M146.9,23c2.7,1.8,4.7,4.3,6.1,7.4c1.4,3.1,2.1,6.5,2.1,10.3c0,3.7-0.7,7.2-2.1,10.3c-1.4,3.1-3.4,5.6-6.1,7.4
		c-2.7,1.8-5.9,2.8-9.6,2.8c-2.4,0-4.4-0.3-6-0.8s-3.3-1.3-4.8-2.4v21.5h-9.8V20.8h7.9l1,3.6c1.7-1.4,3.4-2.5,5.3-3.2
		c1.8-0.7,4-1.1,6.4-1.1C141,20.2,144.2,21.1,146.9,23z M142.5,49.7c1.6-2.3,2.4-5.3,2.4-9c0-3.7-0.8-6.7-2.4-9
		c-1.6-2.3-3.9-3.4-6.8-3.4c-3.3,0-5.7,1.1-7.3,3.3c-1.6,2.2-2.4,5.2-2.4,9.1c0,3.8,0.8,6.9,2.4,9.1c1.6,2.2,4.1,3.3,7.3,3.3
		C138.6,53.1,140.9,51.9,142.5,49.7z"/>
	<path class="st0" d="M160.8,20.8h9.2l0.2,4.2c1.2-1.3,2.6-2.5,4.5-3.5c1.8-1,3.7-1.5,5.7-1.5c0.6,0,1.2,0.1,1.7,0.2l-0.7,9.6
		c-1-0.3-2.1-0.4-3.4-0.4c-1.6,0-3.1,0.4-4.5,1.1c-1.4,0.8-2.3,1.7-2.9,2.8v26.9h-9.8V20.8z"/>
	<path class="st0" d="M192.7,58.3c-3.2-1.9-5.7-4.4-7.3-7.5c-1.6-3.1-2.4-6.6-2.4-10.5c0-3.7,0.8-7.1,2.3-10.1
		c1.5-3.1,3.7-5.5,6.6-7.3c2.9-1.8,6.3-2.7,10.4-2.7c3.7,0,6.8,0.8,9.4,2.3c2.6,1.5,4.5,3.6,5.8,6.2c1.3,2.6,1.9,5.5,1.9,8.7
		c0,1.6-0.2,3.4-0.6,5.4h-25.5c0.5,3.5,1.9,6.1,4.1,7.8c2.2,1.7,4.9,2.6,8,2.6c4.3,0,8.2-1.1,11.9-3.2l0.5,8.3
		c-1.7,0.9-3.6,1.6-5.9,2.2c-2.2,0.6-4.7,0.8-7.3,0.8C199.8,61.1,195.9,60.2,192.7,58.3z M209.4,36.1c0-2.1-0.6-3.9-1.7-5.5
		c-1.2-1.6-3-2.4-5.4-2.4c-2.4,0-4.4,0.7-5.8,2.1c-1.5,1.4-2.5,3.3-3,5.7H209.4z"/>
	<path class="st0" d="M219.3,20.8h9.6l9.7,27.3l9.7-27.3h9.6l-15.2,39.5h-8.4L219.3,20.8z"/>
	<path class="st0" d="M261.4,5h9.8v9.8h-9.8V5z M261.4,20.8h9.8v39.5h-9.8V20.8z"/>
	<path class="st0" d="M286.6,58.3c-3.2-1.9-5.7-4.4-7.3-7.5c-1.6-3.1-2.4-6.6-2.4-10.5c0-3.7,0.8-7.1,2.3-10.1
		c1.5-3.1,3.7-5.5,6.6-7.3c2.9-1.8,6.3-2.7,10.4-2.7c3.7,0,6.8,0.8,9.4,2.3c2.6,1.5,4.5,3.6,5.8,6.2c1.3,2.6,1.9,5.5,1.9,8.7
		c0,1.6-0.2,3.4-0.6,5.4h-25.5c0.5,3.5,1.9,6.1,4.1,7.8c2.2,1.7,4.9,2.6,8,2.6c4.3,0,8.2-1.1,11.9-3.2l0.5,8.3
		c-1.7,0.9-3.6,1.6-5.9,2.2c-2.2,0.6-4.7,0.8-7.3,0.8C293.7,61.1,289.8,60.2,286.6,58.3z M303.3,36.1c0-2.1-0.6-3.9-1.7-5.5
		c-1.2-1.6-2.9-2.4-5.4-2.4c-2.4,0-4.4,0.7-5.8,2.1c-1.5,1.4-2.5,3.3-3,5.7H303.3z"/>
	<path class="st0" d="M314.4,20.8h9.6l6.8,27.6l7.4-26.8h8.2l7.3,26.8l6.9-27.6h9.6l-11.5,39.5h-8.2l-8.1-25.8l-8.1,25.8h-8.2
		L314.4,20.8z"/>
</g>
</svg>
