<svg width="202" height="202" viewBox="0 0 202 202" fill="none" xmlns="http://www.w3.org/2000/svg">
<path fill-rule="evenodd" clip-rule="evenodd" d="M165.469 73.0594C185.644 73.0594 201.999 56.7045 201.999 36.5297C201.999 16.3549 185.644 0 165.469 0C145.295 0 128.94 16.3549 128.94 36.5297C128.94 56.7045 145.295 73.0594 165.469 73.0594ZM94.4573 6.37649H94.1662C79.0302 6.37646 67.2776 6.37643 57.8565 7.14617C48.3002 7.92695 40.5798 9.53153 33.6505 13.0622C22.1086 18.9431 12.7248 28.3269 6.84388 39.8688C3.31325 46.7981 1.70866 54.5185 0.927885 64.0748C0.158147 73.4959 0.158172 85.2485 0.158204 100.384V100.676V107.543V107.834C0.158172 122.97 0.158147 134.723 0.927885 144.144C1.70866 153.7 3.31325 161.421 6.84388 168.35C12.7248 179.892 22.1086 189.276 33.6505 195.157C40.5798 198.687 48.3003 200.292 57.8565 201.073C67.2775 201.842 79.0298 201.842 94.1654 201.842H94.1658H94.4573H101.325H101.616H101.617C116.752 201.842 128.505 201.842 137.926 201.073C147.482 200.292 155.202 198.687 162.132 195.157C173.674 189.276 183.057 179.892 188.938 168.35C192.469 161.421 194.073 153.7 194.854 144.144C195.624 134.723 195.624 122.971 195.624 107.835V107.835V107.543V104.109C195.624 100.57 192.755 97.7007 189.215 97.7007C185.676 97.7007 182.807 100.57 182.807 104.109V107.543C182.807 123.031 182.802 134.262 182.079 143.1C181.363 151.864 179.974 157.71 177.518 162.531C172.866 171.661 165.443 179.084 156.313 183.736C151.491 186.193 145.646 187.582 136.882 188.298C128.043 189.02 116.813 189.025 101.325 189.025H94.4573C78.9693 189.025 67.7387 189.02 58.9002 188.298C50.1366 187.582 44.2907 186.193 39.4695 183.736C30.3393 179.084 22.9163 171.661 18.2642 162.531C15.8077 157.71 14.4187 151.864 13.7027 143.1C12.9805 134.262 12.9756 123.031 12.9756 107.543V100.676C12.9756 85.1876 12.9805 73.957 13.7027 65.1185C14.4187 56.3549 15.8077 50.509 18.2642 45.6878C22.9163 36.5576 30.3393 29.1346 39.4695 24.4825C44.2907 22.026 50.1366 20.637 58.9002 19.921C67.7387 19.1988 78.9693 19.1938 94.4573 19.1938H97.8911C101.43 19.1938 104.3 16.3246 104.3 12.7852C104.3 9.24575 101.43 6.37649 97.8911 6.37649H94.4573Z" fill="black"/>
</svg>
