<?xml version="1.0" encoding="utf-8"?>
<!-- Generator: Adobe Illustrator 26.0.3, SVG Export Plug-In . SVG Version: 6.00 Build 0)  -->
<svg version="1.1" id="Mezmo" xmlns="http://www.w3.org/2000/svg" xmlns:xlink="http://www.w3.org/1999/xlink" x="0px" y="0px"
	 viewBox="0 0 669 255.1" style="enable-background:new 0 0 669 255.1;" xml:space="preserve">
<style type="text/css">
	.st0{fill:#E9FF92;}
</style>
<path class="st0" d="M512.8,150.5v-45.9c0-10.2,7.9-18,18-18h36.1c10.2,0,18,7.9,18,18v45.9c0,10.2-7.9,18-18,18h-36.1
	C520.6,168.6,512.8,160.7,512.8,150.5z M527.8,104.9v45.3c0,2,1.3,3.3,3.3,3.3h35.4c2,0,3.3-1.3,3.3-3.3v-45.3c0-2-1.3-3.3-3.3-3.3
	h-35.4C529.2,101.6,527.8,103,527.8,104.9 M429.3,107.2v51.5c0,6.6,3,11.2,9.8,11.2c5.2,0,8.9-3.9,10.8-9.5l18.4-53.1
	c1.5-4.4,3.8-6.9,8.4-6.9c3.4,0,6.4,2.5,6.4,6.9v60.4c0,0.7,0.3,1,1,1h13c0.7,0,1-0.3,1-1v-60.7c0-12.1-9.3-21.6-21-21.6
	c-11.3,0-18.9,7.1-22.5,17.7l-8.7,25.6c-0.3,1-0.5,1.3-1,1.3s-0.7-0.3-0.7-0.7v-22.3c0-12.1-9.3-21.6-21-21.6
	c-11.3,0-18.9,7.1-22.5,17.7l-8.7,25.6c-0.3,1-0.5,1.3-1,1.3s-0.7-0.3-0.7-0.7V87.5c0-0.7-0.3-1-1-1h-13c-0.7,0-1,0.3-1,1v71.2
	c0,6.6,3,11.2,9.8,11.2c5.2,0,8.9-3.9,10.8-9.5l18.4-53.1c1.5-4.1,4.1-6.9,8.4-6.9C426.3,100.3,429.3,102.8,429.3,107.2z
	 M344.3,86.6h-45.6c-0.7,0-1,0.3-1,1v13.1c0,0.7,0.3,1,1,1H344c2.5,0,3.9,1.3,3.9,3.4c0,2.3-1.1,3.1-3.6,4.8l-35.1,22.3
	c-6.7,4.3-11.8,9.5-11.8,18.7c0,9.8,8.2,17.7,19,17.7h45.9c0.7,0,1-0.3,1-1v-13.1c0-0.7-0.3-1-1-1h-45.6c-2.5,0-3.9-1.3-3.9-3.4
	s1.1-3.1,3.6-4.8l35.1-22.3c6.2-3.9,11.8-9.5,11.8-18.7C363.4,94.4,355.2,86.6,344.3,86.6z M221.3,150.5v-45.9c0-10.2,7.9-18,18-18
	h29.5c10.8,0,18.7,8.5,18.7,17.7c0,7.5-3.3,12.8-10.5,17.4l-39.7,25.3c-0.5,0.3-1,0.7-1,1.6v1.6c0,2,1.3,3.3,3.3,3.3h45.6
	c0.7,0,1,0.3,1,1v13.1c0,0.7-0.3,1-1,1h-45.9C229.2,168.6,221.3,160.7,221.3,150.5z M236.4,104.9V129c0,0.5,0.3,0.8,0.8,0.8
	s0.8-0.2,2.1-1l29.8-19c2-1.1,3.3-2.3,3.3-4.6c0-2.1-1.5-3.6-3.9-3.6h-28.9C237.7,101.6,236.4,103,236.4,104.9z M137.9,107.2v51.5
	c0,6.6,3,11.2,9.8,11.2c5.2,0,8.9-3.9,10.8-9.5l18.4-53.1c1.5-4.4,3.8-6.9,8.4-6.9c3.4,0,6.4,2.5,6.4,6.9v60.4c0,0.7,0.3,1,1,1h13
	c0.7,0,1-0.3,1-1v-60.7c0-12.1-9.3-21.6-21-21.6c-11.3,0-18.9,7.1-22.5,17.7l-8.7,25.6c-0.3,1-0.5,1.3-1,1.3c-0.5,0-0.7-0.3-0.7-0.7
	v-22.3c0-12.1-9.3-21.6-21-21.6c-11.3,0-18.9,7.1-22.5,17.7l-8.7,25.6c-0.3,1-0.5,1.3-1,1.3s-0.7-0.3-0.7-0.7V87.5c0-0.7-0.3-1-1-1
	H85c-0.7,0-1,0.3-1,1v71.2c0,6.6,3,11.2,9.8,11.2c5.2,0,8.9-3.9,10.8-9.5l18.4-53.1c1.5-4.1,4.1-6.9,8.4-6.9
	C134.9,100.3,137.9,102.8,137.9,107.2z"/>
</svg>
