<svg version="1.1" id="Layer_1" xmlns:x="ns_extend;" xmlns:i="ns_ai;" xmlns:graph="ns_graphs;" xmlns="http://www.w3.org/2000/svg" xmlns:xlink="http://www.w3.org/1999/xlink" x="0px" y="0px" viewBox="0 0 180.4 62.6" style="enable-background:new 0 0 180.4 62.6;" xml:space="preserve">
 <style type="text/css">
  .st0{fill:#FFFFFF;}
	.st1{fill-rule:evenodd;clip-rule:evenodd;}
 </style>
 <metadata>
  <sfw xmlns="ns_sfw;">
   <slices>
   </slices>
   <sliceSourceBounds bottomLeftOrigin="true" height="62.6" width="180.4" x="109.1" y="168.9">
   </sliceSourceBounds>
  </sfw>
 </metadata>
 <g>
  <g>
   <path class="st0" d="M3.8,2.7l34.6-2.6c4.2-0.4,5.3-0.1,8,1.8l11.1,7.8c1.8,1.3,2.4,1.7,2.4,3.2v42.7c0,2.7-1,4.3-4.4,4.5
			l-40.2,2.4c-2.6,0.1-3.8-0.2-5.1-1.9L2.1,50.1c-1.5-2-2.1-3.4-2.1-5.1V7C0,4.8,1,2.9,3.8,2.7L3.8,2.7z M3.8,2.7">
   </path>
   <path class="st1" d="M38.4,0.1L3.8,2.7C1,2.9,0,4.8,0,7v38c0,1.7,0.6,3.2,2.1,5.1l8.1,10.6c1.3,1.7,2.6,2.1,5.1,1.9l40.2-2.4
			c3.4-0.2,4.4-1.8,4.4-4.5V12.9c0-1.4-0.5-1.8-2.2-3c-0.1-0.1-0.2-0.1-0.3-0.2L46.4,2C43.8,0,42.7-0.2,38.4,0.1L38.4,0.1z
			 M16.2,12.2c-3.3,0.2-4,0.3-5.9-1.3L5.6,7.2C5.1,6.7,5.3,6.1,6.6,6l33.3-2.4c2.8-0.2,4.2,0.7,5.3,1.6l5.7,4.1
			c0.3,0.1,0.9,0.8,0.1,0.8l-34.4,2.1L16.2,12.2z M12.4,55.3V19c0-1.6,0.5-2.3,1.9-2.4l39.5-2.3c1.3-0.1,1.9,0.7,1.9,2.3v36
			c0,1.6-0.3,2.9-2.4,3l-37.8,2.2C13.4,58,12.4,57.2,12.4,55.3L12.4,55.3z M49.7,21c0.2,1.1,0,2.2-1.1,2.3l-1.8,0.4v26.8
			c-1.6,0.9-3,1.3-4.2,1.3c-1.9,0-2.4-0.6-3.9-2.4L26.7,30.6v18.1l3.8,0.9c0,0,0,2.2-3,2.2l-8.4,0.5c-0.2-0.5,0-1.7,0.8-1.9l2.2-0.6
			v-24l-3-0.3c-0.2-1.1,0.4-2.7,2.1-2.8l9-0.6l12.4,19V24.3l-3.2-0.4c-0.2-1.3,0.7-2.3,1.9-2.4L49.7,21z M49.7,21">
   </path>
  </g>
  <path d="M86.5,44.4V27.9h0.3l11.9,16.5h3.8V20.1h-4.2v16.5H98L86.1,20.1h-3.8v24.3H86.5L86.5,44.4z M114.2,44.7
		c5.5,0,8.8-3.6,8.8-9.6c0-5.9-3.4-9.6-8.8-9.6c-5.5,0-8.8,3.6-8.8,9.6C105.3,41.1,108.7,44.7,114.2,44.7L114.2,44.7z M114.2,41.2
		c-2.9,0-4.6-2.2-4.6-6.1c0-3.8,1.7-6.1,4.6-6.1c2.9,0,4.6,2.2,4.6,6.1C118.7,39,117.1,41.2,114.2,41.2L114.2,41.2z M126.8,21.5v4.6
		h-2.9v3.3h2.9v10c0,3.6,1.7,5,5.9,5c0.8,0,1.6-0.1,2.2-0.2V41c-0.5,0.1-0.8,0.1-1.4,0.1c-1.7,0-2.5-0.8-2.5-2.6v-9h3.9v-3.3H131
		v-4.6H126.8z M137.4,44.4h4.2V26h-4.2V44.4z M139.5,22.9c1.4,0,2.5-1.1,2.5-2.5c0-1.4-1.1-2.5-2.5-2.5c-1.4,0-2.5,1.1-2.5,2.5
		C137,21.8,138.1,22.9,139.5,22.9L139.5,22.9z M153,44.7c5.5,0,8.8-3.6,8.8-9.6c0-5.9-3.4-9.6-8.8-9.6c-5.5,0-8.8,3.6-8.8,9.6
		C144.1,41.1,147.5,44.7,153,44.7L153,44.7z M153,41.2c-2.9,0-4.6-2.2-4.6-6.1c0-3.8,1.7-6.1,4.6-6.1c2.9,0,4.6,2.2,4.6,6.1
		C157.5,39,155.9,41.2,153,41.2L153,41.2z M164.3,44.4h4.2V33.6c0-2.7,1.6-4.4,4-4.4c2.5,0,3.7,1.4,3.7,4.2v10.9h4.2V32.4
		c0-4.4-2.2-6.9-6.3-6.9c-2.7,0-4.6,1.3-5.5,3.3h-0.3V26h-4V44.4z M164.3,44.4">
  </path>
 </g>
</svg>