<?xml version="1.0" encoding="UTF-8" standalone="no"?> <svg xmlns="http://www.w3.org/2000/svg" xmlns:xlink="http://www.w3.org/1999/xlink" width="162px" height="37px" viewBox="0 0 162 37"><!-- Generator: Sketch 3.8.3 (29802) - http://www.bohemiancoding.com/sketch --><title>pendo-logo-footer</title><desc>Created with Sketch.</desc><defs><polygon id="path-1" points="119.966924 29.4533849 119.966924 7.52464538 98.0384269 7.52464538 98.0384269 29.4533849 119.966924 29.4533849"></polygon><polygon id="path-3" points="-41.1428168 36.8559328 -8.04217815 36.8559328 -8.04217815 3.75517311 -41.1428168 3.75517311 -41.1428168 36.8559328"></polygon></defs><g id="Page-1" stroke="none" stroke-width="1" fill="none" fill-rule="evenodd"><g id="pendo-logo-footer" transform="translate(42.000000, 0.000000)"><path d="M18.5364706,18.366958 C18.5364706,22.4693445 15.1990588,25.8067563 11.0968739,25.8067563 C6.99468908,25.8067563 3.65707563,22.4693445 3.65707563,18.366958 C3.65707563,14.2647731 6.99468908,10.9273613 11.0968739,10.9273613 C15.1990588,10.9273613 18.5364706,14.2647731 18.5364706,18.366958 M11.0968739,7.40258824 C8.31468908,7.40258824 5.69102521,8.43539496 3.65707563,10.3209076 L3.65707563,7.57905882 L3.65707563,7.37737815 L3.45539496,7.37737815 L0.334184874,7.37737815 L0.132504202,7.37737815 L0.132504202,7.57905882 L0.132504202,36.6541513 L0.132504202,36.8558319 L0.334184874,36.8558319 L3.45539496,36.8558319 L3.65707563,36.8558319 L3.65707563,36.6541513 L3.65707563,26.4130084 C5.69102521,28.298521 8.31468908,29.3313277 11.0968739,29.3313277 C17.1426555,29.3313277 22.061042,24.4127395 22.061042,18.366958 C22.061042,12.3211765 17.1426555,7.40258824 11.0968739,7.40258824" id="Fill-1" fill="#000000"></path><path d="M28.5056471,16.5794622 C29.3111597,13.2749244 32.3117647,10.9021513 35.7344874,10.9021513 C39.1126387,10.9021513 41.9426218,13.2243025 42.6967059,16.5794622 L28.5056471,16.5794622 Z M35.7344874,7.37737815 C29.6887059,7.37737815 24.7703193,12.2959664 24.7703193,18.3417479 C24.7703193,24.3875294 29.6887059,29.3061176 35.7344874,29.3061176 C39.1203025,29.3061176 42.2282017,28.0385546 44.2611429,25.8283361 L45.3177479,24.6797647 L45.4542857,24.5313277 L45.3058487,24.3947899 L43.0087059,22.2817815 L42.8602689,22.1452437 L42.7237311,22.2936807 L41.6671261,23.4424538 C40.3196975,24.9070588 38.1018151,25.7815462 35.7344874,25.7815462 C32.3119664,25.7815462 29.3111597,23.4085714 28.5056471,20.1040336 L46.2134118,20.1040336 L46.4150924,20.1040336 L46.4150924,19.9023529 L46.4150924,18.3417479 C46.4150924,12.1935126 41.7235966,7.37737815 35.7344874,7.37737815 L35.7344874,7.37737815 Z" id="Fill-3" fill="#000000"></path><path d="M59.7467899,7.37745882 C57.2306218,7.37745882 54.8338487,8.32878655 52.9471261,10.0662655 L52.9471261,7.5791395 L52.9471261,7.37745882 L52.7454454,7.37745882 L49.6242353,7.37745882 L49.4225546,7.37745882 L49.4225546,7.5791395 L49.4225546,18.1998454 L49.4225546,19.7604504 L49.4225546,29.2767529 L49.4225546,29.4784336 L49.6242353,29.4784336 L52.7454454,29.4784336 L52.9471261,29.4784336 L52.9471261,29.2767529 L52.9471261,19.7604504 L52.9471261,18.1998454 C52.9471261,14.1759126 55.9973445,10.9020303 59.7467899,10.9020303 C63.496437,10.9020303 66.5468571,14.1759126 66.5468571,18.1998454 L66.5468571,29.2767529 L66.5468571,29.4784336 L66.7485378,29.4784336 L69.8697479,29.4784336 L70.0714286,29.4784336 L70.0714286,29.2767529 L70.0714286,18.1998454 C70.0714286,12.232316 65.4398319,7.37745882 59.7467899,7.37745882" id="Fill-5" fill="#000000"></path><path d="M91.4595429,18.4890151 C91.4595429,22.5912 88.1221311,25.9286118 84.0199462,25.9286118 C79.9175597,25.9286118 76.5801479,22.5912 76.5801479,18.4890151 C76.5801479,14.3866286 79.9175597,11.0492168 84.0199462,11.0492168 C88.1221311,11.0492168 91.4595429,14.3866286 91.4595429,18.4890151 L91.4595429,18.4890151 Z M91.6612235,0.000141176471 L91.4595429,0.000141176471 L91.4595429,0.201821849 L91.4595429,10.4429647 C89.4255933,8.55725042 86.8021311,7.52464538 84.0199462,7.52464538 C77.9741647,7.52464538 73.0555765,12.4432336 73.0555765,18.4890151 C73.0555765,24.5347966 77.9741647,29.4533849 84.0199462,29.4533849 C86.8021311,29.4533849 89.4255933,28.4205782 91.4595429,26.5350655 L91.4595429,29.2769143 L91.4595429,29.478595 L91.6612235,29.478595 L94.7824336,29.478595 L94.9841143,29.478595 L94.9841143,29.2769143 L94.9841143,0.201821849 L94.9841143,0.000141176471 L94.7824336,0.000141176471 L91.6612235,0.000141176471 Z" id="Fill-7" fill="#000000"></path><mask id="mask-2" fill="white"><use href="#path-1"></use></mask><g id="Clip-10"></g><path d="M116.442393,18.4890151 C116.442393,22.5912 113.104982,25.9286118 109.002595,25.9286118 C104.90041,25.9286118 101.562998,22.5912 101.562998,18.4890151 C101.562998,14.3866286 104.90041,11.0492168 109.002595,11.0492168 C113.104982,11.0492168 116.442393,14.3866286 116.442393,18.4890151 M109.002595,7.52464538 C102.957015,7.52464538 98.0384269,12.4432336 98.0384269,18.4890151 C98.0384269,24.5347966 102.957015,29.4533849 109.002595,29.4533849 C115.048376,29.4533849 119.966965,24.5347966 119.966965,18.4890151 C119.966965,12.4432336 115.048376,7.52464538 109.002595,7.52464538" id="Fill-9" fill="#000000" mask="url(#mask-2)"></path><mask id="mask-4" fill="white"><use href="#path-3"></use></mask><g id="Clip-13"></g><polygon id="Fill-12" fill="#ec2059" mask="url(#mask-4)" points="-24.5924975 3.75517311 -41.1428168 20.3054924 -24.5924975 20.3054924 -24.5924975 36.8560134 -8.04217815 20.3054924 -8.04217815 3.75517311"></polygon></g></g></svg> 