<svg data-name="Layer 1" id="Layer_1" viewBox="0 0 617.33 194.67" xmlns="http://www.w3.org/2000/svg"><title>Logo_rgb</title><path d="M91,105.6c-7.3,26-13.32,47.84-13.81,50.8A6.19,6.19,0,0,1,71,161.82q-.34,0-.69,0A6.2,6.2,0,0,1,64.87,155c.27-2.44,5.16-20.42,11.13-41.8-8.44,3.93-15.38,6.47-19.66,7a15.66,15.66,0,0,1-2.08.15c-4.19,0-6.3-2-7.35-3.76A6.19,6.19,0,0,1,55,107.93c3.68-.52,13.1-4.39,25.48-10.81,6.21-22.07,12.63-44.58,15.83-55.78a6.19,6.19,0,0,1,11.9,3.4c-3.8,13.3-8.22,28.82-12.51,44,5.34-3.09,11-6.51,16.68-10.2,30.93-20,52-39.12,56.25-51.31,1.6-4.55.43-6.65-1.83-8.4-5.42-4.21-22.08-4.73-52.6,6.41-45.74,16.69-94.06,49.1-98.67,66a7,7,0,0,0,1.43.13,6.19,6.19,0,1,1,.56,12.36c-1.31.06-8.07.16-12-4.5a11.35,11.35,0,0,1-2.21-10C6.39,74.8,26.08,59,42.05,48.21A328.67,328.67,0,0,1,110,13.61c21.82-8,50.71-15.22,64.44-4.57,6.4,5,8.72,12.16,6.54,20.26-2.81,10.47-15.2,28.91-58.25,57.28C112,93.65,101,100.19,91,105.6Zm415.34-8.29c-4.76,13.17-15.91,44-2.08,50.34a6.19,6.19,0,0,1-5.15,11.25c-17.55-8-15.33-29.7-10.34-47.77-19.69,23.35-32,35.2-41.76,35.2h0a9.25,9.25,0,0,1-7.62-3.85c-5.25-7.21-1.82-21.79,8.41-53.86.35-1.1.71-2.24,1.08-3.39q-1.35,1.77-2.9,4c-6.29,9-12.85,20.42-18.64,30.5-4,7-7.52,13.12-10.47,17.62s-7.3,11.17-13.49,8.86a7.54,7.54,0,0,1-4.2-4.05c-1-2.33-3-6.67,4.74-37.8,1.32-5.32,2.75-10.72,4.09-15.56-10.46,9.24-19.65,14.59-27.32,17.61a52.75,52.75,0,0,1-4.94,14.85c-11.35,22.45-25.08,33.09-38.65,30-5.21-1.2-9.11-4.91-11-10.43-4.69-13.69,3.49-35.37,21.89-58a6.18,6.18,0,0,1,7-1.88,35.29,35.29,0,0,1,4-2.78c4.88-2.85,9.09-3.51,12.52-2,4.27,2,6.65,6.56,7.89,10.09a35.1,35.1,0,0,1,1.56,6.41c7.92-4,17.95-11.14,29.7-23.81,2.5-2.7,7.16-7.71,12.31-4.48s2.69,9.28,1.55,12.21c-1.61,4.12-7.91,26.51-11.49,43.18,1.22-2.1,2.43-4.21,3.58-6.22,17.2-30,29.4-49.69,41.66-50.66a6.58,6.58,0,0,1,5.68,2.47c2.94,3.71,1.86,7.5-4.36,27-3.23,10.11-10.32,32.35-10.33,40.75,2.29-1.21,6.53-4.19,13.66-11.48,7.65-7.82,15.82-17.7,22.38-25.63,10.34-12.5,12.62-15,15.5-16a6.46,6.46,0,0,1,6.81,1.51C510.84,84.79,509.61,88.2,506.31,97.31ZM367.09,109.77a36.4,36.4,0,0,1-5.63.11c-6-.38-10.91-2.42-13.82-5.66-10.54,16.74-11.48,28-9.91,32.52.71,2.07,1.71,2.31,2.09,2.39,7.25,1.68,16.53-7.1,24.81-23.48A43.53,43.53,0,0,0,367.09,109.77ZM368.87,97a20.7,20.7,0,0,0-2.29-9c-3,1.22-8,5.77-9.1,8.38a13,13,0,0,0,5.93,1.17A25.27,25.27,0,0,0,368.87,97ZM614.56,77.48c-16.62,18.37-31,25.85-42.15,28.32a61.57,61.57,0,0,1-3.86,9.36c-13.34,26.13-26.16,32.67-35.64,32.67a21,21,0,0,1-4.3-.45c-5.1-1.09-9-4.63-10.87-10-5-14,3.77-37.16,23.52-61.87a6.18,6.18,0,0,1,7-2c4.93-4.17,11.6-7.86,17.06-5.41,3.28,1.47,5.91,4.8,7.61,9.63a39.9,39.9,0,0,1,1.93,14.44c8.21-3,18.47-9.7,30.57-23.07a6.19,6.19,0,0,1,9.18,8.3Zm-55.65,29.1c-8.9-1.06-15.15-5.17-18.29-8.91a95.74,95.74,0,0,0-9,17.92c-2.68,7.36-3.5,14-2.18,17.65.64,1.79,1.44,2,1.79,2,7.44,1.58,17.31-8,26.35-25.74C558,108.53,558.5,107.55,558.91,106.58Zm1.56-26.45c-3.43,1.52-9.18,7.13-10.05,9.93,1.31,1.31,5,3.92,11.19,4.34l.6,0C563,87.56,561.73,82.34,560.47,80.13ZM528.84,46.7c1.45-5.59-1.4-11.18-6.39-12.48S512.25,36.4,510.78,42s1.41,11.17,6.39,12.47S527.37,52.29,528.84,46.7ZM325.35,71c-2.59-1.34-6.56-1.07-9-.73C304,72,290.29,80.56,285.62,85.84c1.66.73,4,1.55,5.84,2.22,8.94,3.18,21.19,7.55,26.14,18.48,3,6.7,2.75,14.73-.87,23.86-10.91,27.52-32.39,34.3-44.47,34.3a22.06,22.06,0,0,1-6.08-.74c-7.3-2.16-12.59-6.7-15.3-13.12-6.79-16.06,4.6-38.65,5.92-41.17a6.19,6.19,0,0,1,11,5.74c-2.83,5.43-9.33,21.54-5.48,30.62,1.28,3,3.64,4.95,7.43,6.07,1.12.33,7.31.9,15-2.71,6.25-2.92,14.87-9.38,20.48-23.55,2.34-5.89,2.71-10.66,1.11-14.19-2.79-6.15-11.79-9.36-19-11.94-7-2.48-12.48-4.44-14.58-9.34a9.21,9.21,0,0,1,.06-7.28c-17.71,3-31.94,14.28-42.37,33.56a117.63,117.63,0,0,0-9.37,23.3c-1.72,7.66-3,13-3,13.05a6.19,6.19,0,0,1-6,4.79,6.27,6.27,0,0,1-1.14-.1,6.19,6.19,0,0,1-5-6.95,112.2,112.2,0,0,1,3.24-14.3c3-13.53,5.92-26.84,8-37.2-12.88,17.35-44.5,56.68-66.49,56.83-6.29.08-11.5-2.84-15.09-8.35a19,19,0,0,1-1.14-2,51.53,51.53,0,0,1-10.65,2.81c-9.85,1.45-18.54-.61-25.11-5.93a6.19,6.19,0,0,1,7.79-9.62c4.82,3.91,11.1,3.95,15.52,3.31a41.41,41.41,0,0,0,9.91-2.84c-.15-13.88,6.35-29.94,9-35.81C148.65,80.16,162,60.7,176.17,58.47c6.73-1.06,12.35,1.14,15.44,6C198.4,75.24,189.27,93,180.42,106c-10.24,15-22.43,26.88-34.84,34.31a6,6,0,0,0,.39.71c1.58,2.42,3.21,2.76,4.63,2.73,3.52,0,14.1-2.72,36.33-27.13a323.67,323.67,0,0,0,25.56-32l1.12-1.79c4.19-6.71,7.24-11.56,12.63-11a7.48,7.48,0,0,1,6.18,5.26c.54,1.56,1,3-1.64,17.11C244.33,78.36,261.87,70,282.35,69.87h0a6.3,6.3,0,0,1,2.42.49c8.52-6,19.9-10.94,29.82-12.36,12.16-1.73,18.5,2.41,21.69,6.2s4.19,11-9.23,23.89a6.19,6.19,0,1,1-8.56-8.93A45.54,45.54,0,0,0,325.35,71ZM144.91,126c8.88-6.5,17.61-15.72,25.29-27,12.16-17.83,12-26.15,11-27.85-.25-.39-1-.53-1.76-.53a9.25,9.25,0,0,0-1.3.1c-8.25,1.3-19.28,17.06-25.91,32A94.52,94.52,0,0,0,144.91,126Zm455,55.26H16.71v12.38H599.9Z"></path></svg>