<svg version="1.1" id="Layer_1" xmlns:x="ns_extend;" xmlns:i="ns_ai;" xmlns:graph="ns_graphs;" xmlns="http://www.w3.org/2000/svg" xmlns:xlink="http://www.w3.org/1999/xlink" x="0px" y="0px" viewBox="0 0 218.2 49" style="enable-background:new 0 0 218.2 49;" xml:space="preserve">
 <style type="text/css">
  .st0{fill:#5AEDC5;}
	.st1{fill:#232A55;}
 </style>
 <metadata>
  <sfw xmlns="ns_sfw;">
   <slices>
   </slices>
   <sliceSourceBounds bottomLeftOrigin="true" height="49" width="218.2" x="-594.8" y="566">
   </sliceSourceBounds>
  </sfw>
 </metadata>
 <g>
  <g>
   <path class="st0" d="M7,15.9C7,11,11,7,15.9,7h12V0h-12C7.1,0,0,7.1,0,15.9v22.3h7V15.9z">
   </path>
   <polygon class="st0" points="7,41.8 0,41.8 0,48.8 7,48.8 		">
   </polygon>
   <polygon class="st0" points="17.7,41.8 10.7,41.8 10.7,48.8 17.7,48.8 		">
   </polygon>
   <polygon class="st0" points="28.1,41.8 21.1,41.8 21.1,48.8 28.1,48.8 		">
   </polygon>
   <polygon class="st0" points="38.5,41.8 31.5,41.8 31.5,48.8 38.5,48.8 		">
   </polygon>
   <polygon class="st0" points="48.9,41.8 41.9,41.8 41.9,48.8 48.9,48.8 		">
   </polygon>
   <polygon class="st0" points="48.9,31.4 41.9,31.4 41.9,38.4 48.9,38.4 		">
   </polygon>
   <polygon class="st0" points="48.9,20.8 41.9,20.8 41.9,27.8 48.9,27.8 		">
   </polygon>
   <polygon class="st0" points="48.9,10.4 41.9,10.4 41.9,17.4 48.9,17.4 		">
   </polygon>
   <polygon class="st0" points="48.9,0 41.9,0 41.9,7 48.9,7 		">
   </polygon>
   <polygon class="st0" points="38.4,0 31.4,0 31.4,7 38.4,7 		">
   </polygon>
  </g>
  <g>
   <path class="st1" d="M82.2,25.4c-2.4,0-4.8,0.6-7,1.8v20.3c0,0.6-0.4,1-1,1.1h-4.6c-0.6,0-1-0.5-1-1.1V21.1c0-0.6,0.5-1,1-1H74
			c0.6,0,1,0.5,1,1v1.1c2.1-1.6,4.6-2.4,7.2-2.4c0.6,0,1,0.5,1,1v3.6C83.2,24.9,82.8,25.4,82.2,25.4z">
   </path>
   <path class="st1" d="M108.8,36.7H92.4v0.2c0,2.9,1.2,6.4,6.1,6.4c3.1,0,6.2-0.2,9.3-0.5h0.2c0.5,0,0.9,0.2,0.9,0.8v3.3
			c0,0.8-0.2,1.2-1.1,1.3c-3.2,0.6-6.5,0.9-9.8,0.8c-5,0-12.2-2.7-12.2-12.7v-3.7c0-7.9,4.4-12.8,12.1-12.8c7.8,0,12,5.3,12,12.8
			v2.8C109.8,36.2,109.5,36.7,108.8,36.7L108.8,36.7z M103.1,31.7c0-3.9-2.2-6.2-5.3-6.2s-5.4,2.2-5.4,6.2v0.2h10.7L103.1,31.7z">
   </path>
   <path class="st1" d="M137.8,48.6h-4.6c-0.6,0-1-0.5-1-1.1V31.1c0-4.4-0.4-5.6-4.3-5.6c-2,0.1-4,0.8-5.7,1.8v20.3
			c0,0.6-0.4,1-1,1.1h-4.6c-0.6,0-1-0.5-1-1.1V21.1c0-0.6,0.5-1,1-1h4.4c0.6,0,1,0.5,1,1v1.1c2.4-1.7,5.3-2.6,8.2-2.4
			c7.3,0,8.7,4.9,8.7,11.3v16.5C138.8,48.1,138.4,48.5,137.8,48.6z">
   </path>
   <path class="st1" d="M166.6,47.7c-3.3,0.8-6.7,1.3-10.2,1.3c-8.1,0-12.1-4.8-12.1-12.7v-3.9c0-7.9,3.9-12.7,12.1-12.7
			c1.6,0,3.2,0.1,4.9,0.4v-8.9c0-0.6,0.5-1,1-1h4.6c0.6,0,1,0.5,1,1v35.1C168,47.1,167.8,47.4,166.6,47.7L166.6,47.7z M161.3,25.6
			c-1.6-0.2-3.2-0.3-4.9-0.4c-4.3,0-5.4,3.1-5.4,7.2v3.9c0,4.1,1.1,7.2,5.4,7.2c1.6,0,3.2-0.1,4.9-0.4V25.6z">
   </path>
   <path class="st1" d="M196.8,36.7h-16.5v0.2c0,2.9,1.2,6.4,6.1,6.4c3.1,0,6.2-0.2,9.3-0.5h0.2c0.5,0,0.9,0.2,0.9,0.8v3.3
			c0,0.8-0.2,1.2-1.1,1.3c-3.2,0.6-6.5,0.9-9.8,0.8c-5,0-12.2-2.7-12.2-12.7v-3.7c0-7.9,4.4-12.8,12.1-12.8c7.8,0,12,5.3,12,12.8
			v2.8C197.8,36.2,197.5,36.7,196.8,36.7L196.8,36.7z M191.1,31.7c0-3.9-2.2-6.2-5.3-6.2c-3.1,0-5.4,2.2-5.4,6.2v0.2h10.7
			L191.1,31.7z">
   </path>
   <path class="st1" d="M217.2,25.4c-2.4,0-4.8,0.6-7,1.8v20.3c0,0.6-0.4,1-1,1.1h-4.6c-0.6,0-1-0.5-1-1.1V21.1c0-0.6,0.5-1,1-1h4.4
			c0.6,0,1,0.5,1,1v1.1c2.1-1.6,4.6-2.4,7.2-2.4c0.6,0,1,0.5,1,1v3.6C218.2,24.9,217.7,25.4,217.2,25.4L217.2,25.4z">
   </path>
  </g>
 </g>
</svg>