<svg xmlns="http://www.w3.org/2000/svg" class="logo" viewBox="0 0 1347.5 249" width="160"><defs><style>.\34 2bb7f56-e3b9-44f7-85de-bee213c97c6d{fill:#2f3538;}.b981284c-cf0b-40ba-b53e-df02eae29f0b{fill:url(#c97ba217-15b3-4824-adc1-ff00ffcdb43e);}.\33 1876317-9124-4b00-a73a-e476ee99c364{fill:#bde9fe;}.\32 d4bbcf7-d8c8-4362-b117-e8cccb7275fc,.b9ced626-8cd2-4eea-942d-f2182d2c67ad{fill:#054975;}.\32 d4bbcf7-d8c8-4362-b117-e8cccb7275fc{opacity:0.8;}.\32 8e664f4-b0f8-40c7-9f17-d985031e7d4e{fill:url(#2c6554d1-4962-4e81-978c-6d37e37835f5);}</style><linearGradient gradientUnits="userSpaceOnUse" id="c97ba217-15b3-4824-adc1-ff00ffcdb43e" x1="50" x2="222.75" y1="41.57" y2="268.26"><stop offset="0" stop-color="#8cd7fc"></stop><stop offset="0.31" stop-color="#63c7f8"></stop><stop offset="0.56" stop-color="#0af"></stop><stop offset="1" stop-color="#054975"></stop></linearGradient><linearGradient gradientUnits="userSpaceOnUse" id="2c6554d1-4962-4e81-978c-6d37e37835f5" x1="63.04" x2="31.11" y1="186.19" y2="273.55"><stop offset="0" stop-color="#63c7f8"></stop><stop offset="0" stop-color="#62c7f8"></stop><stop offset="0.17" stop-color="#2db7fc"></stop><stop offset="0.29" stop-color="#0caefe"></stop><stop offset="0.36" stop-color="#0af"></stop><stop offset="0.44" stop-color="#00a6f9"></stop><stop offset="0.56" stop-color="#019ae8"></stop><stop offset="0.7" stop-color="#0286cb"></stop><stop offset="0.85" stop-color="#036aa4"></stop><stop offset="1" stop-color="#054975"></stop></linearGradient></defs><path class="42bb7f56-e3b9-44f7-85de-bee213c97c6d" d="M361.2,166.9h31.1c1.6,10.6,6.5,19,14.8,25s18.8,9.2,31.9,9.2c10.7,0,19.1-2.2,25.3-6.5a20.5,20.5,0,0,0,9.1-17.7c0-11.7-8.6-19-25.8-22l-29.1-5.5c-33.3-6.3-49.9-23-49.9-50.3,0-16.5,6-29.8,18.1-39.9s28-15.1,47.8-15.1a98,98,0,0,1,19,1.7,81.6,81.6,0,0,1,18.4,5.8A63.6,63.6,0,0,1,488,62a52,52,0,0,1,11.8,16,62.8,62.8,0,0,1,6.1,22.2H474.1c-1.5-9.3-5.3-16.5-11.5-21.6s-14.9-7.8-26.1-7.8-19.3,2.3-25.7,6.8-9.5,10.8-9.5,18.9a17.4,17.4,0,0,0,7.2,14.7c4.8,3.5,12.1,6.2,21.8,8.1l22.4,4.4q26.3,5.5,39.3,17.1c8.8,7.8,13.2,18.6,13.2,32.5,0,16.5-6.2,29.8-18.7,39.9s-28.9,15.2-49.3,15.2-39.4-5.5-53.1-16.5S362.8,185.9,361.2,166.9Z"></path><path class="42bb7f56-e3b9-44f7-85de-bee213c97c6d" d="M527.2,57.3a18.1,18.1,0,0,1,18.5-18.5,19,19,0,0,1,13.5,5.3,17.7,17.7,0,0,1,5.5,13.2A16.9,16.9,0,0,1,559.2,70a19.3,19.3,0,0,1-13.5,5.2A18.3,18.3,0,0,1,532.5,70,17.1,17.1,0,0,1,527.2,57.3Zm3.6,167.4v-123H561v123Z"></path><path class="42bb7f56-e3b9-44f7-85de-bee213c97c6d" d="M583,163.1a65.5,65.5,0,0,1,8.3-32.3,61.7,61.7,0,0,1,22.6-23.3,59.9,59.9,0,0,1,31.3-8.6c14.4,0,27,3.8,37.6,11.4V40.1H713V224.7H682.8v-8.9c-10.6,7.9-23.2,11.8-37.6,11.8a59.8,59.8,0,0,1-31.3-8.5,62.2,62.2,0,0,1-22.6-23.5A65.8,65.8,0,0,1,583,163.1Zm30.2,0a38.8,38.8,0,0,0,10.4,27.1,33.6,33.6,0,0,0,25.9,11.4q21.4,0,33.3-17.4V142.1c-7.9-11.5-19.1-17.2-33.3-17.2a33.9,33.9,0,0,0-25.9,11.3A38.6,38.6,0,0,0,613.2,163.1Z"></path><path class="42bb7f56-e3b9-44f7-85de-bee213c97c6d" d="M733,163.4q0-27.9,18.1-46.2t47.2-18.3a60.5,60.5,0,0,1,30.5,7.8,55.8,55.8,0,0,1,21.5,22.1c5.3,9.5,7.9,20.3,8,32.4a97.8,97.8,0,0,1-.7,13.9H763.2q3,12.5,12,19.8c6,5,13.9,7.5,23.8,7.5,12.2,0,20.6-3.9,25-11.7h32c-3.4,11.2-10.4,20.2-20.9,26.9s-22.8,10-36.8,10q-29.1,0-47.2-18.3C739,197.2,733,181.8,733,163.4Zm30-10.7h64.7c-1-8.8-4.2-15.8-9.6-20.9s-12.6-7.6-21.4-7.6-16.6,2.6-22.4,7.9S764.8,144.2,763,152.7Z"></path><path class="42bb7f56-e3b9-44f7-85de-bee213c97c6d" d="M877.3,224.7v-123h30.2v8.6a49.2,49.2,0,0,1,14.4-9.3c5-2.1,11.3-3.1,18.6-3.1a52.8,52.8,0,0,1,22.5,4.8,49.5,49.5,0,0,1,17.7,13.8,69.3,69.3,0,0,1,20.7-14.1c7.2-3,15.7-4.5,25.6-4.5,15.4,0,28.2,5.4,38.3,16.3s15.3,25.1,15.3,42.6v67.9h-30.3v-66c0-10.8-2.5-19-7.6-24.8s-12.3-8.7-21.9-8.7-20.6,5.6-28.4,16.9a68.4,68.4,0,0,1,1.7,14.7v67.9H963.9v-66c0-10.8-2.6-19-7.8-24.8s-12.4-8.7-21.8-8.7-18.7,5.4-26.8,16.4v83.1Z"></path><path class="42bb7f56-e3b9-44f7-85de-bee213c97c6d" d="M1099,163.4a65.8,65.8,0,0,1,8.3-32.5,62,62,0,0,1,22.6-23.4,60.2,60.2,0,0,1,31.3-8.6c14.4,0,27,3.8,37.6,11.4v-8.6H1229v123h-30.2v-8.6c-10.8,7.7-23.3,11.5-37.6,11.5a60.1,60.1,0,0,1-31.3-8.5,62.7,62.7,0,0,1-22.6-23.4A65.3,65.3,0,0,1,1099,163.4Zm30.3,0a38.4,38.4,0,0,0,10.3,26.9,34,34,0,0,0,25.9,11.3q21.6,0,33.3-17.4V142.3q-11.7-17.4-33.3-17.4a33.8,33.8,0,0,0-25.9,11.4A38.9,38.9,0,0,0,1129.3,163.4Z"></path><path class="42bb7f56-e3b9-44f7-85de-bee213c97c6d" d="M1254.2,57.3a18.1,18.1,0,0,1,18.5-18.5,19,19,0,0,1,13.5,5.3,17.4,17.4,0,0,1,5.5,13.2,16.6,16.6,0,0,1-5.5,12.7,19.3,19.3,0,0,1-13.5,5.2,18.3,18.3,0,0,1-13.2-5.2A17.1,17.1,0,0,1,1254.2,57.3Zm3.6,167.4v-123H1288v123Z"></path><path class="42bb7f56-e3b9-44f7-85de-bee213c97c6d" d="M1317.3,224.7V40.1h30.2V224.7Z"></path><path class="b981284c-cf0b-40ba-b53e-df02eae29f0b" d="M200.5,171.6c-12.6,12.6-103,7-94-53,5.7-37.9,28-60-4-85-19.1-14.9-32-6-41-13C47,9.3,44.3-2.7,40.5.6c-23,20-15,45-3,78,7.4,20.2-39.9,65.4-13,118,20,39,128,104,200-19,7.9-13.4,30-26,34-52-2-6-24,8-31,20,4-18-18.3-43.4-23-34C189.5,141.6,212.5,159.6,200.5,171.6Z"></path><path class="31876317-9124-4b00-a73a-e476ee99c364" d="M131,248.4c-49.4,5.4-94.3-28.1-106.5-51.8-16.9-33-4.6-63,5.1-85.9-.3,9.4-1.7,67.6,42.9,107.9C94.1,238.1,117.6,245.4,131,248.4Z"></path><path class="2d4bbcf7-d8c8-4362-b117-e8cccb7275fc" d="M52.6,12.2C45.6,4.3,43.3-1.9,40.5.6a47.2,47.2,0,0,0-8.6,9.6A47.7,47.7,0,0,1,42,10.1,43,43,0,0,1,52.6,12.2Z"></path><path class="28e664f4-b0f8-40c7-9f17-d985031e7d4e" d="M48.5,170.6c-11,55-48.8,63.5-48,73,.5,5.7,57,6,62-10,1.4-4.5,21,3,31-16A113.1,113.1,0,0,1,77,206.1,118.1,118.1,0,0,1,48.5,170.6Z"></path><path class="b9ced626-8cd2-4eea-942d-f2182d2c67ad" d="M72.2,31.7h-.3v.3c.1.1,4.4,6.4,4.4,8.5s.4,1.2,1.3,1.3h.2c1.6,0,4.1-1.5,4.5-3.5S81.5,33.9,72.2,31.7Z"></path></svg>