<svg xmlns="http://www.w3.org/2000/svg" fill="none" height="32" viewBox="0 0 70 32" width="70"><path clip-rule="evenodd" d="M37.9715 19.829H34.0513C33.5043 19.829 33.0941 19.4189 33.0941 18.8718V10.6667C33.0941 10.1197 33.5043 9.70943 34.0513 9.70943H37.9715C40.7522 9.70943 42.7123 11.9886 42.7123 14.7692C42.7123 17.5498 40.7522 19.829 37.9715 19.829ZM38.3818 3.23643H28.1253C27.1225 3.23643 26.2565 4.10257 26.2565 5.10539V30.2679C26.2565 31.1795 26.9402 32 27.8519 32C28.7636 32 29.5841 31.4074 30.2223 30.7237L33.2764 27.3049C33.9601 26.53 34.8718 26.302 35.9202 26.302H38.3818C44.8092 26.302 49.869 21.1966 49.869 14.7692C49.869 8.34189 44.8092 3.23643 38.3818 3.23643ZM58.9859 11.7151C58.5755 11.7151 58.2565 11.3961 58.2565 10.9858V9.84618H53.3334C52.5584 9.84618 52.3306 9.16237 52.832 8.47863L58.302 0.683738C58.7579 0.0455825 59.6696 0.136748 59.6696 1.0484V8.38747H60.9004C61.3106 8.38747 61.6298 8.70655 61.6298 9.11686C61.6298 9.5271 61.3106 9.84618 60.9004 9.84618H59.6696V10.9858C59.6696 11.3961 59.3505 11.7151 58.9859 11.7151ZM54.5186 8.38747H58.2565V3.09968L54.5186 8.38747ZM68.9687 11.7151H63.4075C62.6782 11.7151 62.4047 10.9858 62.9061 10.302L67.0998 4.78631C67.4189 4.37606 67.8291 3.73791 67.8291 3.19092C67.8291 2.14245 67.0998 1.45871 66.0059 1.45871C64.8206 1.45871 64.2736 2.2792 64.1825 2.82619C64.0912 3.19092 63.7266 3.46434 63.3163 3.37325C62.9516 3.32767 62.6782 2.91735 62.7693 2.55269C62.9973 1.27631 64.228 0 66.0059 0C67.7836 0 69.2423 1.41313 69.2423 3.19092C69.2423 4.14815 68.7864 4.87747 68.2395 5.60686L64.6839 10.2564H68.9687C69.379 10.2564 69.6981 10.5755 69.6981 10.9858C69.6981 11.3961 69.379 11.7151 68.9687 11.7151ZM11.4872 27.6696C18.1425 27.6696 22.9744 22.792 22.9744 16.1368V5.10539C22.9744 4.05699 22.1539 3.23643 21.1054 3.23643H17.4132C16.3647 3.23643 15.5442 4.05699 15.5442 5.10539V15.6353C15.5442 18.3704 14.2222 20.3761 11.4872 20.3761C8.75213 20.3761 7.43024 18.3704 7.43024 15.6353V5.10539C7.43024 4.05699 6.60968 3.23643 5.56128 3.23643H1.86895C0.820486 3.23643 0 4.05699 0 5.10539V16.1368C0 22.792 4.83189 27.6696 11.4872 27.6696Z" fill="white" fill-rule="evenodd"></path></svg>